<?xml version="1.0" encoding="UTF-8" standalone="no"?>
<!DOCTYPE svg PUBLIC "-//W3C//DTD SVG 1.1//EN"
 "http://www.w3.org/Graphics/SVG/1.1/DTD/svg11.dtd">
<!-- Generated by graphviz version 2.36.0 (20140111.2315)
 -->
<!-- Title: G Pages: 1 -->
<svg width="202pt" height="312pt"
 viewBox="0.00 0.00 202.00 312.00" xmlns="http://www.w3.org/2000/svg" xmlns:xlink="http://www.w3.org/1999/xlink">
<g id="graph0" class="graph" transform="scale(1 1) rotate(0) translate(4 308)">
<title>G</title>
<polygon fill="white" stroke="none" points="-4,4 -4,-308 198,-308 198,4 -4,4"/>
<g id="clust1" class="cluster"><title>cluster_Global</title>
<path fill="none" stroke="gray" d="M20,-8C20,-8 174,-8 174,-8 180,-8 186,-14 186,-20 186,-20 186,-284 186,-284 186,-290 180,-296 174,-296 174,-296 20,-296 20,-296 14,-296 8,-290 8,-284 8,-284 8,-20 8,-20 8,-14 14,-8 20,-8"/>
<text text-anchor="middle" x="97" y="-283.2" font-family="Times,serif" font-size="11.00" fill="gray">Global</text>
</g>
<!-- \\cartopress_bulkactions -->
<g id="node1" class="node"><title>\\cartopress_bulkactions</title>
<polygon fill="none" stroke="black" points="178,-268 16,-268 16,-232 178,-232 178,-268"/>
<text text-anchor="middle" x="97" y="-247.2" font-family="Courier,monospace" font-size="11.00">cartopress_bulkactions</text>
</g>
<!-- \\geocoder_metabox -->
<g id="node2" class="node"><title>\\geocoder_metabox</title>
<polygon fill="none" stroke="black" points="158,-214 36,-214 36,-178 158,-178 158,-214"/>
<text text-anchor="middle" x="97" y="-193.2" font-family="Courier,monospace" font-size="11.00">geocoder_metabox</text>
</g>
<!-- \\cartopress_settings -->
<g id="node3" class="node"><title>\\cartopress_settings</title>
<polygon fill="none" stroke="black" points="168,-160 26,-160 26,-124 168,-124 168,-160"/>
<text text-anchor="middle" x="97" y="-139.2" font-family="Courier,monospace" font-size="11.00">cartopress_settings</text>
</g>
<!-- \\cartopress_sync -->
<g id="node4" class="node"><title>\\cartopress_sync</title>
<polygon fill="none" stroke="black" points="155,-106 39,-106 39,-70 155,-70 155,-106"/>
<text text-anchor="middle" x="97" y="-85.2" font-family="Courier,monospace" font-size="11.00">cartopress_sync</text>
</g>
<!-- \\cartopress -->
<g id="node5" class="node"><title>\\cartopress</title>
<polygon fill="none" stroke="black" points="138.5,-52 55.5,-52 55.5,-16 138.5,-16 138.5,-52"/>
<text text-anchor="middle" x="97" y="-31.2" font-family="Courier,monospace" font-size="11.00">cartopress</text>
</g>
</g>
</svg>
