<?xml version="1.0" encoding="utf-8"?>
<!-- Generator: Adobe Illustrator 21.0.0, SVG Export Plug-In . SVG Version: 6.00 Build 0)  -->
<svg version="1.1" id="Layer_1" xmlns="http://www.w3.org/2000/svg" xmlns:xlink="http://www.w3.org/1999/xlink" x="0px" y="0px"
	 viewBox="0 0 81.5 96.6" style="enable-background:new 0 0 81.5 96.6;" xml:space="preserve">
<style type="text/css">
	.st0{fill:#FFFFFF;}
</style>
<g>
	<g>
		<path class="st0" d="M0,84.1c0-5.8,4.3-10.3,10.3-10.3c6,0,10.3,4.5,10.3,10.3c0,5.8-4.3,10.3-10.3,10.3C4.3,94.5,0,89.9,0,84.1z
			 M17.7,84.1c0-4.3-2.9-7.8-7.4-7.8s-7.4,3.5-7.4,7.8c0,4.3,2.9,7.8,7.4,7.8S17.7,88.4,17.7,84.1z"/>
		<path class="st0" d="M38.1,78.5c-1.1-1.4-2.9-2.2-4.8-2.2c-4.4,0-7.3,3.5-7.3,8c0,4.1,2.8,7.7,7.3,7.7c2.3,0,4-1,5.1-2.6l2.3,1.7
			c-0.6,0.8-2.9,3.5-7.5,3.5c-6.3,0-10.1-5.2-10.1-10.2c0-6.1,4.2-10.5,10.3-10.5c2.6,0,5.3,1,6.9,3.1L38.1,78.5z"/>
		<path class="st0" d="M43.9,74.3h2.7v8.2h10.2v-8.2h2.7v19.7h-2.7v-9H46.6v9h-2.7V74.3z"/>
		<path class="st0" d="M70.7,74.3h2.4l8.4,19.7h-3.1l-2-4.9h-9.4l-1.9,4.9H62L70.7,74.3z M75.5,86.7l-3.7-9h-0.1l-3.7,9H75.5z"/>
	</g>
	<g>
		<g>
			<path class="st0" d="M34.8,26.4c0-3.3,2.7-6,6-6l0,0c3.3,0,6,2.7,6,6l0,0c0,3.3-2.7,6-6,6l0,0V32v-0.4c2.9,0,5.2-2.3,5.2-5.2l0,0
				c0-2.9-2.3-5.2-5.2-5.2l0,0c-2.9,0-5.2,2.3-5.2,5.2l0,0c0,2.9,2.3,5.2,5.2,5.2l0,0V32v0.4C37.5,32.4,34.8,29.7,34.8,26.4
				L34.8,26.4z"/>
			<path class="st0" d="M30,26.4c0-5.9,4.8-10.8,10.7-10.8l0,0c5.9,0,10.7,4.8,10.7,10.8l0,0c0,5.9-4.8,10.7-10.7,10.7l0,0v-0.4
				v-0.4c5.5,0,10-4.5,10-10l0,0c0-5.5-4.5-10-10-10l0,0c-5.5,0-10,4.5-10,10l0,0c0,5.5,4.5,10,10,10l0,0v0.4v0.4
				C34.8,37.1,30,32.3,30,26.4L30,26.4z"/>
			<path class="st0" d="M24.8,26.4c0-8.8,7.1-15.9,15.9-15.9l0,0c8.8,0,15.9,7.1,15.9,15.9l0,0c0,8.8-7.1,15.9-15.9,15.9l0,0v-0.4
				v-0.4c8.4,0,15.2-6.8,15.2-15.2l0,0c0-8.4-6.8-15.2-15.2-15.2l0,0c-8.4,0-15.2,6.8-15.2,15.2l0,0c0,8.4,6.8,15.1,15.2,15.2l0,0
				v0.4v0.4C32,42.3,24.8,35.2,24.8,26.4L24.8,26.4z"/>
			<path class="st0" d="M19.9,26.4c0-11.6,9.3-20.9,20.9-20.9l0,0c11.5,0,20.9,9.3,20.9,20.9l0,0c0,11.5-9.4,20.9-20.9,20.9l0,0
				v-0.4v-0.4c11.1,0,20.1-9,20.1-20.1l0,0c0-11.1-9-20.1-20.1-20.1l0,0c-11.1,0-20.1,9-20.1,20.1l0,0c0,11.1,9,20.1,20.1,20.1l0,0
				v0.4v0.4C29.2,47.3,19.9,37.9,19.9,26.4L19.9,26.4z"/>
			<path class="st0" d="M14.4,26.4C14.4,11.8,26.2,0,40.8,0l0,0c14.6,0,26.4,11.8,26.4,26.4l0,0c0,14.6-11.8,26.4-26.4,26.4l0,0
				v-0.4V52c14.1,0,25.6-11.5,25.6-25.6l0,0c0-14.2-11.5-25.6-25.6-25.6l0,0c-14.1,0-25.6,11.5-25.6,25.6l0,0
				C15.2,40.5,26.6,52,40.8,52l0,0v0.4v0.4C26.2,52.8,14.4,41,14.4,26.4L14.4,26.4z"/>
			<g>
				<g>
					<polygon class="st0" points="40.4,20.8 40.4,0.4 41.1,0.4 41.1,20.8 40.4,20.8 					"/>
				</g>
			</g>
			<g>
				<g>
					<polygon class="st0" points="22.1,8.3 22.7,7.7 37.1,22.2 36.5,22.7 22.1,8.3 					"/>
				</g>
			</g>
			<g>
				<g>
					<polygon class="st0" points="14.8,26.8 14.8,26 35.2,26 35.2,26.8 14.8,26.8 					"/>
				</g>
			</g>
			<g>
				<g>
					<polygon class="st0" points="22.1,44.5 36.5,30.1 37.1,30.6 22.7,45 22.1,44.5 					"/>
				</g>
			</g>
			<g>
				<g>
					<polygon class="st0" points="40.4,52.4 40.4,32 41.1,32 41.1,52.4 40.4,52.4 					"/>
				</g>
			</g>
			<g>
				<g>
					<polygon class="st0" points="44.5,30.6 45,30.1 59.4,44.5 58.9,45 44.5,30.6 					"/>
				</g>
			</g>
			<g>
				<g>
					<polygon class="st0" points="46.4,26.8 46.4,26 66.8,26 66.8,26.8 46.4,26.8 					"/>
				</g>
			</g>
			<g>
				<g>
					<polygon class="st0" points="44.5,22.2 58.9,7.7 59.4,8.3 45,22.7 44.5,22.2 					"/>
				</g>
			</g>
		</g>
		<g>
			<path class="st0" d="M36.8,28.1c0.2,0,0.2,0.2,0.3,0.3c0,0,0.1,0,0.1,0c0.3-0.4,0.6-0.8,0.6-1.3c0,0,0.1-0.1,0.1-0.1
				c-0.1-0.2-0.3-0.3-0.4-0.5c-0.1,0.3-0.5,0.1-0.7,0.2c0,0,0,0.1,0,0.1c0.1,0,0.2,0,0.3,0.1c0.1,0.1,0.1,0.2,0,0.4c0,0-0.1,0-0.1,0
				C36.8,27,36.6,27,36.3,27c0.1,0.1-0.1,0.1,0,0.1c-0.3-0.1-0.7,0.1-1,0.1c-0.1,0-0.2-0.1-0.3-0.2c-0.1,0.1-0.3,0.4-0.4,0.3
				c-0.1,0-0.2-0.2-0.1-0.2c0.2-0.1,0.4-0.2,0.4-0.4c0.1-0.1,0-0.3,0.1-0.5c0.1-0.2,0.2-0.4,0.4-0.4c0.2,0,0.6,0.2,0.8,0
				c0.1-0.1,0.2,0.1,0.3,0.2c0,0,0,0.1,0,0.1c-0.1,0.1-0.3,0.1-0.4,0.3c-0.1,0.1,0,0.2,0.1,0.3c0.2,0.1,0.2-0.1,0.3-0.2
				c0.1-0.1,0.2,0,0.3,0c0,0,0-0.1,0-0.1c0.2-0.1,0.4,0,0.6,0c0.2,0,0.1-0.5,0.1-0.7c0-0.1,0-0.1,0-0.2c0,0,0-0.1,0-0.1
				c0.1-0.2,0.4-0.2,0.4,0c0,0.1,0,0.1,0,0.2c0,0.1,0.1,0.1,0.2,0.1c0,0,0.1,0,0.1-0.1c0-0.1,0-0.2,0.1-0.3c0.1-0.1,0.2,0.1,0.4,0.2
				c0.1,0,0.3,0,0.4,0c0.1-0.1,0.1-0.2,0-0.3c0-0.1-0.1-0.1-0.1,0c-0.1,0.1-0.3,0.1-0.4,0.1c-0.1,0-0.2-0.2-0.3-0.2
				c-0.1-0.1-0.3,0.1-0.4,0c-0.1-0.1-0.2-0.2-0.1-0.3c0-0.1,0.1-0.1,0.2-0.2c0.2-0.1,0.4-0.1,0.5-0.2c0.1-0.1,0.1-0.3,0.1-0.4
				c0-0.1,0.1-0.1,0.1-0.1c0.2-0.1,0.4,0,0.6-0.1c0.2-0.1,0.3-0.2,0.5-0.4c0.1-0.1,0.2-0.1,0.3-0.1c0.1,0,0.1-0.1,0.1-0.1
				c0-0.3-0.1-0.6,0-1c0-0.1,0.2-0.1,0.1-0.2c0,0-0.2,0-0.2,0c-0.1-0.1-0.1-0.2,0-0.3c0.1-0.1,0.3,0,0.3-0.1
				c0.1-0.2,0.1-0.5-0.1-0.5c-0.2-0.1-0.4,0.1-0.6,0c0,0.1-0.1,0.1-0.1,0.1C39,21,38.9,20.7,39,20.5c0,0,0-0.1,0.1,0
				c0.1,0,0.1-0.1,0.1-0.1c-0.1,0-0.1,0-0.2,0c-0.2,0.1-0.3,0.3-0.5,0.5c0,0,0,0.1,0,0.1c0,0,0,0.1,0.1,0.1c0,0.1,0,0.4-0.2,0.3
				c0,0,0-0.1,0-0.1c-0.1,0-0.2-0.1-0.2,0c0,0.2,0.3,0.2,0.2,0.4c-0.1,0.2-0.4,0.3-0.7,0.4c-0.5,0.2-1.1,0-1.6,0.1
				c-0.3,0.1-0.6,0-0.9-0.1c-0.2,0-0.3,0.2-0.4,0.3c0,0,0-0.1-0.1,0c0-0.1,0.1-0.2,0-0.3c0-0.1-0.2-0.1-0.2-0.2
				c-0.4-0.7-1.3-0.6-1.9-0.5c-0.1,0-0.2,0.1-0.3,0.2c-0.1,0.1-0.3,0-0.5,0.1c-0.1,0-0.1,0.1-0.2,0.1c-0.2,0.1-0.4-0.1-0.6,0
				c-0.1,0.1-0.3,0.1-0.4,0.2c0,0,0,0.1-0.1,0.2c0,0.1-0.1,0-0.1,0c-0.2,0.1-0.5,0-0.5,0.2c0,0,0.1,0,0.1,0c0.1,0.2,0,0.5-0.2,0.5
				c-0.2,0.1-0.5,0.1-0.7,0.2c-0.1,0-0.3,0.1-0.3,0.2c-0.4,0.6-0.7,1.3-0.7,2.1c0,0,0,0,0,0.1c0,0,0.1,0.1,0.1,0.1
				c-0.4,0.8-0.6,1.2-1,1.9c-0.2,0.3-0.4,1-0.1,1.3c0.2,0.1-0.1,0.4-0.3,0.4c-0.3,0-0.7-0.1-0.8-0.4c-0.1-0.1-0.3-0.2-0.5-0.2
				c0,0,0,0,0,0l-0.1,0c-0.2,0-0.4,0-0.6,0c-0.3,0.1-0.3,0.5-0.5,0.7c-0.1,0.2-0.5,0.2-0.6,0.4c-0.1,0.1,0.1,0.2,0,0.4
				c-0.1,0.1-0.2,0.1-0.2,0.2c0,0.1,0,0.1-0.1,0.2c-0.1,0.3-0.1,0.6-0.1,0.9c0,0.1,0,0.2,0,0.2c0.1,0.3,0,0.6-0.2,0.8
				c-0.2,0.3-0.6,0.3-0.9,0.4c-0.1,0.1-0.3-0.1-0.5,0c-0.4,0.1-0.7-0.1-1.1,0c0,0-0.1,0.1-0.1,0.1c-0.2,0.1-0.2-0.1-0.3-0.2
				c-0.1-0.1-0.1-0.3-0.2-0.4c-0.2-0.1-0.5,0-0.7,0.2c0.1,0,0,0.1,0.1,0.1c-0.2,0-0.4,0.2-0.6,0.3c-0.2,0.1-0.3-0.3-0.3-0.5
				c0-0.1-0.2-0.2-0.4-0.1c0,0-0.1,0.1-0.1,0.1c-0.1,0-0.1-0.1-0.2,0c-0.2,0.2,0.1,0.2,0.2,0.3c0.1,0.1,0,0.1-0.1,0.2
				c-0.1,0.1-0.2-0.1-0.2,0c0,0.1-0.1,0.2-0.2,0.1c0,0,0,0,0,0.1c0,0,0,0.1,0.1,0c-0.1,0-0.2,0.1-0.2,0c-0.1,0-0.1-0.2-0.1-0.3
				c0,0-0.1,0-0.1,0c0,0.2,0,0.2-0.2,0.2c0,0.1-0.1,0.2,0,0.2c0.1,0.1,0.2-0.1,0.3,0c0.1,0.1,0.1,0.4,0.2,0.6c0,0,0,0-0.1,0
				c0,0.1,0.1,0.4-0.1,0.3c-0.2-0.1,0-0.4-0.1-0.6c0,0-0.1,0-0.2,0c0.1,0.3-0.1,0.6,0.1,0.8c0.1,0.1-0.3,0.3-0.1,0.4
				c0.1,0.1,0.2,0.2,0.3,0.2c0.1,0,0-0.1,0-0.2c0-0.1,0.2-0.1,0.3,0c0,0.1,0.1,0.1,0.1,0.2c-0.1,0-0.2,0-0.3,0.1
				c0.1,0.2,0,0.3-0.1,0.5c0,0,0.1,0.1,0.1,0.2c0,0.1,0.3,0,0.3,0.1c0.1,0.1-0.1,0.2-0.1,0.3c0,0.1,0.2,0,0.2,0.1
				c0.1,0.1,0.1,0.2,0,0.3c0.1,0,0.2,0.1,0.2,0.2c0.1,0,0.1-0.1,0.1-0.1c0.2,0,0.1-0.2,0.2-0.4c-0.1,0-0.1-0.1-0.2-0.1
				c0-0.1,0-0.3,0-0.4c-0.1-0.1-0.2-0.2-0.3-0.3c0.2,0,0.3,0,0.4-0.2c0.1-0.1,0.2,0,0.2,0.1c0,0,0,0.1,0,0.1c0.1,0,0.1,0.1,0.2,0.2
				c0.1,0.1,0.2,0.2,0.3,0.3c0.2,0.1,0.4,0.1,0.6,0c0-0.1,0-0.2,0.1-0.2c0.1-0.1,0.1,0.1,0.2,0.1c0,0.2,0.1,0.4,0.2,0.4
				c0,0,0.1,0,0.1,0c0.1,0,0.1,0.1,0.2,0.2c0.1,0,0.1,0,0.2,0c0.1,0,0.1,0.1,0.1,0.2c0,0,0.1,0,0.1,0.1c0.2,0,0.4,0,0.4,0.2
				c0.1,0.2,0.3,0.4,0.4,0.6c0,0.1,0.2,0.1,0.3,0.2c0,0.1,0.1,0.1,0.1,0.1c0.1,0.1,0.3,0.2,0.5,0.2c0.1,0,0.2-0.1,0.3-0.2
				c0.1,0,0.1,0,0.1,0.1c0.2,0.3,0.2,0.6,0.5,0.8c0.1,0.1,0.2,0.2,0.3,0.3c0.1,0,0.2-0.1,0.3,0c0.1,0,0.1,0.2,0.1,0.2
				c0.2,0.1,0.4,0.2,0.4,0.4c0,0,0,0.1,0.1,0.1c0.2,0,0.3-0.1,0.4,0c0.1,0.1,0.3,0.2,0.4,0.3c0,0,0.1,0.1,0.2,0c0-0.1,0-0.2,0.1-0.2
				c0.1-0.1,0.2-0.1,0.3-0.1c0.1,0,0.1-0.3,0.3-0.3c0.2,0,0.3,0.2,0.5,0.3c0,0,0.1,0,0.1,0.1c0.2,0.1,0.1,0.5,0.3,0.5
				c0.3,0,0.4,0.2,0.7,0.3c0.2,0.1,0.3,0.1,0.5,0.2c0.1,0,0.1,0,0.2,0c0.1,0,0.2-0.1,0.3-0.1c0.2-0.1,0.5-0.2,0.8-0.3
				c0.1,0,0.1-0.1,0.2-0.1c0.4-0.2,0.8,0.2,1.2-0.1c0.1,0,0.2,0,0.4-0.1c0.2-0.2,0.3-0.5,0.2-0.8c-0.2-0.4-0.3-0.9-0.6-1.3
				c-0.1-0.2-0.3-0.3-0.5-0.5c0-0.1-0.2,0-0.3-0.1c-0.2-0.1-0.1-0.3-0.1-0.4c0-0.1-0.2-0.1-0.2-0.1c-0.1-0.1,0-0.2,0-0.3
				c0,0-0.1-0.1-0.1-0.1c-0.2,0-0.4-0.1-0.7-0.1c-0.1,0-0.1-0.1-0.2-0.1c0,0,0-0.1,0-0.1c0.1-0.1,0.3-0.2,0.5-0.3
				c-0.1-0.1-0.1-0.2,0-0.2c0.1-0.1,0.1-0.3,0-0.3c0,0,0-0.1-0.1-0.1c0-0.2,0.1-0.4,0-0.6c-0.1-0.2-0.3-0.3-0.4-0.5
				c0,0-0.1-0.1-0.1-0.1c0-0.3,0.1-0.6,0-0.8c0-0.1-0.2-0.2-0.1-0.3c0,0,0.1-0.1,0.2-0.1c0.2-0.1,0.3-0.2,0.2-0.3
				c-0.1-0.1-0.3,0-0.4,0c-0.1,0-0.1-0.1-0.1-0.1c0-0.1,0.1-0.3,0-0.3c-0.1,0-0.2-0.1-0.2-0.2c-0.1-0.1,0-0.3,0.1-0.4
				c-0.1,0,0-0.1-0.1-0.1c0-0.1,0.1-0.3,0-0.4c0-0.1-0.2-0.3-0.3-0.2c0,0,0,0,0,0c-0.1,0.1-0.2,0.1-0.3,0c0,0,0-0.1,0-0.2
				c0.1-0.1,0.2,0,0.3-0.1c0.1-0.1,0-0.3,0-0.4c-0.2-0.2-0.3-0.3-0.2-0.6c-0.2,0-0.6-0.1-0.5-0.4c0-0.3,0-0.5-0.1-0.8
				c-0.1-0.2,0-0.4,0.1-0.5c0,0,0.1-0.1,0.1-0.1c0.3,0,0.6,0,0.8-0.2c0.1-0.2-0.1-0.5,0.1-0.6c0.3-0.2,0.7-0.1,1.1-0.3
				c0.1-0.1,0.1-0.2,0.1-0.4c0-0.1-0.1-0.3-0.2-0.4c-0.1-0.2-0.4-0.1-0.5-0.3c0-0.1,0-0.2,0-0.3c0.1-0.1,0.2-0.3,0.3-0.3
				c0.3-0.1,0.6,0,0.9,0.1c0.1,0,0.2,0.1,0.2,0.2c0,0,0,0.1,0,0.1c0.1,0.4,0.2,0.7,0.1,1.1c-0.1,0.1-0.2,0.2-0.2,0.4
				c0.1-0.1,0.1,0,0.1,0.1c0.1,0.2,0.2,0.6,0,0.7c-0.3,0.2-0.2-0.1-0.5,0c-0.1,0-0.2,0-0.2,0.1c0,0.1,0.1,0.2,0.2,0.3
				c0.6,0.2,1,0.2,1.6,0.3c0.1,0,0.2,0.2,0.4,0.2c0.1,0,0.3,0.1,0.4-0.1c0-0.1,0.2,0,0.2,0c0,0.1,0.1,0.1,0.2,0.2
				c0.2,0.1,0.1,0.6,0.4,0.5c0.1-0.1,0.3,0,0.4,0c-0.2,0.2-0.1,0.4,0.1,0.6c0.1,0.2,0.3,0.2,0.5,0.4c0.1,0.1,0.3,0.1,0.3-0.1
				c0-0.2-0.2-0.4,0.1-0.6c0.3,0.4-0.1,0.8,0.2,1.1c0,0,0,0,0,0.1c0.1,0.1,0.2,0.3,0.4,0.3c0.1,0,0.2-0.1,0.2-0.3c0,0,0-0.1,0-0.1
				c0-0.1,0.1-0.2,0.1-0.3c0.1-0.2,0.3-0.3,0.2-0.5c0-0.1,0-0.1,0-0.2c0-0.2,0.3-0.4,0.5-0.4c0.1,0,0,0,0.1-0.1
				c0.1-0.1,0.1-0.3,0.2-0.4c0.1-0.1,0.2-0.2,0.2-0.3c0-0.1,0.1-0.1,0.1-0.2C36.7,28.2,36.7,28.1,36.8,28.1z"/>
			<path class="st0" d="M29.2,27.6c-0.1-0.1-0.2,0-0.2,0.1c-0.1,0.1-0.1,0.2,0,0.2c0,0.1,0.1,0.2,0.1,0.3c0,0.2,0,0.4,0,0.5
				c0,0.1,0.2,0.4,0.3,0.2c0.1-0.2,0.3-0.5,0.1-0.7C29.4,28.1,29.5,27.8,29.2,27.6z"/>
			<path class="st0" d="M28.9,29.2c0,0.1,0.1,0.1,0.1,0.2c0.1,0.1,0.3,0.1,0.4,0c0-0.1,0-0.2-0.1-0.2c-0.1-0.1-0.2-0.1-0.2-0.1
				c0,0-0.1-0.1-0.1,0C28.9,29.1,28.9,29.1,28.9,29.2z"/>
			<path class="st0" d="M29.3,29.9c0-0.3-0.2-0.4-0.4-0.2c-0.2,0.2,0,0.5,0.2,0.8c0,0.1,0.1,0.1,0.1,0.2c0.1,0.1,0.2,0.1,0.3,0
				c0-0.1,0.1-0.1,0.1-0.2C29.7,30.3,29.6,29.9,29.3,29.9z"/>
			<path class="st0" d="M28.8,28.5C28.8,28.4,28.7,28.4,28.8,28.5c-0.2,0-0.2,0.1-0.2,0.2c0,0.1,0,0.3,0.1,0.4c0,0.1,0.1,0,0.2-0.1
				C28.9,28.8,28.8,28.6,28.8,28.5z"/>
			<path class="st0" d="M29.5,29.6c0,0,0.1-0.1,0.1-0.2c0.1,0,0.1,0,0.2-0.1c0,0,0-0.1,0-0.1c-0.2,0-0.3,0.1-0.4,0.2
				C29.3,29.5,29.5,29.6,29.5,29.6z"/>
			<path class="st0" d="M29.3,31.2c0,0.1,0,0.2,0.1,0.3c0,0,0.1,0,0.1,0c0-0.1,0.1-0.2,0-0.2c0,0-0.1,0-0.1,0
				C29.4,31.1,29.4,31.2,29.3,31.2z"/>
			<path class="st0" d="M29.8,32.5c0-0.1,0.1-0.2,0-0.3c0,0-0.1,0-0.2,0C29.6,32.3,29.7,32.5,29.8,32.5z"/>
			<path class="st0" d="M18.4,37c0,0,0,0.2,0,0.2c0.1,0.1,0.2,0,0.3,0C18.6,37.1,18.6,36.9,18.4,37z"/>
			<path class="st0" d="M19.6,38.2c-0.1,0.2,0.1,0.4,0.4,0.4c0-0.1,0-0.2,0-0.3C19.8,38.2,19.6,38.1,19.6,38.2z"/>
			<path class="st0" d="M20.1,38.9c0,0.3,0.1,0.5,0.4,0.6C20.6,39.1,20.4,38.9,20.1,38.9z"/>
			<path class="st0" d="M38.2,29.7c0.3-0.1,0.7-0.2,1-0.2c0.8,0,0.7-1,1.1-1.7c0.1-0.2,0-0.5-0.2-0.7c-0.3-0.4-1.1,0.1-1.3-0.4
				c-0.1-0.3,0.6,0.2,0.6-0.2c0-0.1-0.1-0.2-0.1-0.3c-0.1-0.1-0.3-0.1-0.4,0c-0.4,0.4-0.5,1-0.7,1.4c-0.5,0.8-1.3,1.3-1.7,2.2
				c-0.1,0.1,0,0.2,0.1,0.3C37.3,30.3,37.7,29.8,38.2,29.7z"/>
			<path class="st0" d="M41.4,27.8c-0.1,0-0.2,0.1-0.3,0.1c0,0.1-0.1,0.3,0,0.4c0,0.1,0.2,0.1,0.3,0c0.1-0.1,0-0.2-0.1-0.3
				C41.4,28,41.5,27.9,41.4,27.8z"/>
			<path class="st0" d="M39,30.5c0.2,0.3,0.9,0.2,0.8-0.1c-0.1-0.2-0.5-0.4-0.8-0.3C38.9,30.1,39.4,30.3,39,30.5z"/>
			<path class="st0" d="M39.9,32.8c0.3-0.1,0.1-0.4,0.2-0.6c-0.3,0.1-0.4,0.3-0.5,0.6C39.7,32.8,39.8,32.8,39.9,32.8z"/>
			<path class="st0" d="M43.1,28c0,0,0.1-0.2,0-0.3c-0.1,0-0.2,0-0.3,0c-0.1,0-0.2-0.1-0.2-0.3c0-0.2-0.2-0.3-0.1-0.5
				c-0.2,0.1-0.2,0.3-0.1,0.4C42.6,27.7,42.8,28.1,43.1,28z"/>
			<path class="st0" d="M38.8,25.8c-0.1-0.1-0.2,0-0.1,0.1c0,0.1,0.2,0,0.3,0C38.9,25.9,38.9,25.8,38.8,25.8z"/>
			<path class="st0" d="M17.7,32.7c0-0.1,0-0.1-0.1-0.2c-0.1-0.1-0.2,0-0.2-0.1c0,0.1,0,0.2,0,0.2C17.4,32.7,17.6,32.8,17.7,32.7z"
				/>
			<path class="st0" d="M18.9,32.7c0.1-0.1,0.3-0.1,0.2-0.3c0,0,0,0-0.1,0c-0.2-0.1-0.5-0.1-0.4,0.2C18.7,32.7,18.8,32.8,18.9,32.7z
				"/>
			<path class="st0" d="M39.3,20.1c0-0.1,0.2-0.1,0.2-0.3c0-0.1-0.1-0.1-0.2-0.1C39.3,19.8,39.3,19.9,39.3,20.1
				C39.3,20,39.2,20,39.2,20C39.2,20.1,39.3,20.1,39.3,20.1z"/>
			<path class="st0" d="M40,19.9c0,0,0.1-0.1,0.1-0.2c-0.1-0.1-0.2-0.1-0.2,0C39.7,19.7,39.8,19.9,40,19.9z"/>
			<path class="st0" d="M38,24.6c-0.1,0.2,0.3,0.5,0.5,0.3c0.1-0.1,0.1-0.4-0.1-0.4C38.3,24.5,38.1,24.5,38,24.6z"/>
			<path class="st0" d="M38.5,26c0.1-0.1,0-0.2-0.1-0.2c-0.1-0.1-0.2,0-0.3,0c0,0-0.1,0-0.1,0c0,0.1,0.1,0.1,0.1,0.1
				C38.2,25.9,38.4,26.1,38.5,26z"/>
			<path class="st0" d="M37.9,26.4c-0.1,0.1-0.1,0.3,0,0.3c0.1,0.1,0.3,0,0.3-0.1c0-0.1,0.1-0.3,0-0.4C38.1,26.1,38,26.3,37.9,26.4z
				"/>
			<path class="st0" d="M37.5,25.9c0,0.2-0.1,0.4,0,0.5c0,0.1,0.2,0.1,0.2,0c0.1-0.2,0-0.3,0.1-0.4c0,0-0.1-0.1-0.1,0
				c0,0,0.1-0.1,0-0.1C37.7,25.9,37.6,25.9,37.5,25.9z"/>
			<path class="st0" d="M40,35.9C40,35.9,40,35.9,40,35.9C40,35.9,40,35.9,40,35.9C40,35.9,40,35.9,40,35.9z"/>
			<path class="st0" d="M51.3,38.5C51.3,38.5,51.3,38.5,51.3,38.5C51.3,38.5,51.3,38.5,51.3,38.5C51.3,38.5,51.3,38.5,51.3,38.5z"/>
			<path class="st0" d="M40.9,31.7C40.8,31.7,40.8,31.6,40.9,31.7c-0.1-0.1-0.2-0.1-0.2-0.2c-0.1-0.1-0.2,0.1-0.3,0.1c0,0,0,0,0,0.1
				c0.1,0.2,0,0.2-0.1,0.3c-0.1,0.1,0.1,0.1,0.2,0.3c0.1,0.1-0.1,0.3-0.1,0.4c0,0-0.1,0.1-0.2,0.2c0,0-0.1,0.1-0.1,0.2
				c0.1,0.1,0.3-0.1,0.5-0.2c0.1,0,0.1,0,0.2-0.1c0.1-0.1,0.3-0.1,0.3-0.3c0-0.1-0.2-0.1-0.3-0.1c0.1-0.3,0-0.3,0-0.6
				C40.8,31.8,40.9,31.7,40.9,31.7z"/>
			<path class="st0" d="M42,35.1C42,35.1,42,35.1,42,35.1c0.2-0.1,0.2-0.2,0.2-0.3c0-0.1-0.2-0.1-0.2,0C41.9,34.9,41.9,35,42,35.1z"
				/>
			<path class="st0" d="M42.1,34.6c0.1,0,0-0.1,0-0.2c0,0-0.1-0.1-0.1,0C41.9,34.5,42,34.6,42.1,34.6z"/>
			<path class="st0" d="M43.2,35.1C43.2,35.1,43.1,35.1,43.2,35.1C43.1,35,43,35,42.9,35c0,0-0.1,0-0.2,0c0,0.1,0,0.2,0.1,0.2
				C42.9,35.3,43.1,35.3,43.2,35.1z"/>
			<path class="st0" d="M45,34.9c0,0,0-0.2,0-0.2c-0.2,0-0.3,0.1-0.5,0.1c0,0.1,0,0.1-0.1,0.2c0,0-0.1,0-0.1,0
				C44.6,35.2,44.9,35,45,34.9z"/>
			<path class="st0" d="M45.7,34.3c0.1,0.3,0.4,0.1,0.4,0c0-0.1-0.2-0.1-0.3,0c0,0,0-0.1,0-0.1C45.9,34.2,45.7,34.2,45.7,34.3z"/>
			<path class="st0" d="M54.3,28.6c-0.1,0.2,0.2,0.2,0.3,0.2c0.2,0,0.4,0,0.5-0.1c0.1-0.3-0.2-0.5-0.5-0.5
				C54.4,28.2,54.4,28.4,54.3,28.6z"/>
			<path class="st0" d="M54.4,37.7c-0.1,0-0.3,0-0.3,0c-0.2,0.9-1,2.1,0,2.7c0.4,0.3,1-0.3,1-0.5C55.2,39.2,55.2,38.1,54.4,37.7z"/>
			<path class="st0" d="M51.6,33.8c-0.1,0.1-0.2,0.4,0.1,0.4c0.1,0,0.2-0.1,0.3-0.1c0.1-0.1,0.1-0.2,0-0.2
				C51.8,33.8,51.7,33.8,51.6,33.8z"/>
			<path class="st0" d="M52.3,42.9c-0.1,0.1-0.1,0.3,0.1,0.4c0-0.1,0.2-0.3,0.1-0.4C52.4,42.9,52.3,42.9,52.3,42.9z"/>
			<path class="st0" d="M56.4,21.9c-0.1,0-0.2,0-0.2,0.1c0,0.1,0,0.3,0,0.4c-0.3,0.8-1.2,1.5-0.8,2.4c0,0,0.1,0,0.1,0
				c0.3-0.2,0.4-0.4,0.6-0.7c0.3-0.6,0.5-1.1,0.7-1.8C56.7,22.2,56.7,22,56.4,21.9z"/>
			<path class="st0" d="M54.9,25.1c-0.1,0.1,0.1,0.2,0.2,0.2c0.1,0,0.2-0.2,0.1-0.2C55.1,25,54.9,25,54.9,25.1z"/>
			<path class="st0" d="M45.8,19.6c-0.1-0.3-0.4,0-0.6-0.1c-0.1,0-0.1-0.1-0.2-0.1c-0.1,0-0.2,0-0.2,0.1c-0.1,0.1,0,0.3,0.1,0.3
				c0.1,0,0.2-0.2,0.2-0.1c0.1,0.2,0,0.5,0.3,0.4c0.2,0,0.3-0.2,0.5-0.2c0.2,0,0.2-0.2,0.2-0.4c0.2,0,0.4-0.2,0.6,0
				c0.1,0.1,0.1,0.2,0.1,0.3C46.9,20,47,20,47.1,20c0.2,0,0.4,0,0.5-0.2c0.1-0.2,0.1-0.4-0.1-0.5c-0.1,0-0.2,0-0.3,0
				c-0.1-0.1-0.3-0.2-0.4-0.3C46.4,18.9,46.1,19.3,45.8,19.6z"/>
			<path class="st0" d="M47.3,20c-0.1,0-0.1,0-0.2,0c0,0,0,0,0,0H47.3z"/>
			<path class="st0" d="M44,19.9c0.2,0,0.3,0,0.5,0c0,0,0,0,0,0c0-0.3-0.3-0.3-0.5-0.1c0,0,0,0,0,0c-0.1,0-0.1,0-0.2,0
				C43.8,19.8,43.9,19.9,44,19.9z"/>
			<path class="st0" d="M44.6,21c0.2-0.2,0.5-0.4,0.8-0.6c0,0,0-0.1,0-0.1c0,0,0,0,0,0.1c-0.1-0.1-0.2-0.2-0.3-0.3
				c0,0.1-0.1,0.2-0.2,0.2c-0.2,0.1-0.3,0.2-0.4,0.4c-0.1,0.1-0.1,0.3,0,0.4C44.5,21.3,44.6,21.1,44.6,21z"/>
			<path class="st0" d="M41.9,19.3c0,0.1,0,0.2,0.1,0.2c0.1,0,0.1-0.2,0.1-0.2C42,19.2,41.9,19.2,41.9,19.3z"/>
			<path class="st0" d="M35.5,15.2c0.2,0.1,0.5,0.1,0.7,0.1c0,0,0.2-0.1,0.1-0.2c-0.1-0.1-0.3,0-0.4-0.2l-0.1,0
				C35.5,14.9,35.5,15,35.5,15.2C35.3,15.2,35.5,15.2,35.5,15.2z"/>
			<path class="st0" d="M51.8,18.2c-0.1,0.1-0.2,0.1-0.4,0.1c-0.1,0-0.1,0.2,0,0.2c0.1,0.2,0.3,0.1,0.5,0c-0.1,0.1,0,0.1,0.1,0.1
				c0.1,0.1,0.1-0.1,0.2-0.1c0,0,0,0.1,0,0.2c-0.1,0.1-0.1,0.2-0.2,0.2c-0.1,0.1-0.2,0.1-0.3-0.1c0,0-0.1,0-0.1,0c0,0,0,0,0,0
				c-0.1,0.1,0,0.3-0.1,0.3c-0.2,0.2-0.7,0.3-0.5,0.6c0.2,0.2,0.5,0.2,0.8,0.1c0,0,0.1-0.1,0.1-0.1c0-0.3,0.1-0.3,0.3-0.5
				c0.1-0.1-0.1-0.2-0.1-0.2c-0.1,0,0-0.2,0.1-0.2c0.1,0,0.1-0.2,0.2-0.1c0-0.1,0-0.1,0-0.2c0.2,0,0.3-0.1,0.3-0.2
				c-0.1-0.2-0.2-0.4-0.2-0.6c0-0.1,0.1-0.2,0.2-0.2c0.1,0,0.1-0.1,0-0.1c0,0-0.1,0-0.1,0c0,0.1-0.1,0-0.1,0.1c-0.2,0-0.4,0-0.5,0.1
				C51.9,17.8,51.9,18,51.8,18.2z"/>
			<path class="st0" d="M49.9,20c0,0.2,0.2,0.1,0.4,0c-0.1,0,0-0.1-0.1-0.1C50.1,20,50,20,49.9,20z"/>
			<path class="st0" d="M52.6,19.6c-0.1,0.2,0.2,0.2,0.4,0.1c0,0,0,0,0,0c0,0,0-0.1,0-0.1C52.8,19.5,52.6,19.5,52.6,19.6z"/>
			<path class="st0" d="M53.1,18.7c0,0-0.1,0-0.2,0c0.1,0,0.1,0.2,0.2,0.2C53.2,18.8,53.1,18.8,53.1,18.7
				C53.1,18.8,53.2,18.7,53.1,18.7z"/>
			<path class="st0" d="M49.2,11.5c0.2,0.1,0.3,0.2,0.3,0.4c0.1,0.2-0.1,0.4,0.1,0.6c0,0.1,0.1,0.1,0.1,0.2c0.1,0.1,0,0.3,0,0.4
				c0.1,0.3,0.1,0.5,0.1,0.7c0.1,0,0.1,0.2,0.2,0.1c0,0.2,0.1,0.3,0.1,0.4c0,0.2,0.2,0.1,0.3,0.2c0.2,0.2,0.3,0.5,0.6,0.6
				c0.1,0.1,0.2,0.1,0.2,0.1c0,0,0,0.1,0,0.1c0.3,0.1,0.8,0.2,0.6,0.6c0.1-0.1,0.3-0.2,0.3-0.3c0.1-0.3,0.1-0.5,0-0.8
				c-0.1-0.1-0.3-0.2-0.3-0.3c0-0.1,0-0.2,0-0.3c0-0.1-0.2-0.1-0.2-0.2c-0.1-0.2-0.1-0.5,0.2-0.5c0,0-0.1-0.1,0-0.1
				c-0.1,0-0.2,0-0.3,0c-0.1,0-0.1-0.1-0.1-0.2c0-0.2,0.1-0.4-0.1-0.6c-0.1-0.1-0.3-0.1-0.5-0.2c-0.1-0.1-0.2-0.2-0.4-0.3
				c-0.1-0.1-0.2,0.1-0.3,0c-0.3-0.3-0.5-0.7-0.8-1.1c-0.1-0.1-0.3-0.1-0.5-0.1c-0.1,0,0,0.1,0,0.1c0,0,0.1,0,0.1,0
				C49.2,11.4,49.1,11.4,49.2,11.5z"/>
			<path class="st0" d="M47.5,12.1c-0.1,0.2-0.1,0.4,0,0.4c0.2,0.1,0.4,0.1,0.6,0c0.1,0,0.2-0.1,0.3-0.3c0.1-0.2,0.4-0.1,0.7-0.2
				c0,0.1,0.1,0.1,0.1,0.2c0-0.2,0-0.4-0.1-0.4c-0.2-0.1-0.2-0.3-0.3-0.5c0-0.1-0.1,0-0.1,0.1c0,0.3-0.2,0.3-0.5,0.3
				c0,0,0,0.1,0,0.1c0,0,0,0-0.1,0c0,0-0.1-0.1-0.1-0.1c-0.1,0-0.3,0-0.3,0.1C47.7,11.9,47.6,12,47.5,12.1z"/>
			<path class="st0" d="M43.3,5c-0.2-0.4-0.5-0.7-0.4-1.2c0.6,0.2,1.1,0.1,1.6-0.1c0.4-0.1,0.9,0.1,1.3-0.2c0.1,0,0-0.2,0-0.3
				c-0.5,0.2-0.9-0.4-1.3-0.1c-0.5,0.3-1.1,0.4-1.7,0.6c-0.4,0.1-1.5,0-1.6,0.7c0.6,0,1.3,0.1,1.6,0.6C42.9,5.1,43.1,5,43.3,5z"/>
			<path class="st0" d="M45.1,7.7c0.2,0.3,0.5,0.3,0.7,0.4c0-0.1,0-0.2-0.1-0.3C45.5,7.7,45.3,7.7,45.1,7.7z"/>
			<path class="st0" d="M44.7,8.6c-0.1,0,0,0.2,0.1,0.3C44.8,8.7,44.9,8.5,44.7,8.6z"/>
			<path class="st0" d="M44.3,8.1c0,0,0.1,0,0.1,0c0,0,0,0,0-0.1c0-0.2-0.2-0.2-0.4-0.3c0,0,0,0.1,0,0.1C44.1,7.9,44.1,8,44.3,8.1z"
				/>
			<path class="st0" d="M45.9,10.1c0,0,0.1,0.1,0.1,0c0,0,0.1-0.1,0-0.2c0,0,0,0,0,0c0-0.1,0-0.2,0-0.2c0,0-0.1,0-0.1,0
				C45.8,9.9,45.9,10,45.9,10.1z"/>
			<path class="st0" d="M46.4,10.1c0,0.1,0,0.2,0.1,0.2c0,0,0.1,0,0.1,0C46.5,10.3,46.5,10.2,46.4,10.1
				C46.6,10.1,46.5,10.2,46.4,10.1z"/>
			<path class="st0" d="M46.2,10.6c0,0.1,0.1,0,0.1-0.1c0,0,0,0,0,0c0,0,0,0,0,0c0,0,0,0,0-0.1l0,0c-0.1-0.1-0.2-0.2-0.3-0.1
				C46,10.4,46.2,10.4,46.2,10.6z"/>
			<path class="st0" d="M46.4,10.6C46.5,10.7,46.3,10.6,46.4,10.6c0.1,0.2,0.3,0.3,0.4,0.2c0.1,0,0.1-0.2,0.1-0.2
				C46.8,10.6,46.6,10.6,46.4,10.6C46.5,10.6,46.5,10.6,46.4,10.6z"/>
			<path class="st0" d="M47.3,11c0.1,0,0-0.1,0-0.1c0-0.1-0.1-0.2-0.2-0.1c-0.1,0-0.1,0.2,0,0.2C47.1,11,47.2,11,47.3,11z"/>
			<path class="st0" d="M47.5,11.5c0,0,0.1,0,0.2-0.1c0,0,0-0.1,0-0.1c0,0,0.1,0,0.1,0c0-0.1,0-0.1-0.1-0.2c0,0-0.1,0.1-0.2,0
				c0,0,0,0,0-0.1c-0.1,0-0.1-0.1-0.2,0c-0.1,0.1-0.1,0.2,0,0.2C47.4,11.4,47.5,11.4,47.5,11.5z"/>
			<path class="st0" d="M47.1,11.9C47.1,11.9,47.1,11.9,47.1,11.9c0.1-0.1,0.1-0.2,0.1-0.3c0-0.1-0.1-0.1-0.1,0
				c-0.1,0,0,0.1-0.1,0.1C46.9,11.8,47,11.9,47.1,11.9z"/>
			<path class="st0" d="M46.6,3C46.6,3,46.5,3,46.6,3C46.5,2.9,46.6,2.9,46.6,3c-0.1-0.2-0.2-0.1-0.3-0.1C46.3,3,46.4,3.1,46.6,3z"
				/>
			<path class="st0" d="M52.6,7.4c0.1,0.1,0.3,0,0.4,0.1c0.1,0.1,0.2,0.3,0.4,0.3c0.1,0,0.2-0.1,0.2-0.2c0-0.3-0.1-0.6-0.4-0.8
				c-0.3-0.1-0.6-0.1-0.8-0.1c-0.2,0-0.2,0.2-0.1,0.3C52.4,7.2,52.5,7.3,52.6,7.4z"/>
			<path class="st0" d="M60,16.7c-0.2-0.2-0.2-0.5-0.3-0.7c-0.1-0.2-0.4-0.2-0.6-0.4c-0.1-0.1,0.1-0.3-0.1-0.4
				c-0.1-0.1-0.1-0.1-0.1-0.2c-0.1-0.3-0.2-0.4-0.4-0.5c0.1-0.3-0.2-0.4-0.5-0.5c0,0,0-0.1,0-0.1c0-0.1-0.2-0.1-0.2-0.2
				c0,0-0.1,0-0.1,0c-0.1-0.2-0.3-0.3-0.4-0.5c-0.1-0.3-0.3-0.4-0.6-0.6c-0.1,0-0.2-0.3-0.2-0.3c-0.2,0-0.4,0-0.4-0.2
				c0-0.3-0.3-0.5-0.5-0.7c-0.4-0.3,0-0.8-0.2-1.2c0-0.2-0.2-0.2-0.4-0.2c-0.1,0-0.1-0.1-0.1-0.1c-0.1-0.2,0-0.5-0.2-0.8
				c-0.2-0.4-0.5-0.6-0.8-1c-0.2-0.2-0.4-0.1-0.6-0.2c-0.1,0-0.1,0-0.1-0.1c-0.1,0-0.1-0.1-0.1-0.2c-0.1-0.2-0.4-0.3-0.6-0.4
				c-0.4-0.2-0.8-0.1-1.2-0.1c-0.3,0-0.7,0.1-0.9,0.3c-0.3,0.2-0.6,0.3-0.9,0.4c-0.1,0,0.1,0.2,0,0.3c-0.1,0.1-0.3,0.3-0.2,0.4
				c0,0-0.1,0,0,0.1c0.1,0.1,0.2,0,0.3,0c0.1,0,0.2,0.2,0.2,0.2c0.2,0.2,0.3,0.3,0.4,0.5c0,0.1-0.1,0.2,0,0.3
				c0.2,0.2,0.2,0.4,0.2,0.6c0,0.1,0.2,0,0.3,0c0.3,0.1,0.3,0.5,0.3,0.8c0,0.2,0,0.4,0,0.5c0.1,0.3,0.2,0.7,0.4,0.9
				c0.1-0.1,0.1-0.2,0.2-0.2c0.2,0,0.2-0.1,0.4-0.2c0.4-0.3,0.8,0.3,0.9,0.6c0.1,0.3,0,0.7,0.1,1.1c0.1,0.3,0.3,0.6,0.6,0.7
				c0.1,0,0.1,0.2,0.1,0.4c0,0.1,0.1,0.2,0.2,0.1c0.1,0,0-0.2,0.1-0.2c0.1,0,0.2,0,0.3,0.1c0.3,0.3,0.3,1,0.9,1c0,0.1,0,0.1,0.1,0.2
				c0.1,0,0.2-0.1,0.3,0c0.1,0.1,0.1,0.3,0.3,0.4c0.2,0.1,0.4,0,0.6,0c0.1,0,0.2,0.2,0.3,0.3c0.1,0.1,0.1,0.2,0.2,0.3
				c0.4,0.4,0.5,0.9,1,1.2c0.1,0.1,0.3,0.3,0.5,0.2c0.1,0,0-0.1,0.1-0.1c0.2,0,0.3-0.2,0.4-0.3c0.1-0.2,0.3-0.4,0.6-0.5
				c0,0,0-0.1,0-0.1c0.2-0.1,0.4-0.2,0.5-0.3C60.1,17,60.1,16.8,60,16.7z"/>
			<path class="st0" d="M52.8,15.8c0,0,0.1,0,0.1,0c0,0,0.1,0,0.1,0L52.8,15.8z"/>
			<path class="st0" d="M52.5,16.8c0.1,0.1,0.2,0.1,0.4,0.2c0.1,0.1,0.2,0.3,0.3,0.3c0.2,0.1,0.1-0.3,0.3-0.4c0,0,0.2,0,0.2,0
				c0.1-0.2,0-0.5-0.2-0.7c-0.1-0.1-0.3-0.3-0.5-0.4c-0.1,0-0.2,0-0.3,0.1c-0.1,0.2,0,0.4-0.1,0.6C52.5,16.6,52.4,16.7,52.5,16.8z"
				/>
			<path class="st0" d="M53.8,17.7c-0.1,0.3,0,0.7-0.1,1c0,0.2-0.3,0.1-0.4,0.3c-0.1,0.1-0.1,0.2-0.1,0.3c0,0.2,0.3,0.2,0.5,0.3
				c0.4,0.2,0.8,0.5,1.1,1c0.1,0.1,0.1,0.4,0.3,0.5c0.1,0.1,0.4,0.1,0.4,0.4c0,0.1,0.2,0.1,0.3,0.1c0.2-0.2,0.2-0.5,0-0.7
				c-0.1-0.1-0.2-0.2-0.2-0.4c0-0.5-0.2-0.9-0.4-1.4c-0.2-0.2-0.4-0.4-0.6-0.6c0,0-0.1-0.1,0-0.2c0.1-0.1,0.2-0.2,0.2-0.3
				c0-0.2-0.3-0.3-0.3-0.6c0,0-0.1,0-0.1,0l0.1,0C54.2,17.4,53.9,17.5,53.8,17.7z"/>
			<path class="st0" d="M56.4,20.1c0-0.1,0-0.3,0-0.4c0-0.3-0.3-0.3-0.5-0.3c-0.1,0-0.2,0-0.2,0.1c0,0.1,0,0.2,0.1,0.3
				c0.4,0.5,0.4,1.2,0.6,1.7c0.1,0.2,0.4,0,0.5-0.2c0-0.1,0-0.3,0-0.4c-0.1-0.1-0.2-0.2-0.2-0.3C56.5,20.4,56.4,20.3,56.4,20.1z"/>
			<path class="st0" d="M55.8,18.6c-0.2,0.1,0.1,0.3,0,0.5c0,0,0.1,0,0.1,0C56,19.1,56,19,56,18.9C55.8,18.9,55.8,18.7,55.8,18.6
				C55.8,18.6,55.8,18.5,55.8,18.6z"/>
			<path class="st0" d="M55.7,18.1c0-0.1,0-0.2-0.1-0.3c0,0.2-0.2,0.1-0.3,0.2c-0.1,0.1,0,0.3,0.1,0.3c0,0,0,0.1,0.1,0.1
				C55.7,18.5,55.9,18.3,55.7,18.1C55.8,18.1,55.7,18.1,55.7,18.1z"/>
			<path class="st0" d="M54.8,17.2c0.2,0.1,0,0.4,0.2,0.4c0.1,0.1,0.4,0.1,0.5,0c0.1-0.1,0-0.2-0.2-0.2c-0.1,0-0.1-0.1-0.1-0.2
				c0,0-0.1,0-0.1-0.1c-0.2-0.1,0.2-0.2,0.1-0.4c0,0,0-0.1-0.1-0.1c-0.1,0-0.1,0-0.2,0.1c-0.1,0.1,0,0.2,0,0.2
				C54.9,17.1,54.7,17.1,54.8,17.2z"/>
			<path class="st0" d="M54.7,16.1c-0.1,0-0.3,0.1-0.4-0.1c0,0-0.1,0-0.1,0c0,0,0,0,0,0.1c-0.1,0.1-0.1,0.1-0.1,0.2
				c0.1,0.1,0.1,0.1,0.2,0.2c0.1,0.1,0.2,0,0.3,0.1c0,0.1,0.1,0.1,0.2,0.1c0.1,0,0-0.2,0-0.3c-0.1,0,0-0.1-0.1,0
				C54.7,16.3,54.8,16.1,54.7,16.1z"/>
			<path class="st0" d="M42,24.4C42,24.4,42,24.4,42,24.4c0.1,0,0.1-0.1,0.1-0.1c0-0.1,0-0.1-0.1-0.2c-0.1-0.1-0.2,0-0.1,0.1
				c0,0,0,0,0.1,0C41.9,24.2,41.9,24.3,42,24.4z"/>
			<path class="st0" d="M56,22.1c-0.2-0.1-0.5,0-0.7,0.2c-0.4,0.2-0.5,0.8-0.8,1.1c-0.2,0.2-0.4,0.3-0.7,0.3c0,0-0.1,0-0.1-0.1
				c0-0.1,0-0.3,0.1-0.4c0.1-0.1,0.2-0.1,0.2-0.2c0.1-0.2,0-0.4,0-0.6c-0.1-0.4-0.5-0.6-0.9-0.6c-0.4,0.1-0.6,0.5-0.8,0.8
				c0,0-0.1,0-0.1,0c-0.1-0.2-0.3-0.3-0.4-0.5c0,0,0-0.1,0-0.1c0.1,0.1,0.3,0.3,0.4,0.2c0.2-0.1,0-0.3-0.1-0.3
				c-0.1,0-0.3-0.2-0.4-0.2c-0.1,0-0.3-0.2-0.3-0.3c0-0.2-0.1-0.5-0.2-0.5c-0.2-0.1-0.4-0.1-0.6-0.2c-0.1,0-0.2,0-0.3,0
				c0.1-0.1,0-0.2,0-0.2c0.2,0,0.5,0,0.4-0.3c-0.1-0.1-0.2-0.3-0.3-0.1c0,0-0.1,0-0.2,0.1c0,0,0,0.1-0.1,0.1c0,0.1,0.1,0.3,0,0.3
				c-0.1,0.1-0.4,0.1-0.5,0.2c0,0-0.1,0-0.1,0c-0.2-0.1-0.4-0.2-0.5-0.2c-0.1,0.1-0.1,0.3-0.3,0.4c-0.1,0.1-0.3,0.1-0.4,0.1
				c-0.2,0.1-0.1,0.4,0,0.6c0,0.1,0,0.2-0.1,0.2c-0.2,0.1-0.2-0.1-0.2-0.2c-0.1-0.2-0.1-0.4-0.1-0.6c0-0.2,0.2-0.3,0.3-0.5
				c0-0.1,0.1-0.3,0-0.4c-0.1-0.1-0.2-0.2-0.4-0.2c-0.4,0.1-0.5,0.8-0.9,0.6c-0.2-0.1-0.4-0.3-0.6-0.4c-0.1-0.1-0.2-0.2-0.4-0.1
				c-0.3,0.2-0.6,0.3-0.9,0.5c-0.3,0.1-0.5,0.4-0.6,0.7c-0.2,0.3-0.8,0.5-1,0.1c-0.1-0.2-0.3-0.4-0.5-0.4c-0.2,0-0.3,0.3-0.5,0.4
				c-0.2,0-0.3,0-0.3-0.2c0,0,0-0.1,0-0.1c0.3-0.3,0.6-0.4,1-0.6c0.2-0.1,0.2-0.3,0.1-0.4c0,0,0-0.1,0-0.1c0-0.1,0-0.2-0.1-0.2
				c-0.5,0-0.9,0.4-1.1,0.8c0,0.1-0.1,0.1-0.1,0.1c-0.3,0-0.6,0.1-0.9,0c-0.1,0-0.1-0.4-0.2-0.3c-0.1,0.1-0.2,0.3-0.3,0.4
				c0,0.1-0.1,0.1-0.2,0.2c-0.2,0.3,0.2,0.5,0.1,0.7c-0.1,0.1-0.3,0.1-0.5,0.1c-0.1,0-0.1,0.2-0.1,0.3c0,0.1,0.1,0.1,0.2,0.1
				c0.2,0.2,0.2,0.5,0.4,0.6c0.3,0.1,0.6,0,0.9,0.1c0.2,0,0.4,0.2,0.5,0.4c0.1,0.1,0.2,0.2,0.2,0.4c0,0.1,0.1,0.1,0.2,0.2
				c0.1,0,0.2-0.1,0.3,0c0.1,0,0.1,0.2,0.1,0.3c0.1,0.2,0,0.4,0.2,0.7c0.1,0.1-0.1,0.3-0.2,0.4c0,0-0.2,0-0.2,0.1
				c-0.1,0.2,0,0.4,0.1,0.5c0.1,0.1,0.2,0,0.2,0.1c0.2,0.2,0.2,0.4,0.4,0.6c0.1,0.1,0.1,0.2,0.2,0.2c-0.1,0-0.1,0.1-0.1,0.2
				c0.1,0.1,0.2,0.1,0.3,0.1c0.1-0.1,0.2-0.1,0.3-0.2c0.1-0.1,0.2,0,0.2-0.1c0.1,0.1,0.1,0.2,0.1,0.3c-0.2,0.2-0.5,0.1-0.7,0.2
				c-0.1,0.1-0.3,0-0.3,0.1c-0.1,0.1,0,0.2,0.1,0.2c0.4,0.1,0.1,0.7-0.1,1c0,0.1,0,0.2,0,0.3c0,0.1-0.1,0.1-0.1,0.1
				c-0.4,0-0.8-0.1-1.2,0c-0.1,0-0.2,0.2-0.2,0.4c0,0,0.1,0,0.1,0c-0.1,0-0.1,0.1-0.1,0.2c0,0.1,0,0.2-0.1,0.3
				c-0.4,0.4-0.4,0.9-0.5,1.3c0,0.1,0.2,0.2,0.3,0.2c0.1,0,0.2-0.1,0.3-0.1c0.2,0,0.1,0.3,0.2,0.4c0.1,0.1,0.3,0.2,0.4,0
				c0-0.2,0-0.3,0.1-0.5c0.1-0.2-0.2-0.3-0.2-0.5c0-0.2,0-0.3,0.1-0.4c0.1-0.1,0.2,0,0.2,0.1c0,0.1,0,0.2,0.1,0.4
				c0,0.1-0.1,0.3,0,0.4c0.1,0.1,0.1,0.2,0.1,0.3c0,0.1-0.1,0.1-0.1,0.2c0,0.1,0,0.3-0.1,0.4c-0.1,0.1-0.1,0.3-0.2,0.3
				c-0.3,0-0.7-0.2-0.6-0.5c-0.1,0-0.3,0-0.3,0.1c-0.1,0.1,0,0.4-0.1,0.5c-0.1,0.1-0.2,0.3-0.3,0.5c0,0,0.1,0.1,0,0.1
				c-0.2,0.2-0.4,0.3-0.6,0.4c0,0,0,0,0,0c-0.1,0.1-0.4-0.1-0.4,0.1c-0.1,0.2,0.2,0.3,0.3,0.5c0,0.1,0,0.3-0.1,0.3
				c-0.2,0.1-0.4,0-0.7,0c0,0.1-0.1,0.1-0.1,0.1c0,0.2,0,0.4-0.2,0.6c-0.1,0.1,0.1,0.3,0.1,0.4c0.1,0.1,0.1,0.3,0.3,0.4
				c0.1,0,0.2,0.1,0.3,0.1c0.2-0.1,0.3-0.1,0.4-0.3c0-0.1,0.2,0,0.4,0c0,0,0.1,0,0.1-0.1c0.1-0.1,0-0.3,0-0.4
				c0.2-0.3,0.5-0.5,0.7-0.6c0.1-0.1,0.2-0.2,0.4-0.1c0.1,0,0.2,0.1,0.3,0.1c0.1,0.1,0.2,0.1,0.3,0.2c0,0,0.1,0.1,0.2,0.1
				c0.2,0.1,0.3,0.3,0.5,0.4c0.1,0,0-0.1,0.1,0c0-0.2,0-0.4-0.1-0.5c-0.1-0.2-0.3-0.3-0.5-0.4c-0.1,0-0.1-0.2,0-0.3c0,0,0.1,0,0.1,0
				c0.1,0.1,0.2,0.1,0.3,0.2c0.2,0.1,0.2,0.4,0.4,0.6c0.1,0.1,0.2,0.2,0.3,0.3c0.2,0.1,0.4,0,0.5-0.2c0.1-0.1-0.1-0.2-0.2-0.3
				c-0.2-0.1,0.1-0.2,0.2-0.3c0.1-0.2,0-0.3,0-0.5c0-0.1,0-0.1,0.1-0.1c0,0,0,0,0,0c0.1-0.2,0-0.4,0.1-0.6c0,0,0.1,0,0.1,0
				c0.1,0.1,0.2,0.2,0.3,0.1c0.2,0,0.3-0.1,0.4-0.3c0.1-0.2,0.5-0.1,0.5,0.1c0,0.1,0,0.3-0.1,0.4c-0.4,0.1-0.7,0.2-0.9,0.4
				c0,0-0.1,0.1-0.1,0.1c-0.1,0.1-0.2,0.2-0.1,0.4c0,0.1-0.1,0.2-0.2,0.3c0.1,0,0.1,0.2,0.3,0.2c0.2,0.1,0.4,0.1,0.6-0.1
				c0-0.1,0.1-0.2,0.1-0.3c0.1,0,0.2-0.2,0.4-0.2c0.3-0.1,0.5,0.3,0.4,0.6c0,0.1-0.1,0.1-0.1,0.1c-0.2,0.3-0.3,0.5-0.6,0.6
				c-0.4,0.2-0.9,0.2-1.2,0.4c-0.1,0.1-0.2,0.3-0.4,0.4c-0.2,0-0.4,0.1-0.6,0c0,0,0,0,0,0c0,0.1-0.4,0-0.6,0c-0.1,0,0-0.2-0.1-0.3
				c-0.1,0-0.2,0-0.2-0.1c0,0,0-0.1-0.1-0.2c-0.5-0.1-0.9,0.1-1.4,0c-0.1,0-0.1,0.2-0.2,0.2c-0.1,0-0.2,0.1-0.3,0.2
				c-0.2,0.1-0.4,0.2-0.6,0.1C39.8,36,39.6,36,39.4,36c-0.3,0.1-0.5,0.3-0.7,0.5c-0.2,0.1-0.4,0.2-0.6,0.1c-0.1,0,0,0.1-0.1,0.1
				c-0.3,0.1-0.6,0.5-0.8,0.8c-0.1,0.1,0,0.2,0,0.3c-0.2,0.3-0.3,0.5-0.5,0.7c0,0,0,0.1,0,0.1c0.3,0.4,0.6,0.6,0.8,1
				c0.1,0.1,0.2,0.1,0.2,0.2c0.1,0.2,0.2,0.4,0.4,0.6c0.2,0.3,0.6,0.4,1,0.3c0.1,0,0.3,0.1,0.4,0.1c0.4,0,0.9,0.1,1.3-0.1
				c0.6,0.2,1.2-0.1,1.8,0.2c0.1,0,0.1,0.2,0.2,0.4c0.1,0.2,0.3,0.5,0.5,0.6c0.2,0.1,0.5,0.2,0.7,0.2c0.1,0,0.1,0.2,0.2,0.3
				c0.1,0.1,0,0.3,0.1,0.3c0.1,0.1,0.2,0.2,0.2,0.4c0,0.2-0.3,0.4-0.1,0.7c0,0.1,0,0.2,0,0.3c0.3,0.3,0.7,0.7,1.1,1
				c0,0,0.1,0.1,0.1,0.2c0.2,0,0.2,0.2,0.3,0.3c0.1,0.1,0,0.3,0.1,0.4c0.1,0.2,0.3,0.3,0.5,0.5c0.2,0.2,0.5,0.1,0.8,0.2
				c0.1,0,0.1,0.1,0.2,0.1c0.2,0.1,0.5,0.1,0.7-0.1c0.1-0.1,0.2-0.3,0.3-0.4c0.2-0.1,0.5-0.1,0.7-0.2c0,0,0.1,0,0.2-0.1
				c0-0.1,0.2-0.2,0.1-0.4c0.2,0,0.3-0.1,0.5-0.2c0.3-0.2,0.5-0.5,0.8-0.7c0.3-0.3,0.8-0.1,0.9-0.4c0.2-0.3-0.1-0.7,0.1-1
				c0.1-0.2,0.2-0.3,0.2-0.5c0-0.3,0-0.6,0-0.9c0-0.2-0.2-0.3-0.2-0.5c0-0.1,0.2-0.1,0.3-0.2c0.1-0.2,0.2-0.5,0.3-0.7
				c0,0,0.1-0.1,0.2-0.1c0.1-0.1,0-0.2,0-0.3c-0.1,0-0.1-0.1-0.2-0.2c-0.3-0.4-0.5-0.7-0.9-0.9c-0.1,0-0.1-0.1-0.2-0.2
				c0,0,0-0.1,0-0.2c-0.1-0.1-0.1-0.2-0.1-0.2h0.1c0,0,0,0,0,0c0,0-0.1,0-0.1,0c0.1-0.2,0.2-0.5,0.4-0.6c0.1-0.1,0.2-0.1,0.2-0.1
				c0.1-0.2,0-0.4-0.1-0.6c-0.2-0.3,0-0.5-0.1-0.8c0-0.5,0-0.9-0.3-1.4c0-0.1-0.2-0.2-0.3-0.2c-0.1,0-0.1,0.1-0.1,0.2
				C51,35,51,35.1,51,35.2c-0.1,0.2-0.3,0.2-0.3,0.4c0,0.1-0.1,0.2-0.1,0.3c-0.1,0.1-0.2,0.2-0.3,0.2c-0.2,0.1-0.3,0.1-0.5,0.1
				c-0.2,0-0.4,0-0.6,0c-1-0.3-1.9-0.7-2.9-1c0,0,0-0.1,0-0.1c0.2-0.1,0.3,0,0.5,0c0.1,0,0-0.2,0-0.2c0.2,0.1,0.4,0.2,0.6,0.3
				c0.4,0.1,0.8,0.2,1.3,0.3c0.4,0.1,0.6,0.3,0.9,0.4c0.3,0.1,0.5-0.1,0.7-0.2c0,0,0-0.1,0-0.1c0.1-0.2,0.3-0.3,0.4-0.5
				c0.1-0.1,0-0.3,0.1-0.5c0-0.1,0.2-0.1,0.2-0.2c0.1-0.2,0-0.4,0-0.7c0.1,0,0.2-0.1,0.2-0.2c0,0,0-0.1-0.1-0.1c0-0.1,0-0.3,0-0.4
				c0.1-0.3,0-0.6-0.2-0.9C50.9,32,50.7,32,50.5,32c0,0-0.1,0.1-0.1,0.1c-0.2,0-0.3,0.1-0.4,0.2c-0.1,0.1-0.1,0.3-0.2,0.4
				c-0.2,0.2-0.4,0.3-0.6,0.4c-0.2,0.1-0.4,0-0.4-0.2c-0.2-0.4,0.4-0.3,0.7-0.4c0,0,0.1-0.1,0.1-0.2c0.1-0.1,0.1-0.4,0.3-0.4
				c0.1,0,0.2,0,0.3,0c0.1,0,0.2-0.1,0.3-0.2c0.1,0,0.1-0.2,0.1-0.3c0.1-0.2,0.2-0.3,0.3-0.4c0.2-0.3,0.2-0.8,0.4-1
				c0.2-0.1,0.1,0.2,0.2,0.3c0.1,0.2,0.4,0.1,0.5,0c0.1-0.1,0-0.3,0.2-0.4c0.1,0,0.2,0,0.2,0c0.1,0.1,0.3,0.2,0.4,0.1
				c0.1-0.1,0.2-0.2,0.3-0.2c0.1,0,0.3,0,0.5-0.1c0.4-0.2,1.1,0.1,1.1-0.3c-0.1-0.6-0.5-1-1-1.3c-0.4-0.2-0.3-0.8-0.6-1.1
				c-0.1-0.1,0-0.2-0.1-0.3c0,0-0.1-0.1-0.1-0.1c-0.1,0-0.1-0.1-0.1-0.1c0.1-0.3-0.1-0.6,0.1-0.8c0.1-0.1,0.3-0.2,0.4-0.3
				c0.1-0.1,0.4-0.2,0.4-0.4c0-0.2,0-0.5,0-0.7c0-0.1,0.2-0.1,0.2-0.1c0.4,0,0.9,0.1,1.3-0.2C55,24.1,55,24,55,23.9
				c0.3-0.4,0.8-0.8,0.7-1.4c0-0.1,0.2-0.1,0.2-0.3C56,22.2,56,22.1,56,22.1z M47.8,31.8C47.8,31.8,47.8,31.9,47.8,31.8
				c-0.1,0.2-0.2,0.1-0.3,0c-0.1-0.1-0.1-0.2-0.2-0.3c-0.1,0-0.2,0-0.3,0.1c-0.1-0.1-0.2,0-0.3,0c0-0.2-0.1-0.2-0.2-0.3
				c-0.1-0.1-0.1-0.3,0.1-0.4c0.1-0.1,0.2,0,0.3,0.2c0,0,0,0,0-0.1c0,0.1,0,0.1,0,0.1c0.1,0.1,0.2,0,0.4,0.1c0.1,0.1,0.3,0,0.5,0
				c0,0,0,0.1,0,0.1c0.2,0,0.2,0.2,0.2,0.3C47.9,31.8,47.9,31.8,47.8,31.8z"/>
			<g>
				<path class="st0" d="M31.2,63.1c2.3-3.4,9.3-7.1,16.2-7.1c6.9,0,14.3,4,17.3,1.9c0,0-3,2.6-9.1,2.6c-6.1,0-8.4-3.1-12.6-3.1
					c-4.2,0-8.7,3.4-10.5,6.3L31.2,63.1z"/>
				<path class="st0" d="M52.9,55.5c0,0,2-1.2,3.1-3.4c1.1-2.2,3.8-5.7,6.6-7.9c0,0-3.1,9.9-6.3,10.3c0,0-0.5,0.3,0.4,0.2
					c0.9-0.2,5-1.7,6.5-1.9c1.4-0.2,5-1.1,6-2c0.8-0.8,1.4-0.7,1.4-0.7s-4,6.6-11.1,6.6C59.3,56.6,55.8,56.3,52.9,55.5z"/>
				<path class="st0" d="M61.3,52.1c0,0,0.7-1.1,0.9-3.1c0.2-2,1.4-6.5,4.8-11.4c0,0,0.5,7.8-3.4,12.6c0,0-0.2,0.7,0.3,0.2
					c0.5-0.5,2.9-3.5,8.2-7c0,0,2.7-2.3,2.9-3C75,40.3,72.9,51.3,61.3,52.1z"/>
				<path class="st0" d="M68,44.7c0,0,0.3-1.2,0.3-2.3c0-1.1-0.5-4.7-0.5-6.3c0-1.6,0.2-4.6,1.4-6.7c0,0,0,1.8,0.4,2.6
					c0.4,0.8,0.9,4,0.9,4.4c0,0.4-0.1,3.1-0.8,4.6c0,0,0.5-0.3,1.1-1.3c0.6-1.1,1.9-3,4-5.1c2.1-2.1,2.5-4,2.5-4s0.5,3.6-2.2,7.4
					c-2.7,3.8-3.8,3.2-5.2,4.7C69.9,42.8,68.2,44.8,68,44.7z"/>
				<path class="st0" d="M72.2,36c0,0-0.1-2.2-0.5-2.9c-0.4-0.7-2.8-5.1-2.3-10.6c0,0,0.4-0.4,1.2,1.8c0.7,2.2,1.8,2.8,2.2,5
					c0.4,2.1,0.4,3.1,0.4,3.1s0.2,0.3,0.2,0.1c0-0.3,0.3-3.2,1.5-5.8c1.2-2.7,2.8-5.2,2.7-6.9c0,0,0.7,0.1,0.6,2.9
					C77.9,25.4,77.1,30.3,72.2,36z"/>
				<path class="st0" d="M73.5,27.2c0,0-0.9-2-1.5-2.7c-0.6-0.6-4.8-6.7-5.1-9.5c0,0,0.3-0.2,0.7,0.5c0.4,0.7,2.4,2.7,2.8,3
					c0.4,0.3,2.5,2.6,2.7,5c0,0,0.2,0.3-0.2-3.8c-0.4-4,1.3-6.6-0.1-9.4c0,0,2,0.3,3,8.5c0,0,0,2.9-1.6,6.5
					C74.2,25.4,73.7,27.2,73.5,27.2z"/>
				<path class="st0" d="M72,18.2c0,0-1.6-1.6-2.8-2.4c-1.2-0.8-5.2-4.6-5.9-7.6c0,0,0.3-0.3,1.5,1.3c1,1.3,1.9,0.6,4.8,4.3
					c0,0,0.4,0.8,0.6,0.7c0.2,0-0.1-0.8-0.1-0.8s-0.6-2.3-0.6-3.1c0-0.8-1.2-5.1-1.6-5.6c0,0,3.9,2.2,4.4,8.4
					C72.3,13.4,72.2,17.9,72,18.2z"/>
				<path class="st0" d="M68.6,11.5c0,0,0.3-5.4-6.9-8.2c0,0,2.5,5.1,4.3,6.3C67.9,10.8,68.6,11.5,68.6,11.5z"/>
			</g>
		</g>
		<g>
			<path class="st0" d="M50.4,63.1c-2.3-3.4-9.3-7.1-16.2-7.1c-6.9,0-14.3,4-17.3,1.9c0,0,3,2.6,9.1,2.6c6.1,0,8.4-3.1,12.6-3.1
				c4.2,0,8.7,3.4,10.5,6.3L50.4,63.1z"/>
			<path class="st0" d="M28.7,55.5c0,0-2-1.2-3.1-3.4c-1-2.2-3.8-5.7-6.6-7.9c0,0,3.1,9.9,6.3,10.3c0,0,0.5,0.3-0.4,0.2
				c-0.9-0.2-5-1.7-6.5-1.9c-1.5-0.2-5-1.1-6-2c-0.8-0.8-1.4-0.7-1.4-0.7s4,6.6,11.1,6.6C22.3,56.6,25.8,56.3,28.7,55.5z"/>
			<path class="st0" d="M20.2,52.1c0,0-0.7-1.1-0.9-3.1c-0.1-2-1.4-6.5-4.8-11.4c0,0-0.5,7.8,3.4,12.6c0,0,0.3,0.7-0.2,0.2
				c-0.5-0.5-3-3.5-8.2-7c0,0-2.8-2.3-2.9-3C6.5,40.3,8.7,51.3,20.2,52.1z"/>
			<path class="st0" d="M13.6,44.7c0,0-0.3-1.2-0.3-2.3c0-1.1,0.5-4.7,0.5-6.3c0-1.6-0.1-4.6-1.4-6.7c0,0,0,1.8-0.4,2.6
				c-0.4,0.8-0.9,4-0.9,4.4c0,0.4,0.1,3.1,0.8,4.6c0,0-0.5-0.3-1.1-1.3c-0.6-1.1-1.9-3-4-5.1c-2-2.1-2.5-4-2.5-4S3.8,34.2,6.5,38
				c2.7,3.8,3.8,3.2,5.2,4.7C11.7,42.8,13.4,44.8,13.6,44.7z"/>
			<path class="st0" d="M9.4,36c0,0,0.1-2.2,0.5-2.9c0.4-0.7,2.8-5.1,2.3-10.6c0,0-0.4-0.4-1.2,1.8c-0.8,2.2-1.8,2.8-2.2,5
				c-0.4,2.1-0.4,3.1-0.4,3.1s-0.2,0.3-0.2,0.1c0-0.3-0.3-3.2-1.5-5.8c-1.2-2.7-2.8-5.2-2.7-6.9c0,0-0.7,0.1-0.6,2.9
				C3.7,25.4,4.4,30.3,9.4,36z"/>
			<path class="st0" d="M8.1,27.2c0,0,0.9-2,1.5-2.7c0.6-0.6,4.8-6.7,5.1-9.5c0,0-0.4-0.2-0.8,0.5c-0.4,0.7-2.4,2.7-2.8,3
				c-0.4,0.3-2.5,2.6-2.7,5c0,0-0.2,0.3,0.2-3.8c0.4-4-1.3-6.6,0.1-9.4c0,0-2,0.3-3,8.5c0,0,0.1,2.9,1.6,6.5
				C7.3,25.4,7.8,27.2,8.1,27.2z"/>
			<path class="st0" d="M9.6,18.2c0,0,1.6-1.6,2.8-2.4c1.3-0.8,5.2-4.6,5.9-7.6c0,0-0.3-0.3-1.5,1.3c-1,1.3-2,0.6-4.8,4.3
				c0,0-0.4,0.8-0.6,0.7c-0.2,0,0.1-0.8,0.1-0.8s0.6-2.3,0.6-3.1c0-0.8,1.2-5.1,1.6-5.6c0,0-3.9,2.2-4.4,8.4
				C9.2,13.4,9.4,17.9,9.6,18.2z"/>
			<path class="st0" d="M12.9,11.5c0,0-0.3-5.4,6.9-8.2c0,0-2.5,5.1-4.3,6.3C13.6,10.8,12.9,11.5,12.9,11.5z"/>
		</g>
	</g>
</g>
</svg>
