<?xml version="1.0" encoding="utf-8"?>
<!-- Generator: Adobe Illustrator 20.0.0, SVG Export Plug-In . SVG Version: 6.00 Build 0)  -->
<svg version="1.1" id="Layer_1" xmlns="http://www.w3.org/2000/svg" xmlns:xlink="http://www.w3.org/1999/xlink" x="0px" y="0px"
	 viewBox="0 0 49 46.5" style="enable-background:new 0 0 49 46.5;" xml:space="preserve">
<style type="text/css">
	.st0{fill:#1B3665;}
</style>
<path class="st0" d="M28.7,36.5h10.2v3L49,33.6l-10.1-5.9v3H28.7V36.5z M21.5,21.1l3.9,6.2c0.6,0.9,1.7,1.2,2.6,0.6
	c0.9-0.5,1.2-1.7,0.7-2.6l-1-1.8C26.8,22,26,20.5,25.2,19l-1.7-3.1c-0.2-0.4-0.4-0.8-0.6-1.2c-1.1-2.2-2.7-5.7-6.4-5.4
	c-3.1,0.3-6.3,1.7-9.4,4.4c-3.7,2.9-6.3,7.1-6.4,7.3c-0.1,0.2-0.2,0.4-0.3,0.6c0,0,0,0,0,0v0c-0.3,0.6-0.5,1.2-0.1,2
	c0.3,0.6,1,1,1.7,1c0.8,0,1.3-0.4,1.7-1c0,0,0,0,0,0c0.1-0.2,0.2-0.4,0.4-0.5c0,0,2.2-3.5,5.5-6.4c1-0.8,2-1.4,2.9-1.7l-0.7,9
	c-0.1,0.9-0.4,2.4-0.6,3.3l-1.7,5.9c-0.2,0.7-0.8,2-1.3,2.6l-4.5,5.6C2.9,42,2.3,42.8,2.8,44c0.3,0.7,1,1.1,1.7,1.1
	c0.9,0,1.4-0.5,1.9-1.1l4.6-5c0.8-0.9,1.9-2.4,2.4-3.5l2.3-4.6L24.2,45c0.4,0.7,0.9,1.6,2.1,1.6c0.7,0,1.3-0.3,1.6-0.9
	c0.6-0.9,0.2-1.8-0.1-2.5l-6.8-14.8c-0.3-0.6-0.4-1.8-0.3-2.4L21.5,21.1z M22.9,3.7c0.4,2.4-1.2,4.6-3.6,5c-2.4,0.4-4.7-1.2-5-3.6
	c-0.4-2.4,1.2-4.7,3.6-5C20.2-0.3,22.5,1.3,22.9,3.7"/>
</svg>
