<?xml version="1.0" encoding="utf-8"?>
<!-- Generator: Adobe Illustrator 20.0.0, SVG Export Plug-In . SVG Version: 6.00 Build 0)  -->
<svg version="1.1" id="Layer_1" xmlns="http://www.w3.org/2000/svg" xmlns:xlink="http://www.w3.org/1999/xlink" x="0px" y="0px"
	 viewBox="0 0 410.1 97.3" style="enable-background:new 0 0 410.1 97.3;" xml:space="preserve">
<style type="text/css">
	.st0{fill:#FFFFFF;}
</style>
<path class="st0" d="M193.9,50.7c0-14.6-9.9-26.5-25.1-26.5c-15.3,0-25.1,12-25.1,26.5c0,14.6,9.9,26.5,25.1,26.5
	C184.1,77.2,193.9,65.3,193.9,50.7 M134.1,50.7c0-19.8,14.4-35,34.7-35s34.7,15.2,34.7,35c0,19.8-14.4,35-34.7,35
	S134.1,70.5,134.1,50.7 M262.9,31.8c-3.8-4.9-10-7.6-16.1-7.6c-15,0-24.8,12-24.8,27.1c0,14,9.3,26,24.8,26c7.6,0,13.5-3.4,17.4-8.9
	l7.6,5.7c-2,2.7-10,11.7-25.2,11.7c-21.2,0-34.3-17.7-34.3-34.4c0-20.7,14.2-35.6,34.7-35.6c8.8,0,18,3.3,23.3,10.4L262.9,31.8z
	 M282.8,17.4h9V45h34.5V17.4h9V84h-9V53.5h-34.5V84h-9V17.4z M377,29h0.2l12.4,30.6h-25.2L377,29z M373.4,17.4L344.1,84h10.5
	l6.6-16.5h31.7l6.7,16.5h10.5l-28.5-66.6H373.4z M77,24.6c0.2,0.2,0.9,1.1,1.2,1.4c0.1,0.1,0.1,0.1,0.1,0.2
	C77.9,25.7,77.5,25.1,77,24.6 M59.7,6.6c0,0,0.2-0.3,0.4-0.3c0.2,0.1,0.7,0.1,0.7,0.1l1.3-0.5l1-0.4l0.4-0.2c0,0,1.5-0.3,2.9,0.9
	c0.2,0.1,0.3,0.2,0.4,0.3l-0.1,0.4c0,0-0.9,0.6-1.3,0.6c-0.3,0.1-0.9-0.1-0.9-0.1l-0.8-0.1l-1.7,0.4c0,0-0.6,0.1-1.2-0.1
	c-0.2-0.1-0.3-0.1-0.5-0.2C60,7,59.8,6.9,59.8,6.9L59.7,6.6z M76.5,10.3c0.3-0.2,0.3,0.1,0.6,0.2c0.3,0.1,0.3-0.2,0.7,0
	c0.4,0.2,0.6,0.5,0.6,0.8c0,0.3,0.2,0.6,0.3,0.8c0.1,0.2-0.5,0.5-0.8,0.3c-0.3-0.2-0.7-0.8-0.7-0.8l-0.9-0.7
	C76.3,10.9,76.2,10.5,76.5,10.3 M69.5,31.7c-0.1-0.1-0.2-0.3-0.4-0.4l-0.4,0.4c0.2,0.3,0.6,0.7,0.5,0.5C69.1,32,69.4,32.1,69.5,31.7
	 M67.2,29.4c-2.2-1.8-5-2.9-8-3.1v4.3c0.9,0.2,1.5,0.4,1.5,0.4s0.1,0,0.2-0.1c0.5-0.9,1.2-0.8,1.4-0.9c0.2-0.1,0.1-0.3,0.4-0.6
	c0.3-0.3,0.7,0.1,0.7,0.3c0.1,0.2,0.1,1.2-0.4,2c-0.3,0.4-0.7,0.6-1.1,0.8c0.7,0.3,1.3,0.7,1.9,1.1l0.4-0.4c0-0.1,0.1-0.2,0.1-0.2
	s0.2-0.1,0.4-0.3l1.9-1.9c-0.1,0-0.1,0-0.2-0.1c-0.2-0.2-0.8-0.3,0.3-1C66.8,29.6,67,29.5,67.2,29.4 M56.9,26.3
	c-3.2,0.2-6.1,1.5-8.4,3.4l2.2,2.2c0.4,0,0.3,0.4,0.8,0.5c0.4,0.1,0.4-0.1,0.8-0.1c0.3,0,0.1,0.2,0.3,0.4c0.1,0.2,0.4-0.1,0.4-0.1
	c0.3-0.2,0.3,0.2,0.7,0c0.4-0.2,0.2-0.4,0.4-0.7c0.2-0.3,0.2-0.4,0.2-0.8c0-0.3,0.4-0.6,0.6-0.8c0.2-0.2,0.4-0.2,0.5,0.1
	c0.2,0.2-0.2,0.4-0.1,0.6c0.1,0.2,0.7-0.1,1.8-0.2V26.3z M43.7,44.4c0.6,2.2,1.7,4.3,3.2,5.9l3.9-3.9c-0.2-0.2-0.3-0.4-0.5-0.6
	c0,0,0,0,0,0c-0.3,0.2-0.1,0.6-0.3,0.8c-0.2,0.2-0.4,0.4-0.5,0.6c-0.1,0.3-0.7,0.9-1,0.5c-0.3-0.3-0.1-1.8-0.5-1.8
	c-0.2,0-0.1,0.1,0,0.7c0.1,0.6-0.3,0.3-0.5,0.2c-0.2-0.1-0.3-0.2-0.8-0.6c-0.5-0.4-0.1-0.7-0.1-0.7s-0.4-0.3-0.5-0.3
	c-0.1,0-0.1,0.3-0.4,0.2c-0.3-0.1-0.3-0.7-0.3-0.7s-0.3,0-1.1-0.2C44.1,44.5,43.9,44.4,43.7,44.4 M48.9,42.6c0-0.1-0.1-0.3-0.1-0.4
	c-0.2,0.2-0.7,0.1-0.6,0.3C48.2,42.6,48.5,42.6,48.9,42.6 M48.5,51.9c2.1,1.7,4.6,2.9,7.4,3.2c0,0.1,0,0.2,0,0.3
	c0,0,0.2,0.1,0.5,0.2c0.3,0,0.8,0,1.1-0.4c0.4-0.4,0.3-0.1,0.6-0.2c0,0,0.3-0.5,0.6-0.8c0.3-0.1,0.4-0.5,0.5-0.6l0,1.6
	c2-0.2,3.8-0.7,5.5-1.5c-0.3,0-0.7-0.5-0.8-0.6c-0.2,0,0.1,0.6,0.2,0.7c0,0.2-0.9,0.5-0.9,0.3c-0.3-0.5-0.8-0.6-0.8-0.4
	c-0.1,0.8-0.4,0.6-0.4,0.6c-0.8-1.1-1-0.4-1.4-0.8c-0.4-0.4-0.6-0.2-0.6-0.2c-0.3,0-0.5,0.3-0.8,0.4c-0.1,0-0.3,0.4-0.5,0.6
	c-0.3,0.4-0.6,0.8-0.6,0.8c-0.3,0.1-0.2-0.2-0.6,0.2c-0.3,0.4-0.8,0.4-1.1,0.4c-0.3,0-0.4-0.2-0.5-0.2c0-0.1,0-0.2,0-0.3
	c0-0.2,0-0.4,0-0.6c0-1.1,0.2-1.4,0.2-1.4c0.1-0.2,0.5-0.1,0.8-0.1v-1.3l0-0.2c0-0.1,0-0.2,0-0.2v-1.4c-1.7-0.2-3.3-0.8-4.5-1.8
	L48.5,51.9z M65.5,53.3c0.3-0.1,0.5-0.3,0.7-0.5c-0.2,0-0.5,0.1-0.6,0.3C65.6,53.2,65.5,53.2,65.5,53.3 M66.5,47.7l1.7,1.7
	c0.1-0.3-0.2-1-0.2-1L67.2,48l-0.3-0.2l0.2-0.4l-0.2-0.1L66.5,47.7z M71.4,51c-0.1,0.2-0.3,0.3-0.4,0.5c0,0,0.1,0,0.1-0.1
	c0.3-0.2,0.5,0.2,0.8-0.2c0.2-0.3,0.2-0.6,0.4-0.9c0.2-0.3,0.8-0.3,1.2-0.3c0.4,0,0.3-0.1,0.6,0.5c0.2,0.7,0.1,1.3,0.1,1.3
	c0.2,0.1-0.3,0.7-0.4,1.8c0,0.6-0.3,0.2-0.3,1l-0.1,0.1l0.4,0.4c0-0.1,0.1-0.2,0.1-0.3c0.3-0.6,0.6-0.9,0.8-0.6
	c0.1,0.2,0.3,0.8,0.4,1.4c2.1-2.3,3.7-5.1,4.6-8.1l-0.2,0c-0.2,0-1,0.2-1.7,0.3c-0.7,0.1-1.3,0.1-1.3,0.1s-0.4-0.4-0.6-0.1
	c-0.2,0.2-0.3,0.9-0.9,0.8c-0.6-0.1-0.3-0.8-0.5-0.8c-0.2-0.1,0,0.3-0.2,0.6c-0.2,0.3-0.8,1.2-0.9,1.4c-0.1,0.2-1.3,0.3-1.5,0.5
	C72,50.4,71.8,50.8,71.4,51 M80.2,45.9c0.3-1.3,0.5-2.6,0.6-4h-3.4c0.2,0.2,0.5,0.4,0.7,0.6c0.4,0.4,0.2,0.8,0.3,1.1
	c0.1,0.4,0.4,0.3,0.9,0.8c0.6,0.5,0.5,1,0.8,1.3C80.1,45.9,80.2,45.9,80.2,45.9 M67.3,54.8c-0.3,0.2-0.5,0.3-0.8,0.5c0,0,0,0,0.1,0
	c0.5,0.2,2.3,0.4,2.8,0.8c0.5,0.4,1.5,0.6,1.5,0.6c0.6-0.1,1.1-0.1,1.4-0.1l-0.7-0.7c-0.5-0.1-0.9-0.3-0.9-0.4
	c-0.8-0.4-0.6,0.2-1.3-0.2C68.8,55,67.9,54.8,67.3,54.8 M54.2,57.1c-2.7-0.6-5.2-1.9-7.2-3.6l-4.1,4.1c3.2,2.8,7.1,4.7,11.4,5.4
	c-0.7-0.4-1.2-0.6-1.2-0.7c-0.1-0.2-0.3-0.5-0.9-1.3c-0.6-0.8-0.5-1.3-0.5-1.3c0.4-0.2,0.6-0.4,0.6-0.4s0.3-1.1,0.8-1.6
	C53.4,57.5,53.7,57.3,54.2,57.1 M45.3,51.9c-1.9-2.1-3.3-4.8-4-7.7c0,0-0.1-0.1-0.1-0.1c-0.3-0.4-0.6-0.3-0.6-0.3s-0.2,1.2-0.2,1.3
	c0,0.1-0.1,0.7-0.4,0.7c-0.3,0-0.4-0.3-0.4-0.3s-0.5,0-0.5-0.1c-0.1-0.2-0.4-0.6-0.1-0.9c0.4-0.3,0.4,0.4,0.6,0c0.3-0.4-0.4-2,0.1-2
	c0.3,0,0.8,0.7,0.9,0.8c0,0,0.2,0,0.4-0.1c-0.1-0.4-0.1-0.8-0.1-1.1h-2.5c-0.1,0.3-0.1,1.2-0.3,1.3c-0.3,0.2-1.2-0.2-1.3,0.4
	c-0.1,0.8,0.3,0.5,0.3,1.1c0,0.6-0.3,0.2-0.1,0.8c0.2,0.6,1.1,0.8,1.3,1.4c0.2,0.7,0.4,1,0.5,1.1c0.1,0.2-0.4,0.5-0.1,1
	c0.3,0.5,0.6,1.2,0.5,1.5c-0.1,0.3-0.1,1,0.2,2.2c0.3,1.2,0.3,0.4,0.7,1.2c0.2,0.4,0.3,0.9,0.2,1.2c0.2,0.3,0.5,0.5,0.7,0.8
	L45.3,51.9z M37.1,41.9h-1.9c0.1,1.4,0.3,2.8,0.6,4.1c0.3-0.1,0.3-0.3,0.3-0.5c0-0.2,0.3-0.2,0.4-0.4c0.1-0.2,0.1-0.2,0-0.3
	c-0.1-0.1-0.4-0.3-0.5-0.7c-0.1-0.3,0.2-0.6,0.3-1c0.1-0.4,0-0.5,0.2-0.8C36.7,42,36.5,42.3,37.1,41.9 M41,39.7c0-0.2,0-0.5,0.1-0.7
	c-0.2-0.1-0.4-0.2-0.7-0.2c-0.6,0-1.1,0.4-1.1,0.9H41z M44.1,31.1c0.4-0.5,0.8-1,1.2-1.5l-4.1-4.1c-3.5,3.8-5.8,8.7-6,14.2h2.5
	c-0.1-0.1-0.3-0.5-0.3-0.8c0.1-0.3-0.2-1.3-0.1-1.5c0.1-0.2,0.3-0.3,0.4-0.5c0.1-0.2,0-0.5,0.1-0.6c0.1-0.1,0.3-0.4,0.5-0.6
	c0.2-0.2,0.1-0.8,0.7-1.1c0.5-0.3,0.6,0,1,0c0.4-0.1,0.4-0.5,0.4-0.5s-0.1-0.2,0.1-0.5c0.2-0.4,1.6-0.7,1.6-0.7s0-0.3,0.8-1
	C43.4,31.4,43.9,31.2,44.1,31.1 M46.9,28.1c2.7-2.3,6.2-3.8,10-4v-5.8c-5.4,0.2-10.4,2.3-14.1,5.7L46.9,28.1z M59.2,24.1
	c3.8,0.3,7.3,1.8,10,4.1l4.1-4.1c-3.8-3.3-8.7-5.5-14.1-5.7V24.1z M70.7,29.7c0.3,0.3,0.6,0.6,0.8,1c0.1-0.1,0.3-0.1,0.7,0
	c0.7,0.1,1.7,0.3,2.3,0.4c0.6,0.1,0.8,1.3,1.2,1.5c0.3,0.2,0.3,0.3,0.3,0.6c0,0.3-0.3,0.3-0.2,0.5c0.1,0.3,0.3,0.5,0.5,0.2
	c0.3-0.3,0.7-0.6,1.4-0.5c1.1,0.2,0.7,0.9,1.2,1c0.4,0.1,0.3,0.2,0.4,0.4c0.2,0.2-0.1,0.4-0.3,0.5c-0.3,0.1-0.3,0.3-0.3,0.5
	c0,0.2-0.2,0.4-0.3,0.6c0,0.2-0.2,0.7,0,0.7c0.2,0,0.4,0.2,0.6,0c0.2-0.3,1.1-1.1,1.1-1.6l0-0.1c-0.2-0.9-0.5-1.8-0.9-2.7
	c-0.1-0.2-0.2-0.4-0.3-0.5c-0.4-0.3-1.9-1-2.1-1.4c-0.3-0.4,0.1-0.5,0.3-0.7c0.2-0.2,0.4-0.6,0.3-1c-0.1-0.2-0.3-0.4-0.4-0.6
	c-0.3-0.4-0.8-1-1.4-1.8c-0.3-0.3-0.5-0.6-0.8-0.9L70.7,29.7z M77.4,39.7h3.4c0-0.9-0.1-1.8-0.3-2.7c-0.2,0.3-0.3,0.5-0.5,0.7
	c-0.3,0.4-0.7,0.2-1.1,0.3c-0.4,0.2-0.1,0.5-0.2,0.8c-0.1,0.3,0.4,0.2,0.2,0.5c-0.2,0.4-0.6,0.2-0.8,0.2
	C78,39.5,77.7,39.3,77.4,39.7 M91.1,41.9c-0.3,8.2-3.7,15.7-9,21.3l4.2,4.2c6.5-6.7,10.5-15.6,10.8-25.5H91.1z M80.5,64.8
	c-1.8,1.7-3.9,3.2-6.1,4.4c0,0.1,0,0.1-0.1,0.2c-0.4,1.1-1.3,2.1-1.6,2.5c-0.2,0.4-0.4,0.1-0.8,0.5c-0.5,0.4-0.2,0.7-0.8,0.9
	c-0.6,0.2-0.9,0.4-0.9,0.4s-1.6,1.7-3.2-0.1c-0.3-0.2-0.8-0.3-1.1-0.7l-0.2-0.3c-2.1,0.5-4.3,0.8-6.5,0.9v5.8
	C69,79,77.9,75.1,84.6,69L80.5,64.8z M56.9,73.5c-8.2-0.3-15.7-3.5-21.4-8.6L31.4,69c6.7,6.2,15.7,10,25.5,10.3V73.5z M34,63.3
	c-0.7-0.7-1.4-1.5-2-2.3c-0.6-0.2-0.6-0.4-1.2-0.9c-0.7-0.5-0.3-1.1-0.6-1.2c-0.1-0.1-0.1,0.2-0.2,0.3c-0.1,0.1-0.4,0.1-0.8,0
	c-0.4-0.1-0.7-0.7-0.7-0.7c-0.7-0.5-0.6-1.1-0.7-1.3c-0.1-0.2-0.5,0-0.8-0.1c-0.2-0.1-0.2-0.4-0.4-0.6c-0.2-0.1-0.6,0-0.6,0
	c-0.1-0.2-0.7-1.1-0.8-1.2c0,0,0,0.6-0.5,0.6c-0.5,0-1.2-1.1-1.4-1.2c-0.2-0.1-0.3,0.2-0.7,0c-0.3-0.2-0.6-1.3-0.6-1.5
	c0-0.2-0.2-0.5-0.4-0.8c-0.1-0.3,0-2,0.1-2.1c0.2-0.4,0.3,0,0.4-0.6c0.1-0.6,0.5-0.6,0.8-0.6c0.3,0,0.4,0.1,0.5,0.3
	c0.1,0.2,0.5,0,0.7-0.1c0.2-0.1,0-0.4,0-0.5c0-0.2,0.5-0.1,0.7-0.2c0.3-0.2,0.7-0.3,0.8,0l0,0.1c-0.6-2.2-0.9-4.5-1-6.9h-6
	c0.3,9.9,4.4,18.9,10.9,25.6L34,63.3z M24.9,39.7c0.3-8.3,3.7-15.8,9.1-21.4l-4.2-4.2c-6.5,6.7-10.6,15.7-10.9,25.6H24.9z
	 M35.5,16.7c5.7-5.1,13.1-8.4,21.4-8.6V2.3c-9.9,0.3-18.8,4.1-25.6,10.3L35.5,16.7z M60,8.1c4.9,0.3,9.5,1.6,13.5,3.8l1.1-0.5
	c0,0-0.4-0.1,0.2,0c0.6,0.1,0.4,0,1,0.3c0.7,0.2,0.7,0,1,0.1c0.3,0.1,0.3,0.6,0.7,0.8c0.3,0.3,0.3,0,0.7,0.3c0.4,0.2,1,0.9,1.1,1.2
	c0.1,0.3,0.4-0.1,0.7,1.4c0,0,0.5,0.6,0.8,0.9l3.8-3.8C77.9,6.4,69,2.5,59.2,2.3v4.8c0.1,0,0.1,0,0.3,0C59.9,7.4,60,7.3,60,7.8
	C60,7.9,60,8,60,8.1 M82.1,18.3c1.3,1.4,2.5,2.8,3.5,4.4c0.3,0.3,0.8,0.8,0.9,1.1c0,0.2,0.1,0.3,0.1,0.4c0.1,0.2,0.2,0.3,0.3,0.5
	c0,0,0.1,0.1,0.1,0.1c0.4,0.5,0.6,0.7,0.9,1.3C88,26.5,88,26.8,88,27c1.8,3.9,2.9,8.2,3.1,12.7h6c-0.3-9.9-4.3-18.8-10.8-25.5
	L82.1,18.3z M58.1,33.9L58.1,33.9c-0.6,0-1.1,0.1-1.6,0.2c0.1,0.1,0.2,0.1,0.2,0.3c-0.1,0.4,0.3,1.2,0.3,1.2c-0.6,1-2.6,1.4-2.6,1.4
	c-0.4,0.3-0.2,0.7-0.6,1c-0.4,0.3-0.6,0.4-0.8,0.7c-0.2,0.3-0.2,0.6-0.3,1c-0.1,0.4,0.2,0.6,0.1,0.8c-0.1,0.3-0.2,1.1-0.4,1.3
	c-0.2,0.2-0.5-0.1-0.7-0.2c-0.2-0.1-0.3-1.2-0.5-1.3c0,0-0.1,0-0.1,0c0,0.2,0,0.3,0,0.5c0,0.5,0,1,0.1,1.4c0.3-0.1,0.2-0.2,0.3-0.2
	c0.7,0,0.3,0.4,0.6,0.4c0.3,0,0.5-0.1,0.5-0.8c0-0.6,0.6-0.7,0.8-0.6c0.2,0,0,0.5,0.1,0.6c0.1,0.1,0.3,0,0.3,0.4
	c0,0.4-0.7,0.8-0.8,1.4c-0.1,0.6-0.3,0.7-0.5,0.8c-0.4,0-0.3-0.7-0.5-0.3c-0.1,0.3,0.5,1,0.5,1c0.4-0.3,0.5-0.6,0.7-0.9
	c0.1-0.3,0.4-0.2,0.7-0.4c0.3-0.2,0.3-1.1,0.3-1.4c0-0.2,0.4-0.2,1.9-0.2c1.6-0.1,1.4,0.4,1.4,0.8c-0.1,0.4,0.2-0.1,0.2,0.4
	c0,0.5-0.6,0.9-0.7,1.3c-0.2,0.4,0.2,0.4,0,0.6c-0.2,0.2-0.3,0.4-0.3,0.4c-0.8,1-0.9,0.4-1.4,0.6c-0.5,0.2-1.1,0.1-1.1,0.1
	c-0.1,0-0.2,0.1-0.3,0.1c1.2,0.8,2.6,1.3,4.2,1.3c0.4,0,0.7,0,1-0.1c0.2-0.8,0.4-2.1,1-2.4c0.7-0.4,1.4,0.2,1.7,0
	c0.4-0.2,0.4-0.5,0.5-0.7c0.1-0.2,0.3-0.8,0.2-1.3c-0.2-0.4-0.5-0.3-0.6-0.6c-0.1-0.3,0.6-0.3,0.3-0.8c-0.5-0.7-0.4-1.1-0.6-1.3
	c-0.2-0.2-0.3,0-0.5-0.3c-0.2-0.3,0.1-0.5,0.1-0.8c0-0.3,0.5-0.4,0.5-0.7c-0.1-0.3-0.4,0-0.4-0.4c-0.1-0.4,0.2-0.9,0.2-0.9
	s-0.8,0-0.9-0.3c-0.1-0.3-0.6-1-1.2-1.3c-0.6-0.3-1.5-0.1-1.5-0.1c-0.1-0.4-0.8-0.9-0.8-0.9c-0.5-0.7-0.2-0.6,0.1-1
	c0.3-0.3,0.9,0,0.9-0.1C58.1,34,58.1,33.9,58.1,33.9 M99.3,40.8c0,22.5-18.5,40.8-41.3,40.8c-22.8,0-41.3-18.3-41.3-40.8
	C16.7,18.3,35.2,0,58,0C80.8,0,99.3,18.3,99.3,40.8 M76.5,24.1c0.2,0.2,0.3,0.3,0.5,0.5c0.5,0.5,0.9,1.1,1.3,1.6
	c0.2,0.3,0.4,0.6,0.6,0.8c0.2-0.1,0.4-0.2,0.6-0.3c0.4-0.2,0.6,0,0.7,0.5c0.1,0.5-0.7,0.4-0.4,0.9c0.1,0.2,0.8-0.1,0.9,0
	c0.1,0.1,0.2,0.4-0.1,0.7c-0.2,0.2-0.4,0.3-0.4,0.5c0.1,0.1,0.2,0.3,0.2,0.4c0.3,0.1,0.9-0.1,0.9,0.4c0,0.6,0.5,1,0.5,1.5
	c0,0.3-0.1,0.5-0.3,0.8c0.2,0.6,0.4,1.2,0.6,1.9c0.2-0.1,0.4-0.2,0.5-0.1c0,0,0,0.1,0,0.1s0.1,0.6,0,0.8c0,0.2-0.1,0.7-0.2,1
	c0.1,0.3,0.1,0.6,0.2,0.9c0.1,0.3,0.2,0.8,0.2,1.2l0,0c0,0.5,0.1,1,0.1,1.5h5.8c-0.1-3.9-1-7.5-2.5-10.9c-0.1,0-0.2,0-0.3,0
	c0,0-0.5,0.3-0.9,0.3c-0.4,0-0.6-0.5-0.6-0.5s-1.6-2.2-1.9-2.3c0,0-0.3-0.3-0.9-0.4c-0.7-0.1-0.6-0.4-0.6-0.4S80.5,25.2,80,25
	l-0.5-1c0,0,0-0.3,0-0.4c-0.1-0.1-1.2-0.2-1.2-0.2s-0.5-0.2-0.7-0.5l-1,1C76.6,24,76.6,24,76.5,24.1 M59.2,16
	c4.7,0.2,9,1.7,12.7,4.1c-0.2-0.3-0.3-0.7-0.4-0.8c-0.1-0.2,0.3-0.3,0.3-0.3c-0.7-0.9-0.8-1.3-0.6-1.5c0.2-0.2,0.9,0.4,1.2,0.9
	c0.4,0.6,0.8,1.1,1.1,1.2c0.3,0.1,0.9,0,1.1,0.6c0.1,0.5,0.4,0.7,0.5,1.4c0,0.1,0.1,0.2,0.1,0.3l1.7-1.7c-0.1-0.4-0.4-0.8-0.9-1.1
	l-1.2,0.4c0,0-0.4,0.2-0.6-0.1C74,19.3,74,18.7,74,18.7s-0.5-0.3-0.5-0.6c0-0.3,0.3-1,0.1-1.3c-0.2-0.3-0.6-0.5-0.6-0.5
	s-0.2-1-0.4-1.4c-0.2-0.4-1.2-1.3-1.2-1.3s0-0.1,0-0.2c-3.7-1.8-7.9-2.9-12.3-3V16z M41.2,22.4c4.2-3.7,9.7-6.1,15.7-6.3v-5.7
	c-7.6,0.3-14.6,3.2-19.8,8L41.2,22.4z M32.9,39.7c0.3-6.1,2.8-11.6,6.7-15.8l-4.1-4.1c-5,5.2-8.1,12.2-8.4,19.8H32.9z M33.1,44
	c-0.1-0.7-0.2-1.4-0.2-2.1h-5.8c0.1,2.8,0.6,5.6,1.5,8.2c0,0,0.1,0,0.1,0c0.2-0.1,0-0.3,0.1-0.6c0.1-0.3,0.4,0,0.5-0.2
	c0.1-0.2-0.1-0.3-0.1-0.5c0-0.2,0.3-0.3,0.3-0.5c0-0.2-0.1,0.1-0.2-0.3c-0.1-0.5,0.3-1,0.3-1.1c0-0.1,0.2-0.5,0.4-1
	c0.3-0.5,1.3-0.8,1.6-1.2c0.1-0.1,0.3-0.7,0.9-0.8C32.7,43.8,32.9,43.9,33.1,44 M56.9,65.5c-5.9-0.2-11.2-2.5-15.3-6
	c0.2,0.2,0.5,0.5,0.7,0.7c1.2,1,1.3,1.6,1.2,2.2c-0.1,0.5-2.6,0.5-2.6,0.5l-0.1,0c-0.9,0.4-2.2,0.7-2.8,0.6
	c-0.3-0.1-0.5-0.2-0.7-0.4l-0.2,0.2c5.2,4.7,12.2,7.7,19.8,7.9V65.5z M59.2,66v5.2c1.6-0.1,3.1-0.2,4.6-0.5
	c-0.9-0.7-1.2-0.7-1.4-0.8c-0.3-0.2-0.6-0.7-0.9-1.5c-0.3-0.8,0.6-0.9,0.4-1.5c-0.2-0.6-2.1-0.4-2.1-0.4S60,66.8,59.2,66 M75.5,65.8
	c1.2-0.8,2.3-1.7,3.3-2.6L78.7,63c-0.2,0-0.4,0-0.5-0.1c-0.1-0.2-0.2-0.4-0.3-0.7l-3.1-3.1c-0.3,0.4-0.6,0.7-0.6,0.7l0,0.7
	c1.9,0.9,2.4,1.7,2.4,2.1c0,0.4-1.4,1.6-1.4,1.9c0,0.4,0.5,0.6,0.5,1C75.6,65.7,75.6,65.8,75.5,65.8 M83,41.9
	c-0.1,1.2-0.2,2.3-0.4,3.4c0.2,0.4,0.9,0.9,0.9,1.3c0.1,0.4-0.7,1-0.9,0.6c-0.1-0.2-0.3-0.3-0.4-0.3c-1,4.1-3.1,7.7-5.9,10.7l2,2
	c0-0.2,0.1-0.4,0-0.6c-0.1-0.7,0.1-0.9,0.3-0.9c0.1,0,1,0,1.3,0.9c0.1,0.3,0.2,0,0.3,0.5c-0.1,0.3,0.1,0.9,0.1,0.9s0.1,0.2,0.2,0.5
	c0,0.2,0,0.3-0.1,0.6c4.9-5.2,8-12,8.3-19.6H83z M65.6,50.6c-0.5-0.2-0.8,0.2-0.8,0.2l-0.7,0.5c0,0-0.2,0.3,0,0.4
	c0.1,0.2,0.5-0.2,0.5-0.2l0.7-0.4l0.4-0.2C65.7,51,66.1,50.8,65.6,50.6 M27.6,3.9c0,0-1.4,0.5-3.4,1.2c-2,0.8-4.4,1.9-6.1,3.7
	c-2.7,3-3.4,5.7-4.1,8c-0.4,1.2-0.7,2.1-0.7,2.1s5.1-4,6.6-5.8c1.5-1.7,3.3-4.9,4.6-6.2C25.9,5.6,27.6,3.9,27.6,3.9 M8.5,30.6
	c0,0,0.7-1.5,2-2.9c0.7-0.7,1.8-2,3.3-3.1c1.5-1.2,3.1-2.4,4.2-3.3c2.1-1.9,4.1-5.5,4-8.7c0,0-0.8,1.9-2.2,3.3
	c-1.4,1.4-4.8,3.3-6.2,4.6c-1.4,1.3-2.9,3-3.6,5.1l-0.1,0c0,0,1.4-4,1.8-5.5c0.4-1.5,0.7-3.9,1.6-6.3c0.8-2.3,1.8-3.3,3.3-4.3
	c0.1,0,0-0.2,0-0.2s-5.9,0.9-8.2,8.6c-0.6,2.2,0.2,7.5,0,9.5c-0.1,2-0.1,3.3-0.1,3.3L8.5,30.6l0.1-0.1 M7.6,16.6
	c0.2-0.2,0.3,0,0.3,0s-1.6,1.9-1.5,5.9c0.1,3.9,0.7,4.6,0.8,8c0.1,3.5-0.4,7.6-0.4,7.6l0.2,0c0,0,0-2.2,1.4-5.1
	c1.4-2.8,6.8-7.3,6.8-7.3s1.7-1.7,1.8-2.7c0.2-0.2,0.3,0.1,0.3,0.1s-0.3,2.5-1.8,6c-1.6,3.5-4.8,6.8-5.9,8.9c-1,2-1.9,2.8-2.7,6.7
	l-0.2,0c0,0-0.1-1.8-1.4-5.4c-1.2-3.6-1.5-3-2.2-6.3c-0.7-3.3-0.2-7.1,0.1-7.8C3.3,24.5,4.3,20.1,7.6,16.6 M13.4,34.1
	c0-0.2,0.3-0.4,0.3,0c0,0.4-0.3,5.7-0.9,8.7c-0.7,3-2.7,9.4-2.9,10.3c-0.2,0.9-0.3,5,0,6.2c0,0,0,0.4-0.2,0.1
	c-0.2-0.2-2.1-3.2-3.1-4.4c-1.1-1.2-3.7-4.4-4.4-6C1.4,47.4-0.3,42.9,0,37.8c0.3-5.1,1.5-6.4,1.5-6.4s0.2-0.1,0.2,0.1
	c-0.1,0.2-0.3,2.2-0.1,4.1c0.3,1.9,0.9,3.8,2.1,6S5.7,46.1,6,47c0.3,0.9,0.8,2.8,1,4.3C7.2,52.9,7.8,54,7.8,54l0.1,0
	c0,0-0.6-1.2-0.7-4c-0.1-2.8,0.6-4.8,1.8-7C10.1,40.8,13.3,36.2,13.4,34.1 M12.7,47.3c0,0,0.3,1.8,0.1,3.1c-0.2,1.3-1.4,6.4-1.4,9.2
	c0.1,2.8,0.8,5.3,2.6,7.8l-0.1,0.1c0,0-3-4.2-4.4-6C8.1,59.6,5,57,3.7,55.3c-1.4-1.7-2.9-3.8-3.4-7H0.1c0,0-0.7,4.7,1.3,9.2
	c2,4.5,4.1,6.2,5.5,7.5c1.4,1.3,5.7,4.1,7.7,5.3c2.1,1.2,3.7,2.5,3.7,2.5s0.2,0,0.2-0.1c0-0.1-1.6-3.1-2.1-4.9
	c-0.4-1.8-0.8-4.9-0.9-7.2c-0.1-2.3-1-10.7-2.6-13.3L12.7,47.3z M3.8,63.8c0,0,0.7,5.6,6.1,10.4c4,3.6,7.7,5.1,9.7,5.5
	c1.9,0.4,3.9,0.6,5.6,1c1.7,0.3,4.1,0.9,4.6,1.2c0,0,0.2,0.1,0.1-0.1c-0.1-0.2-0.8-0.5-2.7-3c-1.9-2.5-3.6-8.2-3.6-8.2
	s-0.8-2.3-1.7-4.3c-1-2-4.4-6.9-5-7.4c0,0-0.3-0.2-0.3,0c0,0.2,0.7,1.3,1.1,3.2c0.4,1.9,1,6.5,1.4,7.8c0.4,1.3,1.1,3.7,2.7,5.7
	c1.8,2.2,1.8,1.9,3.2,3.2c0.3,0.2-0.1,0.1-0.1,0.1s-1.6-0.9-2.6-1.7c-1-0.8-1.4-1.3-3.4-2.5c-2-1.2-4.7-2.1-8.6-4.4
	C6.4,68,4.8,65.5,4,63.8C4,63.8,3.8,63.5,3.8,63.8 M37.4,84.1c-0.2,0-3.3-0.6-7.9-1.1c-4.7-0.5-6.7-0.2-10.1-1.1
	c-3.7-0.9-5.5-2.8-6.5-3.9c0,0-0.3-0.1-0.2,0.1c0.1,0.2,2.4,4.6,7.8,7.3c5.4,2.7,11.4,1.9,12.8,1.6c1.4-0.3,3.4-0.9,5.5-1.5
	c2.1-0.6,4.8-1.1,6.1-1.1c0,0,0.2-0.3-0.3-0.3c-0.7-0.1-2.5-0.2-5-1.4c-4.1-2.1-5.6-4.1-7.5-5.9c-1.9-1.8-5.3-5-7.1-5.9
	c0,0-0.2,0,0,0.2c0.2,0.2,1.5,2,2.3,3.9c0.7,1.8,1.7,3.7,3.1,5.2c1.4,1.5,3.4,2.9,7.2,3.7C37.4,83.9,37.6,84,37.4,84.1 M22.2,87.7
	c0,0,5,5.8,12.5,5.8c5.9,0,10-3.2,10-3.2s4.3-3.1,6.5-4.2c1.9-0.9,4.6-0.2,4.6-0.2s-3.1,1.1-6.1,3.3c-3,2.2-4.1,2.9-7,5.9l2.6,2.1
	c0,0,1.8-2.6,5.4-5.6c3.5-3,5.5-4.1,7.7-5c0,0,7.1,3.2,12.9,10.6l2.6-2.2c0,0-5.9-6-13-9.1c0,0,0.7-0.4,3.8-0.1
	c1.4,0.1,2.6,1.2,4.1,2.3c1.5,1,4.4,3,6.3,3.9c2,0.8,4.6,1.4,6.7,1.4c2.1,0.1,8.2-0.8,12.6-5.9c0,0,0-0.2-0.2-0.1
	c-2.7,1.4-4.2,2.4-8.6,2.3c-2.4-0.1-5.4-0.8-9.3-2.5c-3.9-1.8-6.4-2.9-11-3c-4.5,0-6.7,0.7-7.1,0.9c0,0-2.1-1-6.1-1
	c-4.1,0-7.7,1.2-10,2.3c-2.3,1.1-6.7,3.6-11.8,3.5c-4.8,0-7.8-2.3-7.9-2.3C22.3,87.5,22.2,87.7,22.2,87.7 M87.9,3.5
	c0,0,1.8,0.6,3.8,1.4c2,0.7,4.3,1.9,5.9,3.7c2.7,3,3.4,5.6,4.1,7.9c0.2,0.8,0.7,2,0.8,1.9c0.1,0-0.1,0.2-0.1,0.2s-5.1-4-6.6-5.8
	c-1.5-1.7-3.3-4.8-4.6-6.1C89.8,5.4,87.9,3.5,87.9,3.5 M107.5,30.3c0,0-0.7-1.5-2-2.9c-0.7-0.7-1.8-2-3.3-3.1
	c-1.5-1.2-3.1-2.2-4.2-3.2c-2.1-1.9-4.4-5.5-4.3-8.8c0,0,1,1.9,2.4,3.3c1.4,1.4,4.8,3.2,6.2,4.5c1.4,1.3,2.9,3,3.5,5l0.2,0
	c0,0-1.5-4-1.9-5.4c-0.4-1.5-0.7-3.9-1.6-6.3c-0.8-2.3-1.9-3.4-3.4-4.4c-0.1,0,0.1-0.1,0.1-0.1s5.8,0.9,8.1,8.6
	c0.6,2.2,0,7.4,0.1,9.4c0.1,2,0.2,3.4,0.2,3.4H107.5z M108.1,16.2c-0.2-0.2-0.1,0.1-0.1,0.1s1.6,2.2,1.5,6.1
	c-0.1,3.9-0.6,4.1-0.7,7.5c-0.1,3.5,0.4,7.7,0.4,7.7h-0.2c0,0-0.1-2.2-1.2-4.7c-1.3-2.9-6.8-7.3-6.8-7.3s-1.9-1.8-2-2.8
	c-0.2-0.2-0.3,0-0.3,0s0.4,2.8,2,6.3c1.6,3.5,5.1,6.9,6.1,8.9c1,2,1.7,2.3,2.4,6.2l0.2,0c0,0,0-1.7,1.2-5.3c1.2-3.6,1.5-3.3,2.1-6.6
	c0.7-3.3,0.2-6.6,0-7.3C112.6,24.4,111.4,19.7,108.1,16.2 M102.6,33.9c0-0.2-0.3-0.4-0.3,0c0,0.4,0,4.1,1.1,8.7
	c0.7,3,2.7,9.4,2.9,10.3c0.4,1.5,0.3,5,0,6.2c0,0,0,0.4,0.2,0.2c0.2-0.2,2-3.3,3.1-4.5c1.1-1.2,3.6-4.3,4.3-6
	c0.7-1.6,2.3-5.2,2.1-10.4c-0.2-4.7-1.6-7.4-1.6-7.4s-0.2-0.1-0.1,0c0,0.2,0.3,2.3,0.1,4.2c-0.3,1.9-0.7,3.1-1.8,5.5
	c-1.1,2.3-2.1,5-2.4,5.9c-0.3,0.9-0.7,3-0.9,4.6c-0.2,1.5-0.9,2.6-0.9,2.6l-0.2-0.1c0,0,0.6-1.2,0.8-3.9c0.2-2.8-1-5.6-1.8-7
	C106,40.7,102.7,36,102.6,33.9 M103.4,46.9c0,0-0.2,1.8-0.1,3c0.2,1.3,1.6,6.5,1.5,9.3c-0.1,2.8-0.7,5.3-2.5,7.8l0.1,0.1
	c0,0,3-4.2,4.4-6c1.4-1.8,4.4-4.6,5.8-6.2c1.5-1.6,2.7-4,3.2-7.1h0.1c0,0,0.8,4.8-1.2,9.3c-2,4.5-4,6.2-5.5,7.5
	c-1.4,1.3-5.6,4.1-7.7,5.3c-2.1,1.2-3.7,2.5-3.7,2.5s-0.2,0-0.2-0.1c0-0.1,1.6-3.1,2.1-4.9c0.4-1.8,0.8-4.9,0.9-7.2
	c0.1-2.3,0.8-10.7,2.4-13.3L103.4,46.9z M112.5,63.5c0,0-0.6,5.6-6,10.4c-4,3.6-7.4,5-9.3,5.5c-1.8,0.5-3.9,0.7-5.6,1
	c-1.7,0.3-4.3,1-4.8,1.3c0,0-0.2,0.1-0.1-0.1c0.1-0.2,0.8-0.4,2.7-2.9c1.9-2.5,3.5-8.2,3.5-8.2s0.9-2.9,1.9-5c1-2,4.1-6.4,4.7-6.9
	c0,0,0.3-0.2,0.3,0c0,0.2-0.7,1.4-1.1,3.3c-0.7,3.2-0.8,6.5-1.2,7.8c-0.4,1.3-1.1,3.6-2.6,5.6c-1.8,2.2-1.8,1.9-3.2,3.2
	c-0.3,0.2,0,0.1,0,0.1S93,77.8,94,77c1-0.8,2.2-1.8,4.2-3c2-1.2,4.1-1.7,8-4c3.9-2.3,5.3-4.8,6.1-6.5
	C112.3,63.5,112.5,63.1,112.5,63.5 M79.2,83.9c0.2,0,3.2-0.6,7.9-1.1c4.7-0.5,6.5-0.3,9.9-1.2c3.7-0.9,5.6-2.9,6.6-4
	c0,0,0.3-0.1,0.2,0.1c-0.1,0.2-2.4,4.7-7.8,7.4c-5.4,2.7-11.1,2-12.5,1.7c-1.4-0.3-3.4-0.9-5.5-1.5c-2.1-0.6-4.8-1.1-6.1-1.1
	c0,0-0.2-0.3,0.3-0.3c0.7-0.1,3.3-0.7,5-1.4c2.9-1.3,5.4-4.2,7.3-6.1c2-1.8,5.2-5.1,7-5.9c0,0,0.2,0,0,0.2c-0.2,0.2-1.5,2.1-2.3,3.9
	c-0.7,1.8-1.6,3.8-3,5.3c-1.4,1.6-3.3,2.9-7,3.7C79.2,83.7,79,83.8,79.2,83.9"/>
</svg>
