<?xml version="1.0" encoding="utf-8"?>
<!-- Generator: Adobe Illustrator 20.0.0, SVG Export Plug-In . SVG Version: 6.00 Build 0)  -->
<svg version="1.1" id="Layer_1" xmlns="http://www.w3.org/2000/svg" xmlns:xlink="http://www.w3.org/1999/xlink" x="0px" y="0px"
	 viewBox="0 0 595.4 254.1" style="enable-background:new 0 0 595.4 254.1;" xml:space="preserve">
<style type="text/css">
	.st0{fill:url(#SVGID_1_);}
	.st1{fill:#FFFFFF;}
	.st2{fill:none;stroke:#6D6E71;stroke-width:0.5;stroke-linecap:round;stroke-miterlimit:10;}
	.st3{fill:#C5CACB;}
	.st4{fill:#77787B;}
	.st5{fill:#A7A9AC;}
	.st6{fill:none;stroke:#A7A9AC;stroke-width:0.4162;stroke-miterlimit:10;}
	.st7{fill:#FED7B0;}
	.st8{fill-rule:evenodd;clip-rule:evenodd;fill:#A97C50;}
	.st9{fill:#00804C;}
	.st10{fill:none;stroke:#00804C;stroke-width:0.4162;stroke-miterlimit:10;}
	.st11{fill:#C49A6C;}
	.st12{fill-rule:evenodd;clip-rule:evenodd;fill:#603913;}
	.st13{fill:none;stroke:#77787B;stroke-width:0.4162;stroke-miterlimit:10;}
	.st14{fill:#19181C;}
	.st15{fill:#231F20;}
	.st16{fill:#026CB6;}
	.st17{fill:none;stroke:#026CB6;stroke-width:0.4162;stroke-miterlimit:10;}
	.st18{fill:#A97C50;}
	.st19{fill:#511C74;}
	.st20{fill:none;stroke:#511C74;stroke-width:0.4162;stroke-miterlimit:10;}
	.st21{fill:#F47932;}
	.st22{fill:none;stroke:#F47932;stroke-width:0.4162;stroke-miterlimit:10;}
	.st23{fill:#ABD2B7;}
	.st24{fill:none;stroke:#ABD2B7;stroke-width:0.4162;stroke-miterlimit:10;}
	.st25{fill:#659AD2;}
	.st26{fill:none;stroke:#659AD2;stroke-width:0.4162;stroke-miterlimit:10;}
	.st27{fill:#603913;}
	.st28{fill:#BA1222;}
	.st29{fill:none;stroke:#BA1222;stroke-width:0.4162;stroke-miterlimit:10;}
	.st30{fill:none;stroke:#77787B;stroke-width:0.3211;stroke-miterlimit:10;}
	.st31{fill:none;stroke:#77787B;stroke-width:0.3631;stroke-miterlimit:10;}
	.st32{fill:none;stroke:#231F20;stroke-width:0.4162;stroke-miterlimit:10;}
	.st33{fill:none;stroke:#BA1222;stroke-width:0.3296;stroke-miterlimit:10;}
	.st34{fill:#6D6E71;}
	.st35{fill:#9BA0A3;}
	.st36{fill:#6E7276;}
	.st37{fill:none;stroke:#6E7276;stroke-linecap:round;stroke-linejoin:round;stroke-miterlimit:10;}
	.st38{fill:#E8474D;}
	.st39{fill:#F26522;}
	.st40{fill:#D14E4F;}
	.st41{clip-path:url(#SVGID_3_);fill:#B3B3B3;}
	.st42{clip-path:url(#SVGID_3_);fill:#77787B;}
	.st43{clip-path:url(#SVGID_3_);}
	
		.st44{clip-path:url(#SVGID_3_);fill:none;stroke:#77787B;stroke-width:0.3;stroke-linecap:round;stroke-linejoin:round;stroke-miterlimit:10;}
	.st45{clip-path:url(#SVGID_5_);}
	.st46{fill:#8E8E8E;}
	
		.st47{clip-path:url(#SVGID_5_);fill:none;stroke:#77787B;stroke-width:0.3;stroke-linecap:round;stroke-linejoin:round;stroke-miterlimit:10;}
	.st48{clip-path:url(#SVGID_7_);}
	.st49{fill:#B3B3B3;}
	
		.st50{clip-path:url(#SVGID_7_);fill:none;stroke:#77787B;stroke-width:0.3;stroke-linecap:round;stroke-linejoin:round;stroke-miterlimit:10;}
	.st51{clip-path:url(#SVGID_7_);fill:none;stroke:#B3B3B3;stroke-width:0.3;stroke-miterlimit:10;}
	.st52{clip-path:url(#SVGID_9_);}
	.st53{clip-path:url(#SVGID_9_);fill:none;stroke:#8E8E8E;stroke-width:0.3;stroke-miterlimit:10;}
	.st54{fill:#CFB691;}
	.st55{fill:#95B6DF;}
	.st56{fill:#FED09E;}
	.st57{fill:#646464;}
	.st58{font-family:'RobotoSlab-Bold';}
	.st59{font-size:12px;}
	.st60{font-family:'Roboto-Black';}
	.st61{font-size:26px;}
	.st62{fill:#646565;}
	.st63{fill:none;stroke:#E8474D;stroke-width:1.5;stroke-miterlimit:10;stroke-dasharray:4,3;}
	.st64{font-family:'Roboto-Light';}
	.st65{font-size:10px;}
	.st66{fill:none;}
</style>
<linearGradient id="SVGID_1_" gradientUnits="userSpaceOnUse" x1="297.7233" y1="254.1205" x2="297.7233" y2="141.4679">
	<stop  offset="0" style="stop-color:#C7D6EE"/>
	<stop  offset="1" style="stop-color:#95B6DF;stop-opacity:0"/>
</linearGradient>
<polyline class="st0" points="0.1,141.5 595.4,141.5 595.4,254.1 0.1,254.1 "/>
<g>
	<g>
		<path class="st1" d="M558.7,175.4c-2.9,2-5.8-2-8.7,0c0-1.7,0-3.4,0-5.1c2.9-2,5.8,2,8.7,0C558.7,172,558.7,173.7,558.7,175.4z"/>
	</g>
	<line class="st2" x1="550" y1="170.3" x2="550" y2="181"/>
	<path class="st1" d="M536,188.2c3-4.4,8-7.3,13.7-7.3s10.7,2.9,13.7,7.3"/>
	<rect x="526.4" y="191.5" class="st1" width="46.6" height="38.8"/>
	<rect x="529.9" y="188.2" class="st3" width="39.5" height="3.3"/>
	<rect x="512.8" y="206.3" class="st1" width="13.5" height="24"/>
	<rect x="513.9" y="204.3" class="st3" width="11.5" height="2"/>
	<rect x="573" y="206.3" class="st1" width="13.5" height="24"/>
	<rect x="574" y="204.3" class="st3" width="11.5" height="2"/>
	<rect x="545.8" y="220.6" class="st4" width="7.8" height="9.7"/>
	<rect x="532.2" y="199.3" class="st4" width="3.9" height="5.8"/>
	<rect x="532.2" y="209" class="st4" width="3.9" height="5.8"/>
	<rect x="517.7" y="209" class="st4" width="3.9" height="5.8"/>
	<rect x="577.8" y="209" class="st4" width="3.9" height="5.8"/>
	<rect x="540" y="199.3" class="st4" width="3.9" height="5.8"/>
	<rect x="540" y="209" class="st4" width="3.9" height="5.8"/>
	<rect x="547.7" y="199.3" class="st4" width="3.9" height="5.8"/>
	<rect x="547.7" y="209" class="st4" width="3.9" height="5.8"/>
	<rect x="555.5" y="199.3" class="st4" width="3.9" height="5.8"/>
	<rect x="555.5" y="209" class="st4" width="3.9" height="5.8"/>
	<rect x="563.3" y="199.3" class="st4" width="3.9" height="5.8"/>
	<rect x="563.3" y="209" class="st4" width="3.9" height="5.8"/>
</g>
<g id="BOAT">
	<g>
		<g>
			<path class="st5" d="M379.4,226.2l0-1.5c0-0.3-0.2-0.6-0.5-0.6c-0.3,0-0.5,0.3-0.5,0.6l-0.1,1.4"/>
			<path class="st6" d="M379.4,226.2l0-1.5c0-0.3-0.2-0.6-0.5-0.6c-0.3,0-0.5,0.3-0.5,0.6l-0.1,1.4"/>
		</g>
		<g>
			<g>
				
					<ellipse transform="matrix(0.1577 -0.9875 0.9875 0.1577 98.5967 562.5477)" class="st7" cx="379.1" cy="223.5" rx="0.6" ry="0.5"/>
			</g>
			<path class="st8" d="M379.1,223.1c0.1,0,0.1,0,0.2,0c0.1,0.1,0.2,0.2,0.3,0.3c0,0.2,0,0.1,0.1,0c0.1-0.1-0.1-0.7-0.5-0.7
				s-0.6,0.4-0.5,0.6c0.1,0.2,0.1,0.2,0.1,0C378.7,223.3,378.8,223.1,379.1,223.1z"/>
		</g>
	</g>
	<g>
		<g>
			<path class="st9" d="M370.8,226.1l0-1.5c0-0.3-0.2-0.6-0.5-0.6c-0.3,0-0.5,0.3-0.5,0.6l-0.1,1.4"/>
			<path class="st10" d="M370.8,226.1l0-1.5c0-0.3-0.2-0.6-0.5-0.6c-0.3,0-0.5,0.3-0.5,0.6l-0.1,1.4"/>
		</g>
		<g>
			<g>
				
					<ellipse transform="matrix(0.9999 -1.324701e-02 1.324701e-02 0.9999 -2.9282 4.9258)" class="st11" cx="370.4" cy="223.5" rx="0.5" ry="0.6"/>
			</g>
			<path class="st12" d="M370.3,223.1c0.1,0,0.1-0.1,0.2,0c0.1,0,0.3,0.2,0.3,0.3c0.1,0.2,0,0.1,0.1,0c0-0.1-0.2-0.6-0.6-0.6
				c-0.4,0.1-0.5,0.5-0.4,0.7s0.1,0.2,0.1,0C370,223.3,370,223.2,370.3,223.1z"/>
			<path class="st12" d="M370.5,223.1c0,0.1-0.2,0.2-0.3,0.2c0,0,0-0.1,0-0.1c0,0-0.1,0.1-0.2,0.2c0,0,0-0.1,0-0.1
				c-0.1,0.1-0.1,0.2-0.1,0.3s0,0.1,0,0c0-0.1-0.1-0.2-0.1-0.3c0-0.1,0.4-0.3,0.6-0.3c0.1,0,0.3,0.1,0.3,0.2c0,0.1,0,0.2,0,0.3
				s0,0.1,0,0C370.7,223.3,370.6,223.2,370.5,223.1z"/>
		</g>
	</g>
	<g>
		<g>
			<path class="st4" d="M374.7,226.2l-0.1-1.5c0-0.3-0.3-0.5-0.5-0.5s-0.5,0.3-0.5,0.6l0,1.4"/>
			<path class="st13" d="M374.7,226.2l-0.1-1.5c0-0.3-0.3-0.5-0.5-0.5s-0.5,0.3-0.5,0.6l0,1.4"/>
		</g>
		<g>
			<g>
				
					<ellipse transform="matrix(0.993 -0.1181 0.1181 0.993 -23.8034 45.7535)" class="st7" cx="374.1" cy="223.7" rx="0.5" ry="0.6"/>
				<path class="st14" d="M374.5,223.5C374.5,223.6,374.5,223.6,374.5,223.5C374.5,223.6,374.5,223.6,374.5,223.5c0,0.1,0-0.1,0-0.1
					c0,0-0.2-0.2-0.2-0.2c-0.1,0-0.1,0-0.2,0.1l0,0c-0.1,0-0.2,0-0.2,0c-0.1,0-0.2,0.2-0.2,0.3c0,0,0,0.2,0,0.2s0,0,0,0c0,0,0,0,0,0
					c0-0.2-0.1-0.7,0.4-0.8l0,0C374.5,222.8,374.5,223.3,374.5,223.5z"/>
			</g>
		</g>
	</g>
	<g>
		<path class="st15" d="M377.5,223.6l-0.1,0.9l1.1,0.1c0,0,0.1-0.9,0.1-1.1"/>
		<g>
			<path class="st16" d="M378.3,226.4l0.1-1.5c0-0.3-0.2-0.6-0.4-0.6c-0.3,0-0.5,0.2-0.5,0.6l-0.1,1.4"/>
			<path class="st17" d="M378.3,226.4l0.1-1.5c0-0.3-0.2-0.6-0.4-0.6c-0.3,0-0.5,0.2-0.5,0.6l-0.1,1.4"/>
		</g>
		
			<ellipse transform="matrix(7.355761e-02 -0.9973 0.9973 7.355761e-02 126.9906 584.3348)" class="st18" cx="378" cy="223.8" rx="0.6" ry="0.5"/>
		<path class="st15" d="M378.5,223.6c0,0-0.3,0.3-1,0.3l0-0.4l0.4-0.3l0.5,0.2L378.5,223.6z"/>
		<path class="st15" d="M378,223.4c-0.5,0-0.5,0.5-0.5,0.5c-0.1,0-0.1-0.1-0.1-0.1c0,0,0,0,0,0c0,0,0,0,0-0.1c0,0,0-0.1,0-0.1
			c0,0,0,0,0-0.1c0,0,0-0.1,0.1-0.1c0,0,0,0,0,0c0-0.1,0-0.1,0.1-0.1c0-0.1,0-0.1,0.1-0.1c0,0,0,0,0,0c0,0,0.1-0.1,0.1-0.1
			c0,0,0.1,0,0.1,0c0,0,0.1-0.1,0.1-0.1s0.1,0,0.1,0.1c0,0,0.1,0,0.1,0c0,0,0.1,0,0.1,0.1c0,0,0,0,0,0c0.1,0,0.1,0,0.1,0.1
			c0.1,0,0.1,0,0.1,0.1c0,0,0,0,0,0c0,0,0.1,0.1,0.1,0.1c0,0,0,0.1,0,0.1c0,0,0,0,0,0.1c0,0,0,0.1,0,0.1c0,0,0,0,0,0
			c0,0.1,0,0.1-0.1,0.1C378.5,223.8,378.5,223.4,378,223.4L378,223.4z"/>
	</g>
	<g>
		<g>
			<path class="st18" d="M363,223.4c0,0-0.1,0.6,0,1.2s1.1,0,1.1,0s0.1-1.1,0-1.3"/>
			<g>
				<path class="st19" d="M364,226.4l-0.1-1.5c0-0.3-0.2-0.6-0.5-0.5c-0.3,0-0.5,0.3-0.5,0.6l0,1.4"/>
				<path class="st20" d="M364,226.4l-0.1-1.5c0-0.3-0.2-0.6-0.5-0.5c-0.3,0-0.5,0.3-0.5,0.6l0,1.4"/>
			</g>
			
				<ellipse transform="matrix(0.9999 -1.631605e-02 1.631605e-02 0.9999 -3.6043 5.9611)" class="st7" cx="363.5" cy="223.9" rx="0.5" ry="0.6"/>
		</g>
		<path class="st18" d="M364,223.9c0,0-0.1-0.1-0.2-0.2c-0.1,0-0.2,0.1-0.3,0.1c0,0-0.1-0.1-0.1-0.1c-0.1,0.1-0.2,0.1-0.3,0.2
			l-0.1-0.2c0,0,0-0.1,0-0.2c0-0.2,0.2-0.3,0.5-0.3c0.3,0,0.5,0.2,0.5,0.3C364,223.5,364,223.9,364,223.9z"/>
	</g>
	<g>
		<g>
			<path class="st15" d="M372.3,223.4c0,0-0.1,0.6,0,1.2c0.1,0.6,1.1,0,1.1,0s0.1-1.1,0-1.3"/>
			<g>
				<path class="st21" d="M373.3,226.4l-0.1-1.5c0-0.3-0.2-0.6-0.5-0.5c-0.3,0-0.5,0.3-0.5,0.6l0,1.4"/>
				<path class="st22" d="M373.3,226.4l-0.1-1.5c0-0.3-0.2-0.6-0.5-0.5c-0.3,0-0.5,0.3-0.5,0.6l0,1.4"/>
			</g>
			
				<ellipse transform="matrix(0.9999 -1.631605e-02 1.631605e-02 0.9999 -3.603 6.1127)" class="st7" cx="372.8" cy="223.9" rx="0.5" ry="0.6"/>
		</g>
		<path class="st15" d="M373.3,223.9c0,0-0.1-0.1-0.2-0.2c-0.1,0-0.2,0.1-0.3,0.1c0,0-0.1-0.1-0.1-0.1c-0.1,0.1-0.2,0.1-0.3,0.2
			l-0.1-0.2c0,0,0-0.1,0-0.2c0-0.2,0.2-0.3,0.5-0.3c0.3,0,0.5,0.2,0.5,0.3C373.3,223.5,373.3,223.9,373.3,223.9z"/>
	</g>
	<g>
		<g>
			<path class="st23" d="M376.6,226.4l0-1.5c0-0.3-0.2-0.6-0.5-0.6c-0.3,0-0.5,0.3-0.5,0.6l-0.1,1.4"/>
			<path class="st24" d="M376.6,226.4l0-1.5c0-0.3-0.2-0.6-0.5-0.6c-0.3,0-0.5,0.3-0.5,0.6l-0.1,1.4"/>
		</g>
		
			<ellipse transform="matrix(7.355761e-02 -0.9973 0.9973 7.355761e-02 125.393 582.4644)" class="st18" cx="376.2" cy="223.7" rx="0.6" ry="0.5"/>
		<path class="st15" d="M376.2,223.3c-0.5,0-0.5,0.5-0.5,0.5c-0.1,0-0.1-0.1-0.1-0.1c0,0,0,0,0,0c0,0,0,0,0-0.1c0,0,0-0.1,0-0.1
			c0,0,0,0,0-0.1c0,0,0-0.1,0.1-0.1c0,0,0,0,0,0c0-0.1,0-0.1,0.1-0.1c0-0.1,0-0.1,0.1-0.1c0,0,0,0,0,0c0,0,0.1-0.1,0.1-0.1
			c0,0,0.1,0,0.1,0c0,0,0.1-0.1,0.1-0.1s0.1,0,0.1,0.1c0,0,0.1,0,0.1,0c0,0,0.1,0,0.1,0.1c0,0,0,0,0,0c0.1,0,0.1,0,0.1,0.1
			c0.1,0,0.1,0,0.1,0.1c0,0,0,0,0,0c0,0,0.1,0.1,0.1,0.1c0,0,0,0.1,0,0.1c0,0,0,0,0,0.1c0,0,0,0.1,0,0.1c0,0,0,0,0,0
			c0,0.1,0,0.1-0.1,0.1C376.7,223.8,376.7,223.3,376.2,223.3L376.2,223.3z"/>
		<path class="st15" d="M376.7,223.7c0,0-0.1-0.2-0.2-0.3c-0.1,0-0.2,0-0.2,0h0c-0.1,0-0.2-0.1-0.2,0c-0.1,0-0.2,0.2-0.2,0.3
			c0,0,0-0.5,0.5-0.5h0C376.7,223.1,376.7,223.7,376.7,223.7z"/>
	</g>
	<g>
		<g>
			<path class="st16" d="M367.6,226.4l0-1.5c0-0.3-0.2-0.6-0.5-0.6c-0.3,0-0.5,0.3-0.5,0.6l-0.1,1.4"/>
			<path class="st17" d="M367.6,226.4l0-1.5c0-0.3-0.2-0.6-0.5-0.6c-0.3,0-0.5,0.3-0.5,0.6l-0.1,1.4"/>
		</g>
		<g>
			<g>
				
					<ellipse transform="matrix(0.1577 -0.9875 0.9875 0.1577 88.4035 551.0555)" class="st7" cx="367.2" cy="223.7" rx="0.6" ry="0.5"/>
			</g>
			<path class="st12" d="M367.2,223.3c0.1,0,0.1,0,0.2,0c0.1,0.1,0.2,0.2,0.3,0.3c0,0.2,0,0.1,0.1,0c0.1-0.1-0.1-0.7-0.5-0.7
				c-0.4,0-0.6,0.4-0.5,0.6c0.1,0.2,0.1,0.2,0.1,0C366.9,223.5,366.9,223.3,367.2,223.3z"/>
		</g>
	</g>
	<g>
		<g>
			<path class="st25" d="M362.6,226.3l-0.1-1.5c0-0.3-0.3-0.5-0.5-0.5s-0.5,0.3-0.5,0.6l0,1.4"/>
			<path class="st26" d="M362.6,226.3l-0.1-1.5c0-0.3-0.3-0.5-0.5-0.5s-0.5,0.3-0.5,0.6l0,1.4"/>
		</g>
		<g>
			<g>
				<ellipse transform="matrix(0.993 -0.1181 0.1181 0.993 -23.9027 44.327)" class="st11" cx="362" cy="223.8" rx="0.5" ry="0.6"/>
				<path class="st27" d="M362.4,223.7C362.4,223.7,362.4,223.7,362.4,223.7C362.4,223.8,362.4,223.7,362.4,223.7c0,0.1,0-0.1,0-0.1
					c0,0-0.2-0.2-0.2-0.2c-0.1,0-0.1,0-0.2,0.1l0,0c-0.1,0-0.2,0-0.2,0c-0.1,0-0.2,0.2-0.2,0.3c0,0,0,0.2,0,0.2s0,0,0,0c0,0,0,0,0,0
					c0-0.2-0.1-0.7,0.4-0.8l0,0C362.4,223,362.4,223.4,362.4,223.7z"/>
			</g>
		</g>
	</g>
	<g>
		<g>
			<path class="st25" d="M372,226.3l-0.1-1.5c0-0.3-0.3-0.5-0.5-0.5s-0.5,0.3-0.5,0.6l0,1.4"/>
			<path class="st26" d="M372,226.3l-0.1-1.5c0-0.3-0.3-0.5-0.5-0.5s-0.5,0.3-0.5,0.6l0,1.4"/>
		</g>
		<g>
			<g>
				
					<ellipse transform="matrix(0.993 -0.1181 0.1181 0.993 -23.8367 45.4419)" class="st11" cx="371.4" cy="223.8" rx="0.5" ry="0.6"/>
				<path class="st27" d="M371.9,223.7C371.9,223.7,371.9,223.7,371.9,223.7C371.8,223.8,371.8,223.7,371.9,223.7c0,0.1,0-0.1,0-0.1
					c0,0-0.2-0.2-0.2-0.2c-0.1,0-0.1,0-0.2,0.1l0,0c-0.1,0-0.2,0-0.2,0c-0.1,0-0.2,0.2-0.2,0.3c0,0,0,0.2,0,0.2s0,0,0,0c0,0,0,0,0,0
					c0-0.2-0.1-0.7,0.4-0.8l0,0C371.8,223,371.9,223.4,371.9,223.7z"/>
			</g>
		</g>
	</g>
	<g>
		<path class="st15" d="M365.3,223.8l-0.1,0.9l1.1,0.1c0,0,0.1-0.9,0.1-1.1"/>
		<g>
			<path class="st28" d="M366.1,226.5l0.1-1.5c0-0.3-0.2-0.6-0.4-0.6c-0.3,0-0.5,0.2-0.5,0.6l-0.1,1.4"/>
			<path class="st29" d="M366.1,226.5l0.1-1.5c0-0.3-0.2-0.6-0.4-0.6c-0.3,0-0.5,0.2-0.5,0.6l-0.1,1.4"/>
		</g>
		
			<ellipse transform="matrix(7.355761e-02 -0.9973 0.9973 7.355761e-02 115.6328 572.3584)" class="st18" cx="365.9" cy="223.9" rx="0.6" ry="0.5"/>
		<path class="st15" d="M366.3,223.7c0,0-0.3,0.3-1,0.3l0-0.4l0.4-0.3l0.5,0.2L366.3,223.7z"/>
		<path class="st15" d="M365.9,223.5c-0.5,0-0.5,0.5-0.5,0.5c-0.1,0-0.1-0.1-0.1-0.1c0,0,0,0,0,0c0,0,0,0,0-0.1c0,0,0-0.1,0-0.1
			c0,0,0,0,0-0.1c0,0,0-0.1,0.1-0.1c0,0,0,0,0,0c0-0.1,0-0.1,0.1-0.1c0-0.1,0-0.1,0.1-0.1c0,0,0,0,0,0c0,0,0.1-0.1,0.1-0.1
			c0,0,0.1,0,0.1,0c0,0,0.1-0.1,0.1-0.1s0.1,0,0.1,0.1c0,0,0.1,0,0.1,0c0,0,0.1,0,0.1,0.1c0,0,0,0,0,0c0.1,0,0.1,0,0.1,0.1
			c0.1,0,0.1,0,0.1,0.1c0,0,0,0,0,0c0,0,0.1,0.1,0.1,0.1c0,0,0,0.1,0,0.1c0,0,0,0,0,0.1c0,0,0,0.1,0,0.1c0,0,0,0,0,0
			c0,0.1,0,0.1-0.1,0.1C366.4,224,366.4,223.5,365.9,223.5L365.9,223.5z"/>
	</g>
	<g>
		<g>
			<path class="st4" d="M365,226.6l0-1.1c0-0.2-0.2-0.4-0.4-0.4c-0.2,0-0.4,0.2-0.4,0.4l-0.1,1.1"/>
			<path class="st30" d="M365,226.6l0-1.1c0-0.2-0.2-0.4-0.4-0.4c-0.2,0-0.4,0.2-0.4,0.4l-0.1,1.1"/>
		</g>
		
			<ellipse transform="matrix(7.355761e-02 -0.9973 0.9973 7.355761e-02 113.9519 571.7546)" class="st18" cx="364.7" cy="224.5" rx="0.5" ry="0.4"/>
		<path class="st15" d="M364.7,224.2c-0.4,0-0.4,0.4-0.4,0.4c0,0-0.1,0-0.1-0.1c0,0,0,0,0,0c0,0,0,0,0-0.1c0,0,0,0,0-0.1
			c0,0,0,0,0-0.1c0,0,0-0.1,0-0.1c0,0,0,0,0,0c0,0,0-0.1,0.1-0.1c0,0,0-0.1,0.1-0.1c0,0,0,0,0,0c0,0,0-0.1,0.1-0.1c0,0,0.1,0,0.1,0
			c0,0,0-0.1,0.1-0.1s0.1,0,0.1,0.1c0,0,0,0,0.1,0c0,0,0.1,0,0.1,0.1c0,0,0,0,0,0c0,0,0.1,0,0.1,0.1c0,0,0.1,0,0.1,0.1c0,0,0,0,0,0
			c0,0,0,0,0,0.1c0,0,0,0,0,0.1c0,0,0,0,0,0.1c0,0,0,0,0,0.1c0,0,0,0,0,0c0,0,0,0.1-0.1,0.1C365.1,224.6,365.1,224.2,364.7,224.2
			L364.7,224.2z"/>
		<path class="st15" d="M365.1,224.5c0,0-0.1-0.2-0.2-0.2c-0.1,0-0.1,0-0.2,0h0c-0.1,0-0.1,0-0.2,0c-0.1,0-0.2,0.2-0.2,0.2
			c0,0,0-0.4,0.4-0.4h0C365.1,224.1,365.1,224.5,365.1,224.5z"/>
	</g>
	<g>
		<g>
			<path class="st4" d="M377.5,227.1l0-1.3c0-0.3-0.2-0.5-0.4-0.5s-0.4,0.2-0.4,0.5l-0.1,1.3"/>
			<path class="st31" d="M377.5,227.1l0-1.3c0-0.3-0.2-0.5-0.4-0.5s-0.4,0.2-0.4,0.5l-0.1,1.3"/>
		</g>
		
			<ellipse transform="matrix(7.355761e-02 -0.9973 0.9973 7.355761e-02 125.3268 584.3249)" class="st18" cx="377.2" cy="224.7" rx="0.5" ry="0.4"/>
		<path class="st15" d="M377.2,224.3c-0.4,0-0.4,0.4-0.4,0.4c0,0-0.1-0.1-0.1-0.1c0,0,0,0,0,0c0,0,0,0,0-0.1c0,0,0,0,0-0.1
			c0,0,0,0,0-0.1c0,0,0-0.1,0.1-0.1c0,0,0,0,0,0c0,0,0-0.1,0.1-0.1c0,0,0-0.1,0.1-0.1c0,0,0,0,0,0c0,0,0.1-0.1,0.1-0.1
			c0,0,0.1,0,0.1,0c0,0,0-0.1,0.1-0.1c0,0,0.1,0,0.1,0.1c0,0,0,0,0.1,0c0,0,0.1,0,0.1,0.1c0,0,0,0,0,0c0,0,0.1,0,0.1,0.1
			c0,0,0.1,0,0.1,0.1c0,0,0,0,0,0c0,0,0.1,0,0.1,0.1c0,0,0,0,0,0.1c0,0,0,0,0,0.1c0,0,0,0.1,0,0.1c0,0,0,0,0,0c0,0,0,0.1-0.1,0.1
			C377.6,224.7,377.6,224.3,377.2,224.3L377.2,224.3z"/>
		<path class="st15" d="M377.6,224.6c0,0-0.1,0-0.2-0.1c-0.1,0-0.1-0.1-0.2-0.1l0.1,0.2c-0.1,0-0.3-0.2-0.3-0.2
			c-0.1,0-0.2,0.2-0.2,0.2c0,0,0-0.5,0.4-0.5h0C377.6,224.2,377.6,224.7,377.6,224.6z"/>
	</g>
	<g>
		<g>
			<path class="st15" d="M368.6,223.5c0,0-0.1,0.6,0,1.2s1.1,0,1.1,0s0.1-1.1,0-1.3"/>
			<g>
				<path class="st15" d="M369.6,226.5l-0.1-1.5c0-0.3-0.2-0.6-0.5-0.5c-0.3,0-0.5,0.3-0.5,0.6l0,1.4"/>
				<path class="st32" d="M369.6,226.5l-0.1-1.5c0-0.3-0.2-0.6-0.5-0.5c-0.3,0-0.5,0.3-0.5,0.6l0,1.4"/>
			</g>
			
				<ellipse transform="matrix(0.9999 -1.631605e-02 1.631605e-02 0.9999 -3.6042 6.0521)" class="st7" cx="369.1" cy="223.9" rx="0.5" ry="0.6"/>
		</g>
		<path class="st15" d="M369.6,223.9c0,0-0.8,0-1,0l-0.1-0.2c0,0,0-0.1,0-0.2c0-0.2,0.2-0.3,0.5-0.3c0.3,0,0.5,0.2,0.5,0.3
			C369.6,223.6,369.6,223.9,369.6,223.9z"/>
	</g>
	<g>
		<g>
			<path class="st15" d="M374.8,223.5c0,0-0.1,0.6,0,1.2s1.1,0,1.1,0s0.1-1.1,0-1.3"/>
			<g>
				<path class="st15" d="M375.8,226.5l-0.1-1.5c0-0.3-0.2-0.6-0.5-0.5c-0.3,0-0.5,0.3-0.5,0.6l0,1.4"/>
				<path class="st32" d="M375.8,226.5l-0.1-1.5c0-0.3-0.2-0.6-0.5-0.5c-0.3,0-0.5,0.3-0.5,0.6l0,1.4"/>
			</g>
			
				<ellipse transform="matrix(0.9999 -1.631605e-02 1.631605e-02 0.9999 -3.6033 6.1531)" class="st7" cx="375.3" cy="223.9" rx="0.5" ry="0.6"/>
		</g>
		<path class="st15" d="M375.8,223.9c0,0-0.8,0-1,0l-0.1-0.2c0,0,0-0.1,0-0.2c0-0.2,0.2-0.3,0.5-0.3c0.3,0,0.5,0.2,0.5,0.3
			C375.8,223.6,375.8,223.9,375.8,223.9z"/>
	</g>
	<g>
		<g>
			<path class="st18" d="M367.7,224.5c0,0-0.1,0.5,0,1c0.1,0.5,0.9,0,0.9,0s0.1-0.9,0-1.1"/>
			<g>
				<path class="st28" d="M368.5,226.9l-0.1-1.2c0-0.2-0.2-0.4-0.4-0.4s-0.4,0.2-0.4,0.5l0,1.1"/>
				<path class="st33" d="M368.5,226.9l-0.1-1.2c0-0.2-0.2-0.4-0.4-0.4s-0.4,0.2-0.4,0.5l0,1.1"/>
			</g>
			
				<ellipse transform="matrix(0.9999 -1.631605e-02 1.631605e-02 0.9999 -3.6198 6.0368)" class="st7" cx="368.2" cy="224.9" rx="0.4" ry="0.5"/>
		</g>
		<path class="st18" d="M368.6,224.9c0,0-0.1-0.3-0.2-0.3c-0.1,0-0.4,0.3-0.4,0.3s0.1-0.3,0.1-0.3c-0.1,0.1-0.2,0.2-0.3,0.3l0-0.2
			c0,0,0-0.1,0-0.1c0-0.2,0.2-0.3,0.4-0.3c0.2,0,0.4,0.1,0.4,0.3C368.5,224.6,368.6,224.9,368.6,224.9z"/>
	</g>
	<g>
		<path class="st1" d="M381,225.8c0,0-0.2,0.6-0.7,1.4h-19.8l-0.2-1.4H381z"/>
		<path class="st16" d="M380.3,227.2c-0.9,1.4-2.8,3.5-6,3.5c-5,0-13.3,0-13.3,0l-0.5-3.5H380.3z"/>
	</g>
</g>
<g>
	<rect x="132.9" y="227" class="st4" width="7.1" height="4.3"/>
	<path class="st1" d="M136,220.9l-7.3,10.4h5.1c1.8-1.6,2.7-3.6,2.7-3.6h0c0,0,0.8,2,2.6,3.6l4.5,0l-6.7-10.4"/>
	<polyline class="st4" points="136.9,220.9 137.4,220.2 136.9,219.8 136.4,220.3 136.4,220.3 136.4,220.3 136,219.8 135.5,220.2 
		136,220.9 	"/>
</g>
<g>
	<rect x="118" y="227" class="st4" width="7.1" height="4.3"/>
	<path class="st1" d="M121.1,220.9l-7.3,10.4h5.1c1.8-1.6,2.7-3.6,2.7-3.6h0c0,0,0.8,2,2.6,3.6l4.5,0l-6.7-10.4"/>
	<polyline class="st4" points="121.9,220.9 122.5,220.2 121.9,219.8 121.5,220.3 121.5,220.3 121.5,220.3 121,219.8 120.5,220.2 
		121.1,220.9 	"/>
</g>
<g>
	<rect x="62.1" y="227" class="st4" width="7.1" height="4.3"/>
	<path class="st1" d="M65.2,220.9l-7.3,10.4H63c1.8-1.6,2.7-3.6,2.7-3.6h0c0,0,0.8,2,2.6,3.6l4.5,0l-6.7-10.4"/>
	<polyline class="st4" points="66.1,220.9 66.6,220.2 66.1,219.8 65.6,220.3 65.6,220.3 65.6,220.3 65.2,219.8 64.6,220.2 
		65.2,220.9 	"/>
</g>
<g>
	<rect x="47.2" y="227" class="st4" width="7.1" height="4.3"/>
	<path class="st1" d="M50.2,220.9l-7.3,10.4H48c1.8-1.6,2.7-3.6,2.7-3.6h0c0,0,0.8,2,2.6,3.6l4.5,0l-6.7-10.4"/>
	<polyline class="st4" points="51.1,220.9 51.7,220.2 51.1,219.8 50.7,220.3 50.7,220.3 50.7,220.3 50.2,219.8 49.7,220.2 
		50.2,220.9 	"/>
</g>
<g>
	<polygon class="st4" points="93.7,217.1 101.8,231.2 85.5,231.2 	"/>
	<rect x="93.1" y="216.2" class="st34" width="1.2" height="15.1"/>
	<rect x="93.4" y="207.5" class="st34" width="0.6" height="6.6"/>
	<polygon class="st1" points="93.7,215 105.3,222.8 110.8,231.2 106.4,221.7 93.7,213.4 80.9,221.7 76.6,231.2 82,222.8 	"/>
	<polygon class="st35" points="93.7,215 105.3,222.8 110.8,231.2 104.6,223.2 93.7,216.1 82.8,223.2 76.6,231.2 82,222.8 	"/>
	<polygon class="st1" points="93.7,217.1 101.8,231.2 110.7,231.2 104.6,223.2 93.7,216.1 82.8,223.2 76.6,231.2 85.5,231.2 	"/>
	<path class="st3" d="M93.7,217.1l-8.2,14.2l-3.9-5.5C81.6,225.8,88.3,225.6,93.7,217.1z"/>
	<path class="st3" d="M93.7,217.1l8.2,14.2l3.9-5.5C105.7,225.8,99.1,225.6,93.7,217.1z"/>
	<path class="st16" d="M102.2,212.3c0,0-2.8,1-4.3,0c-1.5-1-3.6,0-3.6,0v-4.8c0,0,2.1-1,3.6,0c1.5,1,4.3,0,4.3,0V212.3z"/>
</g>
<g>
	<g>
		<path class="st1" d="M438.7,197.9c-3.4,2.4-6.9-2.4-10.3,0c0-2,0-4,0-6c3.4-2.4,6.9,2.4,10.3,0
			C438.7,193.9,438.7,195.9,438.7,197.9z"/>
	</g>
	<circle class="st34" cx="427.5" cy="189" r="0.8"/>
	<rect x="427.3" y="189.7" class="st34" width="0.5" height="40.6"/>
	
		<rect x="427.2" y="190.1" transform="matrix(6.123234e-17 -1 1 6.123234e-17 236.6368 618.462)" class="st34" width="0.6" height="1.6"/>
</g>
<g>
	<g>
		<path class="st16" d="M362.1,198.8c-3.4,2.4-6.9-2.4-10.3,0c0-2,0-4,0-6c3.4-2.4,6.9,2.4,10.3,0
			C362.1,194.7,362.1,196.7,362.1,198.8z"/>
	</g>
	<circle class="st34" cx="350.9" cy="189.8" r="0.8"/>
	<rect x="350.6" y="190.6" class="st34" width="0.5" height="40.6"/>
	
		<rect x="350.6" y="191" transform="matrix(6.123234e-17 -1 1 6.123234e-17 159.1069 542.6821)" class="st34" width="0.6" height="1.6"/>
</g>
<g>
	<polygon class="st1" points="454.4,213.8 441.3,218.2 441.3,230.3 467.5,230.3 467.5,218.2 	"/>
	<rect x="452.6" y="223.5" class="st4" width="4" height="6.8"/>
	<g>
		<g>
			<rect x="445.8" y="223.2" class="st36" width="3.2" height="3.2"/>
			<rect x="460.3" y="223.2" class="st36" width="3.2" height="3.2"/>
		</g>
		<g>
			<rect x="445.8" y="223.2" class="st4" width="3.2" height="3.2"/>
			<rect x="460.3" y="223.2" class="st4" width="3.2" height="3.2"/>
		</g>
	</g>
	<polyline class="st37" points="467.5,218.2 454.4,213.8 441.3,218.2 	"/>
</g>
<g>
	<polygon class="st1" points="483.9,213.8 470.8,218.2 470.8,230.3 497,230.3 497,218.2 	"/>
	<rect x="482.1" y="223.5" class="st4" width="4" height="6.8"/>
	<g>
		<g>
			<rect x="475.3" y="223.2" class="st36" width="3.2" height="3.2"/>
			<rect x="489.8" y="223.2" class="st36" width="3.2" height="3.2"/>
		</g>
		<g>
			<rect x="475.3" y="223.2" class="st4" width="3.2" height="3.2"/>
			<rect x="489.8" y="223.2" class="st4" width="3.2" height="3.2"/>
		</g>
	</g>
	<polyline class="st37" points="497,218.2 483.9,213.8 470.8,218.2 	"/>
</g>
<g>
	<g>
		<path class="st38" d="M226.8,193.6c0.1-0.5,3.1-6.1-0.4-8.6c-4-2.9-4.9-4.8-4.4-7.4c0,0.1-3.4,3.9-2.1,6.3c2.1,3.7,0.5,6-1,5.5
			c-2.5-0.8-1.6-4.2-1-4.9c-1.3-0.4-3,0.2-4,1.2c-2.9,3,1.5,7.3-0.7,9.4c-1.7,1.6-3.4-2.5-3.4-2.5c-5.3,14,14.7,17.9,18,6.1
			c1-3.6,4.6-4.9,4.7-4.9C229.3,191.5,226.8,193.8,226.8,193.6z"/>
		<path class="st39" d="M218.5,202.7c-4.9-0.7-3.7-4.2-2.9-5.3c1.1-1.3,3.2-1.3,2.5-3.4c0,0,2.2,0.8,3.4,2.5
			C223.3,199.2,222.3,203.2,218.5,202.7z"/>
	</g>
	<path class="st40" d="M225.2,181c-0.5-0.7-0.7-1.5-0.6-2c0.2-1,1.1-1.7,2.3-2.4c0,0.8-0.8,1.8-0.5,2.8c0.2,0.7,0.7,1.5,0.6,2
		c-0.1,0.7-0.5,1.3-1.3,1.7C225.8,182.7,225.8,181.9,225.2,181z"/>
</g>
<g>
	<g>
		<path class="st38" d="M304.3,183.8c0.1-0.5,3.1-6.1-0.4-8.6c-4-2.9-4.9-4.8-4.4-7.4c0,0.1-3.4,3.9-2.1,6.3c2.1,3.7,0.5,6-1,5.5
			c-2.5-0.8-1.6-4.2-1-4.9c-1.3-0.4-3,0.2-4,1.2c-2.9,3,1.5,7.3-0.7,9.4c-1.7,1.6-3.4-2.5-3.4-2.5c-5.3,14,14.7,17.9,18,6.1
			c1-3.6,4.6-4.9,4.7-4.9C306.8,181.6,304.3,183.9,304.3,183.8z"/>
		<path class="st39" d="M296,192.8c-4.9-0.7-3.7-4.2-2.9-5.3c1.1-1.3,3.2-1.3,2.5-3.4c0,0,2.2,0.8,3.4,2.5
			C300.8,189.3,299.9,193.3,296,192.8z"/>
	</g>
	<path class="st40" d="M302.7,171.1c-0.5-0.7-0.7-1.5-0.6-2c0.2-1,1.1-1.7,2.3-2.4c0,0.8-0.8,1.8-0.5,2.8c0.2,0.7,0.7,1.5,0.6,2
		c-0.1,0.7-0.5,1.3-1.3,1.7C303.3,172.8,303.3,172,302.7,171.1z"/>
</g>
<g>
	<defs>
		<polygon id="SVGID_2_" points="212.6,195.9 211.9,199.4 209.5,200.5 209.5,202.7 207.7,196.2 206.5,196.7 203.4,196.9 
			199.3,197.4 196.4,205.3 198,207.8 198,210 197,211 197,213 195.2,213.7 195.2,234.1 225.4,234.1 225.4,205.6 223.2,205 
			223.2,203.1 222.4,201.5 221.2,200 221.2,197.6 218.2,197.6 217,195.6 		"/>
	</defs>
	<clipPath id="SVGID_3_">
		<use xlink:href="#SVGID_2_"  style="overflow:visible;"/>
	</clipPath>
	<rect x="195.6" y="213.7" class="st41" width="28.9" height="17.5"/>
	<rect x="195.6" y="196.6" class="st41" width="28.9" height="17.1"/>
	<rect x="195.6" y="196.3" class="st42" width="28.9" height="2.5"/>
	<g class="st43">
		<g>
			<polygon class="st1" points="204.1,207.1 205.2,208 205.9,208.8 204.1,208.8 			"/>
			<rect x="206.2" y="207.1" class="st1" width="1.8" height="1.6"/>
			<rect x="204.1" y="209.1" class="st1" width="1.8" height="1.6"/>
			<rect x="206.2" y="209.1" class="st1" width="1.8" height="1.6"/>
			<rect x="204.1" y="211.1" class="st1" width="1.8" height="1.6"/>
			<rect x="206.2" y="211.1" class="st1" width="1.8" height="1.6"/>
			<rect x="204.1" y="213" class="st1" width="1.8" height="1.6"/>
			<rect x="206.2" y="213" class="st1" width="1.8" height="1.6"/>
		</g>
		<g>
			<rect x="199.9" y="207.1" class="st1" width="1.8" height="1.6"/>
			<rect x="202" y="207.1" class="st1" width="1.8" height="1.6"/>
			<rect x="199.9" y="209.1" class="st1" width="1.8" height="1.6"/>
			<rect x="202" y="209.1" class="st1" width="1.8" height="1.6"/>
			<rect x="199.9" y="211.1" class="st1" width="1.8" height="1.6"/>
			<polygon class="st1" points="202,211.1 202.6,211.1 202.8,212.2 203.4,211.1 203.8,211.1 203.8,212.7 202,212.7 			"/>
			<rect x="199.9" y="213" class="st1" width="1.8" height="1.6"/>
			<rect x="202" y="213" class="st1" width="1.8" height="1.6"/>
		</g>
	</g>
	<g class="st43">
		<g>
			<rect x="216.4" y="207.1" class="st1" width="1.8" height="1.6"/>
			<rect x="218.5" y="207.1" class="st1" width="1.8" height="1.6"/>
			<rect x="216.4" y="209.1" class="st1" width="1.8" height="1.6"/>
			<rect x="218.5" y="209.1" class="st1" width="1.8" height="1.6"/>
			<rect x="216.4" y="211.1" class="st1" width="1.8" height="1.6"/>
			<rect x="218.5" y="211.1" class="st1" width="1.8" height="1.6"/>
			<polygon class="st1" points="216.4,213 218.2,213 218.2,214.7 216.7,214.1 			"/>
			<rect x="218.5" y="213" class="st1" width="1.8" height="1.6"/>
		</g>
		<g>
			<rect x="212.2" y="207.1" class="st1" width="1.8" height="1.6"/>
			<rect x="214.3" y="207.1" class="st1" width="1.8" height="1.6"/>
			<rect x="212.2" y="209.1" class="st1" width="1.8" height="1.6"/>
			<rect x="214.3" y="209.1" class="st1" width="1.8" height="1.6"/>
			<polygon class="st1" points="212.2,211.1 213.5,211.6 214,212.7 212.2,212.7 			"/>
			<rect x="214.3" y="211.1" class="st1" width="1.8" height="1.6"/>
			<rect x="212.2" y="213" class="st1" width="1.8" height="1.6"/>
			<rect x="214.3" y="213" class="st1" width="1.8" height="1.6"/>
		</g>
	</g>
	<g class="st43">
		<rect x="199.6" y="223.4" class="st4" width="4.2" height="7.9"/>
		<rect x="204.1" y="223.4" class="st4" width="4.2" height="7.9"/>
	</g>
	<g class="st43">
		<path class="st1" d="M213.4,220.9c-1.1,0.3-2.1,0.9-2.1,2.1v8.3h4.1l0-8.3C215.5,221.7,214.4,220.5,213.4,220.9z"/>
		<path class="st1" d="M219.1,220.9c-1.1,0-2.1,0.9-2.1,2.1v8.3h4.1v-8.3C221.2,221.8,220.3,220.9,219.1,220.9z"/>
	</g>
	<polyline class="st44" points="216.9,198.7 216.9,199.7 216.9,200.9 215.9,200.9 215.6,201.5 	"/>
	<line class="st44" x1="218.9" y1="200.9" x2="216.9" y2="199.7"/>
	<polyline class="st44" points="202.1,199 200.9,200.9 202.2,202.9 	"/>
</g>
<g>
	<defs>
		<polygon id="SVGID_4_" points="230.4,212.1 254.4,212.2 254.4,213.9 255.8,215.8 255.8,217.6 257.8,217.7 257.8,224.2 
			256.2,227.6 257.8,229.2 257.8,232.7 229.3,232.7 229.3,218 230.3,216 230.1,213.9 		"/>
	</defs>
	<clipPath id="SVGID_5_">
		<use xlink:href="#SVGID_4_"  style="overflow:visible;"/>
	</clipPath>
	<g class="st45">
		<rect x="229.3" y="212.2" class="st46" width="28.4" height="19.1"/>
		<rect x="229.3" y="212.2" class="st4" width="28.4" height="1.7"/>
		<g>
			<g>
				<path class="st1" d="M248.7,220.4c1.3,0,1.4,1.3,1.4,1.3h-1.4V220.4z"/>
				<path class="st1" d="M248.5,220.4c-1.3,0-1.4,1.3-1.4,1.3h1.4V220.4z"/>
				<rect x="247" y="222" class="st1" width="1.4" height="1.3"/>
				<rect x="248.7" y="222" class="st1" width="1.4" height="1.3"/>
				<polygon class="st1" points="247,223.6 248.3,224.4 248.5,224.9 247,224.9 				"/>
				<rect x="248.7" y="223.6" class="st1" width="1.4" height="1.3"/>
				<rect x="247" y="225.2" class="st1" width="1.4" height="1.3"/>
				<rect x="248.7" y="225.2" class="st1" width="1.4" height="1.3"/>
				<rect x="247" y="226.8" class="st1" width="1.4" height="1.3"/>
				<rect x="248.7" y="226.8" class="st1" width="1.4" height="1.3"/>
			</g>
			<g>
				<path class="st1" d="M253,220.4c1.3,0,1.4,1.3,1.4,1.3H253V220.4z"/>
				<path class="st1" d="M252.7,220.4c-1.3,0-1.4,1.3-1.4,1.3h1.4V220.4z"/>
				<rect x="251.2" y="222" class="st1" width="1.4" height="1.3"/>
				<polygon class="st1" points="253,222 254.4,222 254.4,223.3 253.4,222.9 				"/>
				<rect x="251.2" y="223.6" class="st1" width="1.4" height="1.3"/>
				<rect x="253" y="223.6" class="st1" width="1.4" height="1.3"/>
				<polygon class="st1" points="251.2,225.2 252.4,225.8 252.7,226.5 251.2,226.5 				"/>
				<rect x="253" y="225.2" class="st1" width="1.4" height="1.3"/>
				<rect x="251.2" y="226.8" class="st1" width="1.4" height="1.3"/>
				<rect x="253" y="226.8" class="st1" width="1.4" height="1.3"/>
			</g>
			<g>
				<path class="st1" d="M244.5,220.4c1.3,0,1.4,1.3,1.4,1.3h-1.4V220.4z"/>
				<path class="st1" d="M244.2,220.4c-1.3,0-1.4,1.3-1.4,1.3h1.4V220.4z"/>
				<rect x="242.8" y="222" class="st1" width="1.4" height="1.3"/>
				<polygon class="st1" points="244.5,222 246,222 245.4,222.8 244.5,223.3 				"/>
				<rect x="242.8" y="223.6" class="st1" width="1.4" height="1.3"/>
				<rect x="244.5" y="223.6" class="st1" width="1.4" height="1.3"/>
				<rect x="242.8" y="225.2" class="st1" width="1.4" height="1.3"/>
				<rect x="244.5" y="225.2" class="st1" width="1.4" height="1.3"/>
				<rect x="242.8" y="226.8" class="st1" width="1.4" height="1.3"/>
				<rect x="244.5" y="226.8" class="st1" width="1.4" height="1.3"/>
			</g>
		</g>
		<path class="st4" d="M236.1,220.9c-1.1,0-2.1,0.9-2.1,2.1v8.3h4.1v-8.3C238.1,221.8,237.2,220.9,236.1,220.9z"/>
	</g>
	<polyline class="st47" points="234.4,213.8 233.4,215.8 234.4,216.8 233.1,218.7 	"/>
</g>
<g>
	<defs>
		<polygon id="SVGID_6_" points="289.6,187.8 294.8,187.8 296.3,185 298.9,185.2 300.3,188.2 302.9,182.5 335.6,182.8 335.8,185.8 
			339.6,186 339.8,193.2 336.4,194.5 339.4,197.3 339.6,214.8 336.9,217.2 336.6,220.5 339.9,221.2 340.4,235 288.4,234.8 		"/>
	</defs>
	<clipPath id="SVGID_7_">
		<use xlink:href="#SVGID_6_"  style="overflow:visible;"/>
	</clipPath>
	<g class="st48">
		<polygon class="st49" points="338.8,231.7 291.7,231.7 291.7,208.8 293.6,206.5 291.7,204.2 291.7,183.6 338.8,183.6 		"/>
		<path class="st4" d="M315.5,212c-4-0.1-7.4,3.1-7.5,7.1l-0.3,12.4l14.6,0.3l0.3-12.4C322.7,215.4,319.5,212.1,315.5,212z"/>
		<g>
			<path class="st1" d="M302.2,218.2c-0.9,0-1.7,0.8-1.7,1.7v11.9h3.4v-11.9C303.9,218.9,303.2,218.2,302.2,218.2z"/>
			<path class="st1" d="M297.8,218.2c-0.9,0-1.7,0.8-1.7,1.7v3l1.5,1.6l-1.5,1.4v5.9h3.4v-11.9C299.5,218.9,298.7,218.2,297.8,218.2
				z"/>
		</g>
		<g>
			<path class="st1" d="M332.8,218.2c-0.9,0-1.7,0.8-1.7,1.7v11.9h3.4v-11.9C334.4,218.9,333.7,218.2,332.8,218.2z"/>
			<path class="st1" d="M328.3,218.2c-0.9,0-1.7,0.8-1.7,1.7v11.9h3.4v-11.9C330,218.9,329.2,218.2,328.3,218.2z"/>
		</g>
		<g>
			<g>
				<path class="st1" d="M317.9,196.1c1.3,0,1.4,1.3,1.4,1.3h-1.4V196.1z"/>
				<path class="st1" d="M317.6,196.1c-1.3,0-1.4,1.3-1.4,1.3h1.4V196.1z"/>
				<rect x="316.2" y="197.6" class="st1" width="1.4" height="1.3"/>
				<rect x="317.9" y="197.6" class="st1" width="1.4" height="1.3"/>
				<rect x="316.2" y="199.2" class="st1" width="1.4" height="1.3"/>
				<polygon class="st1" points="318.2,199.7 319.3,199.2 319.3,200.5 317.9,200.5 				"/>
				<rect x="316.2" y="200.8" class="st1" width="1.4" height="1.3"/>
				<rect x="317.9" y="200.8" class="st1" width="1.4" height="1.3"/>
				<rect x="316.2" y="202.4" class="st1" width="1.4" height="1.3"/>
				<rect x="317.9" y="202.4" class="st1" width="1.4" height="1.3"/>
			</g>
			<g>
				<path class="st1" d="M312.9,196.1c1.3,0,1.4,1.3,1.4,1.3h-1.4V196.1z"/>
				<path class="st1" d="M312.6,196.1c-1.3,0-1.4,1.3-1.4,1.3h1.4V196.1z"/>
				<rect x="311.2" y="197.6" class="st1" width="1.4" height="1.3"/>
				<rect x="312.9" y="197.6" class="st1" width="1.4" height="1.3"/>
				<rect x="311.2" y="199.2" class="st1" width="1.4" height="1.3"/>
				<rect x="312.9" y="199.2" class="st1" width="1.4" height="1.3"/>
				<polygon class="st1" points="311.2,200.8 312.2,201.2 312.6,202.1 311.2,202.1 				"/>
				<rect x="312.9" y="200.8" class="st1" width="1.4" height="1.3"/>
				<rect x="311.2" y="202.4" class="st1" width="1.4" height="1.3"/>
				<rect x="312.9" y="202.4" class="st1" width="1.4" height="1.3"/>
			</g>
		</g>
		<g>
			<g>
				<path class="st1" d="M333.2,196.1c0.7,0.7,1.4,1.3,1.4,1.3h-1.4V196.1z"/>
				<path class="st1" d="M332.9,196.1c-1.3,0-1.4,1.3-1.4,1.3h1.4V196.1z"/>
				<rect x="331.4" y="197.6" class="st1" width="1.4" height="1.3"/>
				<rect x="333.2" y="197.6" class="st1" width="1.4" height="1.3"/>
				<rect x="331.4" y="199.2" class="st1" width="1.4" height="1.3"/>
				<rect x="333.2" y="199.2" class="st1" width="1.4" height="1.3"/>
				<rect x="331.4" y="200.8" class="st1" width="1.4" height="1.3"/>
				<rect x="333.2" y="200.8" class="st1" width="1.4" height="1.3"/>
				<rect x="331.4" y="202.4" class="st1" width="1.4" height="1.3"/>
				<rect x="333.2" y="202.4" class="st1" width="1.4" height="1.3"/>
			</g>
			<g>
				<path class="st1" d="M328.2,196.1c1.3,0,1.4,1.3,1.4,1.3h-1.4V196.1z"/>
				<path class="st1" d="M327.9,196.1c-1.3,0-1.4,1.3-1.4,1.3h1.4V196.1z"/>
				<rect x="326.4" y="197.6" class="st1" width="1.4" height="1.3"/>
				<polygon class="st1" points="328.2,197.6 328.5,197.6 328.9,198.5 329.2,197.6 329.6,197.6 329.6,198.9 328.2,198.9 				"/>
				<rect x="326.4" y="199.2" class="st1" width="1.4" height="1.3"/>
				<rect x="328.2" y="199.2" class="st1" width="1.4" height="1.3"/>
				<rect x="326.4" y="200.8" class="st1" width="1.4" height="1.3"/>
				<rect x="328.2" y="200.8" class="st1" width="1.4" height="1.3"/>
				<polygon class="st1" points="326.4,202.4 327.3,202.9 327.9,203.7 326.4,203.7 				"/>
				<rect x="328.2" y="202.4" class="st1" width="1.4" height="1.3"/>
			</g>
		</g>
		<g>
			<g>
				<path class="st1" d="M302.6,196.1c1.3,0,1.4,1.3,1.4,1.3l-1-0.4L302.6,196.1z"/>
				<path class="st1" d="M302.3,196.1c-1.3,0-1.4,1.3-1.4,1.3h1.4V196.1z"/>
				<rect x="300.9" y="197.6" class="st1" width="1.4" height="1.3"/>
				<rect x="302.6" y="197.6" class="st1" width="1.4" height="1.3"/>
				<rect x="300.9" y="199.2" class="st1" width="1.4" height="1.3"/>
				<rect x="302.6" y="199.2" class="st1" width="1.4" height="1.3"/>
				<rect x="300.9" y="200.8" class="st1" width="1.4" height="1.3"/>
				<rect x="302.6" y="200.8" class="st1" width="1.4" height="1.3"/>
				<rect x="300.9" y="202.4" class="st1" width="1.4" height="1.3"/>
				<rect x="302.6" y="202.4" class="st1" width="1.4" height="1.3"/>
			</g>
			<g>
				<path class="st1" d="M297.6,196.1c1.3,0,1.4,1.3,1.4,1.3h-1.4V196.1z"/>
				<path class="st1" d="M297.4,196.1c-1.3,0-1.4,1.3-1.4,1.3h1.4V196.1z"/>
				<rect x="295.9" y="197.6" class="st1" width="1.4" height="1.3"/>
				<rect x="297.6" y="197.6" class="st1" width="1.4" height="1.3"/>
				<rect x="295.9" y="199.2" class="st1" width="1.4" height="1.3"/>
				<polygon class="st1" points="298,199.4 299.1,199.2 299.1,200.5 297.6,200.5 				"/>
				<rect x="295.9" y="200.8" class="st1" width="1.4" height="1.3"/>
				<rect x="297.6" y="200.8" class="st1" width="1.4" height="1.3"/>
				<rect x="295.9" y="202.4" class="st1" width="1.4" height="1.3"/>
				<rect x="297.6" y="202.4" class="st1" width="1.4" height="1.3"/>
			</g>
		</g>
		<polygon class="st4" points="338.8,187 308.1,187 291.7,187 291.7,183.6 338.8,183.6 		"/>
	</g>
	<polyline class="st50" points="309.8,207.8 307.3,205.7 309.3,199.5 306.1,197.2 308.1,192.3 305.6,190.7 307.4,185.8 	"/>
	<line class="st51" x1="329.8" y1="217.6" x2="325.7" y2="228.8"/>
</g>
<g>
	<defs>
		<path id="SVGID_8_" d="M269.4,203.8l-1.1-5.3l0.7-2.1l0.8-3.2l2.6-0.7c0,0,0.8,3.8,0.9,3.3s1-7.9,1-7.9l1-0.3l3.2,2.8l2-3.2
			l3.2,3.7l3.5-0.8l0.3-2.8l1.2,4.5l2.5,2.2l-0.5,6.8l0.3,9.3l-2.3,2.5l2,2.2l0.2,9l-2,1l0.3,2l2,1.5l0.2,5.8l-31.5-0.2v-18l0.7-4.2
			l2-0.8l-0.8-3.1l1.3-3.2l1.5,0.2L269.4,203.8z"/>
	</defs>
	<clipPath id="SVGID_9_">
		<use xlink:href="#SVGID_8_"  style="overflow:visible;"/>
	</clipPath>
	<g class="st52">
		<rect x="261.2" y="213.7" class="st49" width="28.9" height="17.5"/>
		<rect x="261.2" y="189.2" class="st46" width="28.9" height="24.5"/>
		<rect x="261.2" y="189.2" class="st4" width="28.9" height="2.3"/>
		<polygon class="st1" points="280.1,226.8 275.9,226.8 275.9,219 280.1,219 280.1,220.7 279.1,222.7 280.1,224.3 		"/>
		<rect x="281.7" y="219" class="st1" width="4.2" height="7.9"/>
		<rect x="264.2" y="218.2" class="st4" width="8.2" height="13.1"/>
		<g>
			<polygon class="st1" points="268.2,210 264.5,210 264.5,206.3 265.7,206.3 266.5,207.8 267.4,206.3 268.2,206.3 			"/>
			<rect x="276.9" y="206.3" class="st1" width="3.7" height="3.7"/>
			<rect x="283.1" y="206.3" class="st1" width="3.7" height="3.7"/>
			<rect x="270.7" y="206.3" class="st1" width="3.7" height="3.7"/>
		</g>
		<g>
			<rect x="264.5" y="200" class="st1" width="3.7" height="3.7"/>
			<polygon class="st1" points="280.6,203.7 276.9,203.7 276.9,200 279.2,200 278.9,202.2 280.6,201.5 			"/>
			<polygon class="st1" points="286.8,203.7 283.8,203.2 283.1,200 286.8,200 			"/>
			<polygon class="st1" points="274.4,203.7 270.7,203.7 270.7,200 273.6,200.7 			"/>
		</g>
		<g>
			<rect x="264.5" y="193.8" class="st1" width="3.7" height="3.7"/>
			<rect x="276.9" y="193.8" class="st1" width="3.7" height="3.7"/>
			<rect x="283.1" y="193.8" class="st1" width="3.7" height="3.7"/>
			<rect x="270.7" y="193.8" class="st1" width="3.7" height="3.7"/>
		</g>
	</g>
	<line class="st53" x1="271.4" y1="199.5" x2="273.2" y2="204.3"/>
</g>
<polygon class="st46" points="227.3,231.2 227.9,228.9 229.5,229.3 230.2,231.2 "/>
<polygon class="st49" points="186.7,228.1 189.8,231.3 192.3,228.8 189.5,226.6 "/>
<polygon class="st49" points="179.2,229.9 180.4,227.5 182,227.5 183.3,226.2 184.7,227.5 186,226.2 187.2,229.9 191.3,229 
	192.9,227.4 196.2,228.8 196.2,230.8 192.9,231.7 180,231.7 "/>
<polygon class="st46" points="270.1,229.7 269.2,227.5 268,227.5 267.1,226.3 266.1,227.5 265.1,226.3 264.2,229.7 261.2,228.9 
	260,227.4 257.5,228.7 257.5,230.5 260,231.3 269.5,231.3 "/>
<polygon class="st4" points="221.8,229.3 223,230.4 221.8,230.4 220.7,231.6 220.7,229.3 "/>
<polygon class="st4" points="212.6,229.3 213.7,228.2 215.8,228.8 215.8,229.7 217.7,229.2 219.3,229.2 221.1,231.1 220.1,231.1 
	214.4,231.1 211.5,231.1 "/>
<polygon class="st4" points="188.5,229.4 187,228.2 184.3,228.8 184.3,229.8 181.7,229.3 179.6,229.3 177.2,231.3 178.5,231.3 
	186.1,231.3 189.9,231.3 "/>
<polygon class="st46" points="262.5,230.2 263.8,227.9 265.4,227.9 266.7,226.5 268,227.9 269.3,226.5 270.6,230.2 274.6,229.3 
	276.2,227.7 279.5,229.2 279.5,231.1 276.2,232 263.4,232 "/>
<polygon class="st4" points="269.2,229 270.3,227.9 272.4,228.4 272.4,229.3 274.4,228.9 275.9,228.9 277.8,230.8 276.8,230.8 
	271,230.8 268.2,230.8 "/>
<polygon class="st4" points="280.3,232.2 281.4,230 282.9,227.8 285.6,229 287.4,228.2 289.1,226.8 290.6,227.5 293.8,229.5 
	296.4,229.8 299.3,228.7 301.6,231.5 "/>
<polygon class="st49" points="301.4,232.7 302.6,230.5 304.1,228.4 306.7,229.5 308.6,228.7 310.2,227.4 311.7,228 314.9,230 
	317.6,230.4 320.4,229.2 322.7,232 "/>
<polygon class="st4" points="298.8,229.2 300,228.1 302.1,228.7 302.1,229.6 304,229.2 305.6,229.2 307.4,231 306.4,231 300.6,231 
	297.8,231 "/>
<path class="st4" d="M325.7,231.3c-0.1-0.4,3.5-1.9,3.5-1.9l1.6,0.6l0.8-1.6l1.4,1.1l1.6-0.9l2,0.1l1.1,1.8l1.4-1.5h1.2l1.4,0.4
	l1.1,0.8l2-1l1.4,1.8l0.6,1.4v1.9l-20.5-1.2L325.7,231.3z"/>
<path class="st49" d="M345.3,231.8c0.1-0.4,1.1-2.8,1.1-2.8l1.8,0.2l0.4,2.4L345.3,231.8z"/>
<rect y="230.7" class="st54" width="595.3" height="23.7"/>
<path class="st55" d="M418,230.4c0,5.7-14.2,10.4-31.7,10.4c-17.5,0-31.7-4.7-31.7-10.4c1.1,0,2.1-1.3,2.1-1.3s1.1,1.3,2.1,1.3
	c1.1,0,2.1-1.3,2.1-1.3s1.1,1.3,2.1,1.3s2.1-1.3,2.1-1.3s1.1,1.3,2.1,1.3c1.1,0,2.1-1.3,2.1-1.3s1.1,1.3,2.1,1.3
	c1.1,0,2.1-1.3,2.1-1.3s1.1,1.3,2.1,1.3c1.1,0,2.1-1.3,2.1-1.3s1.1,1.3,2.1,1.3c1.1,0,2.1-1.3,2.1-1.3s1.1,1.3,2.1,1.3
	s2.1-1.3,2.1-1.3s1.1,1.3,2.1,1.3c1.1,0,2.1-1.3,2.1-1.3s1.1,1.3,2.1,1.3c1.1,0,2.1-1.3,2.1-1.3s1.1,1.3,2.1,1.3
	c1.1,0,2.1-1.3,2.1-1.3s1.1,1.3,2.1,1.3c1.1,0,2.1-1.3,2.1-1.3s1.1,1.3,2.1,1.3s2.1-1.3,2.1-1.3s1.1,1.3,2.1,1.3
	c1.1,0,2.1-1.3,2.1-1.3s1.1,1.3,2.1,1.3c1.1,0,2.1-1.3,2.1-1.3S416.9,230.4,418,230.4"/>
<g>
	<path class="st56" d="M305.3,233.2l-1.2,2.3l-1.2-3l-4.4,3.7l1.5-5.3l-1.4,0.3l0.6-0.6l-3.6-2.1l4.2,0.3l-0.6-1.2
		c-0.3-0.6-0.7-1.4-1.1-2.1l3.4,0.8l-1-5l3.2,4.1l1.2-3.1l0.8,3.4l2.8-2.9l-1,4.3l4,0.4l-4.7,3l2.9,1.9l-3.2-0.3l1.5,4.3
		L305.3,233.2z"/>
	<path class="st38" d="M302,224.2l0.3,0.4l1.7,2.2l0.8-2l0.5,2.3l1.8-1.9l-0.2,0.7l-0.4,1.7l1.8,0.2l0.9,0.1l-1.8,1.1l-2.1,1.3
		l1.2,0.8l-1.1-0.1l0.7,2l-1.1-1.2l-0.9,1.7l-0.1-0.4l-0.8-2l-1.7,1.4l-1.6,1.3l0.5-1.6l0.7-2.4L300,230l-1.1-0.6l2.2,0.2l-1.2-2.5
		c-0.1-0.2-0.2-0.4-0.3-0.6l0.6,0.1l2.4,0.5l-0.5-2.4L302,224.2 M299.2,218l1.4,7l-3.9-0.9c0,0,1.2,2.3,1.8,3.6l-6.2-0.4l5.6,3.3
		l-1.6,1.7l2.6-0.5l-1.9,6.6l5.5-4.6l1.4,3.6l1.5-2.8l4.7,4.9l-2.4-6.6l5.2,0.5l-4.7-3l5.6-3.6l-5.4-0.6l1.4-6.2l-3.8,3.9l-1.1-4.5
		l-1.6,4.2L299.2,218L299.2,218z"/>
</g>
<g>
	<path class="st56" d="M319.4,229.4l-1.3,2.6l-1.3-3.3l-5,4.1l1.7-6l-1.7,0.3l0.8-0.8l-4.2-2.4l4.9,0.3l-0.6-1.2
		c-0.4-0.7-0.8-1.7-1.3-2.5l3.8,0.8l-1.1-5.7l3.6,4.7l1.4-3.5l0.9,3.8l3.2-3.3l-1.2,5l4.6,0.5l-5.3,3.4l3.4,2.2L321,228l1.8,5
		L319.4,229.4z"/>
	<path class="st38" d="M315.5,218.7l0.7,0.9l1.7,2.2l0.9-2.5l0.7,2.8l2-2.1l0.2-0.2l-0.3,1.3l-0.4,1.7l1.8,0.2l1.5,0.2l-2.4,1.5
		l-2.1,1.3l1.7,1.1l-1.7-0.2l0.9,2.4l0.1,0.3l-0.1-0.1l-1.5-1.6l-1,2l0,0.1l-0.3-0.7l-0.8-2l-1.7,1.4l-2.2,1.8l0.7-2.3l0.7-2.4
		l-1.1,0.2l-1.5-0.9l-0.4-0.2l0.1,0l2.7,0.2l-1.2-2.5c-0.2-0.3-0.3-0.7-0.5-1l1,0.2l2.4,0.5l-0.5-2.4L315.5,218.7 M312.6,212.5
		l1.5,7.8l-4.3-1c0,0,1.3,2.5,2,4l-6.9-0.5l6.2,3.6l-1.8,1.8l2.9-0.5l-2,7.2l6.1-5.1l1.6,3.9l1.6-3.1l5.2,5.4l-2.6-7.3l5.8,0.6
		l-5.2-3.3l6.1-3.9l-5.9-0.6l1.6-6.9l-4.2,4.4l-1.2-4.9l-1.8,4.6L312.6,212.5L312.6,212.5z"/>
</g>
<g>
	<path class="st56" d="M258.4,228l-1.3,2.6l-1.3-3.3l-5,4.1l1.7-6l-1.7,0.3l0.8-0.8l-4.2-2.4l4.9,0.3l-0.6-1.2
		c-0.4-0.7-0.8-1.7-1.3-2.5l3.8,0.8l-1.1-5.7l3.6,4.7l1.4-3.5l0.9,3.8l3.2-3.3l-1.2,5l4.6,0.5l-5.3,3.4l3.4,2.2l-3.7-0.4l1.8,5
		L258.4,228z"/>
	<path class="st38" d="M254.5,217.3l0.7,0.9l1.7,2.2l0.9-2.5l0.7,2.8l2-2.1l0.2-0.2l-0.3,1.3l-0.4,1.7l1.8,0.2l1.5,0.2l-2.4,1.5
		l-2.1,1.3l1.7,1.1l-1.7-0.2l0.9,2.4l0.1,0.3l-0.1-0.1l-1.5-1.6l-1,2l0,0.1l-0.3-0.7l-0.8-2l-1.7,1.4l-2.2,1.8l0.7-2.3l0.7-2.4
		l-1.1,0.2l-1.5-0.9l-0.4-0.2l0.1,0l2.7,0.2l-1.2-2.5c-0.2-0.3-0.3-0.7-0.5-1l1,0.2l2.4,0.5l-0.5-2.4L254.5,217.3 M251.6,211.1
		l1.5,7.8l-4.3-1c0,0,1.3,2.5,2,4l-6.9-0.5l6.2,3.6l-1.8,1.8l2.9-0.5l-2,7.2l6.1-5.1l1.6,3.9l1.6-3.1l5.2,5.4l-2.6-7.3l5.8,0.6
		l-5.2-3.3l6.1-3.9l-5.9-0.6l1.6-6.9l-4.2,4.4l-1.2-4.9l-1.8,4.6L251.6,211.1L251.6,211.1z"/>
</g>
<g>
	<path class="st16" d="M248.3,83c0,1-0.8,1.8-1.8,1.8c-1,0-1.8-0.8-1.8-1.8c0-1,0.8-1.8,1.8-1.8C247.5,81.2,248.3,82,248.3,83z
		 M248.3,91.8l0.1-3.9l2.2,4.9c0.1,0.2,0.3,0.3,0.6,0.2c0.2-0.1,0.3-0.3,0.2-0.6c0,0-1.6-4.9-2-5.8c-0.4-0.9-1.1-1.5-2.8-1.5h-0.3
		c-1.7,0-2.4,0.6-2.8,1.5c-0.4,0.9-2,5.8-2,5.8c-0.1,0.2,0,0.5,0.2,0.6c0.2,0.1,0.5,0,0.6-0.2l2.2-4.9l0.1,3.9l-0.3,9.9
		c0,0.4,0.3,0.7,0.7,0.8c0,0,0,0,0.1,0c0.4,0,0.7-0.3,0.7-0.7l0.8-8.1l0.8,8.1c0,0.4,0.3,0.7,0.7,0.7c0,0,0,0,0.1,0
		c0.4,0,0.7-0.4,0.7-0.8L248.3,91.8L248.3,91.8z"/>
	<path class="st16" d="M50,83c0,1-0.8,1.8-1.8,1.8c-1,0-1.8-0.8-1.8-1.8c0-1,0.8-1.8,1.8-1.8C49.2,81.2,50,82,50,83z M48.4,95.4
		l0.4,6.7c0,0.2,0.2,0.4,0.4,0.4c0.2,0,0.4-0.2,0.4-0.4l0.4-6.7h1.2l-1.2-7.5l2.5,4.9c0.1,0.2,0.3,0.3,0.6,0.2
		c0.2-0.1,0.3-0.3,0.2-0.6c0,0-1.8-4.9-2.2-5.8c-0.4-0.9-0.9-1.5-2.6-1.5H48c-1.7,0-2.1,0.6-2.6,1.5c-0.4,0.9-2.2,5.8-2.2,5.8
		c-0.1,0.2,0,0.5,0.2,0.6c0.2,0.1,0.5,0,0.6-0.2l2.5-4.9l-1.2,7.5h1.2l0.4,6.7c0,0.2,0.2,0.4,0.4,0.4c0.2,0,0.4-0.2,0.4-0.4l0.4-6.7
		H48.4z"/>
	<path class="st16" d="M70.2,83c0,1-0.8,1.8-1.8,1.8c-1,0-1.8-0.8-1.8-1.8c0-1,0.8-1.8,1.8-1.8C69.4,81.2,70.2,82,70.2,83z
		 M70.2,91.8l0.1-3.9l2.2,4.9c0.1,0.2,0.3,0.3,0.6,0.2c0.2-0.1,0.3-0.3,0.2-0.6c0,0-1.6-4.9-2-5.8c-0.4-0.9-1.1-1.5-2.8-1.5h-0.3
		c-1.7,0-2.4,0.6-2.8,1.5c-0.4,0.9-2,5.8-2,5.8c-0.1,0.2,0,0.5,0.2,0.6c0.2,0.1,0.5,0,0.6-0.2l2.2-4.9l0.1,3.9l-0.3,9.9
		c0,0.4,0.3,0.7,0.7,0.8c0,0,0,0,0.1,0c0.4,0,0.7-0.3,0.7-0.7l0.8-8.1l0.8,8.1c0,0.4,0.3,0.7,0.7,0.7c0,0,0,0,0.1,0
		c0.4,0,0.7-0.4,0.7-0.8L70.2,91.8L70.2,91.8z"/>
	<path class="st16" d="M79.8,88c0,0.9-0.8,1.7-1.7,1.7c-0.9,0-1.7-0.8-1.7-1.7s0.8-1.7,1.7-1.7C79,86.3,79.8,87.1,79.8,88z
		 M80.8,91.4c-0.4-0.8-1-1.3-2.5-1.3h-0.3c-1.5,0-2.1,0.5-2.5,1.3c-0.4,0.8-0.6,4.1-0.6,4.1c-0.1,0.2,0,0.4,0.2,0.5
		c0.2,0.1,0.4,0,0.5-0.2l0.8-3.3l0.1,3.5h0l-0.3,5.8c0,0.3,0.2,0.7,0.6,0.7h0.1c0.3,0,0.6-0.3,0.6-0.6l0.7-5.4l0.7,5.4
		c0,0.3,0.3,0.6,0.6,0.6h0.1c0.3,0,0.6-0.3,0.6-0.7L79.8,96h0l0.1-3.5l0.8,3.3c0.1,0.2,0.3,0.3,0.5,0.2c0.2-0.1,0.3-0.3,0.2-0.5
		C81.4,95.5,81.2,92.2,80.8,91.4z"/>
	<path class="st16" d="M60.8,89c0,0.4-0.3,0.7-0.8,0.7c-0.3,0-0.6-0.2-0.7-0.4c-0.3,0.2-0.7,0.4-1.1,0.4c-0.4,0-0.8-0.2-1.1-0.4
		c-0.1,0.2-0.4,0.4-0.7,0.4c-0.4,0-0.8-0.3-0.8-0.7c0-0.4,0.3-0.7,0.8-0.7c0,0,0.1,0,0.1,0c0-0.1,0-0.1,0-0.2c0-0.9,0.8-1.7,1.7-1.7
		c0.9,0,1.7,0.8,1.7,1.7c0,0.1,0,0.2,0,0.2c0,0,0.1,0,0.1,0C60.5,88.2,60.8,88.6,60.8,89z M61.9,95.3c0,0-0.9-3.1-1.3-3.9
		c-0.4-0.8-0.8-1.3-2.3-1.3h-0.1h-0.1c-1.5,0-1.9,0.5-2.3,1.3c-0.4,0.8-1.3,3.9-1.3,3.9c-0.1,0.2,0,0.4,0.2,0.5
		c0.2,0.1,0.4,0,0.5-0.2l1.4-3.1l-1.1,5.3h1.1l0.3,4.3c0,0.2,0.2,0.4,0.4,0.4c0.2,0,0.4-0.2,0.4-0.4l0.3-4.3h0.1h0.1l0.3,4.3
		c0,0.2,0.2,0.4,0.4,0.4c0.2,0,0.4-0.2,0.4-0.4l0.3-4.3h1.1l-1.1-5.3l1.4,3.1c0.1,0.2,0.3,0.3,0.5,0.2C61.9,95.7,62,95.5,61.9,95.3z
		"/>
	<path class="st16" d="M89.7,83c0,1-0.8,1.8-1.8,1.8c-1,0-1.8-0.8-1.8-1.8c0-1,0.8-1.8,1.8-1.8C88.8,81.2,89.7,82,89.7,83z M88,95.4
		l0.4,6.7c0,0.2,0.2,0.4,0.4,0.4c0.2,0,0.4-0.2,0.4-0.4l0.4-6.7h1.2l-1.2-7.5l2.5,4.9c0.1,0.2,0.3,0.3,0.6,0.2
		c0.2-0.1,0.3-0.3,0.2-0.6c0,0-1.8-4.9-2.2-5.8c-0.4-0.9-0.9-1.5-2.6-1.5h-0.3c-1.7,0-2.1,0.6-2.6,1.5c-0.4,0.9-2.2,5.8-2.2,5.8
		c-0.1,0.2,0,0.5,0.2,0.6c0.2,0.1,0.5,0,0.6-0.2l2.5-4.9l-1.2,7.5H86l0.4,6.7c0,0.2,0.2,0.4,0.4,0.4c0.2,0,0.4-0.2,0.4-0.4l0.4-6.7
		H88z"/>
	<path class="st16" d="M109.8,83c0,1-0.8,1.8-1.8,1.8c-1,0-1.8-0.8-1.8-1.8c0-1,0.8-1.8,1.8-1.8C109,81.2,109.8,82,109.8,83z
		 M109.9,91.8l0.1-3.9l2.2,4.9c0.1,0.2,0.3,0.3,0.6,0.2c0.2-0.1,0.3-0.3,0.2-0.6c0,0-1.6-4.9-2-5.8c-0.4-0.9-1.1-1.5-2.8-1.5h-0.3
		c-1.7,0-2.4,0.6-2.8,1.5c-0.4,0.9-2,5.8-2,5.8c-0.1,0.2,0,0.5,0.2,0.6c0.2,0.1,0.5,0,0.6-0.2l2.2-4.9l0.1,3.9l-0.3,9.9
		c0,0.4,0.3,0.7,0.7,0.8c0,0,0,0,0.1,0c0.4,0,0.7-0.3,0.7-0.7l0.8-8.1l0.8,8.1c0,0.4,0.3,0.7,0.7,0.7c0,0,0,0,0.1,0
		c0.4,0,0.7-0.4,0.7-0.8L109.9,91.8L109.9,91.8z"/>
	<path class="st16" d="M119.4,88c0,0.9-0.8,1.7-1.7,1.7c-0.9,0-1.7-0.8-1.7-1.7s0.8-1.7,1.7-1.7C118.7,86.3,119.4,87.1,119.4,88z
		 M120.4,91.4c-0.4-0.8-1-1.3-2.5-1.3h-0.3c-1.5,0-2.1,0.5-2.5,1.3c-0.4,0.8-0.6,4.1-0.6,4.1c-0.1,0.2,0,0.4,0.2,0.5
		c0.2,0.1,0.4,0,0.5-0.2l0.8-3.3l0.1,3.5h0l-0.3,5.8c0,0.3,0.2,0.7,0.6,0.7h0.1c0.3,0,0.6-0.3,0.6-0.6l0.7-5.4l0.7,5.4
		c0,0.3,0.3,0.6,0.6,0.6h0.1c0.3,0,0.6-0.3,0.6-0.7l-0.3-5.8h0l0.1-3.5l0.8,3.3c0.1,0.2,0.3,0.3,0.5,0.2c0.2-0.1,0.3-0.3,0.2-0.5
		C121,95.5,120.8,92.2,120.4,91.4z"/>
	<path class="st16" d="M100.4,89c0,0.4-0.3,0.7-0.8,0.7c-0.3,0-0.6-0.2-0.7-0.4c-0.3,0.2-0.7,0.4-1.1,0.4c-0.4,0-0.8-0.2-1.1-0.4
		c-0.1,0.2-0.4,0.4-0.7,0.4c-0.4,0-0.8-0.3-0.8-0.7c0-0.4,0.3-0.7,0.8-0.7c0,0,0.1,0,0.1,0c0-0.1,0-0.1,0-0.2c0-0.9,0.8-1.7,1.7-1.7
		c0.9,0,1.7,0.8,1.7,1.7c0,0.1,0,0.2,0,0.2c0,0,0.1,0,0.1,0C100.1,88.2,100.4,88.6,100.4,89z M101.5,95.3c0,0-0.9-3.1-1.3-3.9
		C99.9,90.5,99.5,90,98,90h-0.1h-0.1c-1.5,0-1.9,0.5-2.3,1.3c-0.4,0.8-1.3,3.9-1.3,3.9c-0.1,0.2,0,0.4,0.2,0.5
		c0.2,0.1,0.4,0,0.5-0.2l1.4-3.1l-1.1,5.3h1.1l0.3,4.3c0,0.2,0.2,0.4,0.4,0.4c0.2,0,0.4-0.2,0.4-0.4l0.3-4.3h0.1H98l0.3,4.3
		c0,0.2,0.2,0.4,0.4,0.4c0.2,0,0.4-0.2,0.4-0.4l0.3-4.3h1.1l-1.1-5.3l1.4,3.1c0.1,0.2,0.3,0.3,0.5,0.2
		C101.5,95.7,101.6,95.5,101.5,95.3z"/>
	<path class="st16" d="M129.3,83c0,1-0.8,1.8-1.8,1.8c-1,0-1.8-0.8-1.8-1.8c0-1,0.8-1.8,1.8-1.8C128.5,81.2,129.3,82,129.3,83z
		 M127.7,95.4l0.4,6.7c0,0.2,0.2,0.4,0.4,0.4c0.2,0,0.4-0.2,0.4-0.4l0.4-6.7h1.2l-1.2-7.5l2.5,4.9c0.1,0.2,0.3,0.3,0.6,0.2
		c0.2-0.1,0.3-0.3,0.2-0.6c0,0-1.8-4.9-2.2-5.8c-0.4-0.9-0.9-1.5-2.6-1.5h-0.3c-1.7,0-2.1,0.6-2.6,1.5c-0.4,0.9-2.2,5.8-2.2,5.8
		c-0.1,0.2,0,0.5,0.2,0.6c0.2,0.1,0.5,0,0.6-0.2l2.5-4.9l-1.2,7.5h1.2l0.4,6.7c0,0.2,0.2,0.4,0.4,0.4c0.2,0,0.4-0.2,0.4-0.4l0.4-6.7
		H127.7z"/>
	<path class="st16" d="M140.1,89c0,0.4-0.3,0.7-0.8,0.7c-0.3,0-0.6-0.2-0.7-0.4c-0.3,0.2-0.7,0.4-1.1,0.4c-0.4,0-0.8-0.2-1.1-0.4
		c-0.1,0.2-0.4,0.4-0.7,0.4c-0.4,0-0.8-0.3-0.8-0.7c0-0.4,0.3-0.7,0.8-0.7c0,0,0.1,0,0.1,0c0-0.1,0-0.1,0-0.2c0-0.9,0.8-1.7,1.7-1.7
		c0.9,0,1.7,0.8,1.7,1.7c0,0.1,0,0.2,0,0.2c0,0,0.1,0,0.1,0C139.8,88.2,140.1,88.6,140.1,89z M141.2,95.3c0,0-0.9-3.1-1.3-3.9
		c-0.4-0.8-0.8-1.3-2.3-1.3h-0.1h-0.1c-1.5,0-1.9,0.5-2.3,1.3c-0.4,0.8-1.3,3.9-1.3,3.9c-0.1,0.2,0,0.4,0.2,0.5
		c0.2,0.1,0.4,0,0.5-0.2l1.4-3.1l-1.1,5.3h1.1l0.3,4.3c0,0.2,0.2,0.4,0.4,0.4c0.2,0,0.4-0.2,0.4-0.4l0.3-4.3h0.1h0.1l0.3,4.3
		c0,0.2,0.2,0.4,0.4,0.4c0.2,0,0.4-0.2,0.4-0.4l0.3-4.3h1.1l-1.1-5.3l1.4,3.1c0.1,0.2,0.3,0.3,0.5,0.2
		C141.2,95.7,141.3,95.5,141.2,95.3z"/>
	<path class="st16" d="M159.2,109.3c0,1-0.8,1.8-1.8,1.8c-1,0-1.8-0.8-1.8-1.8c0-1,0.8-1.8,1.8-1.8
		C158.4,107.5,159.2,108.3,159.2,109.3z M159.3,118.2l0.1-3.9l2.2,4.9c0.1,0.2,0.3,0.3,0.6,0.2c0.2-0.1,0.3-0.3,0.2-0.6
		c0,0-1.6-4.9-2-5.8c-0.4-0.9-1.1-1.5-2.8-1.5h-0.3c-1.7,0-2.4,0.6-2.8,1.5c-0.4,0.9-2,5.8-2,5.8c-0.1,0.2,0,0.5,0.2,0.6
		c0.2,0.1,0.5,0,0.6-0.2l2.2-4.9l0.1,3.9l-0.3,9.9c0,0.4,0.3,0.7,0.7,0.8c0,0,0,0,0.1,0c0.4,0,0.7-0.3,0.7-0.7l0.8-8.1l0.8,8.1
		c0,0.4,0.3,0.7,0.7,0.7c0,0,0,0,0.1,0c0.4,0,0.7-0.4,0.7-0.8L159.3,118.2L159.3,118.2z"/>
	<path class="st16" d="M168.8,114.4c0,0.9-0.8,1.7-1.7,1.7c-0.9,0-1.7-0.8-1.7-1.7c0-0.9,0.8-1.7,1.7-1.7
		C168.1,112.7,168.8,113.4,168.8,114.4z M169.8,117.7c-0.4-0.8-1-1.3-2.5-1.3H167c-1.5,0-2.1,0.5-2.5,1.3c-0.4,0.8-0.6,4.1-0.6,4.1
		c-0.1,0.2,0,0.4,0.2,0.5c0.2,0.1,0.4,0,0.5-0.2l0.8-3.3l0.1,3.5h0l-0.3,5.8c0,0.3,0.2,0.7,0.6,0.7h0.1c0.3,0,0.6-0.3,0.6-0.6
		l0.7-5.4l0.7,5.4c0,0.3,0.3,0.6,0.6,0.6h0.1c0.3,0,0.6-0.3,0.6-0.7l-0.3-5.8h0l0.1-3.5l0.8,3.3c0.1,0.2,0.3,0.3,0.5,0.2
		c0.2-0.1,0.3-0.3,0.2-0.5C170.4,121.8,170.2,118.6,169.8,117.7z"/>
	<path class="st16" d="M149.8,115.3c0,0.4-0.3,0.7-0.8,0.7c-0.3,0-0.6-0.2-0.7-0.4c-0.3,0.2-0.7,0.4-1.1,0.4c-0.4,0-0.8-0.2-1.1-0.4
		c-0.1,0.2-0.4,0.4-0.7,0.4c-0.4,0-0.8-0.3-0.8-0.7c0-0.4,0.3-0.7,0.8-0.7c0,0,0.1,0,0.1,0c0-0.1,0-0.1,0-0.2c0-0.9,0.8-1.7,1.7-1.7
		c0.9,0,1.7,0.8,1.7,1.7c0,0.1,0,0.2,0,0.2c0,0,0.1,0,0.1,0C149.5,114.6,149.8,114.9,149.8,115.3z M150.9,121.6c0,0-0.9-3.1-1.3-3.9
		c-0.4-0.8-0.8-1.3-2.3-1.3h-0.1h-0.1c-1.5,0-1.9,0.5-2.3,1.3c-0.4,0.8-1.3,3.9-1.3,3.9c-0.1,0.2,0,0.4,0.2,0.5
		c0.2,0.1,0.4,0,0.5-0.2l1.4-3.1l-1.1,5.3h1.1l0.3,4.3c0,0.2,0.2,0.4,0.4,0.4c0.2,0,0.4-0.2,0.4-0.4l0.3-4.3h0.1h0.1l0.3,4.3
		c0,0.2,0.2,0.4,0.4,0.4c0.2,0,0.4-0.2,0.4-0.4l0.3-4.3h1.1l-1.1-5.3l1.4,3.1c0.1,0.2,0.3,0.3,0.5,0.2
		C150.9,122,151,121.8,150.9,121.6z"/>
	<path class="st16" d="M178.7,109.3c0,1-0.8,1.8-1.8,1.8c-1,0-1.8-0.8-1.8-1.8c0-1,0.8-1.8,1.8-1.8
		C177.9,107.5,178.7,108.3,178.7,109.3z M177.1,121.7l0.4,6.7c0,0.2,0.2,0.4,0.4,0.4c0.2,0,0.4-0.2,0.4-0.4l0.4-6.7h1.2l-1.2-7.5
		l2.5,4.9c0.1,0.2,0.3,0.3,0.6,0.2c0.2-0.1,0.3-0.3,0.2-0.6c0,0-1.8-4.9-2.2-5.8c-0.4-0.9-0.9-1.5-2.6-1.5h-0.3
		c-1.7,0-2.1,0.6-2.6,1.5c-0.4,0.9-2.2,5.8-2.2,5.8c-0.1,0.2,0,0.5,0.2,0.6c0.2,0.1,0.5,0,0.6-0.2l2.5-4.9l-1.2,7.5h1.2l0.4,6.7
		c0,0.2,0.2,0.4,0.4,0.4c0.2,0,0.4-0.2,0.4-0.4l0.4-6.7H177.1z"/>
	<path class="st16" d="M189.5,115.3c0,0.4-0.3,0.7-0.8,0.7c-0.3,0-0.6-0.2-0.7-0.4c-0.3,0.2-0.7,0.4-1.1,0.4c-0.4,0-0.8-0.2-1.1-0.4
		c-0.1,0.2-0.4,0.4-0.7,0.4c-0.4,0-0.8-0.3-0.8-0.7c0-0.4,0.3-0.7,0.8-0.7c0,0,0.1,0,0.1,0c0-0.1,0-0.1,0-0.2c0-0.9,0.8-1.7,1.7-1.7
		c0.9,0,1.7,0.8,1.7,1.7c0,0.1,0,0.2,0,0.2c0,0,0.1,0,0.1,0C189.2,114.6,189.5,114.9,189.5,115.3z M190.6,121.6c0,0-0.9-3.1-1.3-3.9
		c-0.4-0.8-0.8-1.3-2.3-1.3H187h-0.1c-1.5,0-1.9,0.5-2.3,1.3c-0.4,0.8-1.3,3.9-1.3,3.9c-0.1,0.2,0,0.4,0.2,0.5
		c0.2,0.1,0.4,0,0.5-0.2l1.4-3.1l-1.1,5.3h1.1l0.3,4.3c0,0.2,0.2,0.4,0.4,0.4c0.2,0,0.4-0.2,0.4-0.4l0.3-4.3h0.1h0.1l0.3,4.3
		c0,0.2,0.2,0.4,0.4,0.4c0.2,0,0.4-0.2,0.4-0.4l0.3-4.3h1.1l-1.1-5.3l1.4,3.1c0.1,0.2,0.3,0.3,0.5,0.2
		C190.6,122,190.7,121.8,190.6,121.6z"/>
	<path class="st16" d="M149.5,83c0,1-0.8,1.8-1.8,1.8c-1,0-1.8-0.8-1.8-1.8c0-1,0.8-1.8,1.8-1.8C148.7,81.2,149.5,82,149.5,83z
		 M149.5,91.8l0.1-3.9l2.2,4.9c0.1,0.2,0.3,0.3,0.6,0.2c0.2-0.1,0.3-0.3,0.2-0.6c0,0-1.6-4.9-2-5.8c-0.4-0.9-1.1-1.5-2.8-1.5h-0.3
		c-1.7,0-2.4,0.6-2.8,1.5c-0.4,0.9-2,5.8-2,5.8c-0.1,0.2,0,0.5,0.2,0.6c0.2,0.1,0.5,0,0.6-0.2l2.2-4.9l0.1,3.9l-0.3,9.9
		c0,0.4,0.3,0.7,0.7,0.8c0,0,0,0,0.1,0c0.4,0,0.7-0.3,0.7-0.7l0.8-8.1l0.8,8.1c0,0.4,0.3,0.7,0.7,0.7c0,0,0,0,0.1,0
		c0.4,0,0.7-0.4,0.7-0.8L149.5,91.8L149.5,91.8z"/>
	<path class="st16" d="M189.1,83c0,1-0.8,1.8-1.8,1.8c-1,0-1.8-0.8-1.8-1.8c0-1,0.8-1.8,1.8-1.8C188.3,81.2,189.1,82,189.1,83z
		 M189.2,91.8l0.1-3.9l2.2,4.9c0.1,0.2,0.3,0.3,0.6,0.2c0.2-0.1,0.3-0.3,0.2-0.6c0,0-1.6-4.9-2-5.8c-0.4-0.9-1.1-1.5-2.8-1.5h-0.3
		c-1.7,0-2.4,0.6-2.8,1.5c-0.4,0.9-2,5.8-2,5.8c-0.1,0.2,0,0.5,0.2,0.6c0.2,0.1,0.5,0,0.6-0.2l2.2-4.9l0.1,3.9l-0.3,9.9
		c0,0.4,0.3,0.7,0.7,0.8c0,0,0,0,0.1,0c0.4,0,0.7-0.3,0.7-0.7l0.8-8.1l0.8,8.1c0,0.4,0.3,0.7,0.7,0.7c0,0,0,0,0.1,0
		c0.4,0,0.7-0.4,0.7-0.8L189.2,91.8L189.2,91.8z"/>
	<path class="st16" d="M159.1,88c0,0.9-0.8,1.7-1.7,1.7c-0.9,0-1.7-0.8-1.7-1.7s0.8-1.7,1.7-1.7C158.3,86.3,159.1,87.1,159.1,88z
		 M160.1,91.4c-0.4-0.8-1-1.3-2.5-1.3h-0.3c-1.5,0-2.1,0.5-2.5,1.3c-0.4,0.8-0.6,4.1-0.6,4.1c-0.1,0.2,0,0.4,0.2,0.5
		c0.2,0.1,0.4,0,0.5-0.2l0.8-3.3l0.1,3.5h0l-0.3,5.8c0,0.3,0.2,0.7,0.6,0.7h0.1c0.3,0,0.6-0.3,0.6-0.6l0.7-5.4l0.7,5.4
		c0,0.3,0.3,0.6,0.6,0.6h0.1c0.3,0,0.6-0.3,0.6-0.7l-0.3-5.8h0l0.1-3.5l0.8,3.3c0.1,0.2,0.3,0.3,0.5,0.2c0.2-0.1,0.3-0.3,0.2-0.5
		C160.7,95.5,160.5,92.2,160.1,91.4z"/>
	<path class="st16" d="M169,83c0,1-0.8,1.8-1.8,1.8c-1,0-1.8-0.8-1.8-1.8c0-1,0.8-1.8,1.8-1.8C168.1,81.2,169,82,169,83z
		 M167.3,95.4l0.4,6.7c0,0.2,0.2,0.4,0.4,0.4c0.2,0,0.4-0.2,0.4-0.4l0.4-6.7h1.2l-1.2-7.5l2.5,4.9c0.1,0.2,0.3,0.3,0.6,0.2
		c0.2-0.1,0.3-0.3,0.2-0.6c0,0-1.8-4.9-2.2-5.8c-0.4-0.9-0.9-1.5-2.6-1.5H167c-1.7,0-2.1,0.6-2.6,1.5c-0.4,0.9-2.2,5.8-2.2,5.8
		c-0.1,0.2,0,0.5,0.2,0.6c0.2,0.1,0.5,0,0.6-0.2l2.5-4.9l-1.2,7.5h1.2l0.4,6.7c0,0.2,0.2,0.4,0.4,0.4c0.2,0,0.4-0.2,0.4-0.4l0.4-6.7
		H167.3z"/>
	<path class="st16" d="M179.8,89c0,0.4-0.3,0.7-0.8,0.7c-0.3,0-0.6-0.2-0.7-0.4c-0.3,0.2-0.7,0.4-1.1,0.4c-0.4,0-0.8-0.2-1.1-0.4
		c-0.1,0.2-0.4,0.4-0.7,0.4c-0.4,0-0.8-0.3-0.8-0.7c0-0.4,0.3-0.7,0.8-0.7c0,0,0.1,0,0.1,0c0-0.1,0-0.1,0-0.2c0-0.9,0.8-1.7,1.7-1.7
		c0.9,0,1.7,0.8,1.7,1.7c0,0.1,0,0.2,0,0.2c0,0,0.1,0,0.1,0C179.4,88.2,179.8,88.6,179.8,89z M180.8,95.3c0,0-0.9-3.1-1.3-3.9
		c-0.4-0.8-0.8-1.3-2.3-1.3h-0.1h-0.1c-1.5,0-1.9,0.5-2.3,1.3c-0.4,0.8-1.3,3.9-1.3,3.9c-0.1,0.2,0,0.4,0.2,0.5
		c0.2,0.1,0.4,0,0.5-0.2l1.4-3.1l-1.1,5.3h1.1l0.3,4.3c0,0.2,0.2,0.4,0.4,0.4c0.2,0,0.4-0.2,0.4-0.4l0.3-4.3h0.1h0.1l0.3,4.3
		c0,0.2,0.2,0.4,0.4,0.4c0.2,0,0.4-0.2,0.4-0.4l0.3-4.3h1.1l-1.1-5.3l1.4,3.1c0.1,0.2,0.3,0.3,0.5,0.2
		C180.8,95.7,180.9,95.5,180.8,95.3z"/>
	<path class="st16" d="M198.9,109.3c0,1-0.8,1.8-1.8,1.8c-1,0-1.8-0.8-1.8-1.8c0-1,0.8-1.8,1.8-1.8
		C198.1,107.5,198.9,108.3,198.9,109.3z M198.9,118.2l0.1-3.9l2.2,4.9c0.1,0.2,0.3,0.3,0.6,0.2c0.2-0.1,0.3-0.3,0.2-0.6
		c0,0-1.6-4.9-2-5.8c-0.4-0.9-1.1-1.5-2.8-1.5h-0.3c-1.7,0-2.4,0.6-2.8,1.5c-0.4,0.9-2,5.8-2,5.8c-0.1,0.2,0,0.5,0.2,0.6
		c0.2,0.1,0.5,0,0.6-0.2l2.2-4.9l0.1,3.9l-0.3,9.9c0,0.4,0.3,0.7,0.7,0.8c0,0,0,0,0.1,0c0.4,0,0.7-0.3,0.7-0.7l0.8-8.1l0.8,8.1
		c0,0.4,0.3,0.7,0.7,0.7c0,0,0,0,0.1,0c0.4,0,0.7-0.4,0.7-0.8L198.9,118.2L198.9,118.2z"/>
	<path class="st16" d="M238.5,109.3c0,1-0.8,1.8-1.8,1.8c-1,0-1.8-0.8-1.8-1.8c0-1,0.8-1.8,1.8-1.8
		C237.7,107.5,238.5,108.3,238.5,109.3z M238.6,118.2l0.1-3.9l2.2,4.9c0.1,0.2,0.3,0.3,0.6,0.2c0.2-0.1,0.3-0.3,0.2-0.6
		c0,0-1.6-4.9-2-5.8c-0.4-0.9-1.1-1.5-2.8-1.5h-0.3c-1.7,0-2.4,0.6-2.8,1.5c-0.4,0.9-2,5.8-2,5.8c-0.1,0.2,0,0.5,0.2,0.6
		c0.2,0.1,0.5,0,0.6-0.2l2.2-4.9l0.1,3.9l-0.3,9.9c0,0.4,0.3,0.7,0.7,0.8c0,0,0,0,0.1,0c0.4,0,0.7-0.3,0.7-0.7l0.8-8.1l0.8,8.1
		c0,0.4,0.3,0.7,0.7,0.7c0,0,0,0,0.1,0c0.4,0,0.7-0.4,0.7-0.8L238.6,118.2L238.6,118.2z"/>
	<path class="st16" d="M208.5,114.4c0,0.9-0.8,1.7-1.7,1.7c-0.9,0-1.7-0.8-1.7-1.7c0-0.9,0.8-1.7,1.7-1.7
		C207.7,112.7,208.5,113.4,208.5,114.4z M209.5,117.7c-0.4-0.8-1-1.3-2.5-1.3h-0.3c-1.5,0-2.1,0.5-2.5,1.3c-0.4,0.8-0.6,4.1-0.6,4.1
		c-0.1,0.2,0,0.4,0.2,0.5c0.2,0.1,0.4,0,0.5-0.2l0.8-3.3l0.1,3.5h0l-0.3,5.8c0,0.3,0.2,0.7,0.6,0.7h0.1c0.3,0,0.6-0.3,0.6-0.6
		l0.7-5.4l0.7,5.4c0,0.3,0.3,0.6,0.6,0.6h0.1c0.3,0,0.6-0.3,0.6-0.7l-0.3-5.8h0l0.1-3.5l0.8,3.3c0.1,0.2,0.3,0.3,0.5,0.2
		c0.2-0.1,0.3-0.3,0.2-0.5C210.1,121.8,209.9,118.6,209.5,117.7z"/>
	<path class="st16" d="M218.4,109.3c0,1-0.8,1.8-1.8,1.8c-1,0-1.8-0.8-1.8-1.8c0-1,0.8-1.8,1.8-1.8
		C217.5,107.5,218.4,108.3,218.4,109.3z M216.7,121.7l0.4,6.7c0,0.2,0.2,0.4,0.4,0.4c0.2,0,0.4-0.2,0.4-0.4l0.4-6.7h1.2l-1.2-7.5
		l2.5,4.9c0.1,0.2,0.3,0.3,0.6,0.2c0.2-0.1,0.3-0.3,0.2-0.6c0,0-1.8-4.9-2.2-5.8c-0.4-0.9-0.9-1.5-2.6-1.5h-0.3
		c-1.7,0-2.1,0.6-2.6,1.5c-0.4,0.9-2.2,5.8-2.2,5.8c-0.1,0.2,0,0.5,0.2,0.6c0.2,0.1,0.5,0,0.6-0.2l2.5-4.9l-1.2,7.5h1.2l0.4,6.7
		c0,0.2,0.2,0.4,0.4,0.4c0.2,0,0.4-0.2,0.4-0.4l0.4-6.7H216.7z"/>
	<path class="st16" d="M229.1,115.3c0,0.4-0.3,0.7-0.8,0.7c-0.3,0-0.6-0.2-0.7-0.4c-0.3,0.2-0.7,0.4-1.1,0.4c-0.4,0-0.8-0.2-1.1-0.4
		c-0.1,0.2-0.4,0.4-0.7,0.4c-0.4,0-0.8-0.3-0.8-0.7c0-0.4,0.3-0.7,0.8-0.7c0,0,0.1,0,0.1,0c0-0.1,0-0.1,0-0.2c0-0.9,0.8-1.7,1.7-1.7
		c0.9,0,1.7,0.8,1.7,1.7c0,0.1,0,0.2,0,0.2c0,0,0.1,0,0.1,0C228.8,114.6,229.1,114.9,229.1,115.3z M230.2,121.6c0,0-0.9-3.1-1.3-3.9
		c-0.4-0.8-0.8-1.3-2.3-1.3h-0.1h-0.1c-1.5,0-1.9,0.5-2.3,1.3c-0.4,0.8-1.3,3.9-1.3,3.9c-0.1,0.2,0,0.4,0.2,0.5
		c0.2,0.1,0.4,0,0.5-0.2l1.4-3.1l-1.1,5.3h1.1l0.3,4.3c0,0.2,0.2,0.4,0.4,0.4c0.2,0,0.4-0.2,0.4-0.4l0.3-4.3h0.1h0.1l0.3,4.3
		c0,0.2,0.2,0.4,0.4,0.4c0.2,0,0.4-0.2,0.4-0.4l0.3-4.3h1.1l-1.1-5.3l1.4,3.1c0.1,0.2,0.3,0.3,0.5,0.2
		C230.2,122,230.3,121.8,230.2,121.6z"/>
	<path class="st16" d="M49.9,114.4c0,0.9-0.8,1.7-1.7,1.7c-0.9,0-1.7-0.8-1.7-1.7c0-0.9,0.8-1.7,1.7-1.7
		C49.1,112.7,49.9,113.4,49.9,114.4z M50.9,117.7c-0.4-0.8-1-1.3-2.5-1.3H48c-1.5,0-2.1,0.5-2.5,1.3c-0.4,0.8-0.6,4.1-0.6,4.1
		c-0.1,0.2,0,0.4,0.2,0.5c0.2,0.1,0.4,0,0.5-0.2l0.8-3.3l0.1,3.5h0l-0.3,5.8c0,0.3,0.2,0.7,0.6,0.7h0.1c0.3,0,0.6-0.3,0.6-0.6
		l0.7-5.4l0.7,5.4c0,0.3,0.3,0.6,0.6,0.6h0.1c0.3,0,0.6-0.3,0.6-0.7l-0.3-5.8h0l0.1-3.5l0.8,3.3c0.1,0.2,0.3,0.3,0.5,0.2
		c0.2-0.1,0.3-0.3,0.2-0.5C51.5,121.8,51.3,118.6,50.9,117.7z"/>
	<path class="st16" d="M59.7,109.3c0,1-0.8,1.8-1.8,1.8c-1,0-1.8-0.8-1.8-1.8c0-1,0.8-1.8,1.8-1.8C58.9,107.5,59.7,108.3,59.7,109.3
		z M58.1,121.7l0.4,6.7c0,0.2,0.2,0.4,0.4,0.4c0.2,0,0.4-0.2,0.4-0.4l0.4-6.7h1.2l-1.2-7.5l2.5,4.9c0.1,0.2,0.3,0.3,0.6,0.2
		c0.2-0.1,0.3-0.3,0.2-0.6c0,0-1.8-4.9-2.2-5.8c-0.4-0.9-0.9-1.5-2.6-1.5h-0.3c-1.7,0-2.1,0.6-2.6,1.5c-0.4,0.9-2.2,5.8-2.2,5.8
		c-0.1,0.2,0,0.5,0.2,0.6c0.2,0.1,0.5,0,0.6-0.2l2.5-4.9l-1.2,7.5h1.2l0.4,6.7c0,0.2,0.2,0.4,0.4,0.4c0.2,0,0.4-0.2,0.4-0.4l0.4-6.7
		H58.1z"/>
	<path class="st16" d="M79.9,109.3c0,1-0.8,1.8-1.8,1.8c-1,0-1.8-0.8-1.8-1.8c0-1,0.8-1.8,1.8-1.8C79.1,107.5,79.9,108.3,79.9,109.3
		z M80,118.2l0.1-3.9l2.2,4.9c0.1,0.2,0.3,0.3,0.6,0.2c0.2-0.1,0.3-0.3,0.2-0.6c0,0-1.6-4.9-2-5.8c-0.4-0.9-1.1-1.5-2.8-1.5h-0.3
		c-1.7,0-2.4,0.6-2.8,1.5c-0.4,0.9-2,5.8-2,5.8c-0.1,0.2,0,0.5,0.2,0.6c0.2,0.1,0.5,0,0.6-0.2l2.2-4.9l0.1,3.9l-0.3,9.9
		c0,0.4,0.3,0.7,0.7,0.8c0,0,0,0,0.1,0c0.4,0,0.7-0.3,0.7-0.7l0.8-8.1l0.8,8.1c0,0.4,0.3,0.7,0.7,0.7c0,0,0,0,0.1,0
		c0.4,0,0.7-0.4,0.7-0.8L80,118.2L80,118.2z"/>
	<path class="st16" d="M89.5,114.4c0,0.9-0.8,1.7-1.7,1.7c-0.9,0-1.7-0.8-1.7-1.7c0-0.9,0.8-1.7,1.7-1.7
		C88.8,112.7,89.5,113.4,89.5,114.4z M90.5,117.7c-0.4-0.8-1-1.3-2.5-1.3h-0.3c-1.5,0-2.1,0.5-2.5,1.3c-0.4,0.8-0.6,4.1-0.6,4.1
		c-0.1,0.2,0,0.4,0.2,0.5c0.2,0.1,0.4,0,0.5-0.2l0.8-3.3l0.1,3.5h0l-0.3,5.8c0,0.3,0.2,0.7,0.6,0.7h0.1c0.3,0,0.6-0.3,0.6-0.6
		l0.7-5.4l0.7,5.4c0,0.3,0.3,0.6,0.6,0.6h0.1c0.3,0,0.6-0.3,0.6-0.7l-0.3-5.8h0l0.1-3.5l0.8,3.3c0.1,0.2,0.3,0.3,0.5,0.2
		c0.2-0.1,0.3-0.3,0.2-0.5C91.1,121.8,90.9,118.6,90.5,117.7z"/>
	<path class="st16" d="M70.5,115.3c0,0.4-0.3,0.7-0.8,0.7c-0.3,0-0.6-0.2-0.7-0.4c-0.3,0.2-0.7,0.4-1.1,0.4c-0.4,0-0.8-0.2-1.1-0.4
		c-0.1,0.2-0.4,0.4-0.7,0.4c-0.4,0-0.8-0.3-0.8-0.7c0-0.4,0.3-0.7,0.8-0.7c0,0,0.1,0,0.1,0c0-0.1,0-0.1,0-0.2c0-0.9,0.8-1.7,1.7-1.7
		c0.9,0,1.7,0.8,1.7,1.7c0,0.1,0,0.2,0,0.2c0,0,0.1,0,0.1,0C70.2,114.6,70.5,114.9,70.5,115.3z M71.6,121.6c0,0-0.9-3.1-1.3-3.9
		c-0.4-0.8-0.8-1.3-2.3-1.3H68H68c-1.5,0-1.9,0.5-2.3,1.3c-0.4,0.8-1.3,3.9-1.3,3.9c-0.1,0.2,0,0.4,0.2,0.5c0.2,0.1,0.4,0,0.5-0.2
		l1.4-3.1l-1.1,5.3h1.1l0.3,4.3c0,0.2,0.2,0.4,0.4,0.4c0.2,0,0.4-0.2,0.4-0.4l0.3-4.3H68h0.1l0.3,4.3c0,0.2,0.2,0.4,0.4,0.4
		c0.2,0,0.4-0.2,0.4-0.4l0.3-4.3h1.1l-1.1-5.3l1.4,3.1c0.1,0.2,0.3,0.3,0.5,0.2C71.6,122,71.7,121.8,71.6,121.6z"/>
	<path class="st16" d="M198.7,88c0,0.9-0.8,1.7-1.7,1.7c-0.9,0-1.7-0.8-1.7-1.7s0.8-1.7,1.7-1.7C198,86.3,198.7,87.1,198.7,88z
		 M199.7,91.4c-0.4-0.8-1-1.3-2.5-1.3h-0.3c-1.5,0-2.1,0.5-2.5,1.3c-0.4,0.8-0.6,4.1-0.6,4.1c-0.1,0.2,0,0.4,0.2,0.5
		c0.2,0.1,0.4,0,0.5-0.2l0.8-3.3l0.1,3.5h0l-0.3,5.8c0,0.3,0.2,0.7,0.6,0.7h0.1c0.3,0,0.6-0.3,0.6-0.6l0.7-5.4l0.7,5.4
		c0,0.3,0.3,0.6,0.6,0.6h0.1c0.3,0,0.6-0.3,0.6-0.7l-0.3-5.8h0l0.1-3.5l0.8,3.3c0.1,0.2,0.3,0.3,0.5,0.2c0.2-0.1,0.3-0.3,0.2-0.5
		C200.3,95.5,200.1,92.2,199.7,91.4z"/>
	<path class="st16" d="M208.6,83c0,1-0.8,1.8-1.8,1.8c-1,0-1.8-0.8-1.8-1.8c0-1,0.8-1.8,1.8-1.8C207.8,81.2,208.6,82,208.6,83z
		 M207,95.4l0.4,6.7c0,0.2,0.2,0.4,0.4,0.4c0.2,0,0.4-0.2,0.4-0.4l0.4-6.7h1.2l-1.2-7.5l2.5,4.9c0.1,0.2,0.3,0.3,0.6,0.2
		c0.2-0.1,0.3-0.3,0.2-0.6c0,0-1.8-4.9-2.2-5.8c-0.4-0.9-0.9-1.5-2.6-1.5h-0.3c-1.7,0-2.1,0.6-2.6,1.5c-0.4,0.9-2.2,5.8-2.2,5.8
		c-0.1,0.2,0,0.5,0.2,0.6c0.2,0.1,0.5,0,0.6-0.2l2.5-4.9l-1.2,7.5h1.2l0.4,6.7c0,0.2,0.2,0.4,0.4,0.4c0.2,0,0.4-0.2,0.4-0.4l0.4-6.7
		H207z"/>
	<path class="st16" d="M228.8,83c0,1-0.8,1.8-1.8,1.8c-1,0-1.8-0.8-1.8-1.8c0-1,0.8-1.8,1.8-1.8C228,81.2,228.8,82,228.8,83z
		 M228.8,91.8l0.1-3.9l2.2,4.9c0.1,0.2,0.3,0.3,0.6,0.2c0.2-0.1,0.3-0.3,0.2-0.6c0,0-1.6-4.9-2-5.8c-0.4-0.9-1.1-1.5-2.8-1.5h-0.3
		c-1.7,0-2.4,0.6-2.8,1.5c-0.4,0.9-2,5.8-2,5.8c-0.1,0.2,0,0.5,0.2,0.6c0.2,0.1,0.5,0,0.6-0.2l2.2-4.9l0.1,3.9l-0.3,9.9
		c0,0.4,0.3,0.7,0.7,0.8c0,0,0,0,0.1,0c0.4,0,0.7-0.3,0.7-0.7l0.8-8.1l0.8,8.1c0,0.4,0.3,0.7,0.7,0.7c0,0,0,0,0.1,0
		c0.4,0,0.7-0.4,0.7-0.8L228.8,91.8L228.8,91.8z"/>
	<path class="st16" d="M238.4,88c0,0.9-0.8,1.7-1.7,1.7c-0.9,0-1.7-0.8-1.7-1.7s0.8-1.7,1.7-1.7C237.6,86.3,238.4,87.1,238.4,88z
		 M239.4,91.4c-0.4-0.8-1-1.3-2.5-1.3h-0.3c-1.5,0-2.1,0.5-2.5,1.3c-0.4,0.8-0.6,4.1-0.6,4.1c-0.1,0.2,0,0.4,0.2,0.5
		c0.2,0.1,0.4,0,0.5-0.2l0.8-3.3L235,96h0l-0.3,5.8c0,0.3,0.2,0.7,0.6,0.7h0.1c0.3,0,0.6-0.3,0.6-0.6l0.7-5.4l0.7,5.4
		c0,0.3,0.3,0.6,0.6,0.6h0.1c0.3,0,0.6-0.3,0.6-0.7l-0.3-5.8h0l0.1-3.5l0.8,3.3c0.1,0.2,0.3,0.3,0.5,0.2c0.2-0.1,0.3-0.3,0.2-0.5
		C240,95.5,239.8,92.2,239.4,91.4z"/>
	<path class="st16" d="M219.4,89c0,0.4-0.3,0.7-0.8,0.7c-0.3,0-0.6-0.2-0.7-0.4c-0.3,0.2-0.7,0.4-1.1,0.4c-0.4,0-0.8-0.2-1.1-0.4
		c-0.1,0.2-0.4,0.4-0.7,0.4c-0.4,0-0.8-0.3-0.8-0.7c0-0.4,0.3-0.7,0.8-0.7c0,0,0.1,0,0.1,0c0-0.1,0-0.1,0-0.2c0-0.9,0.8-1.7,1.7-1.7
		c0.9,0,1.7,0.8,1.7,1.7c0,0.1,0,0.2,0,0.2c0,0,0.1,0,0.1,0C219.1,88.2,219.4,88.6,219.4,89z M220.5,95.3c0,0-0.9-3.1-1.3-3.9
		c-0.4-0.8-0.8-1.3-2.3-1.3h-0.1h-0.1c-1.5,0-1.9,0.5-2.3,1.3c-0.4,0.8-1.3,3.9-1.3,3.9c-0.1,0.2,0,0.4,0.2,0.5
		c0.2,0.1,0.4,0,0.5-0.2l1.4-3.1l-1.1,5.3h1.1l0.3,4.3c0,0.2,0.2,0.4,0.4,0.4c0.2,0,0.4-0.2,0.4-0.4l0.3-4.3h0.1h0.1l0.3,4.3
		c0,0.2,0.2,0.4,0.4,0.4c0.2,0,0.4-0.2,0.4-0.4l0.3-4.3h1.1l-1.1-5.3l1.4,3.1c0.1,0.2,0.3,0.3,0.5,0.2
		C220.5,95.7,220.6,95.5,220.5,95.3z"/>
	<path class="st16" d="M119.6,109.3c0,1-0.8,1.8-1.8,1.8c-1,0-1.8-0.8-1.8-1.8c0-1,0.8-1.8,1.8-1.8
		C118.7,107.5,119.6,108.3,119.6,109.3z M119.6,118.2l0.1-3.9l2.2,4.9c0.1,0.2,0.3,0.3,0.6,0.2c0.2-0.1,0.3-0.3,0.2-0.6
		c0,0-1.6-4.9-2-5.8c-0.4-0.9-1.1-1.5-2.8-1.5h-0.3c-1.7,0-2.4,0.6-2.8,1.5c-0.4,0.9-2,5.8-2,5.8c-0.1,0.2,0,0.5,0.2,0.6
		c0.2,0.1,0.5,0,0.6-0.2l2.2-4.9l0.1,3.9l-0.3,9.9c0,0.4,0.3,0.7,0.7,0.8c0,0,0,0,0.1,0c0.4,0,0.7-0.3,0.7-0.7l0.8-8.1l0.8,8.1
		c0,0.4,0.3,0.7,0.7,0.7c0,0,0,0,0.1,0c0.4,0,0.7-0.4,0.7-0.8L119.6,118.2L119.6,118.2z"/>
	<path class="st16" d="M129.2,114.4c0,0.9-0.8,1.7-1.7,1.7c-0.9,0-1.7-0.8-1.7-1.7c0-0.9,0.8-1.7,1.7-1.7
		C128.4,112.7,129.2,113.4,129.2,114.4z M130.2,117.7c-0.4-0.8-1-1.3-2.5-1.3h-0.3c-1.5,0-2.1,0.5-2.5,1.3c-0.4,0.8-0.6,4.1-0.6,4.1
		c-0.1,0.2,0,0.4,0.2,0.5c0.2,0.1,0.4,0,0.5-0.2l0.8-3.3l0.1,3.5h0l-0.3,5.8c0,0.3,0.2,0.7,0.6,0.7h0.1c0.3,0,0.6-0.3,0.6-0.6
		l0.7-5.4l0.7,5.4c0,0.3,0.3,0.6,0.6,0.6h0.1c0.3,0,0.6-0.3,0.6-0.7l-0.3-5.8h0l0.1-3.5l0.8,3.3c0.1,0.2,0.3,0.3,0.5,0.2
		c0.2-0.1,0.3-0.3,0.2-0.5C130.8,121.8,130.6,118.6,130.2,117.7z"/>
	<path class="st16" d="M99.4,109.3c0,1-0.8,1.8-1.8,1.8c-1,0-1.8-0.8-1.8-1.8c0-1,0.8-1.8,1.8-1.8C98.6,107.5,99.4,108.3,99.4,109.3
		z M97.8,121.7l0.4,6.7c0,0.2,0.2,0.4,0.4,0.4c0.2,0,0.4-0.2,0.4-0.4l0.4-6.7h1.2l-1.2-7.5l2.5,4.9c0.1,0.2,0.3,0.3,0.6,0.2
		c0.2-0.1,0.3-0.3,0.2-0.6c0,0-1.8-4.9-2.2-5.8c-0.4-0.9-0.9-1.5-2.6-1.5h-0.3c-1.7,0-2.1,0.6-2.6,1.5c-0.4,0.9-2.2,5.8-2.2,5.8
		c-0.1,0.2,0,0.5,0.2,0.6c0.2,0.1,0.5,0,0.6-0.2l2.5-4.9l-1.2,7.5h1.2l0.4,6.7c0,0.2,0.2,0.4,0.4,0.4c0.2,0,0.4-0.2,0.4-0.4l0.4-6.7
		H97.8z"/>
	<path class="st16" d="M139,109.3c0,1-0.8,1.8-1.8,1.8c-1,0-1.8-0.8-1.8-1.8c0-1,0.8-1.8,1.8-1.8C138.2,107.5,139,108.3,139,109.3z
		 M137.4,121.7l0.4,6.7c0,0.2,0.2,0.4,0.4,0.4c0.2,0,0.4-0.2,0.4-0.4l0.4-6.7h1.2l-1.2-7.5l2.5,4.9c0.1,0.2,0.3,0.3,0.6,0.2
		c0.2-0.1,0.3-0.3,0.2-0.6c0,0-1.8-4.9-2.2-5.8c-0.4-0.9-0.9-1.5-2.6-1.5h-0.3c-1.7,0-2.1,0.6-2.6,1.5c-0.4,0.9-2.2,5.8-2.2,5.8
		c-0.1,0.2,0,0.5,0.2,0.6c0.2,0.1,0.5,0,0.6-0.2l2.5-4.9l-1.2,7.5h1.2l0.4,6.7c0,0.2,0.2,0.4,0.4,0.4c0.2,0,0.4-0.2,0.4-0.4l0.4-6.7
		H137.4z"/>
	<path class="st16" d="M110.2,115.3c0,0.4-0.3,0.7-0.8,0.7c-0.3,0-0.6-0.2-0.7-0.4c-0.3,0.2-0.7,0.4-1.1,0.4c-0.4,0-0.8-0.2-1.1-0.4
		c-0.1,0.2-0.4,0.4-0.7,0.4c-0.4,0-0.8-0.3-0.8-0.7c0-0.4,0.3-0.7,0.8-0.7c0,0,0.1,0,0.1,0c0-0.1,0-0.1,0-0.2c0-0.9,0.8-1.7,1.7-1.7
		c0.9,0,1.7,0.8,1.7,1.7c0,0.1,0,0.2,0,0.2c0,0,0.1,0,0.1,0C109.8,114.6,110.2,114.9,110.2,115.3z M111.3,121.6c0,0-0.9-3.1-1.3-3.9
		c-0.4-0.8-0.8-1.3-2.3-1.3h-0.1h-0.1c-1.5,0-1.9,0.5-2.3,1.3c-0.4,0.8-1.3,3.9-1.3,3.9c-0.1,0.2,0,0.4,0.2,0.5
		c0.2,0.1,0.4,0,0.5-0.2l1.4-3.1l-1.1,5.3h1.1l0.3,4.3c0,0.2,0.2,0.4,0.4,0.4c0.2,0,0.4-0.2,0.4-0.4l0.3-4.3h0.1h0.1l0.3,4.3
		c0,0.2,0.2,0.4,0.4,0.4c0.2,0,0.4-0.2,0.4-0.4l0.3-4.3h1.1l-1.1-5.3l1.4,3.1c0.1,0.2,0.3,0.3,0.5,0.2
		C111.3,122,111.4,121.8,111.3,121.6z"/>
</g>
<g>
	<path class="st16" d="M420.8,83c0,1-0.8,1.8-1.8,1.8c-1,0-1.8-0.8-1.8-1.8c0-1,0.8-1.8,1.8-1.8C420,81.2,420.8,82,420.8,83z
		 M419.1,95.4l0.4,6.7c0,0.2,0.2,0.4,0.4,0.4c0.2,0,0.4-0.2,0.4-0.4l0.4-6.7h1.2l-1.2-7.5l2.5,4.9c0.1,0.2,0.3,0.3,0.6,0.2
		c0.2-0.1,0.3-0.3,0.2-0.6c0,0-1.8-4.9-2.2-5.8c-0.4-0.9-0.9-1.5-2.6-1.5h-0.3c-1.7,0-2.1,0.6-2.6,1.5c-0.4,0.9-2.2,5.8-2.2,5.8
		c-0.1,0.2,0,0.5,0.2,0.6c0.2,0.1,0.5,0,0.6-0.2l2.5-4.9l-1.2,7.5h1.2l0.4,6.7c0,0.2,0.2,0.4,0.4,0.4c0.2,0,0.4-0.2,0.4-0.4l0.4-6.7
		H419.1z"/>
	<path class="st16" d="M440.9,83c0,1-0.8,1.8-1.8,1.8c-1,0-1.8-0.8-1.8-1.8c0-1,0.8-1.8,1.8-1.8C440.1,81.2,440.9,82,440.9,83z
		 M441,91.8l0.1-3.9l2.2,4.9c0.1,0.2,0.3,0.3,0.6,0.2c0.2-0.1,0.3-0.3,0.2-0.6c0,0-1.6-4.9-2-5.8c-0.4-0.9-1.1-1.5-2.8-1.5H439
		c-1.7,0-2.4,0.6-2.8,1.5c-0.4,0.9-2,5.8-2,5.8c-0.1,0.2,0,0.5,0.2,0.6c0.2,0.1,0.5,0,0.6-0.2l2.2-4.9l0.1,3.9l-0.3,9.9
		c0,0.4,0.3,0.7,0.7,0.8c0,0,0,0,0.1,0c0.4,0,0.7-0.3,0.7-0.7l0.8-8.1l0.8,8.1c0,0.4,0.3,0.7,0.7,0.7c0,0,0,0,0.1,0
		c0.4,0,0.7-0.4,0.7-0.8L441,91.8L441,91.8z"/>
	<path class="st16" d="M450.6,88c0,0.9-0.8,1.7-1.7,1.7c-0.9,0-1.7-0.8-1.7-1.7s0.8-1.7,1.7-1.7C449.8,86.3,450.6,87.1,450.6,88z
		 M451.5,91.4c-0.4-0.8-1-1.3-2.5-1.3h-0.3c-1.5,0-2.1,0.5-2.5,1.3c-0.4,0.8-0.6,4.1-0.6,4.1c-0.1,0.2,0,0.4,0.2,0.5
		c0.2,0.1,0.4,0,0.5-0.2l0.8-3.3l0.1,3.5h0l-0.3,5.8c0,0.3,0.2,0.7,0.6,0.7h0.1c0.3,0,0.6-0.3,0.6-0.6l0.7-5.4l0.7,5.4
		c0,0.3,0.3,0.6,0.6,0.6h0.1c0.3,0,0.6-0.3,0.6-0.7l-0.3-5.8h0l0.1-3.5l0.8,3.3c0.1,0.2,0.3,0.3,0.5,0.2c0.2-0.1,0.3-0.3,0.2-0.5
		C452.1,95.5,451.9,92.2,451.5,91.4z"/>
	<path class="st16" d="M431.6,89c0,0.4-0.3,0.7-0.8,0.7c-0.3,0-0.6-0.2-0.7-0.4c-0.3,0.2-0.7,0.4-1.1,0.4c-0.4,0-0.8-0.2-1.1-0.4
		c-0.1,0.2-0.4,0.4-0.7,0.4c-0.4,0-0.8-0.3-0.8-0.7c0-0.4,0.3-0.7,0.8-0.7c0,0,0.1,0,0.1,0c0-0.1,0-0.1,0-0.2c0-0.9,0.8-1.7,1.7-1.7
		c0.9,0,1.7,0.8,1.7,1.7c0,0.1,0,0.2,0,0.2c0,0,0.1,0,0.1,0C431.2,88.2,431.6,88.6,431.6,89z M432.7,95.3c0,0-0.9-3.1-1.3-3.9
		c-0.4-0.8-0.8-1.3-2.3-1.3H429H429c-1.5,0-1.9,0.5-2.3,1.3c-0.4,0.8-1.3,3.9-1.3,3.9c-0.1,0.2,0,0.4,0.2,0.5c0.2,0.1,0.4,0,0.5-0.2
		l1.4-3.1l-1.1,5.3h1.1l0.3,4.3c0,0.2,0.2,0.4,0.4,0.4c0.2,0,0.4-0.2,0.4-0.4l0.3-4.3h0.1h0.1l0.3,4.3c0,0.2,0.2,0.4,0.4,0.4
		c0.2,0,0.4-0.2,0.4-0.4l0.3-4.3h1.1l-1.1-5.3l1.4,3.1c0.1,0.2,0.3,0.3,0.5,0.2C432.6,95.7,432.7,95.5,432.7,95.3z"/>
	<path class="st16" d="M460.4,83c0,1-0.8,1.8-1.8,1.8c-1,0-1.8-0.8-1.8-1.8c0-1,0.8-1.8,1.8-1.8C459.6,81.2,460.4,82,460.4,83z
		 M458.8,95.4l0.4,6.7c0,0.2,0.2,0.4,0.4,0.4c0.2,0,0.4-0.2,0.4-0.4l0.4-6.7h1.2l-1.2-7.5l2.5,4.9c0.1,0.2,0.3,0.3,0.6,0.2
		c0.2-0.1,0.3-0.3,0.2-0.6c0,0-1.8-4.9-2.2-5.8c-0.4-0.9-0.9-1.5-2.6-1.5h-0.3c-1.7,0-2.1,0.6-2.6,1.5c-0.4,0.9-2.2,5.8-2.2,5.8
		c-0.1,0.2,0,0.5,0.2,0.6c0.2,0.1,0.5,0,0.6-0.2l2.5-4.9l-1.2,7.5h1.2l0.4,6.7c0,0.2,0.2,0.4,0.4,0.4c0.2,0,0.4-0.2,0.4-0.4l0.4-6.7
		H458.8z"/>
	<path class="st16" d="M480.6,83c0,1-0.8,1.8-1.8,1.8c-1,0-1.8-0.8-1.8-1.8c0-1,0.8-1.8,1.8-1.8C479.8,81.2,480.6,82,480.6,83z
		 M480.7,91.8l0.1-3.9l2.2,4.9c0.1,0.2,0.3,0.3,0.6,0.2c0.2-0.1,0.3-0.3,0.2-0.6c0,0-1.6-4.9-2-5.8c-0.4-0.9-1.1-1.5-2.8-1.5h-0.3
		c-1.7,0-2.4,0.6-2.8,1.5c-0.4,0.9-2,5.8-2,5.8c-0.1,0.2,0,0.5,0.2,0.6c0.2,0.1,0.5,0,0.6-0.2l2.2-4.9l0.1,3.9l-0.3,9.9
		c0,0.4,0.3,0.7,0.7,0.8c0,0,0,0,0.1,0c0.4,0,0.7-0.3,0.7-0.7l0.8-8.1l0.8,8.1c0,0.4,0.3,0.7,0.7,0.7c0,0,0,0,0.1,0
		c0.4,0,0.7-0.4,0.7-0.8L480.7,91.8L480.7,91.8z"/>
	<path class="st16" d="M490.2,88c0,0.9-0.8,1.7-1.7,1.7c-0.9,0-1.7-0.8-1.7-1.7s0.8-1.7,1.7-1.7C489.5,86.3,490.2,87.1,490.2,88z
		 M491.2,91.4c-0.4-0.8-1-1.3-2.5-1.3h-0.3c-1.5,0-2.1,0.5-2.5,1.3c-0.4,0.8-0.6,4.1-0.6,4.1c-0.1,0.2,0,0.4,0.2,0.5
		c0.2,0.1,0.4,0,0.5-0.2l0.8-3.3l0.1,3.5h0l-0.3,5.8c0,0.3,0.2,0.7,0.6,0.7h0.1c0.3,0,0.6-0.3,0.6-0.6l0.7-5.4l0.7,5.4
		c0,0.3,0.3,0.6,0.6,0.6h0.1c0.3,0,0.6-0.3,0.6-0.7l-0.3-5.8h0l0.1-3.5l0.8,3.3c0.1,0.2,0.3,0.3,0.5,0.2c0.2-0.1,0.3-0.3,0.2-0.5
		C491.8,95.5,491.6,92.2,491.2,91.4z"/>
	<path class="st16" d="M471.2,89c0,0.4-0.3,0.7-0.8,0.7c-0.3,0-0.6-0.2-0.7-0.4c-0.3,0.2-0.7,0.4-1.1,0.4c-0.4,0-0.8-0.2-1.1-0.4
		c-0.1,0.2-0.4,0.4-0.7,0.4c-0.4,0-0.8-0.3-0.8-0.7c0-0.4,0.3-0.7,0.8-0.7c0,0,0.1,0,0.1,0c0-0.1,0-0.1,0-0.2c0-0.9,0.8-1.7,1.7-1.7
		c0.9,0,1.7,0.8,1.7,1.7c0,0.1,0,0.2,0,0.2c0,0,0.1,0,0.1,0C470.9,88.2,471.2,88.6,471.2,89z M472.3,95.3c0,0-0.9-3.1-1.3-3.9
		c-0.4-0.8-0.8-1.3-2.3-1.3h-0.1h-0.1c-1.5,0-1.9,0.5-2.3,1.3c-0.4,0.8-1.3,3.9-1.3,3.9c-0.1,0.2,0,0.4,0.2,0.5
		c0.2,0.1,0.4,0,0.5-0.2l1.4-3.1l-1.1,5.3h1.1l0.3,4.3c0,0.2,0.2,0.4,0.4,0.4c0.2,0,0.4-0.2,0.4-0.4l0.3-4.3h0.1h0.1l0.3,4.3
		c0,0.2,0.2,0.4,0.4,0.4c0.2,0,0.4-0.2,0.4-0.4l0.3-4.3h1.1l-1.1-5.3l1.4,3.1c0.1,0.2,0.3,0.3,0.5,0.2
		C472.3,95.7,472.4,95.5,472.3,95.3z"/>
	<path class="st16" d="M500.1,83c0,1-0.8,1.8-1.8,1.8c-1,0-1.8-0.8-1.8-1.8c0-1,0.8-1.8,1.8-1.8C499.3,81.2,500.1,82,500.1,83z
		 M498.5,95.4l0.4,6.7c0,0.2,0.2,0.4,0.4,0.4c0.2,0,0.4-0.2,0.4-0.4l0.4-6.7h1.2l-1.2-7.5l2.5,4.9c0.1,0.2,0.3,0.3,0.6,0.2
		c0.2-0.1,0.3-0.3,0.2-0.6c0,0-1.8-4.9-2.2-5.8c-0.4-0.9-0.9-1.5-2.6-1.5h-0.3c-1.7,0-2.1,0.6-2.6,1.5c-0.4,0.9-2.2,5.8-2.2,5.8
		c-0.1,0.2,0,0.5,0.2,0.6c0.2,0.1,0.5,0,0.6-0.2l2.5-4.9l-1.2,7.5h1.2l0.4,6.7c0,0.2,0.2,0.4,0.4,0.4c0.2,0,0.4-0.2,0.4-0.4l0.4-6.7
		H498.5z"/>
	<path class="st16" d="M510.9,89c0,0.4-0.3,0.7-0.8,0.7c-0.3,0-0.6-0.2-0.7-0.4c-0.3,0.2-0.7,0.4-1.1,0.4c-0.4,0-0.8-0.2-1.1-0.4
		c-0.1,0.2-0.4,0.4-0.7,0.4c-0.4,0-0.8-0.3-0.8-0.7c0-0.4,0.3-0.7,0.8-0.7c0,0,0.1,0,0.1,0c0-0.1,0-0.1,0-0.2c0-0.9,0.8-1.7,1.7-1.7
		c0.9,0,1.7,0.8,1.7,1.7c0,0.1,0,0.2,0,0.2c0,0,0.1,0,0.1,0C510.5,88.2,510.9,88.6,510.9,89z M512,95.3c0,0-0.9-3.1-1.3-3.9
		c-0.4-0.8-0.8-1.3-2.3-1.3h-0.1h-0.1c-1.5,0-1.9,0.5-2.3,1.3c-0.4,0.8-1.3,3.9-1.3,3.9c-0.1,0.2,0,0.4,0.2,0.5
		c0.2,0.1,0.4,0,0.5-0.2l1.4-3.1l-1.1,5.3h1.1l0.3,4.3c0,0.2,0.2,0.4,0.4,0.4c0.2,0,0.4-0.2,0.4-0.4l0.3-4.3h0.1h0.1l0.3,4.3
		c0,0.2,0.2,0.4,0.4,0.4c0.2,0,0.4-0.2,0.4-0.4l0.3-4.3h1.1l-1.1-5.3l1.4,3.1c0.1,0.2,0.3,0.3,0.5,0.2C512,95.7,512,95.5,512,95.3z"
		/>
	<path class="st16" d="M520.2,83c0,1-0.8,1.8-1.8,1.8c-1,0-1.8-0.8-1.8-1.8c0-1,0.8-1.8,1.8-1.8C519.4,81.2,520.2,82,520.2,83z
		 M520.3,91.8l0.1-3.9l2.2,4.9c0.1,0.2,0.3,0.3,0.6,0.2c0.2-0.1,0.3-0.3,0.2-0.6c0,0-1.6-4.9-2-5.8c-0.4-0.9-1.1-1.5-2.8-1.5h-0.3
		c-1.7,0-2.4,0.6-2.8,1.5c-0.4,0.9-2,5.8-2,5.8c-0.1,0.2,0,0.5,0.2,0.6c0.2,0.1,0.5,0,0.6-0.2l2.2-4.9l0.1,3.9l-0.3,9.9
		c0,0.4,0.3,0.7,0.7,0.8c0,0,0,0,0.1,0c0.4,0,0.7-0.3,0.7-0.7l0.8-8.1l0.8,8.1c0,0.4,0.3,0.7,0.7,0.7c0,0,0,0,0.1,0
		c0.4,0,0.7-0.4,0.7-0.8L520.3,91.8L520.3,91.8z"/>
	<path class="st16" d="M529.9,88c0,0.9-0.8,1.7-1.7,1.7s-1.7-0.8-1.7-1.7s0.8-1.7,1.7-1.7S529.9,87.1,529.9,88z M530.8,91.4
		c-0.4-0.8-1-1.3-2.5-1.3H528c-1.5,0-2.1,0.5-2.5,1.3c-0.4,0.8-0.6,4.1-0.6,4.1c-0.1,0.2,0,0.4,0.2,0.5c0.2,0.1,0.4,0,0.5-0.2
		l0.8-3.3l0.1,3.5h0l-0.3,5.8c0,0.3,0.2,0.7,0.6,0.7h0.1c0.3,0,0.6-0.3,0.6-0.6l0.7-5.4l0.7,5.4c0,0.3,0.3,0.6,0.6,0.6h0.1
		c0.3,0,0.6-0.3,0.6-0.7l-0.3-5.8h0l0.1-3.5l0.8,3.3c0.1,0.2,0.3,0.3,0.5,0.2c0.2-0.1,0.3-0.3,0.2-0.5
		C531.4,95.5,531.2,92.2,530.8,91.4z"/>
	<path class="st16" d="M539.7,83c0,1-0.8,1.8-1.8,1.8c-1,0-1.8-0.8-1.8-1.8c0-1,0.8-1.8,1.8-1.8C538.9,81.2,539.7,82,539.7,83z
		 M538.1,95.4l0.4,6.7c0,0.2,0.2,0.4,0.4,0.4c0.2,0,0.4-0.2,0.4-0.4l0.4-6.7h1.2l-1.2-7.5l2.5,4.9c0.1,0.2,0.3,0.3,0.6,0.2
		c0.2-0.1,0.3-0.3,0.2-0.6c0,0-1.8-4.9-2.2-5.8c-0.4-0.9-0.9-1.5-2.6-1.5h-0.3c-1.7,0-2.1,0.6-2.6,1.5c-0.4,0.9-2.2,5.8-2.2,5.8
		c-0.1,0.2,0,0.5,0.2,0.6c0.2,0.1,0.5,0,0.6-0.2l2.5-4.9l-1.2,7.5h1.2l0.4,6.7c0,0.2,0.2,0.4,0.4,0.4c0.2,0,0.4-0.2,0.4-0.4l0.4-6.7
		H538.1z"/>
	<path class="st16" d="M550.5,89c0,0.4-0.3,0.7-0.8,0.7c-0.3,0-0.6-0.2-0.7-0.4c-0.3,0.2-0.7,0.4-1.1,0.4c-0.4,0-0.8-0.2-1.1-0.4
		c-0.1,0.2-0.4,0.4-0.7,0.4c-0.4,0-0.8-0.3-0.8-0.7c0-0.4,0.3-0.7,0.8-0.7c0,0,0.1,0,0.1,0c0-0.1,0-0.1,0-0.2c0-0.9,0.8-1.7,1.7-1.7
		c0.9,0,1.7,0.8,1.7,1.7c0,0.1,0,0.2,0,0.2c0,0,0.1,0,0.1,0C550.2,88.2,550.5,88.6,550.5,89z M551.6,95.3c0,0-0.9-3.1-1.3-3.9
		c-0.4-0.8-0.8-1.3-2.3-1.3H548h-0.1c-1.5,0-1.9,0.5-2.3,1.3c-0.4,0.8-1.3,3.9-1.3,3.9c-0.1,0.2,0,0.4,0.2,0.5
		c0.2,0.1,0.4,0,0.5-0.2l1.4-3.1l-1.1,5.3h1.1l0.3,4.3c0,0.2,0.2,0.4,0.4,0.4c0.2,0,0.4-0.2,0.4-0.4l0.3-4.3h0.1h0.1l0.3,4.3
		c0,0.2,0.2,0.4,0.4,0.4c0.2,0,0.4-0.2,0.4-0.4l0.3-4.3h1.1l-1.1-5.3l1.4,3.1c0.1,0.2,0.3,0.3,0.5,0.2
		C551.6,95.7,551.7,95.5,551.6,95.3z"/>
	<path class="st16" d="M420.6,114.4c0,0.9-0.8,1.7-1.7,1.7c-0.9,0-1.7-0.8-1.7-1.7c0-0.9,0.8-1.7,1.7-1.7
		C419.9,112.7,420.6,113.4,420.6,114.4z M421.6,117.7c-0.4-0.8-1-1.3-2.5-1.3h-0.3c-1.5,0-2.1,0.5-2.5,1.3c-0.4,0.8-0.6,4.1-0.6,4.1
		c-0.1,0.2,0,0.4,0.2,0.5c0.2,0.1,0.4,0,0.5-0.2l0.8-3.3l0.1,3.5h0l-0.3,5.8c0,0.3,0.2,0.7,0.6,0.7h0.1c0.3,0,0.6-0.3,0.6-0.6
		l0.7-5.4l0.7,5.4c0,0.3,0.3,0.6,0.6,0.6h0.1c0.3,0,0.6-0.3,0.6-0.7l-0.3-5.8h0l0.1-3.5l0.8,3.3c0.1,0.2,0.3,0.3,0.5,0.2
		c0.2-0.1,0.3-0.3,0.2-0.5C422.2,121.8,422,118.6,421.6,117.7z"/>
	<path class="st16" d="M430.5,109.3c0,1-0.8,1.8-1.8,1.8c-1,0-1.8-0.8-1.8-1.8c0-1,0.8-1.8,1.8-1.8
		C429.7,107.5,430.5,108.3,430.5,109.3z M428.9,121.7l0.4,6.7c0,0.2,0.2,0.4,0.4,0.4c0.2,0,0.4-0.2,0.4-0.4l0.4-6.7h1.2l-1.2-7.5
		l2.5,4.9c0.1,0.2,0.3,0.3,0.6,0.2c0.2-0.1,0.3-0.3,0.2-0.6c0,0-1.8-4.9-2.2-5.8c-0.4-0.9-0.9-1.5-2.6-1.5h-0.3
		c-1.7,0-2.1,0.6-2.6,1.5c-0.4,0.9-2.2,5.8-2.2,5.8c-0.1,0.2,0,0.5,0.2,0.6c0.2,0.1,0.5,0,0.6-0.2l2.5-4.9l-1.2,7.5h1.2l0.4,6.7
		c0,0.2,0.2,0.4,0.4,0.4c0.2,0,0.4-0.2,0.4-0.4l0.4-6.7H428.9z"/>
	<path class="st16" d="M450.7,109.3c0,1-0.8,1.8-1.8,1.8c-1,0-1.8-0.8-1.8-1.8c0-1,0.8-1.8,1.8-1.8
		C449.9,107.5,450.7,108.3,450.7,109.3z M450.7,118.2l0.1-3.9l2.2,4.9c0.1,0.2,0.3,0.3,0.6,0.2c0.2-0.1,0.3-0.3,0.2-0.6
		c0,0-1.6-4.9-2-5.8c-0.4-0.9-1.1-1.5-2.8-1.5h-0.3c-1.7,0-2.4,0.6-2.8,1.5c-0.4,0.9-2,5.8-2,5.8c-0.1,0.2,0,0.5,0.2,0.6
		c0.2,0.1,0.5,0,0.6-0.2l2.2-4.9l0.1,3.9l-0.3,9.9c0,0.4,0.3,0.7,0.7,0.8c0,0,0,0,0.1,0c0.4,0,0.7-0.3,0.7-0.7l0.8-8.1l0.8,8.1
		c0,0.4,0.3,0.7,0.7,0.7c0,0,0,0,0.1,0c0.4,0,0.7-0.4,0.7-0.8L450.7,118.2L450.7,118.2z"/>
	<path class="st16" d="M460.3,114.4c0,0.9-0.8,1.7-1.7,1.7c-0.9,0-1.7-0.8-1.7-1.7c0-0.9,0.8-1.7,1.7-1.7
		C459.5,112.7,460.3,113.4,460.3,114.4z M461.3,117.7c-0.4-0.8-1-1.3-2.5-1.3h-0.3c-1.5,0-2.1,0.5-2.5,1.3c-0.4,0.8-0.6,4.1-0.6,4.1
		c-0.1,0.2,0,0.4,0.2,0.5c0.2,0.1,0.4,0,0.5-0.2l0.8-3.3l0.1,3.5h0l-0.3,5.8c0,0.3,0.2,0.7,0.6,0.7h0.1c0.3,0,0.6-0.3,0.6-0.6
		l0.7-5.4l0.7,5.4c0,0.3,0.3,0.6,0.6,0.6h0.1c0.3,0,0.6-0.3,0.6-0.7l-0.3-5.8h0l0.1-3.5l0.8,3.3c0.1,0.2,0.3,0.3,0.5,0.2
		c0.2-0.1,0.3-0.3,0.2-0.5C461.9,121.8,461.7,118.6,461.3,117.7z"/>
	<path class="st16" d="M441.3,115.3c0,0.4-0.3,0.7-0.8,0.7c-0.3,0-0.6-0.2-0.7-0.4c-0.3,0.2-0.7,0.4-1.1,0.4c-0.4,0-0.8-0.2-1.1-0.4
		c-0.1,0.2-0.4,0.4-0.7,0.4c-0.4,0-0.8-0.3-0.8-0.7c0-0.4,0.3-0.7,0.8-0.7c0,0,0.1,0,0.1,0c0-0.1,0-0.1,0-0.2c0-0.9,0.8-1.7,1.7-1.7
		c0.9,0,1.7,0.8,1.7,1.7c0,0.1,0,0.2,0,0.2c0,0,0.1,0,0.1,0C441,114.6,441.3,114.9,441.3,115.3z M442.4,121.6c0,0-0.9-3.1-1.3-3.9
		c-0.4-0.8-0.8-1.3-2.3-1.3h-0.1h-0.1c-1.5,0-1.9,0.5-2.3,1.3c-0.4,0.8-1.3,3.9-1.3,3.9c-0.1,0.2,0,0.4,0.2,0.5
		c0.2,0.1,0.4,0,0.5-0.2l1.4-3.1l-1.1,5.3h1.1l0.3,4.3c0,0.2,0.2,0.4,0.4,0.4c0.2,0,0.4-0.2,0.4-0.4l0.3-4.3h0.1h0.1l0.3,4.3
		c0,0.2,0.2,0.4,0.4,0.4c0.2,0,0.4-0.2,0.4-0.4l0.3-4.3h1.1l-1.1-5.3l1.4,3.1c0.1,0.2,0.3,0.3,0.5,0.2
		C442.4,122,442.5,121.8,442.4,121.6z"/>
	<path class="st16" d="M490.3,109.3c0,1-0.8,1.8-1.8,1.8c-1,0-1.8-0.8-1.8-1.8c0-1,0.8-1.8,1.8-1.8
		C489.5,107.5,490.3,108.3,490.3,109.3z M490.4,118.2l0.1-3.9l2.2,4.9c0.1,0.2,0.3,0.3,0.6,0.2c0.2-0.1,0.3-0.3,0.2-0.6
		c0,0-1.6-4.9-2-5.8c-0.4-0.9-1.1-1.5-2.8-1.5h-0.3c-1.7,0-2.4,0.6-2.8,1.5c-0.4,0.9-2,5.8-2,5.8c-0.1,0.2,0,0.5,0.2,0.6
		c0.2,0.1,0.5,0,0.6-0.2l2.2-4.9l0.1,3.9l-0.3,9.9c0,0.4,0.3,0.7,0.7,0.8c0,0,0,0,0.1,0c0.4,0,0.7-0.3,0.7-0.7l0.8-8.1l0.8,8.1
		c0,0.4,0.3,0.7,0.7,0.7c0,0,0,0,0.1,0c0.4,0,0.7-0.4,0.7-0.8L490.4,118.2L490.4,118.2z"/>
	<path class="st16" d="M500,114.4c0,0.9-0.8,1.7-1.7,1.7c-0.9,0-1.7-0.8-1.7-1.7c0-0.9,0.8-1.7,1.7-1.7
		C499.2,112.7,500,113.4,500,114.4z M500.9,117.7c-0.4-0.8-1-1.3-2.5-1.3h-0.3c-1.5,0-2.1,0.5-2.5,1.3c-0.4,0.8-0.6,4.1-0.6,4.1
		c-0.1,0.2,0,0.4,0.2,0.5c0.2,0.1,0.4,0,0.5-0.2l0.8-3.3l0.1,3.5h0l-0.3,5.8c0,0.3,0.2,0.7,0.6,0.7h0.1c0.3,0,0.6-0.3,0.6-0.6
		l0.7-5.4l0.7,5.4c0,0.3,0.3,0.6,0.6,0.6h0.1c0.3,0,0.6-0.3,0.6-0.7l-0.3-5.8h0l0.1-3.5l0.8,3.3c0.1,0.2,0.3,0.3,0.5,0.2
		c0.2-0.1,0.3-0.3,0.2-0.5C501.5,121.8,501.3,118.6,500.9,117.7z"/>
	<path class="st16" d="M470.2,109.3c0,1-0.8,1.8-1.8,1.8c-1,0-1.8-0.8-1.8-1.8c0-1,0.8-1.8,1.8-1.8
		C469.4,107.5,470.2,108.3,470.2,109.3z M468.5,121.7l0.4,6.7c0,0.2,0.2,0.4,0.4,0.4c0.2,0,0.4-0.2,0.4-0.4l0.4-6.7h1.2l-1.2-7.5
		l2.5,4.9c0.1,0.2,0.3,0.3,0.6,0.2c0.2-0.1,0.3-0.3,0.2-0.6c0,0-1.8-4.9-2.2-5.8c-0.4-0.9-0.9-1.5-2.6-1.5h-0.3
		c-1.7,0-2.1,0.6-2.6,1.5c-0.4,0.9-2.2,5.8-2.2,5.8c-0.1,0.2,0,0.5,0.2,0.6c0.2,0.1,0.5,0,0.6-0.2l2.5-4.9l-1.2,7.5h1.2l0.4,6.7
		c0,0.2,0.2,0.4,0.4,0.4c0.2,0,0.4-0.2,0.4-0.4l0.4-6.7H468.5z"/>
	<path class="st16" d="M509.8,109.3c0,1-0.8,1.8-1.8,1.8c-1,0-1.8-0.8-1.8-1.8c0-1,0.8-1.8,1.8-1.8
		C509,107.5,509.8,108.3,509.8,109.3z M508.2,121.7l0.4,6.7c0,0.2,0.2,0.4,0.4,0.4c0.2,0,0.4-0.2,0.4-0.4l0.4-6.7h1.2l-1.2-7.5
		l2.5,4.9c0.1,0.2,0.3,0.3,0.6,0.2c0.2-0.1,0.3-0.3,0.2-0.6c0,0-1.8-4.9-2.2-5.8c-0.4-0.9-0.9-1.5-2.6-1.5h-0.3
		c-1.7,0-2.1,0.6-2.6,1.5c-0.4,0.9-2.2,5.8-2.2,5.8c-0.1,0.2,0,0.5,0.2,0.6c0.2,0.1,0.5,0,0.6-0.2l2.5-4.9l-1.2,7.5h1.2l0.4,6.7
		c0,0.2,0.2,0.4,0.4,0.4c0.2,0,0.4-0.2,0.4-0.4l0.4-6.7H508.2z"/>
	<path class="st16" d="M481,115.3c0,0.4-0.3,0.7-0.8,0.7c-0.3,0-0.6-0.2-0.7-0.4c-0.3,0.2-0.7,0.4-1.1,0.4c-0.4,0-0.8-0.2-1.1-0.4
		c-0.1,0.2-0.4,0.4-0.7,0.4c-0.4,0-0.8-0.3-0.8-0.7c0-0.4,0.3-0.7,0.8-0.7c0,0,0.1,0,0.1,0c0-0.1,0-0.1,0-0.2c0-0.9,0.8-1.7,1.7-1.7
		c0.9,0,1.7,0.8,1.7,1.7c0,0.1,0,0.2,0,0.2c0,0,0.1,0,0.1,0C480.6,114.6,481,114.9,481,115.3z M482,121.6c0,0-0.9-3.1-1.3-3.9
		c-0.4-0.8-0.8-1.3-2.3-1.3h-0.1h-0.1c-1.5,0-1.9,0.5-2.3,1.3c-0.4,0.8-1.3,3.9-1.3,3.9c-0.1,0.2,0,0.4,0.2,0.5
		c0.2,0.1,0.4,0,0.5-0.2l1.4-3.1l-1.1,5.3h1.1l0.3,4.3c0,0.2,0.2,0.4,0.4,0.4c0.2,0,0.4-0.2,0.4-0.4l0.3-4.3h0.1h0.1l0.3,4.3
		c0,0.2,0.2,0.4,0.4,0.4c0.2,0,0.4-0.2,0.4-0.4l0.3-4.3h1.1l-1.1-5.3l1.4,3.1c0.1,0.2,0.3,0.3,0.5,0.2
		C482,122,482.1,121.8,482,121.6z"/>
</g>
<text transform="matrix(1 0 0 1 43.1602 28.6786)"><tspan x="0" y="0" class="st57 st58 st59">PEOPLE DISPLACED INTERNALLY </tspan><tspan x="0" y="12" class="st57 st58 st59">BY CONFLICT AND VIOLENCE</tspan><tspan x="0" y="42" class="st38 st60 st61">40.8 MILLION</tspan></text>
<text transform="matrix(1 0 0 1 413.9338 40.6786)"><tspan x="0" y="0" class="st62 st58 st59">REFUGEES</tspan><tspan x="0" y="30" class="st38 st60 st61">24 MILLION</tspan></text>
<line class="st63" x1="386.3" y1="0.7" x2="386.3" y2="229.1"/>
<polygon class="st15" points="386.3,239 382.1,239 384.2,235.3 386.3,231.7 388.4,235.3 390.6,239 "/>
<g>
	<polygon class="st15" points="388.1,157.3 388.1,153.1 391.8,155.2 395.5,157.3 391.8,159.5 388.1,161.6 	"/>
	<polygon class="st15" points="384.5,157.3 384.5,153.1 380.8,155.2 377.1,157.3 380.8,159.5 384.5,161.6 	"/>
</g>
<text transform="matrix(1 0 0 1 343.3448 250.5798)" class="st15 st64 st65">International border</text>
<g>
	<rect x="399.3" y="151.1" class="st66" width="158.1" height="9.3"/>
	<text transform="matrix(1 0 0 1 399.2959 160.0815)" class="st15 st64 st59">International refugee law</text>
</g>
<g>
	<rect x="103.5" y="151.1" class="st66" width="269.1" height="9.3"/>
	<text transform="matrix(1 0 0 1 190.6874 160.0815)" class="st15 st64 st59">national Government responsibility</text>
</g>
</svg>
