<?xml version="1.0" encoding="utf-8"?>
<!-- Generator: Adobe Illustrator 20.0.0, SVG Export Plug-In . SVG Version: 6.00 Build 0)  -->
<svg version="1.1" id="Layer_1" xmlns="http://www.w3.org/2000/svg" xmlns:xlink="http://www.w3.org/1999/xlink" x="0px" y="0px"
	 viewBox="0 0 790.9 631" style="enable-background:new 0 0 790.9 631;" xml:space="preserve">
<style type="text/css">
	.st0{clip-path:url(#SVGID_2_);}
	.st1{filter:url(#Adobe_OpacityMaskFilter);}
	.st2{clip-path:url(#SVGID_6_);fill:url(#SVGID_8_);}
	.st3{clip-path:url(#SVGID_6_);mask:url(#SVGID_7_);}
	.st4{clip-path:url(#SVGID_10_);fill:#231F20;}
	.st5{fill:#FFFFFF;}
	.st6{clip-path:url(#SVGID_12_);fill:#FFFFFF;}
	.st7{clip-path:url(#SVGID_14_);fill:#FFFFFF;}
	.st8{filter:url(#Adobe_OpacityMaskFilter_1_);}
	.st9{clip-path:url(#SVGID_14_);fill:url(#SVGID_16_);}
	.st10{clip-path:url(#SVGID_14_);mask:url(#SVGID_15_);}
	.st11{clip-path:url(#SVGID_18_);fill:none;stroke:#FFFFFF;stroke-width:0.25;stroke-miterlimit:10;}
</style>
<g>
	<g>
		<defs>
			<rect id="SVGID_1_" y="2" width="790.4" height="631"/>
		</defs>
		<clipPath id="SVGID_2_">
			<use xlink:href="#SVGID_1_"  style="overflow:visible;"/>
		</clipPath>
		<g class="st0">
			<defs>
				<rect id="SVGID_3_" y="2" width="790.4" height="632.7"/>
			</defs>
			<clipPath id="SVGID_4_">
				<use xlink:href="#SVGID_3_"  style="overflow:visible;"/>
			</clipPath>
		</g>
	</g>
	<g>
		<defs>
			<rect id="SVGID_5_" y="-1" width="790.4" height="634"/>
		</defs>
		<clipPath id="SVGID_6_">
			<use xlink:href="#SVGID_5_"  style="overflow:visible;"/>
		</clipPath>
		<defs>
			<filter id="Adobe_OpacityMaskFilter" filterUnits="userSpaceOnUse" x="-9" y="-44" width="808.4" height="678">
				<feFlood  style="flood-color:white;flood-opacity:1" result="back"/>
				<feBlend  in="SourceGraphic" in2="back" mode="normal"/>
			</filter>
		</defs>
		<mask maskUnits="userSpaceOnUse" x="-9" y="-44" width="808.4" height="678" id="SVGID_7_">
			<g class="st1">
				
					<linearGradient id="SVGID_8_" gradientUnits="userSpaceOnUse" x1="-25.6336" y1="612.8368" x2="-24.6336" y2="612.8368" gradientTransform="matrix(0 -375.9186 -375.9186 0 230772.2031 -9015.8496)">
					<stop  offset="0" style="stop-color:#FFFFFF"/>
					<stop  offset="1" style="stop-color:#000000"/>
				</linearGradient>
				<rect x="-244.5" y="-167" class="st2" width="1280" height="800"/>
			</g>
		</mask>
		<g class="st3">
			<g>
				<defs>
					<rect id="SVGID_9_" x="-9" y="-44" width="808.4" height="678"/>
				</defs>
				<clipPath id="SVGID_10_">
					<use xlink:href="#SVGID_9_"  style="overflow:visible;"/>
				</clipPath>
				<rect y="-37" class="st4" width="790.9" height="670"/>
			</g>
		</g>
	</g>
	<g>
		<path class="st5" d="M196.3,424.4h-5.7l-1,3.2h-4.4l6.3-17.2h3.9l6.4,17.2h-4.5L196.3,424.4z M191.6,421.2h3.7l-1.9-6L191.6,421.2
			z"/>
		<path class="st5" d="M202.9,427.6v-17.2h5.5c1.5,0,2.9,0.3,4.1,1c1.2,0.7,2.2,1.7,2.8,2.9c0.7,1.3,1,2.7,1,4.2v0.8
			c0,1.6-0.3,3-1,4.2c-0.7,1.2-1.6,2.2-2.8,2.9c-1.2,0.7-2.6,1.1-4.1,1.1H202.9z M207,413.6v10.8h1.4c1.2,0,2.1-0.4,2.7-1.3
			s1-2.1,1-3.8v-0.7c0-1.7-0.3-2.9-1-3.8s-1.6-1.3-2.8-1.3H207z"/>
		<path class="st5" d="M218.5,427.6v-17.2h5.5c1.5,0,2.9,0.3,4.1,1c1.2,0.7,2.2,1.7,2.8,2.9c0.7,1.3,1,2.7,1,4.2v0.8
			c0,1.6-0.3,3-1,4.2c-0.7,1.2-1.6,2.2-2.8,2.9c-1.2,0.7-2.6,1.1-4.1,1.1H218.5z M222.6,413.6v10.8h1.4c1.2,0,2.1-0.4,2.7-1.3
			s1-2.1,1-3.8v-0.7c0-1.7-0.3-2.9-1-3.8s-1.6-1.3-2.8-1.3H222.6z"/>
		<path class="st5" d="M240.4,421.5h-2.2v6.1H234v-17.2h6.8c2,0,3.6,0.5,4.8,1.4c1.2,0.9,1.7,2.2,1.7,3.8c0,1.2-0.2,2.2-0.7,3
			s-1.2,1.4-2.3,1.9l3.6,7v0.2h-4.4L240.4,421.5z M238.2,418.3h2.6c0.8,0,1.4-0.2,1.8-0.6s0.6-1,0.6-1.7s-0.2-1.3-0.6-1.8
			c-0.4-0.4-1-0.6-1.8-0.6h-2.6V418.3z"/>
		<path class="st5" d="M260.4,420.3h-6.5v4.1h7.7v3.2h-11.9v-17.2h11.9v3.2h-7.7v3.6h6.5V420.3z"/>
		<path class="st5" d="M272,423.1c0-0.6-0.2-1.1-0.6-1.4s-1.2-0.7-2.3-1.1c-1.1-0.4-2-0.7-2.6-1.1c-2.2-1.1-3.3-2.6-3.3-4.5
			c0-1,0.3-1.8,0.8-2.5c0.6-0.7,1.3-1.3,2.4-1.7c1-0.4,2.2-0.6,3.4-0.6c1.2,0,2.3,0.2,3.3,0.7c1,0.4,1.7,1.1,2.3,1.9
			c0.5,0.8,0.8,1.7,0.8,2.8h-4.1c0-0.7-0.2-1.2-0.6-1.6c-0.4-0.4-1-0.6-1.7-0.6c-0.7,0-1.3,0.2-1.8,0.5c-0.4,0.3-0.6,0.7-0.6,1.2
			c0,0.4,0.2,0.8,0.7,1.2c0.5,0.4,1.3,0.7,2.5,1.1s2.2,0.8,2.9,1.2c1.9,1.1,2.8,2.6,2.8,4.4c0,1.5-0.6,2.7-1.7,3.5s-2.7,1.3-4.7,1.3
			c-1.4,0-2.7-0.2-3.8-0.8s-2-1.2-2.6-2.1c-0.6-0.9-0.9-1.9-0.9-3h4.2c0,0.9,0.2,1.6,0.7,2c0.5,0.4,1.3,0.7,2.3,0.7
			c0.7,0,1.2-0.1,1.6-0.4C271.8,424,272,423.6,272,423.1z"/>
		<path class="st5" d="M287.1,423.1c0-0.6-0.2-1.1-0.6-1.4s-1.2-0.7-2.3-1.1c-1.1-0.4-2-0.7-2.6-1.1c-2.2-1.1-3.3-2.6-3.3-4.5
			c0-1,0.3-1.8,0.8-2.5c0.6-0.7,1.3-1.3,2.4-1.7c1-0.4,2.2-0.6,3.4-0.6c1.2,0,2.3,0.2,3.3,0.7c1,0.4,1.7,1.1,2.3,1.9
			c0.5,0.8,0.8,1.7,0.8,2.8h-4.1c0-0.7-0.2-1.2-0.6-1.6c-0.4-0.4-1-0.6-1.7-0.6c-0.7,0-1.3,0.2-1.8,0.5c-0.4,0.3-0.6,0.7-0.6,1.2
			c0,0.4,0.2,0.8,0.7,1.2c0.5,0.4,1.3,0.7,2.5,1.1s2.2,0.8,2.9,1.2c1.9,1.1,2.8,2.6,2.8,4.4c0,1.5-0.6,2.7-1.7,3.5s-2.7,1.3-4.7,1.3
			c-1.4,0-2.7-0.2-3.8-0.8s-2-1.2-2.6-2.1c-0.6-0.9-0.9-1.9-0.9-3h4.2c0,0.9,0.2,1.6,0.7,2c0.5,0.4,1.3,0.7,2.3,0.7
			c0.7,0,1.2-0.1,1.6-0.4C286.9,424,287.1,423.6,287.1,423.1z"/>
		<path class="st5" d="M297.7,427.6h-4.1v-17.2h4.1V427.6z"/>
		<path class="st5" d="M314.9,427.6h-4.1l-6.1-10.7v10.7h-4.2v-17.2h4.2l6.1,10.7v-10.7h4.1V427.6z"/>
		<path class="st5" d="M331.5,425.5c-0.6,0.7-1.6,1.3-2.8,1.7c-1.2,0.4-2.6,0.7-4,0.7c-2.3,0-4.1-0.7-5.4-2.1
			c-1.3-1.4-2.1-3.3-2.2-5.8l0-1.5c0-1.7,0.3-3.2,0.9-4.4c0.6-1.3,1.5-2.2,2.6-2.9c1.1-0.7,2.4-1,3.9-1c2.1,0,3.8,0.5,5,1.5
			c1.2,1,1.9,2.4,2.1,4.4h-4c-0.1-1-0.4-1.6-0.9-2.1s-1.1-0.6-2-0.6c-1,0-1.8,0.4-2.4,1.3c-0.6,0.9-0.9,2.1-0.9,3.8v1
			c0,1.7,0.3,3,0.9,3.9c0.6,0.9,1.5,1.3,2.8,1.3c1.1,0,1.9-0.2,2.4-0.7v-2.7h-2.9v-2.9h7V425.5z"/>
		<path class="st5" d="M351.7,413.6h-5.2v14h-4.2v-14h-5.1v-3.2h14.4V413.6z"/>
		<path class="st5" d="M367.7,427.6h-4.1v-7.2h-6.1v7.2h-4.2v-17.2h4.2v6.8h6.1v-6.8h4.1V427.6z"/>
		<path class="st5" d="M380.9,420.3h-6.5v4.1h7.7v3.2h-11.9v-17.2h11.9v3.2h-7.7v3.6h6.5V420.3z"/>
		<path class="st5" d="M402.9,425.5c-0.6,0.7-1.6,1.3-2.8,1.7c-1.2,0.4-2.6,0.7-4,0.7c-2.3,0-4.1-0.7-5.4-2.1
			c-1.3-1.4-2.1-3.3-2.2-5.8l0-1.5c0-1.7,0.3-3.2,0.9-4.4c0.6-1.3,1.5-2.2,2.6-2.9c1.1-0.7,2.4-1,3.9-1c2.1,0,3.8,0.5,5,1.5
			c1.2,1,1.9,2.4,2.1,4.4h-4c-0.1-1-0.4-1.6-0.9-2.1s-1.1-0.6-2-0.6c-1,0-1.8,0.4-2.4,1.3c-0.6,0.9-0.9,2.1-0.9,3.8v1
			c0,1.7,0.3,3,0.9,3.9c0.6,0.9,1.5,1.3,2.8,1.3c1.1,0,1.9-0.2,2.4-0.7v-2.7h-2.9v-2.9h7V425.5z"/>
		<path class="st5" d="M411.6,421.5h-2.2v6.1h-4.2v-17.2h6.8c2,0,3.6,0.5,4.8,1.4c1.2,0.9,1.7,2.2,1.7,3.8c0,1.2-0.2,2.2-0.7,3
			s-1.2,1.4-2.3,1.9l3.6,7v0.2h-4.4L411.6,421.5z M409.4,418.3h2.6c0.8,0,1.4-0.2,1.8-0.6s0.6-1,0.6-1.7s-0.2-1.3-0.6-1.8
			c-0.4-0.4-1-0.6-1.8-0.6h-2.6V418.3z"/>
		<path class="st5" d="M435.5,419.4c0,1.7-0.3,3.2-0.9,4.5c-0.6,1.3-1.5,2.3-2.7,3s-2.5,1-3.9,1s-2.8-0.3-3.9-1
			c-1.1-0.7-2-1.6-2.7-2.9c-0.6-1.3-1-2.7-1-4.3v-1c0-1.7,0.3-3.2,0.9-4.5c0.6-1.3,1.5-2.3,2.7-3c1.2-0.7,2.5-1.1,3.9-1.1
			c1.5,0,2.8,0.3,3.9,1c1.1,0.7,2,1.7,2.7,3c0.6,1.3,1,2.8,1,4.4V419.4z M431.3,418.7c0-1.7-0.3-3-0.9-3.9c-0.6-0.9-1.4-1.3-2.5-1.3
			c-2.1,0-3.2,1.6-3.3,4.7l0,1.3c0,1.7,0.3,3,0.8,3.9c0.6,0.9,1.4,1.4,2.5,1.4c1,0,1.9-0.4,2.4-1.3c0.6-0.9,0.9-2.2,0.9-3.8V418.7z"
			/>
		<path class="st5" d="M450.9,421.2l2-10.8h4.1l-3.7,17.2H449l-2.3-9.8l-2.3,9.8h-4.3l-3.7-17.2h4.1l2,10.8l2.4-10.8h3.5
			L450.9,421.2z"/>
		<path class="st5" d="M462.9,427.6h-4.1v-17.2h4.1V427.6z"/>
		<path class="st5" d="M480.1,427.6h-4.1l-6.1-10.7v10.7h-4.2v-17.2h4.2l6.1,10.7v-10.7h4.1V427.6z"/>
		<path class="st5" d="M496.7,425.5c-0.6,0.7-1.6,1.3-2.8,1.7c-1.2,0.4-2.6,0.7-4,0.7c-2.3,0-4.1-0.7-5.4-2.1
			c-1.3-1.4-2.1-3.3-2.2-5.8l0-1.5c0-1.7,0.3-3.2,0.9-4.4c0.6-1.3,1.5-2.2,2.6-2.9c1.1-0.7,2.4-1,3.9-1c2.1,0,3.8,0.5,5,1.5
			c1.2,1,1.9,2.4,2.1,4.4h-4c-0.1-1-0.4-1.6-0.9-2.1s-1.1-0.6-2-0.6c-1,0-1.8,0.4-2.4,1.3c-0.6,0.9-0.9,2.1-0.9,3.8v1
			c0,1.7,0.3,3,0.9,3.9c0.6,0.9,1.5,1.3,2.8,1.3c1.1,0,1.9-0.2,2.4-0.7v-2.7h-2.9v-2.9h7V425.5z"/>
		<path class="st5" d="M518,421.8c-0.1,1.2-0.4,2.3-1,3.2c-0.6,0.9-1.4,1.6-2.5,2.1c-1.1,0.5-2.3,0.8-3.7,0.8c-2.3,0-4-0.7-5.3-2.2
			c-1.3-1.5-2-3.6-2-6.2v-0.9c0-1.7,0.3-3.2,0.9-4.4c0.6-1.3,1.4-2.2,2.5-2.9c1.1-0.7,2.4-1,3.8-1c2.1,0,3.8,0.6,5,1.7
			c1.3,1.1,2,2.6,2.2,4.5h-4.1c0-1-0.3-1.8-0.8-2.3c-0.5-0.5-1.3-0.7-2.3-0.7c-1,0-1.8,0.4-2.3,1.2c-0.5,0.8-0.7,2-0.8,3.7v1.2
			c0,1.8,0.2,3.2,0.7,3.9c0.5,0.8,1.3,1.2,2.4,1.2c1,0,1.7-0.2,2.2-0.7c0.5-0.4,0.8-1.2,0.8-2.1H518z"/>
		<path class="st5" d="M526.2,421.5H524v6.1h-4.2v-17.2h6.8c2,0,3.6,0.5,4.8,1.4c1.2,0.9,1.7,2.2,1.7,3.8c0,1.2-0.2,2.2-0.7,3
			s-1.2,1.4-2.3,1.9l3.6,7v0.2h-4.4L526.2,421.5z M524,418.3h2.6c0.8,0,1.4-0.2,1.8-0.6s0.6-1,0.6-1.7s-0.2-1.3-0.6-1.8
			c-0.4-0.4-1-0.6-1.8-0.6H524V418.3z"/>
		<path class="st5" d="M539.9,427.6h-4.1v-17.2h4.1V427.6z"/>
		<path class="st5" d="M551.6,423.1c0-0.6-0.2-1.1-0.6-1.4s-1.2-0.7-2.3-1.1c-1.1-0.4-2-0.7-2.6-1.1c-2.2-1.1-3.3-2.6-3.3-4.5
			c0-1,0.3-1.8,0.8-2.5c0.6-0.7,1.3-1.3,2.4-1.7c1-0.4,2.2-0.6,3.4-0.6c1.2,0,2.3,0.2,3.3,0.7c1,0.4,1.7,1.1,2.3,1.9
			c0.5,0.8,0.8,1.7,0.8,2.8h-4.1c0-0.7-0.2-1.2-0.6-1.6c-0.4-0.4-1-0.6-1.7-0.6c-0.7,0-1.3,0.2-1.8,0.5c-0.4,0.3-0.6,0.7-0.6,1.2
			c0,0.4,0.2,0.8,0.7,1.2c0.5,0.4,1.3,0.7,2.5,1.1s2.2,0.8,2.9,1.2c1.9,1.1,2.8,2.6,2.8,4.4c0,1.5-0.6,2.7-1.7,3.5s-2.7,1.3-4.7,1.3
			c-1.4,0-2.7-0.2-3.8-0.8s-2-1.2-2.6-2.1c-0.6-0.9-0.9-1.9-0.9-3h4.2c0,0.9,0.2,1.6,0.7,2c0.5,0.4,1.3,0.7,2.3,0.7
			c0.7,0,1.2-0.1,1.6-0.4C551.4,424,551.6,423.6,551.6,423.1z"/>
		<path class="st5" d="M562.2,427.6h-4.1v-17.2h4.1V427.6z"/>
		<path class="st5" d="M573.9,423.1c0-0.6-0.2-1.1-0.6-1.4s-1.2-0.7-2.3-1.1c-1.1-0.4-2-0.7-2.6-1.1c-2.2-1.1-3.3-2.6-3.3-4.5
			c0-1,0.3-1.8,0.8-2.5c0.6-0.7,1.3-1.3,2.4-1.7c1-0.4,2.2-0.6,3.4-0.6c1.2,0,2.3,0.2,3.3,0.7c1,0.4,1.7,1.1,2.3,1.9
			c0.5,0.8,0.8,1.7,0.8,2.8h-4.1c0-0.7-0.2-1.2-0.6-1.6c-0.4-0.4-1-0.6-1.7-0.6c-0.7,0-1.3,0.2-1.8,0.5c-0.4,0.3-0.6,0.7-0.6,1.2
			c0,0.4,0.2,0.8,0.7,1.2c0.5,0.4,1.3,0.7,2.5,1.1s2.2,0.8,2.9,1.2c1.9,1.1,2.8,2.6,2.8,4.4c0,1.5-0.6,2.7-1.7,3.5s-2.7,1.3-4.7,1.3
			c-1.4,0-2.7-0.2-3.8-0.8s-2-1.2-2.6-2.1c-0.6-0.9-0.9-1.9-0.9-3h4.2c0,0.9,0.2,1.6,0.7,2c0.5,0.4,1.3,0.7,2.3,0.7
			c0.7,0,1.2-0.1,1.6-0.4C573.7,424,573.9,423.6,573.9,423.1z"/>
		<path class="st5" d="M599.7,419.4c0,1.7-0.3,3.2-0.9,4.5c-0.6,1.3-1.5,2.3-2.7,3s-2.5,1-3.9,1s-2.8-0.3-3.9-1
			c-1.1-0.7-2-1.6-2.7-2.9c-0.6-1.3-1-2.7-1-4.3v-1c0-1.7,0.3-3.2,0.9-4.5c0.6-1.3,1.5-2.3,2.7-3c1.2-0.7,2.5-1.1,3.9-1.1
			c1.5,0,2.8,0.3,3.9,1c1.1,0.7,2,1.7,2.7,3c0.6,1.3,1,2.8,1,4.4V419.4z M595.5,418.7c0-1.7-0.3-3-0.9-3.9c-0.6-0.9-1.4-1.3-2.5-1.3
			c-2.1,0-3.2,1.6-3.3,4.7l0,1.3c0,1.7,0.3,3,0.8,3.9c0.6,0.9,1.4,1.4,2.5,1.4c1,0,1.9-0.4,2.4-1.3c0.6-0.9,0.9-2.2,0.9-3.8V418.7z"
			/>
		<path class="st5" d="M612.6,420.8h-6.7v6.9h-4.2v-17.2h11.5v3.2h-7.4v4h6.7V420.8z"/>
	</g>
	<g>
		<path class="st5" d="M184.9,449.8h-4.1v-17.2h4.1V449.8z"/>
		<path class="st5" d="M202.1,449.8H198l-6.1-10.7v10.7h-4.2v-17.2h4.2l6.1,10.7v-10.7h4.1V449.8z"/>
		<path class="st5" d="M217.8,435.8h-5.2v14h-4.2v-14h-5.1v-3.2h14.4V435.8z"/>
		<path class="st5" d="M230.1,442.5h-6.5v4.1h7.7v3.2h-11.9v-17.2h11.9v3.2h-7.7v3.6h6.5V442.5z"/>
		<path class="st5" d="M239.3,443.7h-2.2v6.1h-4.2v-17.2h6.8c2,0,3.6,0.5,4.8,1.4c1.2,0.9,1.7,2.2,1.7,3.8c0,1.2-0.2,2.2-0.7,3
			s-1.2,1.4-2.3,1.9l3.6,7v0.2h-4.4L239.3,443.7z M237.1,440.5h2.6c0.8,0,1.4-0.2,1.8-0.6s0.6-1,0.6-1.7s-0.2-1.3-0.6-1.8
			c-0.4-0.4-1-0.6-1.8-0.6h-2.6V440.5z"/>
		<path class="st5" d="M263,449.8h-4.1l-6.1-10.7v10.7h-4.2v-17.2h4.2l6.1,10.7v-10.7h4.1V449.8z"/>
		<path class="st5" d="M275.5,446.6h-5.7l-1,3.2h-4.4l6.3-17.2h3.9l6.4,17.2h-4.5L275.5,446.6z M270.8,443.4h3.7l-1.9-6L270.8,443.4
			z"/>
		<path class="st5" d="M286.2,446.6h7.2v3.2h-11.4v-17.2h4.2V446.6z"/>
		<path class="st5" d="M299.2,446.6h7.2v3.2h-11.4v-17.2h4.2V446.6z"/>
		<path class="st5" d="M311.1,440l3.2-7.5h4.5l-5.5,11v6.2H309v-6.2l-5.5-11h4.5L311.1,440z"/>
		<path class="st5" d="M325,449.8v-17.2h5.5c1.5,0,2.9,0.3,4.1,1c1.2,0.7,2.2,1.7,2.8,2.9c0.7,1.3,1,2.7,1,4.2v0.8
			c0,1.6-0.3,3-1,4.2c-0.7,1.2-1.6,2.2-2.8,2.9c-1.2,0.7-2.6,1.1-4.1,1.1H325z M329.1,435.8v10.8h1.4c1.2,0,2.1-0.4,2.7-1.3
			s1-2.1,1-3.8v-0.7c0-1.7-0.3-2.9-1-3.8s-1.6-1.3-2.8-1.3H329.1z"/>
		<path class="st5" d="M345,449.8h-4.1v-17.2h4.1V449.8z"/>
		<path class="st5" d="M356.6,445.2c0-0.6-0.2-1.1-0.6-1.4s-1.2-0.7-2.3-1.1c-1.1-0.4-2-0.7-2.6-1.1c-2.2-1.1-3.3-2.6-3.3-4.5
			c0-1,0.3-1.8,0.8-2.5c0.6-0.7,1.3-1.3,2.4-1.7c1-0.4,2.2-0.6,3.4-0.6c1.2,0,2.3,0.2,3.3,0.7c1,0.4,1.7,1.1,2.3,1.9
			c0.5,0.8,0.8,1.7,0.8,2.8h-4.1c0-0.7-0.2-1.2-0.6-1.6c-0.4-0.4-1-0.6-1.7-0.6c-0.7,0-1.3,0.2-1.8,0.5c-0.4,0.3-0.6,0.7-0.6,1.2
			c0,0.4,0.2,0.8,0.7,1.2c0.5,0.4,1.3,0.7,2.5,1.1s2.2,0.8,2.9,1.2c1.9,1.1,2.8,2.6,2.8,4.4c0,1.5-0.6,2.7-1.7,3.5s-2.7,1.3-4.7,1.3
			c-1.4,0-2.7-0.2-3.8-0.8s-2-1.2-2.6-2.1c-0.6-0.9-0.9-1.9-0.9-3h4.2c0,0.9,0.2,1.6,0.7,2c0.5,0.4,1.3,0.7,2.3,0.7
			c0.7,0,1.2-0.1,1.6-0.4C356.4,446.2,356.6,445.7,356.6,445.2z"/>
		<path class="st5" d="M367,443.9v5.8h-4.2v-17.2h6.9c1.3,0,2.5,0.2,3.5,0.7c1,0.5,1.8,1.2,2.4,2.1c0.6,0.9,0.8,1.9,0.8,3
			c0,1.7-0.6,3-1.8,4c-1.2,1-2.9,1.5-5,1.5H367z M367,440.7h2.7c0.8,0,1.4-0.2,1.8-0.6c0.4-0.4,0.6-1,0.6-1.7c0-0.8-0.2-1.4-0.7-1.9
			c-0.4-0.5-1-0.7-1.8-0.7H367V440.7z"/>
		<path class="st5" d="M382.7,446.6h7.2v3.2h-11.4v-17.2h4.2V446.6z"/>
		<path class="st5" d="M401.5,446.6h-5.7l-1,3.2h-4.4l6.3-17.2h3.9l6.4,17.2h-4.5L401.5,446.6z M396.8,443.4h3.7l-1.9-6L396.8,443.4
			z"/>
		<path class="st5" d="M421.8,443.9c-0.1,1.2-0.4,2.3-1,3.2c-0.6,0.9-1.4,1.6-2.5,2.1c-1.1,0.5-2.3,0.8-3.7,0.8
			c-2.3,0-4-0.7-5.3-2.2c-1.3-1.5-2-3.6-2-6.2v-0.9c0-1.7,0.3-3.2,0.9-4.4c0.6-1.3,1.4-2.2,2.5-2.9c1.1-0.7,2.4-1,3.8-1
			c2.1,0,3.8,0.6,5,1.7c1.3,1.1,2,2.6,2.2,4.5h-4.1c0-1-0.3-1.8-0.8-2.3c-0.5-0.5-1.3-0.7-2.3-0.7c-1,0-1.8,0.4-2.3,1.2
			c-0.5,0.8-0.7,2-0.8,3.7v1.2c0,1.8,0.2,3.2,0.7,3.9c0.5,0.8,1.3,1.2,2.4,1.2c1,0,1.7-0.2,2.2-0.7c0.5-0.4,0.8-1.2,0.8-2.1H421.8z"
			/>
		<path class="st5" d="M434.3,442.5h-6.5v4.1h7.7v3.2h-11.9v-17.2h11.9v3.2h-7.7v3.6h6.5V442.5z"/>
		<path class="st5" d="M437.1,449.8v-17.2h5.5c1.5,0,2.9,0.3,4.1,1c1.2,0.7,2.2,1.7,2.8,2.9c0.7,1.3,1,2.7,1,4.2v0.8
			c0,1.6-0.3,3-1,4.2c-0.7,1.2-1.6,2.2-2.8,2.9c-1.2,0.7-2.6,1.1-4.1,1.1H437.1z M441.3,435.8v10.8h1.4c1.2,0,2.1-0.4,2.7-1.3
			s1-2.1,1-3.8v-0.7c0-1.7-0.3-2.9-1-3.8s-1.6-1.3-2.8-1.3H441.3z"/>
		<path class="st5" d="M461.9,443.9v5.8h-4.2v-17.2h6.9c1.3,0,2.5,0.2,3.5,0.7c1,0.5,1.8,1.2,2.4,2.1c0.6,0.9,0.8,1.9,0.8,3
			c0,1.7-0.6,3-1.8,4c-1.2,1-2.9,1.5-5,1.5H461.9z M461.9,440.7h2.7c0.8,0,1.4-0.2,1.8-0.6c0.4-0.4,0.6-1,0.6-1.7
			c0-0.8-0.2-1.4-0.7-1.9c-0.4-0.5-1-0.7-1.8-0.7h-2.8V440.7z"/>
		<path class="st5" d="M488,441.5c0,1.7-0.3,3.2-0.9,4.5c-0.6,1.3-1.5,2.3-2.7,3s-2.5,1-3.9,1s-2.8-0.3-3.9-1
			c-1.1-0.7-2-1.6-2.7-2.9c-0.6-1.3-1-2.7-1-4.3v-1c0-1.7,0.3-3.2,0.9-4.5c0.6-1.3,1.5-2.3,2.7-3c1.2-0.7,2.5-1.1,3.9-1.1
			c1.5,0,2.8,0.3,3.9,1c1.1,0.7,2,1.7,2.7,3c0.6,1.3,1,2.8,1,4.4V441.5z M483.8,440.8c0-1.7-0.3-3-0.9-3.9c-0.6-0.9-1.4-1.3-2.5-1.3
			c-2.1,0-3.2,1.6-3.3,4.7l0,1.3c0,1.7,0.3,3,0.8,3.9c0.6,0.9,1.4,1.4,2.5,1.4c1,0,1.9-0.4,2.4-1.3c0.6-0.9,0.9-2.2,0.9-3.8V440.8z"
			/>
		<path class="st5" d="M494.2,443.9v5.8H490v-17.2h6.9c1.3,0,2.5,0.2,3.5,0.7c1,0.5,1.8,1.2,2.4,2.1c0.6,0.9,0.8,1.9,0.8,3
			c0,1.7-0.6,3-1.8,4c-1.2,1-2.9,1.5-5,1.5H494.2z M494.2,440.7h2.7c0.8,0,1.4-0.2,1.8-0.6c0.4-0.4,0.6-1,0.6-1.7
			c0-0.8-0.2-1.4-0.7-1.9c-0.4-0.5-1-0.7-1.8-0.7h-2.8V440.7z"/>
		<path class="st5" d="M519.2,432.6v11.3c0,1.3-0.3,2.4-0.8,3.3s-1.3,1.6-2.3,2.1c-1,0.5-2.2,0.7-3.6,0.7c-2.1,0-3.8-0.5-5-1.6
			c-1.2-1.1-1.8-2.6-1.8-4.5v-11.4h4.2V444c0,1.9,0.9,2.8,2.6,2.8c0.9,0,1.5-0.2,2-0.7c0.4-0.5,0.7-1.2,0.7-2.3v-11.2H519.2z"/>
		<path class="st5" d="M525.9,446.6h7.2v3.2h-11.4v-17.2h4.2V446.6z"/>
		<path class="st5" d="M544.7,446.6H539l-1,3.2h-4.4l6.3-17.2h3.9l6.4,17.2h-4.5L544.7,446.6z M540,443.4h3.7l-1.9-6L540,443.4z"/>
		<path class="st5" d="M563.4,435.8h-5.2v14h-4.2v-14h-5.1v-3.2h14.4V435.8z"/>
		<path class="st5" d="M569.5,449.8h-4.1v-17.2h4.1V449.8z"/>
		<path class="st5" d="M586.9,441.5c0,1.7-0.3,3.2-0.9,4.5c-0.6,1.3-1.5,2.3-2.7,3s-2.5,1-3.9,1s-2.8-0.3-3.9-1
			c-1.1-0.7-2-1.6-2.7-2.9c-0.6-1.3-1-2.7-1-4.3v-1c0-1.7,0.3-3.2,0.9-4.5c0.6-1.3,1.5-2.3,2.7-3c1.2-0.7,2.5-1.1,3.9-1.1
			c1.5,0,2.8,0.3,3.9,1c1.1,0.7,2,1.7,2.7,3c0.6,1.3,1,2.8,1,4.4V441.5z M582.7,440.8c0-1.7-0.3-3-0.9-3.9c-0.6-0.9-1.4-1.3-2.5-1.3
			c-2.1,0-3.2,1.6-3.3,4.7l0,1.3c0,1.7,0.3,3,0.8,3.9c0.6,0.9,1.4,1.4,2.5,1.4c1,0,1.9-0.4,2.4-1.3c0.6-0.9,0.9-2.2,0.9-3.8V440.8z"
			/>
		<path class="st5" d="M603.3,449.8h-4.1l-6.1-10.7v10.7h-4.2v-17.2h4.2l6.1,10.7v-10.7h4.1V449.8z"/>
		<path class="st5" d="M614.7,445.2c0-0.6-0.2-1.1-0.6-1.4s-1.2-0.7-2.3-1.1c-1.1-0.4-2-0.7-2.6-1.1c-2.2-1.1-3.3-2.6-3.3-4.5
			c0-1,0.3-1.8,0.8-2.5c0.6-0.7,1.3-1.3,2.4-1.7c1-0.4,2.2-0.6,3.4-0.6c1.2,0,2.3,0.2,3.3,0.7c1,0.4,1.7,1.1,2.3,1.9
			c0.5,0.8,0.8,1.7,0.8,2.8h-4.1c0-0.7-0.2-1.2-0.6-1.6c-0.4-0.4-1-0.6-1.7-0.6c-0.7,0-1.3,0.2-1.8,0.5c-0.4,0.3-0.6,0.7-0.6,1.2
			c0,0.4,0.2,0.8,0.7,1.2c0.5,0.4,1.3,0.7,2.5,1.1s2.2,0.8,2.9,1.2c1.9,1.1,2.8,2.6,2.8,4.4c0,1.5-0.6,2.7-1.7,3.5s-2.7,1.3-4.7,1.3
			c-1.4,0-2.7-0.2-3.8-0.8s-2-1.2-2.6-2.1c-0.6-0.9-0.9-1.9-0.9-3h4.2c0,0.9,0.2,1.6,0.7,2c0.5,0.4,1.3,0.7,2.3,0.7
			c0.7,0,1.2-0.1,1.6-0.4C614.5,446.2,614.7,445.7,614.7,445.2z"/>
	</g>
	<g>
		<defs>
			<rect id="SVGID_11_" y="-2.1" width="790.4" height="635.1"/>
		</defs>
		<clipPath id="SVGID_12_">
			<use xlink:href="#SVGID_11_"  style="overflow:visible;"/>
		</clipPath>
		<path class="st6" d="M575.3,323.6h-16.1l20,39.9v22.4h15.2v-22.4l20-39.9h-16.2l-11.5,27L575.3,323.6z M553.9,323.6h-52v11.6h18.3
			v50.6h15v-50.6h18.7V323.6z M496.3,323.6h-15v62.2h15V323.6z M440.4,335.1h9.5c2.8,0,5,0.8,6.4,2.3c1.5,1.5,2.2,3.6,2.2,6.3
			c0,2.7-0.7,4.8-2.2,6.3c-1.4,1.5-3.6,2.2-6.4,2.2h-9.5V335.1z M459.5,385.8h16.1v-0.6l-13-25.1c3.7-1.8,6.5-4.1,8.2-6.9
			c1.8-2.8,2.6-6.4,2.6-10.8c0-6-2.1-10.6-6.2-13.9c-4.2-3.3-9.9-4.9-17.3-4.9h-24.5v62.2h15v-22h8.1L459.5,385.8z M404.6,356.2
			c0,6-1.1,10.7-3.1,13.9c-2.1,3.2-5,4.8-8.8,4.8c-4,0-7-1.6-9-4.9c-2-3.3-3-8-3-14.1l0-4.6c0.4-11.3,4.4-16.9,11.9-16.9
			c3.8,0,6.8,1.6,8.9,4.8c2.1,3.2,3.1,7.9,3.1,14.1V356.2z M419.8,353.1c0-6-1.2-11.3-3.5-15.9c-2.3-4.6-5.5-8.2-9.6-10.7
			c-4.1-2.5-8.8-3.8-14.1-3.8c-5.3,0-10.1,1.3-14.3,3.8c-4.2,2.5-7.4,6.1-9.6,10.8c-2.2,4.7-3.4,10-3.4,16.1v3.5
			c0.1,5.9,1.3,11.1,3.6,15.6c2.3,4.5,5.5,8,9.6,10.4c4.1,2.4,8.8,3.7,14.1,3.7c5.3,0,10-1.3,14.2-3.8c4.1-2.5,7.3-6.1,9.6-10.8
			c2.3-4.7,3.4-10,3.4-16.1V353.1z M344.9,366.3c0,2.8-0.6,5-1.7,6.5c-1.1,1.6-2.7,2.3-4.8,2.3c-2.3,0-4-0.6-4.9-1.9
			c-1-1.3-1.5-3.3-1.5-6.2h-15c0,6.3,1.9,11.1,5.6,14.5c3.8,3.4,9,5.1,15.8,5.1c4,0,7.7-0.9,11-2.6c3.3-1.7,5.9-4.1,7.7-7.2
			c1.8-3.1,2.8-6.6,2.8-10.6v-42.7h-15V366.3z M287.7,341l6.7,21.6H281L287.7,341z M301.6,385.8h16.1l-23-62.2h-14.1l-22.8,62.2h16
			l3.6-11.6H298L301.6,385.8z M187.3,323.6v62.2h15v-14.5l-1.5-29.8l15.1,44.3h9.9l15-44.3l-1.5,29.7v14.5h15v-62.2h-19.7
			l-13.8,43.3L207,323.6H187.3z"/>
		<path class="st6" d="M585.8,278h-23.6v-13.1h28v-11.6h-43v62.2h42.9v-11.5h-27.9v-14.9h23.6V278z M515.2,253.2h-15v62.2h41.1
			v-11.5h-26.1V253.2z M462.6,264.8h7.4c3.4,0,5.8,0.6,7.3,1.7c1.5,1.2,2.3,3,2.3,5.7c0,2.3-0.7,4-2.1,5.2c-1.4,1.2-3.7,1.8-7,1.8
			h-7.8V264.8z M473.2,289c5.2,0,7.7,2.6,7.7,7.8c0,2.3-0.7,4-2.2,5.2c-1.5,1.2-3.5,1.9-6.2,1.9h-9.8V289H473.2z M472.9,315.5
			c7.6-0.1,13.3-1.6,17.2-4.7c3.9-3.1,5.8-7.6,5.8-13.7c0-3.4-0.9-6.2-2.6-8.5c-1.7-2.3-4.2-3.9-7.5-4.8c2.9-1.1,5.1-2.8,6.5-5
			c1.5-2.3,2.2-5,2.2-8.2c0-5.6-2.1-9.8-6.3-12.8c-4.2-2.9-10.3-4.4-18.3-4.4h-22.4v62.2H472.9z M439.4,253.2h-15v62.2h15V253.2z
			 M399.9,303.4c-1.4,1.1-3.4,1.6-5.9,1.6c-3.9,0-6.7-0.8-8.4-2.4s-2.6-4-2.6-7.4h-15c0,4.1,1,7.7,3.1,10.9c2.1,3.1,5.1,5.6,9.2,7.4
			c4.1,1.8,8.7,2.7,13.7,2.7c7.2,0,12.8-1.6,16.9-4.7c4.1-3.1,6.2-7.4,6.2-12.8c0-6.8-3.4-12.2-10.1-16c-2.8-1.6-6.3-3.1-10.6-4.5
			c-4.3-1.4-7.3-2.7-9-4c-1.7-1.3-2.6-2.7-2.6-4.3c0-1.8,0.8-3.3,2.3-4.5s3.7-1.8,6.3-1.8c2.6,0,4.8,0.7,6.3,2.1
			c1.6,1.4,2.3,3.4,2.3,5.9h15c0-3.8-1-7.2-2.9-10.1c-2-2.9-4.7-5.2-8.3-6.8c-3.5-1.6-7.6-2.4-12-2.4c-4.6,0-8.7,0.7-12.4,2.2
			c-3.7,1.5-6.5,3.5-8.5,6.2c-2,2.6-3,5.7-3,9.1c0,6.9,4,12.4,12.1,16.3c2.5,1.2,5.7,2.5,9.6,3.8c3.9,1.3,6.6,2.6,8.2,3.8
			c1.6,1.2,2.3,2.9,2.3,5.1C402,300.9,401.3,302.4,399.9,303.4 M359.9,253.2h-15v62.2h15V253.2z M297.5,253.2h-16.6l20.8,62.2H318
			l20.9-62.2h-16.8l-12.4,45.3L297.5,253.2z M276.6,253.2h-15V292l-22-38.7h-15v62.2h15v-38.7l22.1,38.7h14.9V253.2z M216.4,253.2
			h-15v62.2h15V253.2z"/>
	</g>
	<path class="st5" d="M336.5,207.6h-23.6v-13.1h28v-11.6h-43v62.2h42.9v-11.5h-27.9v-14.9h23.6V207.6z M292.4,182.9h-14.9v24.7
		h-22.1v-24.7h-15v62.2h15v-26h22.1v26h14.9V182.9z M236.2,182.9h-52v11.6h18.3v50.6h15v-50.6h18.7V182.9z"/>
	<g>
		<defs>
			<rect id="SVGID_13_" y="-38" width="790.4" height="671"/>
		</defs>
		<clipPath id="SVGID_14_">
			<use xlink:href="#SVGID_13_"  style="overflow:visible;"/>
		</clipPath>
		<path class="st7" d="M502.6,198.1c-2.2-4.4-5.5-7.1-13.8-7.1H488h-0.8c-8.3,0-11.6,2.7-13.8,7.1c-1.1,2.2-3.4,30-3.4,30
			c-0.2,1.6,1,3.1,2.6,3.3c0.1,0,0.2,0,0.3,0c1.5,0,2.8-1.1,3-2.7l2.3-24.1l0.6,18.7l-1.7,21.2c-0.1,1.9,1.3,3.6,3.2,3.7
			c0.1,0,0.2,0,0.2,0h14.9c0.1,0,0.1,0,0.2,0c1.9-0.1,3.3-1.8,3.2-3.7l-1.7-21.2l0.6-18.7l2.3,24.1c0.1,1.5,1.4,2.7,3,2.7
			c0.1,0,0.2,0,0.3,0c1.6-0.2,2.8-1.6,2.6-3.3C506,228.1,503.7,200.3,502.6,198.1 M488,171.2c-4.9,0-8.9,4-8.9,8.9
			c0,4.9,4,8.8,8.9,8.8c4.9,0,8.8-4,8.8-8.8C496.8,175.1,492.9,171.2,488,171.2"/>
		<path class="st7" d="M539.2,198.1c-2.2-4.4-5.5-7.1-13.8-7.1h-0.9h-0.8c-8.3,0-11.6,2.7-13.8,7.1c-1.1,2.2-3.4,30-3.4,30
			c-0.2,1.6,1,3.1,2.6,3.3c0.1,0,0.2,0,0.3,0c1.5,0,2.8-1.1,3-2.7l2.3-24.1l0.6,18.7l-1.7,21.2c-0.1,1.9,1.3,3.6,3.2,3.7
			c0.1,0,0.2,0,0.2,0H532c0.1,0,0.1,0,0.2,0c1.9-0.1,3.3-1.8,3.2-3.7l-1.7-21.2l0.6-18.7l2.3,24.1c0.1,1.5,1.4,2.7,3,2.7
			c0.1,0,0.2,0,0.3,0c1.6-0.2,2.8-1.6,2.6-3.3C542.6,228.1,540.3,200.3,539.2,198.1 M524.6,171.2c-4.9,0-8.9,4-8.9,8.9
			c0,4.9,4,8.8,8.9,8.8c4.9,0,8.8-4,8.8-8.8C533.4,175.1,529.5,171.2,524.6,171.2"/>
		<path class="st7" d="M575.8,198.1c-2.2-4.4-5.5-7.1-13.8-7.1h-0.9h-0.8c-8.3,0-11.6,2.7-13.8,7.1c-1.1,2.2-3.4,30-3.4,30
			c-0.2,1.6,1,3.1,2.6,3.3c0.1,0,0.2,0,0.3,0c1.5,0,2.8-1.1,3-2.7l2.3-24.1l0.6,18.7l-1.7,21.2c-0.1,1.9,1.3,3.6,3.2,3.7
			c0.1,0,0.2,0,0.2,0h14.9c0.1,0,0.1,0,0.2,0c1.9-0.1,3.3-1.8,3.2-3.7l-1.7-21.2l0.6-18.7l2.3,24.1c0.1,1.5,1.4,2.7,3,2.7
			c0.1,0,0.2,0,0.3,0c1.6-0.2,2.8-1.6,2.6-3.3C579.2,228.1,576.9,200.3,575.8,198.1 M561.2,171.2c-4.9,0-8.9,4-8.9,8.9
			c0,4.9,4,8.8,8.9,8.8c4.9,0,8.8-4,8.8-8.8C570,175.1,566.1,171.2,561.2,171.2"/>
		<path class="st7" d="M466,198.1c-2.2-4.4-5.5-7.1-13.8-7.1h-0.9h-0.8c-8.3,0-11.6,2.7-13.8,7.1c-1.1,2.2-3.4,30-3.4,30
			c-0.2,1.6,1,3.1,2.6,3.3c0.1,0,0.2,0,0.3,0c1.5,0,2.8-1.1,3-2.7l2.3-24.1l0.6,18.7l-1.7,21.2c-0.1,1.9,1.3,3.6,3.2,3.7
			c0.1,0,0.2,0,0.2,0h14.9c0.1,0,0.1,0,0.2,0c1.9-0.1,3.3-1.8,3.2-3.7l-1.7-21.2l0.6-18.7l2.3,24.1c0.1,1.5,1.4,2.7,3,2.7
			c0.1,0,0.2,0,0.3,0c1.6-0.2,2.8-1.6,2.6-3.3C469.4,228.1,467.1,200.3,466,198.1 M451.4,171.2c-4.9,0-8.9,4-8.9,8.9
			c0,4.9,4,8.8,8.9,8.8c4.9,0,8.8-4,8.8-8.8C460.2,175.1,456.3,171.2,451.4,171.2"/>
		<path class="st7" d="M429.4,198.1c-2.2-4.4-5.5-7.1-13.8-7.1h-0.9h-0.8c-8.3,0-11.6,2.7-13.8,7.1c-1.1,2.2-3.4,30-3.4,30
			c-0.2,1.6,1,3.1,2.6,3.3c0.1,0,0.2,0,0.3,0c1.5,0,2.8-1.1,3-2.7l2.3-24.1l0.6,18.7l-1.7,21.2c-0.1,1.9,1.3,3.6,3.2,3.7
			c0.1,0,0.2,0,0.2,0h14.9c0.1,0,0.1,0,0.2,0c1.9-0.1,3.3-1.8,3.2-3.7l-1.7-21.2l0.6-18.7l2.3,24.1c0.1,1.5,1.4,2.7,3,2.7
			c0.1,0,0.2,0,0.3,0c1.6-0.2,2.8-1.6,2.6-3.3C432.8,228.1,430.5,200.3,429.4,198.1 M414.8,171.2c-4.9,0-8.9,4-8.9,8.9
			c0,4.9,4,8.8,8.9,8.8c4.9,0,8.8-4,8.8-8.8C423.6,175.1,419.6,171.2,414.8,171.2"/>
		<path class="st7" d="M392.6,198.1c-2.2-4.4-5.5-7.1-13.8-7.1H378h-0.8c-8.3,0-11.6,2.7-13.8,7.1c-1.1,2.2-3.4,30-3.4,30
			c-0.2,1.6,1,3.1,2.6,3.3c0.1,0,0.2,0,0.3,0c1.5,0,2.8-1.1,3-2.7l2.3-24.1l0.6,18.7l-1.7,21.2c-0.1,1.9,1.3,3.6,3.2,3.7
			c0.1,0,0.2,0,0.2,0h14.9c0.1,0,0.1,0,0.2,0c1.9-0.1,3.3-1.8,3.2-3.7l-1.7-21.2l0.6-18.7l2.3,24.1c0.1,1.5,1.4,2.7,3,2.7
			c0.1,0,0.2,0,0.3,0c1.6-0.2,2.8-1.6,2.6-3.3C396,228.1,393.7,200.3,392.6,198.1 M378,171.2c-4.9,0-8.9,4-8.9,8.9
			c0,4.9,4,8.8,8.9,8.8c4.9,0,8.8-4,8.8-8.8C386.8,175.1,382.8,171.2,378,171.2"/>
		<defs>
			<filter id="Adobe_OpacityMaskFilter_1_" filterUnits="userSpaceOnUse" x="-29.7" y="-25.8" width="856.9" height="659.8">
				<feFlood  style="flood-color:white;flood-opacity:1" result="back"/>
				<feBlend  in="SourceGraphic" in2="back" mode="normal"/>
			</filter>
		</defs>
		<mask maskUnits="userSpaceOnUse" x="-29.7" y="-25.8" width="856.9" height="659.8" id="SVGID_15_">
			<g class="st8">
				
					<linearGradient id="SVGID_16_" gradientUnits="userSpaceOnUse" x1="-25.6112" y1="612.7821" x2="-24.6112" y2="612.7821" gradientTransform="matrix(0 -632.557 -632.557 0 388015.0938 -15568.9639)">
					<stop  offset="0" style="stop-color:#FFFFFF"/>
					<stop  offset="1" style="stop-color:#333333"/>
				</linearGradient>
				<rect x="-244.5" y="-167" class="st9" width="1280" height="800"/>
			</g>
		</mask>
		<g class="st10">
			<g>
				<defs>
					<rect id="SVGID_17_" x="-29.7" y="-25.8" width="856.9" height="659.8"/>
				</defs>
				<clipPath id="SVGID_18_">
					<use xlink:href="#SVGID_17_"  style="overflow:visible;"/>
				</clipPath>
				<path class="st11" d="M59.4,28.4c-2.3-4.8-6-7.7-14.9-7.7h-0.9h-0.9c-8.9,0-12.6,2.9-14.9,7.7c-1.2,2.4-3.6,32.4-3.6,32.4
					c-0.2,1.8,1.1,3.4,2.9,3.5c0.1,0,0.2,0,0.3,0c1.6,0,3-1.2,3.2-2.9l2.5-26l0.6,20.2l-1.8,22.9c-0.1,2.1,1.4,3.9,3.5,4
					c0.1,0,0.2,0,0.3,0h16c0.1,0,0.2,0,0.3,0c2.1-0.1,3.6-1.9,3.5-4l-1.8-22.9l0.6-20.2l2.5,26c0.2,1.6,1.6,2.9,3.2,2.9
					c0.1,0,0.2,0,0.3,0c1.8-0.2,3-1.8,2.9-3.5C63.1,60.7,60.6,30.8,59.4,28.4 M43.6-0.7c-5.3,0-9.6,4.3-9.6,9.6
					c0,5.3,4.3,9.5,9.6,9.5c5.3,0,9.5-4.3,9.5-9.5C53.2,3.6,48.9-0.7,43.6-0.7"/>
				<path class="st11" d="M217.5,28.4c-2.3-4.8-6-7.7-14.9-7.7h-0.9h-0.9c-8.9,0-12.6,2.9-14.9,7.7c-1.2,2.4-3.6,32.4-3.6,32.4
					c-0.2,1.8,1.1,3.4,2.9,3.5c0.1,0,0.2,0,0.3,0c1.6,0,3-1.2,3.2-2.9l2.5-26l0.6,20.2l-1.8,22.9c-0.1,2.1,1.4,3.9,3.5,4
					c0.1,0,0.2,0,0.3,0h16c0.1,0,0.2,0,0.3,0c2.1-0.1,3.6-1.9,3.5-4l-1.8-22.9l0.6-20.2l2.5,26c0.2,1.6,1.6,2.9,3.2,2.9
					c0.1,0,0.2,0,0.3,0c1.8-0.2,3-1.8,2.9-3.5C221.1,60.7,218.6,30.8,217.5,28.4 M201.7-0.7c-5.3,0-9.6,4.3-9.6,9.6
					c0,5.3,4.3,9.5,9.6,9.5c5.3,0,9.5-4.3,9.5-9.5C211.2,3.6,206.9-0.7,201.7-0.7"/>
				<path class="st11" d="M98.9,28.4c-2.3-4.8-6-7.7-14.9-7.7h-0.9h-0.9c-8.9,0-12.6,2.9-14.9,7.7c-1.2,2.4-3.6,32.4-3.6,32.4
					c-0.2,1.8,1.1,3.4,2.9,3.5c0.1,0,0.2,0,0.3,0c1.6,0,3-1.2,3.2-2.9l2.5-26l0.6,20.2l-1.8,22.9c-0.1,2.1,1.4,3.9,3.5,4
					c0.1,0,0.2,0,0.3,0h16c0.1,0,0.2,0,0.3,0c2.1-0.1,3.6-1.9,3.5-4l-1.8-22.9l0.6-20.2l2.5,26c0.2,1.6,1.6,2.9,3.2,2.9
					c0.1,0,0.2,0,0.3,0c1.8-0.2,3-1.8,2.9-3.5C102.6,60.7,100.1,30.8,98.9,28.4 M83.1-0.7c-5.3,0-9.6,4.3-9.6,9.6
					c0,5.3,4.3,9.5,9.6,9.5c5.3,0,9.5-4.3,9.5-9.5C92.7,3.6,88.4-0.7,83.1-0.7"/>
				<path class="st11" d="M257,28.4c-2.3-4.8-6-7.7-14.9-7.7h-0.9h-0.9c-8.9,0-12.6,2.9-14.9,7.7c-1.2,2.4-3.6,32.4-3.6,32.4
					c-0.2,1.8,1.1,3.4,2.9,3.5c0.1,0,0.2,0,0.3,0c1.6,0,3-1.2,3.2-2.9l2.5-26l0.6,20.2l-1.8,22.9c-0.1,2.1,1.4,3.9,3.5,4
					c0.1,0,0.2,0,0.3,0h16c0.1,0,0.2,0,0.3,0c2.1-0.1,3.6-1.9,3.5-4l-1.8-22.9l0.6-20.2l2.5,26c0.2,1.6,1.6,2.9,3.2,2.9
					c0.1,0,0.2,0,0.3,0c1.8-0.2,3-1.8,2.9-3.5C260.6,60.7,258.2,30.8,257,28.4 M241.2-0.7c-5.3,0-9.6,4.3-9.6,9.6
					c0,5.3,4.3,9.5,9.6,9.5c5.3,0,9.5-4.3,9.5-9.5C250.7,3.6,246.5-0.7,241.2-0.7"/>
				<path class="st11" d="M138.5,28.4c-2.3-4.8-6-7.7-14.9-7.7h-0.9h-0.9c-8.9,0-12.6,2.9-14.9,7.7c-1.2,2.4-3.6,32.4-3.6,32.4
					c-0.2,1.8,1.1,3.4,2.9,3.5c0.1,0,0.2,0,0.3,0c1.6,0,3-1.2,3.2-2.9l2.5-26l0.6,20.2l-1.8,22.9c-0.1,2.1,1.4,3.9,3.5,4
					c0.1,0,0.2,0,0.3,0h16c0.1,0,0.2,0,0.3,0c2.1-0.1,3.6-1.9,3.5-4l-1.8-22.9l0.6-20.2l2.5,26c0.2,1.6,1.6,2.9,3.2,2.9
					c0.1,0,0.2,0,0.3,0c1.8-0.2,3-1.8,2.9-3.5C142.1,60.7,139.6,30.8,138.5,28.4 M122.6-0.7c-5.3,0-9.6,4.3-9.6,9.6
					c0,5.3,4.3,9.5,9.6,9.5c5.3,0,9.5-4.3,9.5-9.5C132.2,3.6,127.9-0.7,122.6-0.7"/>
				<path class="st11" d="M296.5,28.4c-2.3-4.8-6-7.7-14.9-7.7h-0.9h-0.9c-8.9,0-12.6,2.9-14.9,7.7c-1.2,2.4-3.6,32.4-3.6,32.4
					c-0.2,1.8,1.1,3.4,2.9,3.5c0.1,0,0.2,0,0.3,0c1.6,0,3-1.2,3.2-2.9l2.5-26l0.6,20.2l-1.8,22.9c-0.1,2.1,1.4,3.9,3.5,4
					c0.1,0,0.2,0,0.3,0h16c0.1,0,0.2,0,0.3,0c2.1-0.1,3.6-1.9,3.5-4l-1.8-22.9l0.6-20.2l2.5,26c0.2,1.6,1.6,2.9,3.2,2.9
					c0.1,0,0.2,0,0.3,0c1.8-0.2,3-1.8,2.9-3.5C300.1,60.7,297.7,30.8,296.5,28.4 M280.7-0.7c-5.3,0-9.6,4.3-9.6,9.6
					c0,5.3,4.3,9.5,9.6,9.5c5.3,0,9.5-4.3,9.5-9.5C290.2,3.6,286-0.7,280.7-0.7"/>
				<path class="st11" d="M178,28.4c-2.3-4.8-6-7.7-14.9-7.7h-0.9h-0.9c-8.9,0-12.6,2.9-14.9,7.7c-1.2,2.4-3.6,32.4-3.6,32.4
					c-0.2,1.8,1.1,3.4,2.9,3.5c0.1,0,0.2,0,0.3,0c1.6,0,3-1.2,3.2-2.9l2.5-26l0.6,20.2l-1.8,22.9c-0.1,2.1,1.4,3.9,3.5,4
					c0.1,0,0.2,0,0.3,0h16c0.1,0,0.2,0,0.3,0c2.1-0.1,3.6-1.9,3.5-4l-1.8-22.9l0.6-20.2l2.5,26c0.2,1.6,1.6,2.9,3.2,2.9
					c0.1,0,0.2,0,0.3,0c1.8-0.2,3-1.8,2.9-3.5C181.6,60.7,179.1,30.8,178,28.4 M162.2-0.7c-5.3,0-9.6,4.3-9.6,9.6
					c0,5.3,4.3,9.5,9.6,9.5c5.3,0,9.5-4.3,9.5-9.5C171.7,3.6,167.4-0.7,162.2-0.7"/>
				<path class="st11" d="M336,28.4c-2.3-4.8-6-7.7-14.9-7.7h-0.9h-0.9c-8.9,0-12.6,2.9-14.9,7.7c-1.2,2.4-3.6,32.4-3.6,32.4
					c-0.2,1.8,1.1,3.4,2.9,3.5c0.1,0,0.2,0,0.3,0c1.6,0,3-1.2,3.2-2.9l2.5-26l0.6,20.2l-1.8,22.9c-0.1,2.1,1.4,3.9,3.5,4
					c0.1,0,0.2,0,0.3,0h16c0.1,0,0.2,0,0.3,0c2.1-0.1,3.6-1.9,3.5-4l-1.8-22.9l0.6-20.2l2.5,26c0.2,1.6,1.6,2.9,3.2,2.9
					c0.1,0,0.2,0,0.3,0c1.8-0.2,3-1.8,2.9-3.5C339.6,60.7,337.2,30.8,336,28.4 M320.2-0.7c-5.3,0-9.6,4.3-9.6,9.6
					c0,5.3,4.3,9.5,9.6,9.5c5.3,0,9.5-4.3,9.5-9.5C329.7,3.6,325.5-0.7,320.2-0.7"/>
				<path class="st11" d="M375.5,28.4c-2.3-4.8-6-7.7-14.9-7.7h-0.9h-0.9c-8.9,0-12.6,2.9-14.9,7.7c-1.2,2.4-3.6,32.4-3.6,32.4
					c-0.2,1.8,1.1,3.4,2.9,3.5c0.1,0,0.2,0,0.3,0c1.6,0,3-1.2,3.2-2.9l2.5-26l0.6,20.2l-1.8,22.9c-0.1,2.1,1.4,3.9,3.5,4
					c0.1,0,0.2,0,0.3,0h16c0.1,0,0.2,0,0.3,0c2.1-0.1,3.6-1.9,3.5-4l-1.8-22.9l0.6-20.2l2.5,26c0.2,1.6,1.6,2.9,3.2,2.9
					c0.1,0,0.2,0,0.3,0c1.8-0.2,3-1.8,2.9-3.5C379.2,60.7,376.7,30.8,375.5,28.4 M359.7-0.7c-5.3,0-9.6,4.3-9.6,9.6
					c0,5.3,4.3,9.5,9.6,9.5c5.3,0,9.5-4.3,9.5-9.5C369.3,3.6,365-0.7,359.7-0.7"/>
				<path class="st11" d="M691.6,28.4c-2.3-4.8-6-7.7-14.9-7.7h-0.9h-0.9c-8.9,0-12.6,2.9-14.9,7.7c-1.2,2.4-3.6,32.4-3.6,32.4
					c-0.2,1.8,1.1,3.4,2.9,3.5c0.1,0,0.2,0,0.3,0c1.6,0,3-1.2,3.2-2.9l2.5-26l0.6,20.2L664,78.5c-0.1,2.1,1.4,3.9,3.5,4
					c0.1,0,0.2,0,0.3,0h16c0.1,0,0.2,0,0.3,0c2.1-0.1,3.6-1.9,3.5-4l-1.8-22.9l0.6-20.2l2.5,26c0.2,1.6,1.6,2.9,3.2,2.9
					c0.1,0,0.2,0,0.3,0c1.8-0.2,3-1.8,2.9-3.5C695.2,60.7,692.8,30.8,691.6,28.4 M675.8-0.7c-5.3,0-9.6,4.3-9.6,9.6
					c0,5.3,4.3,9.5,9.6,9.5c5.3,0,9.5-4.3,9.5-9.5C685.3,3.6,681.1-0.7,675.8-0.7"/>
				<path class="st11" d="M415,28.4c-2.3-4.8-6-7.7-14.9-7.7h-0.9h-0.9c-8.9,0-12.6,2.9-14.9,7.7c-1.2,2.4-3.6,32.4-3.6,32.4
					c-0.2,1.8,1.1,3.4,2.9,3.5c0.1,0,0.2,0,0.3,0c1.6,0,3-1.2,3.2-2.9l2.5-26l0.6,20.2l-1.8,22.9c-0.1,2.1,1.4,3.9,3.5,4
					c0.1,0,0.2,0,0.3,0h16c0.1,0,0.2,0,0.3,0c2.1-0.1,3.6-1.9,3.5-4l-1.8-22.9l0.6-20.2l2.5,26c0.2,1.6,1.6,2.9,3.2,2.9
					c0.1,0,0.2,0,0.3,0c1.8-0.2,3-1.8,2.9-3.5C418.7,60.7,416.2,30.8,415,28.4 M399.2-0.7c-5.3,0-9.6,4.3-9.6,9.6
					c0,5.3,4.3,9.5,9.6,9.5c5.3,0,9.5-4.3,9.5-9.5C408.8,3.6,404.5-0.7,399.2-0.7"/>
				<path class="st11" d="M731.1,28.4c-2.3-4.8-6-7.7-14.9-7.7h-0.9h-0.9c-8.9,0-12.6,2.9-14.9,7.7c-1.2,2.4-3.6,32.4-3.6,32.4
					c-0.2,1.8,1.1,3.4,2.9,3.5c0.1,0,0.2,0,0.3,0c1.6,0,3-1.2,3.2-2.9l2.5-26l0.6,20.2l-1.8,22.9c-0.1,2.1,1.4,3.9,3.5,4
					c0.1,0,0.2,0,0.3,0h16c0.1,0,0.2,0,0.3,0c2.1-0.1,3.6-1.9,3.5-4l-1.8-22.9l0.6-20.2l2.5,26c0.2,1.6,1.6,2.9,3.2,2.9
					c0.1,0,0.2,0,0.3,0c1.8-0.2,3-1.8,2.9-3.5C734.7,60.7,732.3,30.8,731.1,28.4 M715.3-0.7c-5.3,0-9.6,4.3-9.6,9.6
					c0,5.3,4.3,9.5,9.6,9.5c5.3,0,9.5-4.3,9.5-9.5C724.9,3.6,720.6-0.7,715.3-0.7"/>
				<path class="st11" d="M454.5,28.4c-2.3-4.8-6-7.7-14.9-7.7h-0.9h-0.9c-8.9,0-12.6,2.9-14.9,7.7c-1.2,2.4-3.6,32.4-3.6,32.4
					c-0.2,1.8,1.1,3.4,2.9,3.5c0.1,0,0.2,0,0.3,0c1.6,0,3-1.2,3.2-2.9l2.5-26l0.6,20.2L427,78.5c-0.1,2.1,1.4,3.9,3.5,4
					c0.1,0,0.2,0,0.3,0h16c0.1,0,0.2,0,0.3,0c2.1-0.1,3.6-1.9,3.5-4l-1.8-22.9l0.6-20.2l2.5,26c0.2,1.6,1.6,2.9,3.2,2.9
					c0.1,0,0.2,0,0.3,0c1.8-0.2,3-1.8,2.9-3.5C458.2,60.7,455.7,30.8,454.5,28.4 M438.7-0.7c-5.3,0-9.6,4.3-9.6,9.6
					c0,5.3,4.3,9.5,9.6,9.5c5.3,0,9.5-4.3,9.5-9.5C448.3,3.6,444-0.7,438.7-0.7"/>
				<path class="st11" d="M770.6,28.4c-2.3-4.8-6-7.7-14.9-7.7h-0.9h-0.9c-8.9,0-12.6,2.9-14.9,7.7c-1.2,2.4-3.6,32.4-3.6,32.4
					c-0.2,1.8,1.1,3.4,2.9,3.5c0.1,0,0.2,0,0.3,0c1.6,0,3-1.2,3.2-2.9l2.5-26l0.6,20.2L743,78.5c-0.1,2.1,1.4,3.9,3.5,4
					c0.1,0,0.2,0,0.3,0h16c0.1,0,0.2,0,0.3,0c2.1-0.1,3.6-1.9,3.5-4l-1.8-22.9l0.6-20.2l2.5,26c0.2,1.6,1.6,2.9,3.2,2.9
					c0.1,0,0.2,0,0.3,0c1.8-0.2,3-1.8,2.9-3.5C774.3,60.7,771.8,30.8,770.6,28.4 M754.8-0.7c-5.3,0-9.6,4.3-9.6,9.6
					c0,5.3,4.3,9.5,9.6,9.5c5.3,0,9.5-4.3,9.5-9.5C764.4,3.6,760.1-0.7,754.8-0.7"/>
				<path class="st11" d="M494.1,28.4c-2.3-4.8-6-7.7-14.9-7.7h-0.9h-0.9c-8.9,0-12.6,2.9-14.9,7.7c-1.2,2.4-3.6,32.4-3.6,32.4
					c-0.2,1.8,1.1,3.4,2.9,3.5c0.1,0,0.2,0,0.3,0c1.6,0,3-1.2,3.2-2.9l2.5-26l0.6,20.2l-1.8,22.9c-0.1,2.1,1.4,3.9,3.5,4
					c0.1,0,0.2,0,0.3,0h16c0.1,0,0.2,0,0.3,0c2.1-0.1,3.6-1.9,3.5-4l-1.8-22.9l0.6-20.2l2.5,26c0.2,1.6,1.6,2.9,3.2,2.9
					c0.1,0,0.2,0,0.3,0c1.8-0.2,3-1.8,2.9-3.5C497.7,60.7,495.2,30.8,494.1,28.4 M478.2-0.7c-5.3,0-9.6,4.3-9.6,9.6
					c0,5.3,4.3,9.5,9.6,9.5c5.3,0,9.5-4.3,9.5-9.5C487.8,3.6,483.5-0.7,478.2-0.7"/>
				<path class="st11" d="M533.6,28.4c-2.3-4.8-6-7.7-14.9-7.7h-0.9h-0.9c-8.9,0-12.6,2.9-14.9,7.7c-1.2,2.4-3.6,32.4-3.6,32.4
					c-0.2,1.8,1.1,3.4,2.9,3.5c0.1,0,0.2,0,0.3,0c1.6,0,3-1.2,3.2-2.9l2.5-26l0.6,20.2L506,78.5c-0.1,2.1,1.4,3.9,3.5,4
					c0.1,0,0.2,0,0.3,0h16c0.1,0,0.2,0,0.3,0c2.1-0.1,3.6-1.9,3.5-4l-1.8-22.9l0.6-20.2l2.5,26c0.2,1.6,1.6,2.9,3.2,2.9
					c0.1,0,0.2,0,0.3,0c1.8-0.2,3-1.8,2.9-3.5C537.2,60.7,534.7,30.8,533.6,28.4 M517.8-0.7c-5.3,0-9.6,4.3-9.6,9.6
					c0,5.3,4.3,9.5,9.6,9.5c5.3,0,9.5-4.3,9.5-9.5C527.3,3.6,523-0.7,517.8-0.7"/>
				<path class="st11" d="M573.1,28.4c-2.3-4.8-6-7.7-14.9-7.7h-0.9h-0.9c-8.9,0-12.6,2.9-14.9,7.7c-1.2,2.4-3.6,32.4-3.6,32.4
					c-0.2,1.8,1.1,3.4,2.9,3.5c0.1,0,0.2,0,0.3,0c1.6,0,3-1.2,3.2-2.9l2.5-26l0.6,20.2l-1.8,22.9c-0.1,2.1,1.4,3.9,3.5,4
					c0.1,0,0.2,0,0.3,0h16c0.1,0,0.2,0,0.3,0c2.1-0.1,3.6-1.9,3.5-4l-1.8-22.9l0.6-20.2l2.5,26c0.2,1.6,1.6,2.9,3.2,2.9
					c0.1,0,0.2,0,0.3,0c1.8-0.2,3-1.8,2.9-3.5C576.7,60.7,574.2,30.8,573.1,28.4 M557.3-0.7c-5.3,0-9.6,4.3-9.6,9.6
					c0,5.3,4.3,9.5,9.6,9.5c5.3,0,9.5-4.3,9.5-9.5C566.8,3.6,562.5-0.7,557.3-0.7"/>
				<path class="st11" d="M612.6,28.4c-2.3-4.8-6-7.7-14.9-7.7h-0.9h-0.9c-8.9,0-12.6,2.9-14.9,7.7c-1.2,2.4-3.6,32.4-3.6,32.4
					c-0.2,1.8,1.1,3.4,2.9,3.5c0.1,0,0.2,0,0.3,0c1.6,0,3-1.2,3.2-2.9l2.5-26l0.6,20.2L585,78.5c-0.1,2.1,1.4,3.9,3.5,4
					c0.1,0,0.2,0,0.3,0h16c0.1,0,0.2,0,0.3,0c2.1-0.1,3.6-1.9,3.5-4l-1.8-22.9l0.6-20.2l2.5,26c0.2,1.6,1.6,2.9,3.2,2.9
					c0.1,0,0.2,0,0.3,0c1.8-0.2,3-1.8,2.9-3.5C616.2,60.7,613.8,30.8,612.6,28.4 M596.8-0.7c-5.3,0-9.6,4.3-9.6,9.6
					c0,5.3,4.3,9.5,9.6,9.5c5.3,0,9.5-4.3,9.5-9.5C606.3,3.6,602-0.7,596.8-0.7"/>
				<path class="st11" d="M652.1,28.4c-2.3-4.8-6-7.7-14.9-7.7h-0.9h-0.9c-8.9,0-12.6,2.9-14.9,7.7c-1.2,2.4-3.6,32.4-3.6,32.4
					c-0.2,1.8,1.1,3.4,2.9,3.5c0.1,0,0.2,0,0.3,0c1.6,0,3-1.2,3.2-2.9l2.5-26l0.6,20.2l-1.8,22.9c-0.1,2.1,1.4,3.9,3.5,4
					c0.1,0,0.2,0,0.3,0h16c0.1,0,0.2,0,0.3,0c2.1-0.1,3.6-1.9,3.5-4l-1.8-22.9l0.6-20.2l2.5,26c0.2,1.6,1.6,2.9,3.2,2.9
					c0.1,0,0.2,0,0.3,0c1.8-0.2,3-1.8,2.9-3.5C655.7,60.7,653.3,30.8,652.1,28.4 M636.3-0.7c-5.3,0-9.6,4.3-9.6,9.6
					c0,5.3,4.3,9.5,9.6,9.5c5.3,0,9.5-4.3,9.5-9.5C645.8,3.6,641.6-0.7,636.3-0.7"/>
				<path class="st11" d="M59.4,185.7c-2.3-4.8-6-7.7-14.9-7.7h-0.9h-0.9c-8.9,0-12.6,2.9-14.9,7.7c-1.2,2.4-3.6,32.4-3.6,32.4
					c-0.2,1.8,1.1,3.4,2.9,3.5c0.1,0,0.2,0,0.3,0c1.6,0,3-1.2,3.2-2.9l2.5-26l0.6,20.2l-1.8,22.9c-0.1,2.1,1.4,3.9,3.5,4
					c0.1,0,0.2,0,0.3,0h16c0.1,0,0.2,0,0.3,0c2.1-0.1,3.6-1.9,3.5-4l-1.8-22.9l0.6-20.2l2.5,26c0.2,1.6,1.6,2.9,3.2,2.9
					c0.1,0,0.2,0,0.3,0c1.8-0.2,3-1.8,2.9-3.5C63.1,218.1,60.6,188.1,59.4,185.7 M43.6,156.6c-5.3,0-9.6,4.3-9.6,9.6
					c0,5.3,4.3,9.5,9.6,9.5c5.3,0,9.5-4.3,9.5-9.5C53.2,160.9,48.9,156.6,43.6,156.6"/>
				<path class="st11" d="M179.7,342.3c-2.3-4.8-6-7.7-14.9-7.7h-0.9H163c-8.9,0-12.6,2.9-14.9,7.7c-1.2,2.4-3.6,32.4-3.6,32.4
					c-0.2,1.8,1.1,3.4,2.9,3.5c0.1,0,0.2,0,0.3,0c1.6,0,3-1.2,3.2-2.9l2.5-26l0.6,20.2l-1.8,22.9c-0.1,2.1,1.4,3.9,3.5,4
					c0.1,0,0.2,0,0.3,0h16c0.1,0,0.2,0,0.3,0c2.1-0.1,3.6-1.9,3.5-4l-1.8-22.9l0.6-20.2l2.5,26c0.2,1.6,1.6,2.9,3.2,2.9
					c0.1,0,0.2,0,0.3,0c1.8-0.2,3-1.8,2.9-3.5C183.3,374.7,180.9,344.7,179.7,342.3 M163.9,313.3c-5.3,0-9.6,4.3-9.6,9.6
					c0,5.3,4.3,9.5,9.6,9.5c5.3,0,9.5-4.3,9.5-9.5C173.4,317.6,169.2,313.3,163.9,313.3"/>
				<path class="st11" d="M98.9,185.7c-2.3-4.8-6-7.7-14.9-7.7h-0.9h-0.9c-8.9,0-12.6,2.9-14.9,7.7c-1.2,2.4-3.6,32.4-3.6,32.4
					c-0.2,1.8,1.1,3.4,2.9,3.5c0.1,0,0.2,0,0.3,0c1.6,0,3-1.2,3.2-2.9l2.5-26l0.6,20.2l-1.8,22.9c-0.1,2.1,1.4,3.9,3.5,4
					c0.1,0,0.2,0,0.3,0h16c0.1,0,0.2,0,0.3,0c2.1-0.1,3.6-1.9,3.5-4l-1.8-22.9l0.6-20.2l2.5,26c0.2,1.6,1.6,2.9,3.2,2.9
					c0.1,0,0.2,0,0.3,0c1.8-0.2,3-1.8,2.9-3.5C102.6,218.1,100.1,188.1,98.9,185.7 M83.1,156.6c-5.3,0-9.6,4.3-9.6,9.6
					c0,5.3,4.3,9.5,9.6,9.5c5.3,0,9.5-4.3,9.5-9.5C92.7,160.9,88.4,156.6,83.1,156.6"/>
				<path class="st11" d="M138.5,185.7c-2.3-4.8-6-7.7-14.9-7.7h-0.9h-0.9c-8.9,0-12.6,2.9-14.9,7.7c-1.2,2.4-3.6,32.4-3.6,32.4
					c-0.2,1.8,1.1,3.4,2.9,3.5c0.1,0,0.2,0,0.3,0c1.6,0,3-1.2,3.2-2.9l2.5-26l0.6,20.2l-1.8,22.9c-0.1,2.1,1.4,3.9,3.5,4
					c0.1,0,0.2,0,0.3,0h16c0.1,0,0.2,0,0.3,0c2.1-0.1,3.6-1.9,3.5-4l-1.8-22.9l0.6-20.2l2.5,26c0.2,1.6,1.6,2.9,3.2,2.9
					c0.1,0,0.2,0,0.3,0c1.8-0.2,3-1.8,2.9-3.5C142.1,218.1,139.6,188.1,138.5,185.7 M122.6,156.6c-5.3,0-9.6,4.3-9.6,9.6
					c0,5.3,4.3,9.5,9.6,9.5c5.3,0,9.5-4.3,9.5-9.5C132.2,160.9,127.9,156.6,122.6,156.6"/>
				<path class="st11" d="M178,185.7c-2.3-4.8-6-7.7-14.9-7.7h-0.9h-0.9c-8.9,0-12.6,2.9-14.9,7.7c-1.2,2.4-3.6,32.4-3.6,32.4
					c-0.2,1.8,1.1,3.4,2.9,3.5c0.1,0,0.2,0,0.3,0c1.6,0,3-1.2,3.2-2.9l2.5-26l0.6,20.2l-1.8,22.9c-0.1,2.1,1.4,3.9,3.5,4
					c0.1,0,0.2,0,0.3,0h16c0.1,0,0.2,0,0.3,0c2.1-0.1,3.6-1.9,3.5-4l-1.8-22.9l0.6-20.2l2.5,26c0.2,1.6,1.6,2.9,3.2,2.9
					c0.1,0,0.2,0,0.3,0c1.8-0.2,3-1.8,2.9-3.5C181.6,218.1,179.1,188.1,178,185.7 M162.2,156.6c-5.3,0-9.6,4.3-9.6,9.6
					c0,5.3,4.3,9.5,9.6,9.5c5.3,0,9.5-4.3,9.5-9.5C171.7,160.9,167.4,156.6,162.2,156.6"/>
				<path class="st11" d="M691.6,185.7c-2.3-4.8-6-7.7-14.9-7.7h-0.9h-0.9c-8.9,0-12.6,2.9-14.9,7.7c-1.2,2.4-3.6,32.4-3.6,32.4
					c-0.2,1.8,1.1,3.4,2.9,3.5c0.1,0,0.2,0,0.3,0c1.6,0,3-1.2,3.2-2.9l2.5-26l0.6,20.2l-1.8,22.9c-0.1,2.1,1.4,3.9,3.5,4
					c0.1,0,0.2,0,0.3,0h16c0.1,0,0.2,0,0.3,0c2.1-0.1,3.6-1.9,3.5-4l-1.8-22.9l0.6-20.2l2.5,26c0.2,1.6,1.6,2.9,3.2,2.9
					c0.1,0,0.2,0,0.3,0c1.8-0.2,3-1.8,2.9-3.5C695.2,218.1,692.8,188.1,691.6,185.7 M675.8,156.6c-5.3,0-9.6,4.3-9.6,9.6
					c0,5.3,4.3,9.5,9.6,9.5c5.3,0,9.5-4.3,9.5-9.5C685.3,160.9,681.1,156.6,675.8,156.6"/>
				<path class="st11" d="M731.1,185.7c-2.3-4.8-6-7.7-14.9-7.7h-0.9h-0.9c-8.9,0-12.6,2.9-14.9,7.7c-1.2,2.4-3.6,32.4-3.6,32.4
					c-0.2,1.8,1.1,3.4,2.9,3.5c0.1,0,0.2,0,0.3,0c1.6,0,3-1.2,3.2-2.9l2.5-26l0.6,20.2l-1.8,22.9c-0.1,2.1,1.4,3.9,3.5,4
					c0.1,0,0.2,0,0.3,0h16c0.1,0,0.2,0,0.3,0c2.1-0.1,3.6-1.9,3.5-4l-1.8-22.9l0.6-20.2l2.5,26c0.2,1.6,1.6,2.9,3.2,2.9
					c0.1,0,0.2,0,0.3,0c1.8-0.2,3-1.8,2.9-3.5C734.7,218.1,732.3,188.1,731.1,185.7 M715.3,156.6c-5.3,0-9.6,4.3-9.6,9.6
					c0,5.3,4.3,9.5,9.6,9.5c5.3,0,9.5-4.3,9.5-9.5C724.9,160.9,720.6,156.6,715.3,156.6"/>
				<path class="st11" d="M770.6,185.7c-2.3-4.8-6-7.7-14.9-7.7h-0.9h-0.9c-8.9,0-12.6,2.9-14.9,7.7c-1.2,2.4-3.6,32.4-3.6,32.4
					c-0.2,1.8,1.1,3.4,2.9,3.5c0.1,0,0.2,0,0.3,0c1.6,0,3-1.2,3.2-2.9l2.5-26l0.6,20.2l-1.8,22.9c-0.1,2.1,1.4,3.9,3.5,4
					c0.1,0,0.2,0,0.3,0h16c0.1,0,0.2,0,0.3,0c2.1-0.1,3.6-1.9,3.5-4l-1.8-22.9l0.6-20.2l2.5,26c0.2,1.6,1.6,2.9,3.2,2.9
					c0.1,0,0.2,0,0.3,0c1.8-0.2,3-1.8,2.9-3.5C774.3,218.1,771.8,188.1,770.6,185.7 M754.8,156.6c-5.3,0-9.6,4.3-9.6,9.6
					c0,5.3,4.3,9.5,9.6,9.5c5.3,0,9.5-4.3,9.5-9.5C764.4,160.9,760.1,156.6,754.8,156.6"/>
				<path class="st11" d="M652.7,343.3c-2.3-4.8-6-7.7-14.9-7.7h-0.9H636c-8.9,0-12.6,2.9-14.9,7.7c-1.2,2.4-3.6,32.4-3.6,32.4
					c-0.2,1.8,1.1,3.4,2.9,3.5c0.1,0,0.2,0,0.3,0c1.6,0,3-1.2,3.2-2.9l2.5-26l0.6,20.2l-1.8,22.9c-0.1,2.1,1.4,3.9,3.5,4
					c0.1,0,0.2,0,0.3,0h16c0.1,0,0.2,0,0.3,0c2.1-0.1,3.6-1.9,3.5-4l-1.8-22.9l0.6-20.2l2.5,26c0.2,1.6,1.6,2.9,3.2,2.9
					c0.1,0,0.2,0,0.3,0c1.8-0.2,3-1.8,2.9-3.5C656.3,375.7,653.9,345.7,652.7,343.3 M636.9,314.3c-5.3,0-9.6,4.3-9.6,9.6
					c0,5.3,4.3,9.5,9.6,9.5c5.3,0,9.5-4.3,9.5-9.5C646.4,318.6,642.2,314.3,636.9,314.3"/>
				<path class="st11" d="M652.1,185.7c-2.3-4.8-6-7.7-14.9-7.7h-0.9h-0.9c-8.9,0-12.6,2.9-14.9,7.7c-1.2,2.4-3.6,32.4-3.6,32.4
					c-0.2,1.8,1.1,3.4,2.9,3.5c0.1,0,0.2,0,0.3,0c1.6,0,3-1.2,3.2-2.9l2.5-26l0.6,20.2l-1.8,22.9c-0.1,2.1,1.4,3.9,3.5,4
					c0.1,0,0.2,0,0.3,0h16c0.1,0,0.2,0,0.3,0c2.1-0.1,3.6-1.9,3.5-4l-1.8-22.9l0.6-20.2l2.5,26c0.2,1.6,1.6,2.9,3.2,2.9
					c0.1,0,0.2,0,0.3,0c1.8-0.2,3-1.8,2.9-3.5C655.7,218.1,653.3,188.1,652.1,185.7 M636.3,156.6c-5.3,0-9.6,4.3-9.6,9.6
					c0,5.3,4.3,9.5,9.6,9.5c5.3,0,9.5-4.3,9.5-9.5C645.8,160.9,641.6,156.6,636.3,156.6"/>
				<path class="st11" d="M39.8,106.9c-2.3-4.8-6-7.7-14.9-7.7h-0.9H23c-8.9,0-12.6,2.9-14.9,7.7c-1.2,2.4-3.6,32.4-3.6,32.4
					c-0.2,1.8,1.1,3.4,2.9,3.5c0.1,0,0.2,0,0.3,0c1.6,0,3-1.2,3.2-2.9l2.5-26l0.6,20.2L12.2,157c-0.1,2.1,1.4,3.9,3.5,4
					c0.1,0,0.2,0,0.3,0h16c0.1,0,0.2,0,0.3,0c2.1-0.1,3.6-1.9,3.5-4l-1.8-22.9l0.6-20.2l2.5,26c0.2,1.6,1.6,2.9,3.2,2.9
					c0.1,0,0.2,0,0.3,0c1.8-0.2,3-1.8,2.9-3.5C43.4,139.3,40.9,109.3,39.8,106.9 M24,77.9c-5.3,0-9.6,4.3-9.6,9.6
					c0,5.3,4.3,9.5,9.6,9.5c5.3,0,9.5-4.3,9.5-9.5C33.5,82.2,29.2,77.9,24,77.9"/>
				<path class="st11" d="M79.3,106.9c-2.3-4.8-6-7.7-14.9-7.7h-0.9h-0.9c-8.9,0-12.6,2.9-14.9,7.7c-1.2,2.4-3.6,32.4-3.6,32.4
					c-0.2,1.8,1.1,3.4,2.9,3.5c0.1,0,0.2,0,0.3,0c1.6,0,3-1.2,3.2-2.9l2.5-26l0.6,20.2L51.7,157c-0.1,2.1,1.4,3.9,3.5,4
					c0.1,0,0.2,0,0.3,0h16c0.1,0,0.2,0,0.3,0c2.1-0.1,3.6-1.9,3.5-4l-1.8-22.9l0.6-20.2l2.5,26c0.2,1.6,1.6,2.9,3.2,2.9
					c0.1,0,0.2,0,0.3,0c1.8-0.2,3-1.8,2.9-3.5C82.9,139.3,80.4,109.3,79.3,106.9 M63.5,77.9c-5.3,0-9.6,4.3-9.6,9.6
					c0,5.3,4.3,9.5,9.6,9.5c5.3,0,9.5-4.3,9.5-9.5C73,82.2,68.7,77.9,63.5,77.9"/>
				<path class="st11" d="M237.3,106.9c-2.3-4.8-6-7.7-14.9-7.7h-0.9h-0.9c-8.9,0-12.6,2.9-14.9,7.7c-1.2,2.4-3.6,32.4-3.6,32.4
					c-0.2,1.8,1.1,3.4,2.9,3.5c0.1,0,0.2,0,0.3,0c1.6,0,3-1.2,3.2-2.9l2.5-26l0.6,20.2l-1.8,22.9c-0.1,2.1,1.4,3.9,3.5,4
					c0.1,0,0.2,0,0.3,0h16c0.1,0,0.2,0,0.3,0c2.1-0.1,3.6-1.9,3.5-4l-1.8-22.9l0.6-20.2l2.5,26c0.2,1.6,1.6,2.9,3.2,2.9
					c0.1,0,0.2,0,0.3,0c1.8-0.2,3-1.8,2.9-3.5C240.9,139.3,238.5,109.3,237.3,106.9 M221.5,77.9c-5.3,0-9.6,4.3-9.6,9.6
					c0,5.3,4.3,9.5,9.6,9.5c5.3,0,9.5-4.3,9.5-9.5C231.1,82.2,226.8,77.9,221.5,77.9"/>
				<path class="st11" d="M118.8,106.9c-2.3-4.8-6-7.7-14.9-7.7H103H102c-8.9,0-12.6,2.9-14.9,7.7c-1.2,2.4-3.6,32.4-3.6,32.4
					c-0.2,1.8,1.1,3.4,2.9,3.5c0.1,0,0.2,0,0.3,0c1.6,0,3-1.2,3.2-2.9l2.5-26l0.6,20.2L91.2,157c-0.1,2.1,1.4,3.9,3.5,4
					c0.1,0,0.2,0,0.3,0h16c0.1,0,0.2,0,0.3,0c2.1-0.1,3.6-1.9,3.5-4l-1.8-22.9l0.6-20.2l2.5,26c0.2,1.6,1.6,2.9,3.2,2.9
					c0.1,0,0.2,0,0.3,0c1.8-0.2,3-1.8,2.9-3.5C122.4,139.3,119.9,109.3,118.8,106.9 M103,77.9c-5.3,0-9.6,4.3-9.6,9.6
					c0,5.3,4.3,9.5,9.6,9.5c5.3,0,9.5-4.3,9.5-9.5C112.5,82.2,108.2,77.9,103,77.9"/>
				<path class="st11" d="M276.8,106.9c-2.3-4.8-6-7.7-14.9-7.7H261h-0.9c-8.9,0-12.6,2.9-14.9,7.7c-1.2,2.4-3.6,32.4-3.6,32.4
					c-0.2,1.8,1.1,3.4,2.9,3.5c0.1,0,0.2,0,0.3,0c1.6,0,3-1.2,3.2-2.9l2.5-26l0.6,20.2l-1.8,22.9c-0.1,2.1,1.4,3.9,3.5,4
					c0.1,0,0.2,0,0.3,0h16c0.1,0,0.2,0,0.3,0c2.1-0.1,3.6-1.9,3.5-4l-1.8-22.9l0.6-20.2l2.5,26c0.2,1.6,1.6,2.9,3.2,2.9
					c0.1,0,0.2,0,0.3,0c1.8-0.2,3-1.8,2.9-3.5C280.5,139.3,278,109.3,276.8,106.9 M261,77.9c-5.3,0-9.6,4.3-9.6,9.6
					c0,5.3,4.3,9.5,9.6,9.5c5.3,0,9.5-4.3,9.5-9.5C270.6,82.2,266.3,77.9,261,77.9"/>
				<path class="st11" d="M158.3,106.9c-2.3-4.8-6-7.7-14.9-7.7h-0.9h-0.9c-8.9,0-12.6,2.9-14.9,7.7c-1.2,2.4-3.6,32.4-3.6,32.4
					c-0.2,1.8,1.1,3.4,2.9,3.5c0.1,0,0.2,0,0.3,0c1.6,0,3-1.2,3.2-2.9l2.5-26l0.6,20.2l-1.8,22.9c-0.1,2.1,1.4,3.9,3.5,4
					c0.1,0,0.2,0,0.3,0h16c0.1,0,0.2,0,0.3,0c2.1-0.1,3.6-1.9,3.5-4l-1.8-22.9l0.6-20.2l2.5,26c0.2,1.6,1.6,2.9,3.2,2.9
					c0.1,0,0.2,0,0.3,0c1.8-0.2,3-1.8,2.9-3.5C161.9,139.3,159.5,109.3,158.3,106.9 M142.5,77.9c-5.3,0-9.6,4.3-9.6,9.6
					c0,5.3,4.3,9.5,9.6,9.5c5.3,0,9.5-4.3,9.5-9.5C152,82.2,147.8,77.9,142.5,77.9"/>
				<path class="st11" d="M316.3,106.9c-2.3-4.8-6-7.7-14.9-7.7h-0.9h-0.9c-8.9,0-12.6,2.9-14.9,7.7c-1.2,2.4-3.6,32.4-3.6,32.4
					c-0.2,1.8,1.1,3.4,2.9,3.5c0.1,0,0.2,0,0.3,0c1.6,0,3-1.2,3.2-2.9l2.5-26l0.6,20.2l-1.8,22.9c-0.1,2.1,1.4,3.9,3.5,4
					c0.1,0,0.2,0,0.3,0h16c0.1,0,0.2,0,0.3,0c2.1-0.1,3.6-1.9,3.5-4l-1.8-22.9l0.6-20.2l2.5,26c0.2,1.6,1.6,2.9,3.2,2.9
					c0.1,0,0.2,0,0.3,0c1.8-0.2,3-1.8,2.9-3.5C320,139.3,317.5,109.3,316.3,106.9 M300.5,77.9c-5.3,0-9.6,4.3-9.6,9.6
					c0,5.3,4.3,9.5,9.6,9.5c5.3,0,9.5-4.3,9.5-9.5C310.1,82.2,305.8,77.9,300.5,77.9"/>
				<path class="st11" d="M197.8,106.9c-2.3-4.8-6-7.7-14.9-7.7H182h-0.9c-8.9,0-12.6,2.9-14.9,7.7c-1.2,2.4-3.6,32.4-3.6,32.4
					c-0.2,1.8,1.1,3.4,2.9,3.5c0.1,0,0.2,0,0.3,0c1.6,0,3-1.2,3.2-2.9l2.5-26l0.6,20.2l-1.8,22.9c-0.1,2.1,1.4,3.9,3.5,4
					c0.1,0,0.2,0,0.3,0h16c0.1,0,0.2,0,0.3,0c2.1-0.1,3.6-1.9,3.5-4l-1.8-22.9l0.6-20.2l2.5,26c0.2,1.6,1.6,2.9,3.2,2.9
					c0.1,0,0.2,0,0.3,0c1.8-0.2,3-1.8,2.9-3.5C201.4,139.3,199,109.3,197.8,106.9 M182,77.9c-5.3,0-9.6,4.3-9.6,9.6
					c0,5.3,4.3,9.5,9.6,9.5c5.3,0,9.5-4.3,9.5-9.5C191.5,82.2,187.3,77.9,182,77.9"/>
				<path class="st11" d="M355.8,106.9c-2.3-4.8-6-7.7-14.9-7.7H340h-0.9c-8.9,0-12.6,2.9-14.9,7.7c-1.2,2.4-3.6,32.4-3.6,32.4
					c-0.2,1.8,1.1,3.4,2.9,3.5c0.1,0,0.2,0,0.3,0c1.6,0,3-1.2,3.2-2.9l2.5-26l0.6,20.2l-1.8,22.9c-0.1,2.1,1.4,3.9,3.5,4
					c0.1,0,0.2,0,0.3,0h16c0.1,0,0.2,0,0.3,0c2.1-0.1,3.6-1.9,3.5-4l-1.8-22.9l0.6-20.2l2.5,26c0.2,1.6,1.6,2.9,3.2,2.9
					c0.1,0,0.2,0,0.3,0c1.8-0.2,3-1.8,2.9-3.5C359.5,139.3,357,109.3,355.8,106.9 M340,77.9c-5.3,0-9.6,4.3-9.6,9.6
					c0,5.3,4.3,9.5,9.6,9.5c5.3,0,9.5-4.3,9.5-9.5C349.6,82.2,345.3,77.9,340,77.9"/>
				<path class="st11" d="M395.4,106.9c-2.3-4.8-6-7.7-14.9-7.7h-0.9h-0.9c-8.9,0-12.6,2.9-14.9,7.7c-1.2,2.4-3.6,32.4-3.6,32.4
					c-0.2,1.8,1.1,3.4,2.9,3.5c0.1,0,0.2,0,0.3,0c1.6,0,3-1.2,3.2-2.9l2.5-26l0.6,20.2l-1.8,22.9c-0.1,2.1,1.4,3.9,3.5,4
					c0.1,0,0.2,0,0.3,0h16c0.1,0,0.2,0,0.3,0c2.1-0.1,3.6-1.9,3.5-4l-1.8-22.9l0.6-20.2l2.5,26c0.2,1.6,1.6,2.9,3.2,2.9
					c0.1,0,0.2,0,0.3,0c1.8-0.2,3-1.8,2.9-3.5C399,139.3,396.5,109.3,395.4,106.9 M379.5,77.9c-5.3,0-9.6,4.3-9.6,9.6
					c0,5.3,4.3,9.5,9.6,9.5c5.3,0,9.5-4.3,9.5-9.5C389.1,82.2,384.8,77.9,379.5,77.9"/>
				<path class="st11" d="M750.9,106.9c-2.3-4.8-6-7.7-14.9-7.7h-0.9h-0.9c-8.9,0-12.6,2.9-14.9,7.7c-1.2,2.4-3.6,32.4-3.6,32.4
					c-0.2,1.8,1.1,3.4,2.9,3.5c0.1,0,0.2,0,0.3,0c1.6,0,3-1.2,3.2-2.9l2.5-26l0.6,20.2l-1.8,22.9c-0.1,2.1,1.4,3.9,3.5,4
					c0.1,0,0.2,0,0.3,0h16c0.1,0,0.2,0,0.3,0c2.1-0.1,3.6-1.9,3.5-4l-1.8-22.9l0.6-20.2l2.5,26c0.2,1.6,1.6,2.9,3.2,2.9
					c0.1,0,0.2,0,0.3,0c1.8-0.2,3-1.8,2.9-3.5C754.6,139.3,752.1,109.3,750.9,106.9 M735.1,77.9c-5.3,0-9.6,4.3-9.6,9.6
					c0,5.3,4.3,9.5,9.6,9.5c5.3,0,9.5-4.3,9.5-9.5C744.7,82.2,740.4,77.9,735.1,77.9"/>
				<path class="st11" d="M474.4,106.9c-2.3-4.8-6-7.7-14.9-7.7h-0.9h-0.9c-8.9,0-12.6,2.9-14.9,7.7c-1.2,2.4-3.6,32.4-3.6,32.4
					c-0.2,1.8,1.1,3.4,2.9,3.5c0.1,0,0.2,0,0.3,0c1.6,0,3-1.2,3.2-2.9l2.5-26l0.6,20.2l-1.8,22.9c-0.1,2.1,1.4,3.9,3.5,4
					c0.1,0,0.2,0,0.3,0h16c0.1,0,0.2,0,0.3,0c2.1-0.1,3.6-1.9,3.5-4l-1.8-22.9l0.6-20.2l2.5,26c0.2,1.6,1.6,2.9,3.2,2.9
					c0.1,0,0.2,0,0.3,0c1.8-0.2,3-1.8,2.9-3.5C478,139.3,475.5,109.3,474.4,106.9 M458.6,77.9c-5.3,0-9.6,4.3-9.6,9.6
					c0,5.3,4.3,9.5,9.6,9.5c5.3,0,9.5-4.3,9.5-9.5C468.1,82.2,463.8,77.9,458.6,77.9"/>
				<path class="st11" d="M790.5,106.9c-2.3-4.8-6-7.7-14.9-7.7h-0.9h-0.9c-8.9,0-12.6,2.9-14.9,7.7c-1.2,2.4-3.6,32.4-3.6,32.4
					c-0.2,1.8,1.1,3.4,2.9,3.5c0.1,0,0.2,0,0.3,0c1.6,0,3-1.2,3.2-2.9l2.5-26l0.6,20.2l-1.8,22.9c-0.1,2.1,1.4,3.9,3.5,4
					c0.1,0,0.2,0,0.3,0h16c0.1,0,0.2,0,0.3,0c2.1-0.1,3.6-1.9,3.5-4l-1.8-22.9l0.6-20.2l2.5,26c0.2,1.6,1.6,2.9,3.2,2.9
					c0.1,0,0.2,0,0.3,0c1.8-0.2,3-1.8,2.9-3.5C794.1,139.3,791.6,109.3,790.5,106.9 M774.7,77.9c-5.3,0-9.6,4.3-9.6,9.6
					c0,5.3,4.3,9.5,9.6,9.5c5.3,0,9.5-4.3,9.5-9.5C784.2,82.2,779.9,77.9,774.7,77.9"/>
				<path class="st11" d="M513.9,106.9c-2.3-4.8-6-7.7-14.9-7.7h-0.9h-0.9c-8.9,0-12.6,2.9-14.9,7.7c-1.2,2.4-3.6,32.4-3.6,32.4
					c-0.2,1.8,1.1,3.4,2.9,3.5c0.1,0,0.2,0,0.3,0c1.6,0,3-1.2,3.2-2.9l2.5-26l0.6,20.2l-1.8,22.9c-0.1,2.1,1.4,3.9,3.5,4
					c0.1,0,0.2,0,0.3,0h16c0.1,0,0.2,0,0.3,0c2.1-0.1,3.6-1.9,3.5-4l-1.8-22.9l0.6-20.2l2.5,26c0.2,1.6,1.6,2.9,3.2,2.9
					c0.1,0,0.2,0,0.3,0c1.8-0.2,3-1.8,2.9-3.5C517.5,139.3,515.1,109.3,513.9,106.9 M498.1,77.9c-5.3,0-9.6,4.3-9.6,9.6
					c0,5.3,4.3,9.5,9.6,9.5c5.3,0,9.5-4.3,9.5-9.5C507.6,82.2,503.4,77.9,498.1,77.9"/>
				<path class="st11" d="M553.4,106.9c-2.3-4.8-6-7.7-14.9-7.7h-0.9h-0.9c-8.9,0-12.6,2.9-14.9,7.7c-1.2,2.4-3.6,32.4-3.6,32.4
					c-0.2,1.8,1.1,3.4,2.9,3.5c0.1,0,0.2,0,0.3,0c1.6,0,3-1.2,3.2-2.9l2.5-26l0.6,20.2l-1.8,22.9c-0.1,2.1,1.4,3.9,3.5,4
					c0.1,0,0.2,0,0.3,0h16c0.1,0,0.2,0,0.3,0c2.1-0.1,3.6-1.9,3.5-4l-1.8-22.9l0.6-20.2l2.5,26c0.2,1.6,1.6,2.9,3.2,2.9
					c0.1,0,0.2,0,0.3,0c1.8-0.2,3-1.8,2.9-3.5C557,139.3,554.6,109.3,553.4,106.9 M537.6,77.9c-5.3,0-9.6,4.3-9.6,9.6
					c0,5.3,4.3,9.5,9.6,9.5c5.3,0,9.5-4.3,9.5-9.5C547.1,82.2,542.9,77.9,537.6,77.9"/>
				<path class="st11" d="M592.9,106.9c-2.3-4.8-6-7.7-14.9-7.7h-0.9h-0.9c-8.9,0-12.6,2.9-14.9,7.7c-1.2,2.4-3.6,32.4-3.6,32.4
					c-0.2,1.8,1.1,3.4,2.9,3.5c0.1,0,0.2,0,0.3,0c1.6,0,3-1.2,3.2-2.9l2.5-26l0.6,20.2l-1.8,22.9c-0.1,2.1,1.4,3.9,3.5,4
					c0.1,0,0.2,0,0.3,0h16c0.1,0,0.2,0,0.3,0c2.1-0.1,3.6-1.9,3.5-4l-1.8-22.9l0.6-20.2l2.5,26c0.2,1.6,1.6,2.9,3.2,2.9
					c0.1,0,0.2,0,0.3,0c1.8-0.2,3-1.8,2.9-3.5C596.5,139.3,594.1,109.3,592.9,106.9 M577.1,77.9c-5.3,0-9.6,4.3-9.6,9.6
					c0,5.3,4.3,9.5,9.6,9.5c5.3,0,9.5-4.3,9.5-9.5C586.6,82.2,582.4,77.9,577.1,77.9"/>
				<path class="st11" d="M632.4,106.9c-2.3-4.8-6-7.7-14.9-7.7h-0.9h-0.9c-8.9,0-12.6,2.9-14.9,7.7c-1.2,2.4-3.6,32.4-3.6,32.4
					c-0.2,1.8,1.1,3.4,2.9,3.5c0.1,0,0.2,0,0.3,0c1.6,0,3-1.2,3.2-2.9l2.5-26l0.6,20.2l-1.8,22.9c-0.1,2.1,1.4,3.9,3.5,4
					c0.1,0,0.2,0,0.3,0h16c0.1,0,0.2,0,0.3,0c2.1-0.1,3.6-1.9,3.5-4l-1.8-22.9l0.6-20.2l2.5,26c0.2,1.6,1.6,2.9,3.2,2.9
					c0.1,0,0.2,0,0.3,0c1.8-0.2,3-1.8,2.9-3.5C636.1,139.3,633.6,109.3,632.4,106.9 M616.6,77.9c-5.3,0-9.6,4.3-9.6,9.6
					c0,5.3,4.3,9.5,9.6,9.5c5.3,0,9.5-4.3,9.5-9.5C626.2,82.2,621.9,77.9,616.6,77.9"/>
				<path class="st11" d="M671.9,106.9c-2.3-4.8-6-7.7-14.9-7.7h-0.9h-0.9c-8.9,0-12.6,2.9-14.9,7.7c-1.2,2.4-3.6,32.4-3.6,32.4
					c-0.2,1.8,1.1,3.4,2.9,3.5c0.1,0,0.2,0,0.3,0c1.6,0,3-1.2,3.2-2.9l2.5-26l0.6,20.2l-1.8,22.9c-0.1,2.1,1.4,3.9,3.5,4
					c0.1,0,0.2,0,0.3,0h16c0.1,0,0.2,0,0.3,0c2.1-0.1,3.6-1.9,3.5-4l-1.8-22.9l0.6-20.2l2.5,26c0.2,1.6,1.6,2.9,3.2,2.9
					c0.1,0,0.2,0,0.3,0c1.8-0.2,3-1.8,2.9-3.5C675.6,139.3,673.1,109.3,671.9,106.9 M656.1,77.9c-5.3,0-9.6,4.3-9.6,9.6
					c0,5.3,4.3,9.5,9.6,9.5c5.3,0,9.5-4.3,9.5-9.5C665.7,82.2,661.4,77.9,656.1,77.9"/>
				<path class="st11" d="M434.9,106.9c-2.3-4.8-6-7.7-14.9-7.7H419h-0.9c-8.9,0-12.6,2.9-14.9,7.7c-1.2,2.4-3.6,32.4-3.6,32.4
					c-0.2,1.8,1.1,3.4,2.9,3.5c0.1,0,0.2,0,0.3,0c1.6,0,3-1.2,3.2-2.9l2.5-26l0.6,20.2l-1.8,22.9c-0.1,2.1,1.4,3.9,3.5,4
					c0.1,0,0.2,0,0.3,0h16c0.1,0,0.2,0,0.3,0c2.1-0.1,3.6-1.9,3.5-4l-1.8-22.9l0.6-20.2l2.5,26c0.2,1.6,1.6,2.9,3.2,2.9
					c0.1,0,0.2,0,0.3,0c1.8-0.2,3-1.8,2.9-3.5C438.5,139.3,436,109.3,434.9,106.9 M419.1,77.9c-5.3,0-9.6,4.3-9.6,9.6
					c0,5.3,4.3,9.5,9.6,9.5c5.3,0,9.5-4.3,9.5-9.5C428.6,82.2,424.3,77.9,419.1,77.9"/>
				<path class="st11" d="M711.4,106.9c-2.3-4.8-6-7.7-14.9-7.7h-0.9h-0.9c-8.9,0-12.6,2.9-14.9,7.7c-1.2,2.4-3.6,32.4-3.6,32.4
					c-0.2,1.8,1.1,3.4,2.9,3.5c0.1,0,0.2,0,0.3,0c1.6,0,3-1.2,3.2-2.9l2.5-26l0.6,20.2l-1.8,22.9c-0.1,2.1,1.4,3.9,3.5,4
					c0.1,0,0.2,0,0.3,0h16c0.1,0,0.2,0,0.3,0c2.1-0.1,3.6-1.9,3.5-4l-1.8-22.9l0.6-20.2l2.5,26c0.2,1.6,1.6,2.9,3.2,2.9
					c0.1,0,0.2,0,0.3,0c1.8-0.2,3-1.8,2.9-3.5C715.1,139.3,712.6,109.3,711.4,106.9 M695.6,77.9c-5.3,0-9.6,4.3-9.6,9.6
					c0,5.3,4.3,9.5,9.6,9.5c5.3,0,9.5-4.3,9.5-9.5C705.2,82.2,700.9,77.9,695.6,77.9"/>
				<path class="st11" d="M750.9,264.2c-2.3-4.8-6-7.7-14.9-7.7h-0.9h-0.9c-8.9,0-12.6,2.9-14.9,7.7c-1.2,2.4-3.6,32.4-3.6,32.4
					c-0.2,1.8,1.1,3.4,2.9,3.5c0.1,0,0.2,0,0.3,0c1.6,0,3-1.2,3.2-2.9l2.5-26l0.6,20.2l-1.8,22.9c-0.1,2.1,1.4,3.9,3.5,4
					c0.1,0,0.2,0,0.3,0h16c0.1,0,0.2,0,0.3,0c2.1-0.1,3.6-1.9,3.5-4l-1.8-22.9l0.6-20.2l2.5,26c0.2,1.6,1.6,2.9,3.2,2.9
					c0.1,0,0.2,0,0.3,0c1.8-0.2,3-1.8,2.9-3.5C754.6,296.6,752.1,266.6,750.9,264.2 M735.1,235.2c-5.3,0-9.6,4.3-9.6,9.6
					c0,5.3,4.3,9.5,9.6,9.5c5.3,0,9.5-4.3,9.5-9.5C744.7,239.5,740.4,235.2,735.1,235.2"/>
				<path class="st11" d="M40.7,264.2c-2.3-4.8-6-7.7-14.9-7.7h-0.9H24c-8.9,0-12.6,2.9-14.9,7.7c-1.2,2.4-3.6,32.4-3.6,32.4
					c-0.2,1.8,1.1,3.4,2.9,3.5c0.1,0,0.2,0,0.3,0c1.6,0,3-1.2,3.2-2.9l2.5-26l0.6,20.2l-1.8,22.9c-0.1,2.1,1.4,3.9,3.5,4
					c0.1,0,0.2,0,0.3,0h16c0.1,0,0.2,0,0.3,0c2.1-0.1,3.6-1.9,3.5-4l-1.8-22.9l0.6-20.2l2.5,26c0.2,1.6,1.6,2.9,3.2,2.9
					c0.1,0,0.2,0,0.3,0c1.8-0.2,3-1.8,2.9-3.5C44.3,296.6,41.9,266.6,40.7,264.2 M24.9,235.2c-5.3,0-9.6,4.3-9.6,9.6
					c0,5.3,4.3,9.5,9.6,9.5c5.3,0,9.5-4.3,9.5-9.5C34.4,239.5,30.2,235.2,24.9,235.2"/>
				<path class="st11" d="M790.5,264.2c-2.3-4.8-6-7.7-14.9-7.7h-0.9h-0.9c-8.9,0-12.6,2.9-14.9,7.7c-1.2,2.4-3.6,32.4-3.6,32.4
					c-0.2,1.8,1.1,3.4,2.9,3.5c0.1,0,0.2,0,0.3,0c1.6,0,3-1.2,3.2-2.9l2.5-26l0.6,20.2l-1.8,22.9c-0.1,2.1,1.4,3.9,3.5,4
					c0.1,0,0.2,0,0.3,0h16c0.1,0,0.2,0,0.3,0c2.1-0.1,3.6-1.9,3.5-4l-1.8-22.9l0.6-20.2l2.5,26c0.2,1.6,1.6,2.9,3.2,2.9
					c0.1,0,0.2,0,0.3,0c1.8-0.2,3-1.8,2.9-3.5C794.1,296.6,791.6,266.6,790.5,264.2 M774.7,235.2c-5.3,0-9.6,4.3-9.6,9.6
					c0,5.3,4.3,9.5,9.6,9.5c5.3,0,9.5-4.3,9.5-9.5C784.2,239.5,779.9,235.2,774.7,235.2"/>
				<path class="st11" d="M80.2,264.2c-2.3-4.8-6-7.7-14.9-7.7h-0.9h-0.9c-8.9,0-12.6,2.9-14.9,7.7c-1.2,2.4-3.6,32.4-3.6,32.4
					c-0.2,1.8,1.1,3.4,2.9,3.5c0.1,0,0.2,0,0.3,0c1.6,0,3-1.2,3.2-2.9l2.5-26l0.6,20.2l-1.8,22.9c-0.1,2.1,1.4,3.9,3.5,4
					c0.1,0,0.2,0,0.3,0h16c0.1,0,0.2,0,0.3,0c2.1-0.1,3.6-1.9,3.5-4l-1.8-22.9l0.6-20.2l2.5,26c0.2,1.6,1.6,2.9,3.2,2.9
					c0.1,0,0.2,0,0.3,0c1.8-0.2,3-1.8,2.9-3.5C83.8,296.6,81.4,266.6,80.2,264.2 M64.4,235.2c-5.3,0-9.6,4.3-9.6,9.6
					c0,5.3,4.3,9.5,9.6,9.5c5.3,0,9.5-4.3,9.5-9.5C74,239.5,69.7,235.2,64.4,235.2"/>
				<path class="st11" d="M119.7,264.2c-2.3-4.8-6-7.7-14.9-7.7h-0.9H103c-8.9,0-12.6,2.9-14.9,7.7c-1.2,2.4-3.6,32.4-3.6,32.4
					c-0.2,1.8,1.1,3.4,2.9,3.5c0.1,0,0.2,0,0.3,0c1.6,0,3-1.2,3.2-2.9l2.5-26l0.6,20.2l-1.8,22.9c-0.1,2.1,1.4,3.9,3.5,4
					c0.1,0,0.2,0,0.3,0h16c0.1,0,0.2,0,0.3,0c2.1-0.1,3.6-1.9,3.5-4l-1.8-22.9l0.6-20.2l2.5,26c0.2,1.6,1.6,2.9,3.2,2.9
					c0.1,0,0.2,0,0.3,0c1.8-0.2,3-1.8,2.9-3.5C123.4,296.6,120.9,266.6,119.7,264.2 M103.9,235.2c-5.3,0-9.6,4.3-9.6,9.6
					c0,5.3,4.3,9.5,9.6,9.5c5.3,0,9.5-4.3,9.5-9.5C113.5,239.5,109.2,235.2,103.9,235.2"/>
				<path class="st11" d="M159.2,264.2c-2.3-4.8-6-7.7-14.9-7.7h-0.9h-0.9c-8.9,0-12.6,2.9-14.9,7.7c-1.2,2.4-3.6,32.4-3.6,32.4
					c-0.2,1.8,1.1,3.4,2.9,3.5c0.1,0,0.2,0,0.3,0c1.6,0,3-1.2,3.2-2.9l2.5-26l0.6,20.2l-1.8,22.9c-0.1,2.1,1.4,3.9,3.5,4
					c0.1,0,0.2,0,0.3,0h16c0.1,0,0.2,0,0.3,0c2.1-0.1,3.6-1.9,3.5-4l-1.8-22.9l0.6-20.2l2.5,26c0.2,1.6,1.6,2.9,3.2,2.9
					c0.1,0,0.2,0,0.3,0c1.8-0.2,3-1.8,2.9-3.5C162.9,296.6,160.4,266.6,159.2,264.2 M143.4,235.2c-5.3,0-9.6,4.3-9.6,9.6
					c0,5.3,4.3,9.5,9.6,9.5c5.3,0,9.5-4.3,9.5-9.5C153,239.5,148.7,235.2,143.4,235.2"/>
				<path class="st11" d="M139.7,342.3c-2.3-4.8-6-7.7-14.9-7.7h-0.9H123c-8.9,0-12.6,2.9-14.9,7.7c-1.2,2.4-3.6,32.4-3.6,32.4
					c-0.2,1.8,1.1,3.4,2.9,3.5c0.1,0,0.2,0,0.3,0c1.6,0,3-1.2,3.2-2.9l2.5-26l0.6,20.2l-1.8,22.9c-0.1,2.1,1.4,3.9,3.5,4
					c0.1,0,0.2,0,0.3,0h16c0.1,0,0.2,0,0.3,0c2.1-0.1,3.6-1.9,3.5-4l-1.8-22.9l0.6-20.2l2.5,26c0.2,1.6,1.6,2.9,3.2,2.9
					c0.1,0,0.2,0,0.3,0c1.8-0.2,3-1.8,2.9-3.5C143.3,374.7,140.9,344.7,139.7,342.3 M123.9,313.3c-5.3,0-9.6,4.3-9.6,9.6
					c0,5.3,4.3,9.5,9.6,9.5c5.3,0,9.5-4.3,9.5-9.5C133.4,317.6,129.2,313.3,123.9,313.3"/>
				<path class="st11" d="M671.9,264.2c-2.3-4.8-6-7.7-14.9-7.7h-0.9h-0.9c-8.9,0-12.6,2.9-14.9,7.7c-1.2,2.4-3.6,32.4-3.6,32.4
					c-0.2,1.8,1.1,3.4,2.9,3.5c0.1,0,0.2,0,0.3,0c1.6,0,3-1.2,3.2-2.9l2.5-26l0.6,20.2l-1.8,22.9c-0.1,2.1,1.4,3.9,3.5,4
					c0.1,0,0.2,0,0.3,0h16c0.1,0,0.2,0,0.3,0c2.1-0.1,3.6-1.9,3.5-4l-1.8-22.9l0.6-20.2l2.5,26c0.2,1.6,1.6,2.9,3.2,2.9
					c0.1,0,0.2,0,0.3,0c1.8-0.2,3-1.8,2.9-3.5C675.6,296.6,673.1,266.6,671.9,264.2 M656.1,235.2c-5.3,0-9.6,4.3-9.6,9.6
					c0,5.3,4.3,9.5,9.6,9.5c5.3,0,9.5-4.3,9.5-9.5C665.7,239.5,661.4,235.2,656.1,235.2"/>
				<path class="st11" d="M711.4,264.2c-2.3-4.8-6-7.7-14.9-7.7h-0.9h-0.9c-8.9,0-12.6,2.9-14.9,7.7c-1.2,2.4-3.6,32.4-3.6,32.4
					c-0.2,1.8,1.1,3.4,2.9,3.5c0.1,0,0.2,0,0.3,0c1.6,0,3-1.2,3.2-2.9l2.5-26l0.6,20.2l-1.8,22.9c-0.1,2.1,1.4,3.9,3.5,4
					c0.1,0,0.2,0,0.3,0h16c0.1,0,0.2,0,0.3,0c2.1-0.1,3.6-1.9,3.5-4l-1.8-22.9l0.6-20.2l2.5,26c0.2,1.6,1.6,2.9,3.2,2.9
					c0.1,0,0.2,0,0.3,0c1.8-0.2,3-1.8,2.9-3.5C715.1,296.6,712.6,266.6,711.4,264.2 M695.6,235.2c-5.3,0-9.6,4.3-9.6,9.6
					c0,5.3,4.3,9.5,9.6,9.5c5.3,0,9.5-4.3,9.5-9.5C705.2,239.5,700.9,235.2,695.6,235.2"/>
				<path class="st11" d="M691.6,342.9c-2.3-4.8-6-7.7-14.9-7.7h-0.9h-0.9c-8.9,0-12.6,2.9-14.9,7.7c-1.2,2.4-3.6,32.4-3.6,32.4
					c-0.2,1.8,1.1,3.4,2.9,3.5c0.1,0,0.2,0,0.3,0c1.6,0,3-1.2,3.2-2.9l2.5-26l0.6,20.2L664,393c-0.1,2.1,1.4,3.9,3.5,4
					c0.1,0,0.2,0,0.3,0h16c0.1,0,0.2,0,0.3,0c2.1-0.1,3.6-1.9,3.5-4l-1.8-22.9l0.6-20.2l2.5,26c0.2,1.6,1.6,2.9,3.2,2.9
					c0.1,0,0.2,0,0.3,0c1.8-0.2,3-1.8,2.9-3.5C695.2,375.3,692.8,345.3,691.6,342.9 M675.8,313.9c-5.3,0-9.6,4.3-9.6,9.6
					c0,5.3,4.3,9.5,9.6,9.5c5.3,0,9.5-4.3,9.5-9.5C685.3,318.2,681.1,313.9,675.8,313.9"/>
				<path class="st11" d="M731.1,342.9c-2.3-4.8-6-7.7-14.9-7.7h-0.9h-0.9c-8.9,0-12.6,2.9-14.9,7.7c-1.2,2.4-3.6,32.4-3.6,32.4
					c-0.2,1.8,1.1,3.4,2.9,3.5c0.1,0,0.2,0,0.3,0c1.6,0,3-1.2,3.2-2.9l2.5-26l0.6,20.2l-1.8,22.9c-0.1,2.1,1.4,3.9,3.5,4
					c0.1,0,0.2,0,0.3,0h16c0.1,0,0.2,0,0.3,0c2.1-0.1,3.6-1.9,3.5-4l-1.8-22.9l0.6-20.2l2.5,26c0.2,1.6,1.6,2.9,3.2,2.9
					c0.1,0,0.2,0,0.3,0c1.8-0.2,3-1.8,2.9-3.5C734.7,375.3,732.3,345.3,731.1,342.9 M715.3,313.9c-5.3,0-9.6,4.3-9.6,9.6
					c0,5.3,4.3,9.5,9.6,9.5c5.3,0,9.5-4.3,9.5-9.5C724.9,318.2,720.6,313.9,715.3,313.9"/>
				<path class="st11" d="M770.6,342.9c-2.3-4.8-6-7.7-14.9-7.7h-0.9h-0.9c-8.9,0-12.6,2.9-14.9,7.7c-1.2,2.4-3.6,32.4-3.6,32.4
					c-0.2,1.8,1.1,3.4,2.9,3.5c0.1,0,0.2,0,0.3,0c1.6,0,3-1.2,3.2-2.9l2.5-26l0.6,20.2L743,393c-0.1,2.1,1.4,3.9,3.5,4
					c0.1,0,0.2,0,0.3,0h16c0.1,0,0.2,0,0.3,0c2.1-0.1,3.6-1.9,3.5-4l-1.8-22.9l0.6-20.2l2.5,26c0.2,1.6,1.6,2.9,3.2,2.9
					c0.1,0,0.2,0,0.3,0c1.8-0.2,3-1.8,2.9-3.5C774.3,375.3,771.8,345.3,770.6,342.9 M754.8,313.9c-5.3,0-9.6,4.3-9.6,9.6
					c0,5.3,4.3,9.5,9.6,9.5c5.3,0,9.5-4.3,9.5-9.5C764.4,318.2,760.1,313.9,754.8,313.9"/>
				<path class="st11" d="M60,342.9c-2.3-4.8-6-7.7-14.9-7.7h-0.9h-0.9c-8.9,0-12.6,2.9-14.9,7.7c-1.2,2.4-3.6,32.4-3.6,32.4
					c-0.2,1.8,1.1,3.4,2.9,3.5c0.1,0,0.2,0,0.3,0c1.6,0,3-1.2,3.2-2.9l2.5-26l0.6,20.2L32.4,393c-0.1,2.1,1.4,3.9,3.5,4
					c0.1,0,0.2,0,0.3,0h16c0.1,0,0.2,0,0.3,0c2.1-0.1,3.6-1.9,3.5-4l-1.8-22.9l0.6-20.2l2.5,26c0.2,1.6,1.6,2.9,3.2,2.9
					c0.1,0,0.2,0,0.3,0c1.8-0.2,3-1.8,2.9-3.5C63.6,375.3,61.2,345.3,60,342.9 M44.2,313.9c-5.3,0-9.6,4.3-9.6,9.6
					c0,5.3,4.3,9.5,9.6,9.5c5.3,0,9.5-4.3,9.5-9.5C53.7,318.2,49.5,313.9,44.2,313.9"/>
				<path class="st11" d="M99.5,342.9c-2.3-4.8-6-7.7-14.9-7.7h-0.9h-0.9c-8.9,0-12.6,2.9-14.9,7.7c-1.2,2.4-3.6,32.4-3.6,32.4
					c-0.2,1.8,1.1,3.4,2.9,3.5c0.1,0,0.2,0,0.3,0c1.6,0,3-1.2,3.2-2.9l2.5-26l0.6,20.2L71.9,393c-0.1,2.1,1.4,3.9,3.5,4
					c0.1,0,0.2,0,0.3,0h16c0.1,0,0.2,0,0.3,0c2.1-0.1,3.6-1.9,3.5-4l-1.8-22.9l0.6-20.2l2.5,26c0.2,1.6,1.6,2.9,3.2,2.9
					c0.1,0,0.2,0,0.3,0c1.8-0.2,3-1.8,2.9-3.5C103.1,375.3,100.7,345.3,99.5,342.9 M83.7,313.9c-5.3,0-9.6,4.3-9.6,9.6
					c0,5.3,4.3,9.5,9.6,9.5c5.3,0,9.5-4.3,9.5-9.5C93.3,318.2,89,313.9,83.7,313.9"/>
				<path class="st11" d="M59.4,500.2c-2.3-4.8-6-7.7-14.9-7.7h-0.9h-0.9c-8.9,0-12.6,2.9-14.9,7.7c-1.2,2.4-3.6,32.4-3.6,32.4
					c-0.2,1.8,1.1,3.3,2.9,3.5c0.1,0,0.2,0,0.3,0c1.6,0,3-1.2,3.2-2.9l2.5-26l0.6,20.2l-1.8,22.9c-0.1,2.1,1.4,3.9,3.5,4
					c0.1,0,0.2,0,0.3,0h16c0.1,0,0.2,0,0.3,0c2.1-0.1,3.6-1.9,3.5-4l-1.8-22.9l0.6-20.2l2.5,26c0.2,1.6,1.6,2.9,3.2,2.9
					c0.1,0,0.2,0,0.3,0c1.8-0.2,3-1.8,2.9-3.5C63.1,532.6,60.6,502.6,59.4,500.2 M43.6,471.2c-5.3,0-9.6,4.3-9.6,9.6
					c0,5.3,4.3,9.5,9.6,9.5c5.3,0,9.5-4.3,9.5-9.5C53.2,475.5,48.9,471.2,43.6,471.2"/>
				<path class="st11" d="M217.5,500.2c-2.3-4.8-6-7.7-14.9-7.7h-0.9h-0.9c-8.9,0-12.6,2.9-14.9,7.7c-1.2,2.4-3.6,32.4-3.6,32.4
					c-0.2,1.8,1.1,3.3,2.9,3.5c0.1,0,0.2,0,0.3,0c1.6,0,3-1.2,3.2-2.9l2.5-26l0.6,20.2l-1.8,22.9c-0.1,2.1,1.4,3.9,3.5,4
					c0.1,0,0.2,0,0.3,0h16c0.1,0,0.2,0,0.3,0c2.1-0.1,3.6-1.9,3.5-4l-1.8-22.9l0.6-20.2l2.5,26c0.2,1.6,1.6,2.9,3.2,2.9
					c0.1,0,0.2,0,0.3,0c1.8-0.2,3-1.8,2.9-3.5C221.1,532.6,218.6,502.6,217.5,500.2 M201.7,471.2c-5.3,0-9.6,4.3-9.6,9.6
					c0,5.3,4.3,9.5,9.6,9.5c5.3,0,9.5-4.3,9.5-9.5C211.2,475.5,206.9,471.2,201.7,471.2"/>
				<path class="st11" d="M98.9,500.2c-2.3-4.8-6-7.7-14.9-7.7h-0.9h-0.9c-8.9,0-12.6,2.9-14.9,7.7c-1.2,2.4-3.6,32.4-3.6,32.4
					c-0.2,1.8,1.1,3.3,2.9,3.5c0.1,0,0.2,0,0.3,0c1.6,0,3-1.2,3.2-2.9l2.5-26l0.6,20.2l-1.8,22.9c-0.1,2.1,1.4,3.9,3.5,4
					c0.1,0,0.2,0,0.3,0h16c0.1,0,0.2,0,0.3,0c2.1-0.1,3.6-1.9,3.5-4l-1.8-22.9l0.6-20.2l2.5,26c0.2,1.6,1.6,2.9,3.2,2.9
					c0.1,0,0.2,0,0.3,0c1.8-0.2,3-1.8,2.9-3.5C102.6,532.6,100.1,502.6,98.9,500.2 M83.1,471.2c-5.3,0-9.6,4.3-9.6,9.6
					c0,5.3,4.3,9.5,9.6,9.5c5.3,0,9.5-4.3,9.5-9.5C92.7,475.5,88.4,471.2,83.1,471.2"/>
				<path class="st11" d="M257,500.2c-2.3-4.8-6-7.7-14.9-7.7h-0.9h-0.9c-8.9,0-12.6,2.9-14.9,7.7c-1.2,2.4-3.6,32.4-3.6,32.4
					c-0.2,1.8,1.1,3.3,2.9,3.5c0.1,0,0.2,0,0.3,0c1.6,0,3-1.2,3.2-2.9l2.5-26l0.6,20.2l-1.8,22.9c-0.1,2.1,1.4,3.9,3.5,4
					c0.1,0,0.2,0,0.3,0h16c0.1,0,0.2,0,0.3,0c2.1-0.1,3.6-1.9,3.5-4l-1.8-22.9l0.6-20.2l2.5,26c0.2,1.6,1.6,2.9,3.2,2.9
					c0.1,0,0.2,0,0.3,0c1.8-0.2,3-1.8,2.9-3.5C260.6,532.6,258.2,502.6,257,500.2 M241.2,471.2c-5.3,0-9.6,4.3-9.6,9.6
					c0,5.3,4.3,9.5,9.6,9.5c5.3,0,9.5-4.3,9.5-9.5C250.7,475.5,246.5,471.2,241.2,471.2"/>
				<path class="st11" d="M138.5,500.2c-2.3-4.8-6-7.7-14.9-7.7h-0.9h-0.9c-8.9,0-12.6,2.9-14.9,7.7c-1.2,2.4-3.6,32.4-3.6,32.4
					c-0.2,1.8,1.1,3.3,2.9,3.5c0.1,0,0.2,0,0.3,0c1.6,0,3-1.2,3.2-2.9l2.5-26l0.6,20.2l-1.8,22.9c-0.1,2.1,1.4,3.9,3.5,4
					c0.1,0,0.2,0,0.3,0h16c0.1,0,0.2,0,0.3,0c2.1-0.1,3.6-1.9,3.5-4l-1.8-22.9l0.6-20.2l2.5,26c0.2,1.6,1.6,2.9,3.2,2.9
					c0.1,0,0.2,0,0.3,0c1.8-0.2,3-1.8,2.9-3.5C142.1,532.6,139.6,502.6,138.5,500.2 M122.6,471.2c-5.3,0-9.6,4.3-9.6,9.6
					c0,5.3,4.3,9.5,9.6,9.5c5.3,0,9.5-4.3,9.5-9.5C132.2,475.5,127.9,471.2,122.6,471.2"/>
				<path class="st11" d="M296.5,500.2c-2.3-4.8-6-7.7-14.9-7.7h-0.9h-0.9c-8.9,0-12.6,2.9-14.9,7.7c-1.2,2.4-3.6,32.4-3.6,32.4
					c-0.2,1.8,1.1,3.3,2.9,3.5c0.1,0,0.2,0,0.3,0c1.6,0,3-1.2,3.2-2.9l2.5-26l0.6,20.2l-1.8,22.9c-0.1,2.1,1.4,3.9,3.5,4
					c0.1,0,0.2,0,0.3,0h16c0.1,0,0.2,0,0.3,0c2.1-0.1,3.6-1.9,3.5-4l-1.8-22.9l0.6-20.2l2.5,26c0.2,1.6,1.6,2.9,3.2,2.9
					c0.1,0,0.2,0,0.3,0c1.8-0.2,3-1.8,2.9-3.5C300.1,532.6,297.7,502.6,296.5,500.2 M280.7,471.2c-5.3,0-9.6,4.3-9.6,9.6
					c0,5.3,4.3,9.5,9.6,9.5c5.3,0,9.5-4.3,9.5-9.5C290.2,475.5,286,471.2,280.7,471.2"/>
				<path class="st11" d="M178,500.2c-2.3-4.8-6-7.7-14.9-7.7h-0.9h-0.9c-8.9,0-12.6,2.9-14.9,7.7c-1.2,2.4-3.6,32.4-3.6,32.4
					c-0.2,1.8,1.1,3.3,2.9,3.5c0.1,0,0.2,0,0.3,0c1.6,0,3-1.2,3.2-2.9l2.5-26l0.6,20.2l-1.8,22.9c-0.1,2.1,1.4,3.9,3.5,4
					c0.1,0,0.2,0,0.3,0h16c0.1,0,0.2,0,0.3,0c2.1-0.1,3.6-1.9,3.5-4l-1.8-22.9l0.6-20.2l2.5,26c0.2,1.6,1.6,2.9,3.2,2.9
					c0.1,0,0.2,0,0.3,0c1.8-0.2,3-1.8,2.9-3.5C181.6,532.6,179.1,502.6,178,500.2 M162.2,471.2c-5.3,0-9.6,4.3-9.6,9.6
					c0,5.3,4.3,9.5,9.6,9.5c5.3,0,9.5-4.3,9.5-9.5C171.7,475.5,167.4,471.2,162.2,471.2"/>
				<path class="st11" d="M336,500.2c-2.3-4.8-6-7.7-14.9-7.7h-0.9h-0.9c-8.9,0-12.6,2.9-14.9,7.7c-1.2,2.4-3.6,32.4-3.6,32.4
					c-0.2,1.8,1.1,3.3,2.9,3.5c0.1,0,0.2,0,0.3,0c1.6,0,3-1.2,3.2-2.9l2.5-26l0.6,20.2l-1.8,22.9c-0.1,2.1,1.4,3.9,3.5,4
					c0.1,0,0.2,0,0.3,0h16c0.1,0,0.2,0,0.3,0c2.1-0.1,3.6-1.9,3.5-4l-1.8-22.9l0.6-20.2l2.5,26c0.2,1.6,1.6,2.9,3.2,2.9
					c0.1,0,0.2,0,0.3,0c1.8-0.2,3-1.8,2.9-3.5C339.6,532.6,337.2,502.6,336,500.2 M320.2,471.2c-5.3,0-9.6,4.3-9.6,9.6
					c0,5.3,4.3,9.5,9.6,9.5c5.3,0,9.5-4.3,9.5-9.5C329.7,475.5,325.5,471.2,320.2,471.2"/>
				<path class="st11" d="M375.5,500.2c-2.3-4.8-6-7.7-14.9-7.7h-0.9h-0.9c-8.9,0-12.6,2.9-14.9,7.7c-1.2,2.4-3.6,32.4-3.6,32.4
					c-0.2,1.8,1.1,3.3,2.9,3.5c0.1,0,0.2,0,0.3,0c1.6,0,3-1.2,3.2-2.9l2.5-26l0.6,20.2l-1.8,22.9c-0.1,2.1,1.4,3.9,3.5,4
					c0.1,0,0.2,0,0.3,0h16c0.1,0,0.2,0,0.3,0c2.1-0.1,3.6-1.9,3.5-4l-1.8-22.9l0.6-20.2l2.5,26c0.2,1.6,1.6,2.9,3.2,2.9
					c0.1,0,0.2,0,0.3,0c1.8-0.2,3-1.8,2.9-3.5C379.2,532.6,376.7,502.6,375.5,500.2 M359.7,471.2c-5.3,0-9.6,4.3-9.6,9.6
					c0,5.3,4.3,9.5,9.6,9.5c5.3,0,9.5-4.3,9.5-9.5C369.3,475.5,365,471.2,359.7,471.2"/>
				<path class="st11" d="M691.6,500.2c-2.3-4.8-6-7.7-14.9-7.7h-0.9h-0.9c-8.9,0-12.6,2.9-14.9,7.7c-1.2,2.4-3.6,32.4-3.6,32.4
					c-0.2,1.8,1.1,3.3,2.9,3.5c0.1,0,0.2,0,0.3,0c1.6,0,3-1.2,3.2-2.9l2.5-26l0.6,20.2l-1.8,22.9c-0.1,2.1,1.4,3.9,3.5,4
					c0.1,0,0.2,0,0.3,0h16c0.1,0,0.2,0,0.3,0c2.1-0.1,3.6-1.9,3.5-4l-1.8-22.9l0.6-20.2l2.5,26c0.2,1.6,1.6,2.9,3.2,2.9
					c0.1,0,0.2,0,0.3,0c1.8-0.2,3-1.8,2.9-3.5C695.2,532.6,692.8,502.6,691.6,500.2 M675.8,471.2c-5.3,0-9.6,4.3-9.6,9.6
					c0,5.3,4.3,9.5,9.6,9.5c5.3,0,9.5-4.3,9.5-9.5C685.3,475.5,681.1,471.2,675.8,471.2"/>
				<path class="st11" d="M415,500.2c-2.3-4.8-6-7.7-14.9-7.7h-0.9h-0.9c-8.9,0-12.6,2.9-14.9,7.7c-1.2,2.4-3.6,32.4-3.6,32.4
					c-0.2,1.8,1.1,3.3,2.9,3.5c0.1,0,0.2,0,0.3,0c1.6,0,3-1.2,3.2-2.9l2.5-26l0.6,20.2l-1.8,22.9c-0.1,2.1,1.4,3.9,3.5,4
					c0.1,0,0.2,0,0.3,0h16c0.1,0,0.2,0,0.3,0c2.1-0.1,3.6-1.9,3.5-4l-1.8-22.9l0.6-20.2l2.5,26c0.2,1.6,1.6,2.9,3.2,2.9
					c0.1,0,0.2,0,0.3,0c1.8-0.2,3-1.8,2.9-3.5C418.7,532.6,416.2,502.6,415,500.2 M399.2,471.2c-5.3,0-9.6,4.3-9.6,9.6
					c0,5.3,4.3,9.5,9.6,9.5c5.3,0,9.5-4.3,9.5-9.5C408.8,475.5,404.5,471.2,399.2,471.2"/>
				<path class="st11" d="M731.1,500.2c-2.3-4.8-6-7.7-14.9-7.7h-0.9h-0.9c-8.9,0-12.6,2.9-14.9,7.7c-1.2,2.4-3.6,32.4-3.6,32.4
					c-0.2,1.8,1.1,3.3,2.9,3.5c0.1,0,0.2,0,0.3,0c1.6,0,3-1.2,3.2-2.9l2.5-26l0.6,20.2l-1.8,22.9c-0.1,2.1,1.4,3.9,3.5,4
					c0.1,0,0.2,0,0.3,0h16c0.1,0,0.2,0,0.3,0c2.1-0.1,3.6-1.9,3.5-4l-1.8-22.9l0.6-20.2l2.5,26c0.2,1.6,1.6,2.9,3.2,2.9
					c0.1,0,0.2,0,0.3,0c1.8-0.2,3-1.8,2.9-3.5C734.7,532.6,732.3,502.6,731.1,500.2 M715.3,471.2c-5.3,0-9.6,4.3-9.6,9.6
					c0,5.3,4.3,9.5,9.6,9.5c5.3,0,9.5-4.3,9.5-9.5C724.9,475.5,720.6,471.2,715.3,471.2"/>
				<path class="st11" d="M454.5,500.2c-2.3-4.8-6-7.7-14.9-7.7h-0.9h-0.9c-8.9,0-12.6,2.9-14.9,7.7c-1.2,2.4-3.6,32.4-3.6,32.4
					c-0.2,1.8,1.1,3.3,2.9,3.5c0.1,0,0.2,0,0.3,0c1.6,0,3-1.2,3.2-2.9l2.5-26l0.6,20.2l-1.8,22.9c-0.1,2.1,1.4,3.9,3.5,4
					c0.1,0,0.2,0,0.3,0h16c0.1,0,0.2,0,0.3,0c2.1-0.1,3.6-1.9,3.5-4l-1.8-22.9l0.6-20.2l2.5,26c0.2,1.6,1.6,2.9,3.2,2.9
					c0.1,0,0.2,0,0.3,0c1.8-0.2,3-1.8,2.9-3.5C458.2,532.6,455.7,502.6,454.5,500.2 M438.7,471.2c-5.3,0-9.6,4.3-9.6,9.6
					c0,5.3,4.3,9.5,9.6,9.5c5.3,0,9.5-4.3,9.5-9.5C448.3,475.5,444,471.2,438.7,471.2"/>
				<path class="st11" d="M770.6,500.2c-2.3-4.8-6-7.7-14.9-7.7h-0.9h-0.9c-8.9,0-12.6,2.9-14.9,7.7c-1.2,2.4-3.6,32.4-3.6,32.4
					c-0.2,1.8,1.1,3.3,2.9,3.5c0.1,0,0.2,0,0.3,0c1.6,0,3-1.2,3.2-2.9l2.5-26l0.6,20.2l-1.8,22.9c-0.1,2.1,1.4,3.9,3.5,4
					c0.1,0,0.2,0,0.3,0h16c0.1,0,0.2,0,0.3,0c2.1-0.1,3.6-1.9,3.5-4l-1.8-22.9l0.6-20.2l2.5,26c0.2,1.6,1.6,2.9,3.2,2.9
					c0.1,0,0.2,0,0.3,0c1.8-0.2,3-1.8,2.9-3.5C774.3,532.6,771.8,502.6,770.6,500.2 M754.8,471.2c-5.3,0-9.6,4.3-9.6,9.6
					c0,5.3,4.3,9.5,9.6,9.5c5.3,0,9.5-4.3,9.5-9.5C764.4,475.5,760.1,471.2,754.8,471.2"/>
				<path class="st11" d="M494.1,500.2c-2.3-4.8-6-7.7-14.9-7.7h-0.9h-0.9c-8.9,0-12.6,2.9-14.9,7.7c-1.2,2.4-3.6,32.4-3.6,32.4
					c-0.2,1.8,1.1,3.3,2.9,3.5c0.1,0,0.2,0,0.3,0c1.6,0,3-1.2,3.2-2.9l2.5-26l0.6,20.2l-1.8,22.9c-0.1,2.1,1.4,3.9,3.5,4
					c0.1,0,0.2,0,0.3,0h16c0.1,0,0.2,0,0.3,0c2.1-0.1,3.6-1.9,3.5-4l-1.8-22.9l0.6-20.2l2.5,26c0.2,1.6,1.6,2.9,3.2,2.9
					c0.1,0,0.2,0,0.3,0c1.8-0.2,3-1.8,2.9-3.5C497.7,532.6,495.2,502.6,494.1,500.2 M478.2,471.2c-5.3,0-9.6,4.3-9.6,9.6
					c0,5.3,4.3,9.5,9.6,9.5c5.3,0,9.5-4.3,9.5-9.5C487.8,475.5,483.5,471.2,478.2,471.2"/>
				<path class="st11" d="M533.6,500.2c-2.3-4.8-6-7.7-14.9-7.7h-0.9h-0.9c-8.9,0-12.6,2.9-14.9,7.7c-1.2,2.4-3.6,32.4-3.6,32.4
					c-0.2,1.8,1.1,3.3,2.9,3.5c0.1,0,0.2,0,0.3,0c1.6,0,3-1.2,3.2-2.9l2.5-26l0.6,20.2l-1.8,22.9c-0.1,2.1,1.4,3.9,3.5,4
					c0.1,0,0.2,0,0.3,0h16c0.1,0,0.2,0,0.3,0c2.1-0.1,3.6-1.9,3.5-4l-1.8-22.9l0.6-20.2l2.5,26c0.2,1.6,1.6,2.9,3.2,2.9
					c0.1,0,0.2,0,0.3,0c1.8-0.2,3-1.8,2.9-3.5C537.2,532.6,534.7,502.6,533.6,500.2 M517.8,471.2c-5.3,0-9.6,4.3-9.6,9.6
					c0,5.3,4.3,9.5,9.6,9.5c5.3,0,9.5-4.3,9.5-9.5C527.3,475.5,523,471.2,517.8,471.2"/>
				<path class="st11" d="M573.1,500.2c-2.3-4.8-6-7.7-14.9-7.7h-0.9h-0.9c-8.9,0-12.6,2.9-14.9,7.7c-1.2,2.4-3.6,32.4-3.6,32.4
					c-0.2,1.8,1.1,3.3,2.9,3.5c0.1,0,0.2,0,0.3,0c1.6,0,3-1.2,3.2-2.9l2.5-26l0.6,20.2l-1.8,22.9c-0.1,2.1,1.4,3.9,3.5,4
					c0.1,0,0.2,0,0.3,0h16c0.1,0,0.2,0,0.3,0c2.1-0.1,3.6-1.9,3.5-4l-1.8-22.9l0.6-20.2l2.5,26c0.2,1.6,1.6,2.9,3.2,2.9
					c0.1,0,0.2,0,0.3,0c1.8-0.2,3-1.8,2.9-3.5C576.7,532.6,574.2,502.6,573.1,500.2 M557.3,471.2c-5.3,0-9.6,4.3-9.6,9.6
					c0,5.3,4.3,9.5,9.6,9.5c5.3,0,9.5-4.3,9.5-9.5C566.8,475.5,562.5,471.2,557.3,471.2"/>
				<path class="st11" d="M612.6,500.2c-2.3-4.8-6-7.7-14.9-7.7h-0.9h-0.9c-8.9,0-12.6,2.9-14.9,7.7c-1.2,2.4-3.6,32.4-3.6,32.4
					c-0.2,1.8,1.1,3.3,2.9,3.5c0.1,0,0.2,0,0.3,0c1.6,0,3-1.2,3.2-2.9l2.5-26l0.6,20.2l-1.8,22.9c-0.1,2.1,1.4,3.9,3.5,4
					c0.1,0,0.2,0,0.3,0h16c0.1,0,0.2,0,0.3,0c2.1-0.1,3.6-1.9,3.5-4l-1.8-22.9l0.6-20.2l2.5,26c0.2,1.6,1.6,2.9,3.2,2.9
					c0.1,0,0.2,0,0.3,0c1.8-0.2,3-1.8,2.9-3.5C616.2,532.6,613.8,502.6,612.6,500.2 M596.8,471.2c-5.3,0-9.6,4.3-9.6,9.6
					c0,5.3,4.3,9.5,9.6,9.5c5.3,0,9.5-4.3,9.5-9.5C606.3,475.5,602,471.2,596.8,471.2"/>
				<path class="st11" d="M652.1,500.2c-2.3-4.8-6-7.7-14.9-7.7h-0.9h-0.9c-8.9,0-12.6,2.9-14.9,7.7c-1.2,2.4-3.6,32.4-3.6,32.4
					c-0.2,1.8,1.1,3.3,2.9,3.5c0.1,0,0.2,0,0.3,0c1.6,0,3-1.2,3.2-2.9l2.5-26l0.6,20.2l-1.8,22.9c-0.1,2.1,1.4,3.9,3.5,4
					c0.1,0,0.2,0,0.3,0h16c0.1,0,0.2,0,0.3,0c2.1-0.1,3.6-1.9,3.5-4l-1.8-22.9l0.6-20.2l2.5,26c0.2,1.6,1.6,2.9,3.2,2.9
					c0.1,0,0.2,0,0.3,0c1.8-0.2,3-1.8,2.9-3.5C655.7,532.6,653.3,502.6,652.1,500.2 M636.3,471.2c-5.3,0-9.6,4.3-9.6,9.6
					c0,5.3,4.3,9.5,9.6,9.5c5.3,0,9.5-4.3,9.5-9.5C645.8,475.5,641.6,471.2,636.3,471.2"/>
				<path class="st11" d="M750.9,421.5c-2.3-4.8-6-7.7-14.9-7.7h-0.9h-0.9c-8.9,0-12.6,2.9-14.9,7.7c-1.2,2.4-3.6,32.4-3.6,32.4
					c-0.2,1.8,1.1,3.3,2.9,3.5c0.1,0,0.2,0,0.3,0c1.6,0,3-1.2,3.2-2.9l2.5-26l0.6,20.2l-1.8,22.9c-0.1,2.1,1.4,3.9,3.5,4
					c0.1,0,0.2,0,0.3,0h16c0.1,0,0.2,0,0.3,0c2.1-0.1,3.6-1.9,3.5-4l-1.8-22.9l0.6-20.2l2.5,26c0.2,1.6,1.6,2.9,3.2,2.9
					c0.1,0,0.2,0,0.3,0c1.8-0.2,3-1.8,2.9-3.5C754.6,453.8,752.1,423.9,750.9,421.5 M735.1,392.4c-5.3,0-9.6,4.3-9.6,9.6
					c0,5.3,4.3,9.5,9.6,9.5c5.3,0,9.5-4.3,9.5-9.5C744.7,396.7,740.4,392.4,735.1,392.4"/>
				<path class="st11" d="M790.5,421.5c-2.3-4.8-6-7.7-14.9-7.7h-0.9h-0.9c-8.9,0-12.6,2.9-14.9,7.7c-1.2,2.4-3.6,32.4-3.6,32.4
					c-0.2,1.8,1.1,3.3,2.9,3.5c0.1,0,0.2,0,0.3,0c1.6,0,3-1.2,3.2-2.9l2.5-26l0.6,20.2l-1.8,22.9c-0.1,2.1,1.4,3.9,3.5,4
					c0.1,0,0.2,0,0.3,0h16c0.1,0,0.2,0,0.3,0c2.1-0.1,3.6-1.9,3.5-4l-1.8-22.9l0.6-20.2l2.5,26c0.2,1.6,1.6,2.9,3.2,2.9
					c0.1,0,0.2,0,0.3,0c1.8-0.2,3-1.8,2.9-3.5C794.1,453.8,791.6,423.9,790.5,421.5 M774.7,392.4c-5.3,0-9.6,4.3-9.6,9.6
					c0,5.3,4.3,9.5,9.6,9.5c5.3,0,9.5-4.3,9.5-9.5C784.2,396.7,779.9,392.4,774.7,392.4"/>
				<path class="st11" d="M38.7,421.5c-2.3-4.8-6-7.7-14.9-7.7h-0.9H22c-8.9,0-12.6,2.9-14.9,7.7c-1.2,2.4-3.6,32.4-3.6,32.4
					c-0.2,1.8,1.1,3.3,2.9,3.5c0.1,0,0.2,0,0.3,0c1.6,0,3-1.2,3.2-2.9l2.5-26l0.6,20.2l-1.8,22.9c-0.1,2.1,1.4,3.9,3.5,4
					c0.1,0,0.2,0,0.3,0h16c0.1,0,0.2,0,0.3,0c2.1-0.1,3.6-1.9,3.5-4l-1.8-22.9l0.6-20.2l2.5,26c0.2,1.6,1.6,2.9,3.2,2.9
					c0.1,0,0.2,0,0.3,0c1.8-0.2,3-1.8,2.9-3.5C42.3,453.8,39.9,423.9,38.7,421.5 M22.9,392.4c-5.3,0-9.6,4.3-9.6,9.6
					c0,5.3,4.3,9.5,9.6,9.5c5.3,0,9.5-4.3,9.5-9.5C32.4,396.7,28.2,392.4,22.9,392.4"/>
				<path class="st11" d="M78.2,421.5c-2.3-4.8-6-7.7-14.9-7.7h-0.9h-0.9c-8.9,0-12.6,2.9-14.9,7.7c-1.2,2.4-3.6,32.4-3.6,32.4
					c-0.2,1.8,1.1,3.3,2.9,3.5c0.1,0,0.2,0,0.3,0c1.6,0,3-1.2,3.2-2.9l2.5-26l0.6,20.2l-1.8,22.9c-0.1,2.1,1.4,3.9,3.5,4
					c0.1,0,0.2,0,0.3,0h16c0.1,0,0.2,0,0.3,0c2.1-0.1,3.6-1.9,3.5-4l-1.8-22.9l0.6-20.2l2.5,26c0.2,1.6,1.6,2.9,3.2,2.9
					c0.1,0,0.2,0,0.3,0c1.8-0.2,3-1.8,2.9-3.5C81.8,453.8,79.4,423.9,78.2,421.5 M62.4,392.4c-5.3,0-9.6,4.3-9.6,9.6
					c0,5.3,4.3,9.5,9.6,9.5c5.3,0,9.5-4.3,9.5-9.5C72,396.7,67.7,392.4,62.4,392.4"/>
				<path class="st11" d="M117.7,421.5c-2.3-4.8-6-7.7-14.9-7.7h-0.9H101c-8.9,0-12.6,2.9-14.9,7.7c-1.2,2.4-3.6,32.4-3.6,32.4
					c-0.2,1.8,1.1,3.3,2.9,3.5c0.1,0,0.2,0,0.3,0c1.6,0,3-1.2,3.2-2.9l2.5-26l0.6,20.2l-1.8,22.9c-0.1,2.1,1.4,3.9,3.5,4
					c0.1,0,0.2,0,0.3,0h16c0.1,0,0.2,0,0.3,0c2.1-0.1,3.6-1.9,3.5-4l-1.8-22.9l0.6-20.2l2.5,26c0.2,1.6,1.6,2.9,3.2,2.9
					c0.1,0,0.2,0,0.3,0c1.8-0.2,3-1.8,2.9-3.5C121.4,453.8,118.9,423.9,117.7,421.5 M101.9,392.4c-5.3,0-9.6,4.3-9.6,9.6
					c0,5.3,4.3,9.5,9.6,9.5c5.3,0,9.5-4.3,9.5-9.5C111.5,396.7,107.2,392.4,101.9,392.4"/>
				<path class="st11" d="M157.2,421.5c-2.3-4.8-6-7.7-14.9-7.7h-0.9h-0.9c-8.9,0-12.6,2.9-14.9,7.7c-1.2,2.4-3.6,32.4-3.6,32.4
					c-0.2,1.8,1.1,3.3,2.9,3.5c0.1,0,0.2,0,0.3,0c1.6,0,3-1.2,3.2-2.9l2.5-26l0.6,20.2l-1.8,22.9c-0.1,2.1,1.4,3.9,3.5,4
					c0.1,0,0.2,0,0.3,0h16c0.1,0,0.2,0,0.3,0c2.1-0.1,3.6-1.9,3.5-4l-1.8-22.9l0.6-20.2l2.5,26c0.2,1.6,1.6,2.9,3.2,2.9
					c0.1,0,0.2,0,0.3,0c1.8-0.2,3-1.8,2.9-3.5C160.9,453.8,158.4,423.9,157.2,421.5 M141.4,392.4c-5.3,0-9.6,4.3-9.6,9.6
					c0,5.3,4.3,9.5,9.6,9.5c5.3,0,9.5-4.3,9.5-9.5C151,396.7,146.7,392.4,141.4,392.4"/>
				<path class="st11" d="M671.9,421.5c-2.3-4.8-6-7.7-14.9-7.7h-0.9h-0.9c-8.9,0-12.6,2.9-14.9,7.7c-1.2,2.4-3.6,32.4-3.6,32.4
					c-0.2,1.8,1.1,3.3,2.9,3.5c0.1,0,0.2,0,0.3,0c1.6,0,3-1.2,3.2-2.9l2.5-26l0.6,20.2l-1.8,22.9c-0.1,2.1,1.4,3.9,3.5,4
					c0.1,0,0.2,0,0.3,0h16c0.1,0,0.2,0,0.3,0c2.1-0.1,3.6-1.9,3.5-4l-1.8-22.9l0.6-20.2l2.5,26c0.2,1.6,1.6,2.9,3.2,2.9
					c0.1,0,0.2,0,0.3,0c1.8-0.2,3-1.8,2.9-3.5C675.6,453.8,673.1,423.9,671.9,421.5 M656.1,392.4c-5.3,0-9.6,4.3-9.6,9.6
					c0,5.3,4.3,9.5,9.6,9.5c5.3,0,9.5-4.3,9.5-9.5C665.7,396.7,661.4,392.4,656.1,392.4"/>
				<path class="st11" d="M711.4,421.5c-2.3-4.8-6-7.7-14.9-7.7h-0.9h-0.9c-8.9,0-12.6,2.9-14.9,7.7c-1.2,2.4-3.6,32.4-3.6,32.4
					c-0.2,1.8,1.1,3.3,2.9,3.5c0.1,0,0.2,0,0.3,0c1.6,0,3-1.2,3.2-2.9l2.5-26l0.6,20.2l-1.8,22.9c-0.1,2.1,1.4,3.9,3.5,4
					c0.1,0,0.2,0,0.3,0h16c0.1,0,0.2,0,0.3,0c2.1-0.1,3.6-1.9,3.5-4l-1.8-22.9l0.6-20.2l2.5,26c0.2,1.6,1.6,2.9,3.2,2.9
					c0.1,0,0.2,0,0.3,0c1.8-0.2,3-1.8,2.9-3.5C715.1,453.8,712.6,423.9,711.4,421.5 M695.6,392.4c-5.3,0-9.6,4.3-9.6,9.6
					c0,5.3,4.3,9.5,9.6,9.5c5.3,0,9.5-4.3,9.5-9.5C705.2,396.7,700.9,392.4,695.6,392.4"/>
				<path class="st11" d="M750.9,578.8c-2.3-4.8-6-7.7-14.9-7.7h-0.9h-0.9c-8.9,0-12.6,2.9-14.9,7.7c-1.2,2.4-3.6,32.4-3.6,32.4
					c-0.2,1.8,1.1,3.4,2.9,3.5c0.1,0,0.2,0,0.3,0c1.6,0,3-1.2,3.2-2.9l2.5-26l0.6,20.2l-1.8,22.9c-0.1,2.1,1.4,3.9,3.5,4
					c0.1,0,0.2,0,0.3,0h16c0.1,0,0.2,0,0.3,0c2.1-0.1,3.6-1.9,3.5-4l-1.8-22.9l0.6-20.2l2.5,26c0.2,1.6,1.6,2.9,3.2,2.9
					c0.1,0,0.2,0,0.3,0c1.8-0.2,3-1.8,2.9-3.5C754.6,611.1,752.1,581.2,750.9,578.8 M735.1,549.7c-5.3,0-9.6,4.3-9.6,9.6
					c0,5.3,4.3,9.5,9.6,9.5c5.3,0,9.5-4.3,9.5-9.5C744.7,554,740.4,549.7,735.1,549.7"/>
				<path class="st11" d="M474.4,578.8c-2.3-4.8-6-7.7-14.9-7.7h-0.9h-0.9c-8.9,0-12.6,2.9-14.9,7.7c-1.2,2.4-3.6,32.4-3.6,32.4
					c-0.2,1.8,1.1,3.4,2.9,3.5c0.1,0,0.2,0,0.3,0c1.6,0,3-1.2,3.2-2.9l2.5-26l0.6,20.2l-1.8,22.9c-0.1,2.1,1.4,3.9,3.5,4
					c0.1,0,0.2,0,0.3,0h16c0.1,0,0.2,0,0.3,0c2.1-0.1,3.6-1.9,3.5-4l-1.8-22.9l0.6-20.2l2.5,26c0.2,1.6,1.6,2.9,3.2,2.9
					c0.1,0,0.2,0,0.3,0c1.8-0.2,3-1.8,2.9-3.5C478,611.1,475.5,581.2,474.4,578.8 M458.6,549.7c-5.3,0-9.6,4.3-9.6,9.6
					c0,5.3,4.3,9.5,9.6,9.5c5.3,0,9.5-4.3,9.5-9.5C468.1,554,463.8,549.7,458.6,549.7"/>
				<path class="st11" d="M790.5,578.8c-2.3-4.8-6-7.7-14.9-7.7h-0.9h-0.9c-8.9,0-12.6,2.9-14.9,7.7c-1.2,2.4-3.6,32.4-3.6,32.4
					c-0.2,1.8,1.1,3.4,2.9,3.5c0.1,0,0.2,0,0.3,0c1.6,0,3-1.2,3.2-2.9l2.5-26l0.6,20.2l-1.8,22.9c-0.1,2.1,1.4,3.9,3.5,4
					c0.1,0,0.2,0,0.3,0h16c0.1,0,0.2,0,0.3,0c2.1-0.1,3.6-1.9,3.5-4l-1.8-22.9l0.6-20.2l2.5,26c0.2,1.6,1.6,2.9,3.2,2.9
					c0.1,0,0.2,0,0.3,0c1.8-0.2,3-1.8,2.9-3.5C794.1,611.1,791.6,581.2,790.5,578.8 M774.7,549.7c-5.3,0-9.6,4.3-9.6,9.6
					c0,5.3,4.3,9.5,9.6,9.5c5.3,0,9.5-4.3,9.5-9.5C784.2,554,779.9,549.7,774.7,549.7"/>
				<path class="st11" d="M513.9,578.8c-2.3-4.8-6-7.7-14.9-7.7h-0.9h-0.9c-8.9,0-12.6,2.9-14.9,7.7c-1.2,2.4-3.6,32.4-3.6,32.4
					c-0.2,1.8,1.1,3.4,2.9,3.5c0.1,0,0.2,0,0.3,0c1.6,0,3-1.2,3.2-2.9l2.5-26l0.6,20.2l-1.8,22.9c-0.1,2.1,1.4,3.9,3.5,4
					c0.1,0,0.2,0,0.3,0h16c0.1,0,0.2,0,0.3,0c2.1-0.1,3.6-1.9,3.5-4L508,606l0.6-20.2l2.5,26c0.2,1.6,1.6,2.9,3.2,2.9
					c0.1,0,0.2,0,0.3,0c1.8-0.2,3-1.8,2.9-3.5C517.5,611.1,515.1,581.2,513.9,578.8 M498.1,549.7c-5.3,0-9.6,4.3-9.6,9.6
					c0,5.3,4.3,9.5,9.6,9.5c5.3,0,9.5-4.3,9.5-9.5C507.6,554,503.4,549.7,498.1,549.7"/>
				<path class="st11" d="M553.4,578.8c-2.3-4.8-6-7.7-14.9-7.7h-0.9h-0.9c-8.9,0-12.6,2.9-14.9,7.7c-1.2,2.4-3.6,32.4-3.6,32.4
					c-0.2,1.8,1.1,3.4,2.9,3.5c0.1,0,0.2,0,0.3,0c1.6,0,3-1.2,3.2-2.9l2.5-26l0.6,20.2l-1.8,22.9c-0.1,2.1,1.4,3.9,3.5,4
					c0.1,0,0.2,0,0.3,0h16c0.1,0,0.2,0,0.3,0c2.1-0.1,3.6-1.9,3.5-4l-1.8-22.9l0.6-20.2l2.5,26c0.2,1.6,1.6,2.9,3.2,2.9
					c0.1,0,0.2,0,0.3,0c1.8-0.2,3-1.8,2.9-3.5C557,611.1,554.6,581.2,553.4,578.8 M537.6,549.7c-5.3,0-9.6,4.3-9.6,9.6
					c0,5.3,4.3,9.5,9.6,9.5c5.3,0,9.5-4.3,9.5-9.5C547.1,554,542.9,549.7,537.6,549.7"/>
				<path class="st11" d="M592.9,578.8c-2.3-4.8-6-7.7-14.9-7.7h-0.9h-0.9c-8.9,0-12.6,2.9-14.9,7.7c-1.2,2.4-3.6,32.4-3.6,32.4
					c-0.2,1.8,1.1,3.4,2.9,3.5c0.1,0,0.2,0,0.3,0c1.6,0,3-1.2,3.2-2.9l2.5-26l0.6,20.2l-1.8,22.9c-0.1,2.1,1.4,3.9,3.5,4
					c0.1,0,0.2,0,0.3,0h16c0.1,0,0.2,0,0.3,0c2.1-0.1,3.6-1.9,3.5-4L587,606l0.6-20.2l2.5,26c0.2,1.6,1.6,2.9,3.2,2.9
					c0.1,0,0.2,0,0.3,0c1.8-0.2,3-1.8,2.9-3.5C596.5,611.1,594.1,581.2,592.9,578.8 M577.1,549.7c-5.3,0-9.6,4.3-9.6,9.6
					c0,5.3,4.3,9.5,9.6,9.5c5.3,0,9.5-4.3,9.5-9.5C586.6,554,582.4,549.7,577.1,549.7"/>
				<path class="st11" d="M632.4,578.8c-2.3-4.8-6-7.7-14.9-7.7h-0.9h-0.9c-8.9,0-12.6,2.9-14.9,7.7c-1.2,2.4-3.6,32.4-3.6,32.4
					c-0.2,1.8,1.1,3.4,2.9,3.5c0.1,0,0.2,0,0.3,0c1.6,0,3-1.2,3.2-2.9l2.5-26l0.6,20.2l-1.8,22.9c-0.1,2.1,1.4,3.9,3.5,4
					c0.1,0,0.2,0,0.3,0h16c0.1,0,0.2,0,0.3,0c2.1-0.1,3.6-1.9,3.5-4l-1.8-22.9l0.6-20.2l2.5,26c0.2,1.6,1.6,2.9,3.2,2.9
					c0.1,0,0.2,0,0.3,0c1.8-0.2,3-1.8,2.9-3.5C636.1,611.1,633.6,581.2,632.4,578.8 M616.6,549.7c-5.3,0-9.6,4.3-9.6,9.6
					c0,5.3,4.3,9.5,9.6,9.5c5.3,0,9.5-4.3,9.5-9.5C626.2,554,621.9,549.7,616.6,549.7"/>
				<path class="st11" d="M671.9,578.8c-2.3-4.8-6-7.7-14.9-7.7h-0.9h-0.9c-8.9,0-12.6,2.9-14.9,7.7c-1.2,2.4-3.6,32.4-3.6,32.4
					c-0.2,1.8,1.1,3.4,2.9,3.5c0.1,0,0.2,0,0.3,0c1.6,0,3-1.2,3.2-2.9l2.5-26l0.6,20.2l-1.8,22.9c-0.1,2.1,1.4,3.9,3.5,4
					c0.1,0,0.2,0,0.3,0h16c0.1,0,0.2,0,0.3,0c2.1-0.1,3.6-1.9,3.5-4L666,606l0.6-20.2l2.5,26c0.2,1.6,1.6,2.9,3.2,2.9
					c0.1,0,0.2,0,0.3,0c1.8-0.2,3-1.8,2.9-3.5C675.6,611.1,673.1,581.2,671.9,578.8 M656.1,549.7c-5.3,0-9.6,4.3-9.6,9.6
					c0,5.3,4.3,9.5,9.6,9.5c5.3,0,9.5-4.3,9.5-9.5C665.7,554,661.4,549.7,656.1,549.7"/>
				<path class="st11" d="M434.9,578.8c-2.3-4.8-6-7.7-14.9-7.7H419h-0.9c-8.9,0-12.6,2.9-14.9,7.7c-1.2,2.4-3.6,32.4-3.6,32.4
					c-0.2,1.8,1.1,3.4,2.9,3.5c0.1,0,0.2,0,0.3,0c1.6,0,3-1.2,3.2-2.9l2.5-26l0.6,20.2l-1.8,22.9c-0.1,2.1,1.4,3.9,3.5,4
					c0.1,0,0.2,0,0.3,0h16c0.1,0,0.2,0,0.3,0c2.1-0.1,3.6-1.9,3.5-4L429,606l0.6-20.2l2.5,26c0.2,1.6,1.6,2.9,3.2,2.9
					c0.1,0,0.2,0,0.3,0c1.8-0.2,3-1.8,2.9-3.5C438.5,611.1,436,581.2,434.9,578.8 M419.1,549.7c-5.3,0-9.6,4.3-9.6,9.6
					c0,5.3,4.3,9.5,9.6,9.5c5.3,0,9.5-4.3,9.5-9.5C428.6,554,424.3,549.7,419.1,549.7"/>
				<path class="st11" d="M711.4,578.8c-2.3-4.8-6-7.7-14.9-7.7h-0.9h-0.9c-8.9,0-12.6,2.9-14.9,7.7c-1.2,2.4-3.6,32.4-3.6,32.4
					c-0.2,1.8,1.1,3.4,2.9,3.5c0.1,0,0.2,0,0.3,0c1.6,0,3-1.2,3.2-2.9l2.5-26l0.6,20.2l-1.8,22.9c-0.1,2.1,1.4,3.9,3.5,4
					c0.1,0,0.2,0,0.3,0h16c0.1,0,0.2,0,0.3,0c2.1-0.1,3.6-1.9,3.5-4l-1.8-22.9l0.6-20.2l2.5,26c0.2,1.6,1.6,2.9,3.2,2.9
					c0.1,0,0.2,0,0.3,0c1.8-0.2,3-1.8,2.9-3.5C715.1,611.1,712.6,581.2,711.4,578.8 M695.6,549.7c-5.3,0-9.6,4.3-9.6,9.6
					c0,5.3,4.3,9.5,9.6,9.5c5.3,0,9.5-4.3,9.5-9.5C705.2,554,700.9,549.7,695.6,549.7"/>
				<path class="st11" d="M39.8,578.8c-2.3-4.8-6-7.7-14.9-7.7h-0.9H23c-8.9,0-12.6,2.9-14.9,7.7c-1.2,2.4-3.6,32.4-3.6,32.4
					c-0.2,1.8,1.1,3.4,2.9,3.5c0.1,0,0.2,0,0.3,0c1.6,0,3-1.2,3.2-2.9l2.5-26L14,606l-1.8,22.9c-0.1,2.1,1.4,3.9,3.5,4
					c0.1,0,0.2,0,0.3,0h16c0.1,0,0.2,0,0.3,0c2.1-0.1,3.6-1.9,3.5-4L33.9,606l0.6-20.2l2.5,26c0.2,1.6,1.6,2.9,3.2,2.9
					c0.1,0,0.2,0,0.3,0c1.8-0.2,3-1.8,2.9-3.5C43.4,611.1,40.9,581.2,39.8,578.8 M24,549.7c-5.3,0-9.6,4.3-9.6,9.6
					c0,5.3,4.3,9.5,9.6,9.5c5.3,0,9.5-4.3,9.5-9.5C33.5,554,29.2,549.7,24,549.7"/>
				<path class="st11" d="M79.3,578.8c-2.3-4.8-6-7.7-14.9-7.7h-0.9h-0.9c-8.9,0-12.6,2.9-14.9,7.7c-1.2,2.4-3.6,32.4-3.6,32.4
					c-0.2,1.8,1.1,3.4,2.9,3.5c0.1,0,0.2,0,0.3,0c1.6,0,3-1.2,3.2-2.9l2.5-26l0.6,20.2l-1.8,22.9c-0.1,2.1,1.4,3.9,3.5,4
					c0.1,0,0.2,0,0.3,0h16c0.1,0,0.2,0,0.3,0c2.1-0.1,3.6-1.9,3.5-4L73.4,606l0.6-20.2l2.5,26c0.2,1.6,1.6,2.9,3.2,2.9
					c0.1,0,0.2,0,0.3,0c1.8-0.2,3-1.8,2.9-3.5C82.9,611.1,80.4,581.2,79.3,578.8 M63.5,549.7c-5.3,0-9.6,4.3-9.6,9.6
					c0,5.3,4.3,9.5,9.6,9.5c5.3,0,9.5-4.3,9.5-9.5C73,554,68.7,549.7,63.5,549.7"/>
				<path class="st11" d="M237.3,578.8c-2.3-4.8-6-7.7-14.9-7.7h-0.9h-0.9c-8.9,0-12.6,2.9-14.9,7.7c-1.2,2.4-3.6,32.4-3.6,32.4
					c-0.2,1.8,1.1,3.4,2.9,3.5c0.1,0,0.2,0,0.3,0c1.6,0,3-1.2,3.2-2.9l2.5-26l0.6,20.2l-1.8,22.9c-0.1,2.1,1.4,3.9,3.5,4
					c0.1,0,0.2,0,0.3,0h16c0.1,0,0.2,0,0.3,0c2.1-0.1,3.6-1.9,3.5-4l-1.8-22.9l0.6-20.2l2.5,26c0.2,1.6,1.6,2.9,3.2,2.9
					c0.1,0,0.2,0,0.3,0c1.8-0.2,3-1.8,2.9-3.5C240.9,611.1,238.5,581.2,237.3,578.8 M221.5,549.7c-5.3,0-9.6,4.3-9.6,9.6
					c0,5.3,4.3,9.5,9.6,9.5c5.3,0,9.5-4.3,9.5-9.5C231.1,554,226.8,549.7,221.5,549.7"/>
				<path class="st11" d="M118.8,578.8c-2.3-4.8-6-7.7-14.9-7.7H103H102c-8.9,0-12.6,2.9-14.9,7.7c-1.2,2.4-3.6,32.4-3.6,32.4
					c-0.2,1.8,1.1,3.4,2.9,3.5c0.1,0,0.2,0,0.3,0c1.6,0,3-1.2,3.2-2.9l2.5-26L93,606l-1.8,22.9c-0.1,2.1,1.4,3.9,3.5,4
					c0.1,0,0.2,0,0.3,0h16c0.1,0,0.2,0,0.3,0c2.1-0.1,3.6-1.9,3.5-4l-1.8-22.9l0.6-20.2l2.5,26c0.2,1.6,1.6,2.9,3.2,2.9
					c0.1,0,0.2,0,0.3,0c1.8-0.2,3-1.8,2.9-3.5C122.4,611.1,119.9,581.2,118.8,578.8 M103,549.7c-5.3,0-9.6,4.3-9.6,9.6
					c0,5.3,4.3,9.5,9.6,9.5c5.3,0,9.5-4.3,9.5-9.5C112.5,554,108.2,549.7,103,549.7"/>
				<path class="st11" d="M276.8,578.8c-2.3-4.8-6-7.7-14.9-7.7H261h-0.9c-8.9,0-12.6,2.9-14.9,7.7c-1.2,2.4-3.6,32.4-3.6,32.4
					c-0.2,1.8,1.1,3.4,2.9,3.5c0.1,0,0.2,0,0.3,0c1.6,0,3-1.2,3.2-2.9l2.5-26l0.6,20.2l-1.8,22.9c-0.1,2.1,1.4,3.9,3.5,4
					c0.1,0,0.2,0,0.3,0h16c0.1,0,0.2,0,0.3,0c2.1-0.1,3.6-1.9,3.5-4l-1.8-22.9l0.6-20.2l2.5,26c0.2,1.6,1.6,2.9,3.2,2.9
					c0.1,0,0.2,0,0.3,0c1.8-0.2,3-1.8,2.9-3.5C280.5,611.1,278,581.2,276.8,578.8 M261,549.7c-5.3,0-9.6,4.3-9.6,9.6
					c0,5.3,4.3,9.5,9.6,9.5c5.3,0,9.5-4.3,9.5-9.5C270.6,554,266.3,549.7,261,549.7"/>
				<path class="st11" d="M158.3,578.8c-2.3-4.8-6-7.7-14.9-7.7h-0.9h-0.9c-8.9,0-12.6,2.9-14.9,7.7c-1.2,2.4-3.6,32.4-3.6,32.4
					c-0.2,1.8,1.1,3.4,2.9,3.5c0.1,0,0.2,0,0.3,0c1.6,0,3-1.2,3.2-2.9l2.5-26l0.6,20.2l-1.8,22.9c-0.1,2.1,1.4,3.9,3.5,4
					c0.1,0,0.2,0,0.3,0h16c0.1,0,0.2,0,0.3,0c2.1-0.1,3.6-1.9,3.5-4l-1.8-22.9l0.6-20.2l2.5,26c0.2,1.6,1.6,2.9,3.2,2.9
					c0.1,0,0.2,0,0.3,0c1.8-0.2,3-1.8,2.9-3.5C161.9,611.1,159.5,581.2,158.3,578.8 M142.5,549.7c-5.3,0-9.6,4.3-9.6,9.6
					c0,5.3,4.3,9.5,9.6,9.5c5.3,0,9.5-4.3,9.5-9.5C152,554,147.8,549.7,142.5,549.7"/>
				<path class="st11" d="M316.3,578.8c-2.3-4.8-6-7.7-14.9-7.7h-0.9h-0.9c-8.9,0-12.6,2.9-14.9,7.7c-1.2,2.4-3.6,32.4-3.6,32.4
					c-0.2,1.8,1.1,3.4,2.9,3.5c0.1,0,0.2,0,0.3,0c1.6,0,3-1.2,3.2-2.9l2.5-26l0.6,20.2l-1.8,22.9c-0.1,2.1,1.4,3.9,3.5,4
					c0.1,0,0.2,0,0.3,0h16c0.1,0,0.2,0,0.3,0c2.1-0.1,3.6-1.9,3.5-4l-1.8-22.9l0.6-20.2l2.5,26c0.2,1.6,1.6,2.9,3.2,2.9
					c0.1,0,0.2,0,0.3,0c1.8-0.2,3-1.8,2.9-3.5C320,611.1,317.5,581.2,316.3,578.8 M300.5,549.7c-5.3,0-9.6,4.3-9.6,9.6
					c0,5.3,4.3,9.5,9.6,9.5c5.3,0,9.5-4.3,9.5-9.5C310.1,554,305.8,549.7,300.5,549.7"/>
				<path class="st11" d="M197.8,578.8c-2.3-4.8-6-7.7-14.9-7.7H182h-0.9c-8.9,0-12.6,2.9-14.9,7.7c-1.2,2.4-3.6,32.4-3.6,32.4
					c-0.2,1.8,1.1,3.4,2.9,3.5c0.1,0,0.2,0,0.3,0c1.6,0,3-1.2,3.2-2.9l2.5-26l0.6,20.2l-1.8,22.9c-0.1,2.1,1.4,3.9,3.5,4
					c0.1,0,0.2,0,0.3,0h16c0.1,0,0.2,0,0.3,0c2.1-0.1,3.6-1.9,3.5-4l-1.8-22.9l0.6-20.2l2.5,26c0.2,1.6,1.6,2.9,3.2,2.9
					c0.1,0,0.2,0,0.3,0c1.8-0.2,3-1.8,2.9-3.5C201.4,611.1,199,581.2,197.8,578.8 M182,549.7c-5.3,0-9.6,4.3-9.6,9.6
					c0,5.3,4.3,9.5,9.6,9.5c5.3,0,9.5-4.3,9.5-9.5C191.5,554,187.3,549.7,182,549.7"/>
				<path class="st11" d="M355.8,578.8c-2.3-4.8-6-7.7-14.9-7.7H340h-0.9c-8.9,0-12.6,2.9-14.9,7.7c-1.2,2.4-3.6,32.4-3.6,32.4
					c-0.2,1.8,1.1,3.4,2.9,3.5c0.1,0,0.2,0,0.3,0c1.6,0,3-1.2,3.2-2.9l2.5-26l0.6,20.2l-1.8,22.9c-0.1,2.1,1.4,3.9,3.5,4
					c0.1,0,0.2,0,0.3,0h16c0.1,0,0.2,0,0.3,0c2.1-0.1,3.6-1.9,3.5-4l-1.8-22.9l0.6-20.2l2.5,26c0.2,1.6,1.6,2.9,3.2,2.9
					c0.1,0,0.2,0,0.3,0c1.8-0.2,3-1.8,2.9-3.5C359.5,611.1,357,581.2,355.8,578.8 M340,549.7c-5.3,0-9.6,4.3-9.6,9.6
					c0,5.3,4.3,9.5,9.6,9.5c5.3,0,9.5-4.3,9.5-9.5C349.6,554,345.3,549.7,340,549.7"/>
				<path class="st11" d="M395.4,578.8c-2.3-4.8-6-7.7-14.9-7.7h-0.9h-0.9c-8.9,0-12.6,2.9-14.9,7.7c-1.2,2.4-3.6,32.4-3.6,32.4
					c-0.2,1.8,1.1,3.4,2.9,3.5c0.1,0,0.2,0,0.3,0c1.6,0,3-1.2,3.2-2.9l2.5-26l0.6,20.2l-1.8,22.9c-0.1,2.1,1.4,3.9,3.5,4
					c0.1,0,0.2,0,0.3,0h16c0.1,0,0.2,0,0.3,0c2.1-0.1,3.6-1.9,3.5-4l-1.8-22.9l0.6-20.2l2.5,26c0.2,1.6,1.6,2.9,3.2,2.9
					c0.1,0,0.2,0,0.3,0c1.8-0.2,3-1.8,2.9-3.5C399,611.1,396.5,581.2,395.4,578.8 M379.5,549.7c-5.3,0-9.6,4.3-9.6,9.6
					c0,5.3,4.3,9.5,9.6,9.5c5.3,0,9.5-4.3,9.5-9.5C389.1,554,384.8,549.7,379.5,549.7"/>
			</g>
		</g>
	</g>
</g>
</svg>
