<?xml version="1.0" standalone="no"?>
<!DOCTYPE svg PUBLIC "-//W3C//DTD SVG 1.1//EN" "http://www.w3.org/Graphics/SVG/1.1/DTD/svg11.dtd" >
<svg xmlns="http://www.w3.org/2000/svg">
<metadata></metadata>
<defs>
<font id="lenny-boldregular" horiz-adv-x="800" >
<font-face units-per-em="2048" ascent="1638" descent="-410" />
<missing-glyph horiz-adv-x="491" />
<glyph horiz-adv-x="2048" />
<glyph horiz-adv-x="2048" />
<glyph unicode="&#xd;" horiz-adv-x="681" />
<glyph unicode=" "  horiz-adv-x="491" />
<glyph unicode="&#x09;" horiz-adv-x="491" />
<glyph unicode="&#xa0;" horiz-adv-x="491" />
<glyph unicode="!" horiz-adv-x="274" d="M49 66l2 84q0 84 84 83q86 0 86 -83l-2 -84q0 -86 -86 -86q-84 0 -84 86zM51 483v856q0 86 84 86q86 0 86 -86v-856q0 -84 -86 -84q-84 0 -84 84z" />
<glyph unicode="&#x22;" horiz-adv-x="759" d="M49 971v166q0 59 42 101t101.5 42t102.5 -42t43 -101.5t-43 -102.5t-102 -43h-21v-20q1 -23 21 -23q16 0 20 13q41 41 82 17t24 -75q-49 -78 -126 -78q-59 0 -101.5 43t-42.5 103zM172 1137q1 -23 21 -23q23 0 22 23q0 20 -22 20q-20 0 -21 -20zM418 971v166q0 59 42 101 t101.5 42t102.5 -42t43 -101.5t-43 -102.5t-103 -43h-20v-20q0 -23 20 -23q16 0 21 13q41 41 82 17t24 -75q-49 -78 -127 -78q-59 0 -101 43t-42 103zM541 1137q0 -23 20 -23q23 0 23 23q0 20 -23 20q-20 0 -20 -20z" />
<glyph unicode="#" horiz-adv-x="1327" d="M31 399q0 84 84 84h264q16 31 34.5 70t35.5 72h-177q-84 0 -84 86t84 86h258q23 43 68 131t66 133q29 70 112 41q76 -33 45 -111l-98 -194h121q23 43 66.5 131t66.5 133q29 70 113 41q74 -33 45 -111l-99 -194h176q35 0 59.5 -24.5t24.5 -61.5q0 -35 -24.5 -60.5 t-59.5 -25.5h-264q-8 -14 -29.5 -57.5t-41.5 -84.5h176q86 0 86 -84q0 -86 -86 -86h-260q-23 -43 -68 -136t-70 -140q-27 -43 -84 -35q-27 6 -41 21q-49 37 -22 100l96 190h-123q-25 -43 -67.5 -134t-67.5 -134q-27 -45 -74 -45q-25 0 -55 23q-49 41 -22 100l96 190h-176 q-84 0 -84 86zM565 483h123l72 142h-123q-4 -10 -28.5 -54.5t-43.5 -87.5z" />
<glyph unicode="$" horiz-adv-x="1028" d="M37 1024q0 164 114.5 279.5t278.5 119.5v70q0 37 23.5 61.5t60.5 24.5q86 0 86 -86v-70q141 -2 246 -92h-2q109 -88 139 -229q4 -39 -14.5 -66.5t-53.5 -34.5q-63 -18 -98 60q-16 80 -77.5 134t-139.5 56v-454q158 -4 274 -117q117 -121 117 -281q0 -165 -117 -282 q-117 -113 -274 -117v-70q0 -86 -86 -86q-37 0 -60.5 25t-23.5 61v70q-141 4 -246 90q-113 94 -139 232q-6 39 13.5 66.5t54.5 31.5q66 20 98 -58q16 -82 77.5 -135t141.5 -57v455q-166 4 -279.5 118.5t-113.5 280.5zM209 1024q0 -92 65.5 -159.5t155.5 -67.5v454 q-92 -4 -156.5 -69.5t-64.5 -157.5zM430 733l62 64h-56h-6v-64zM430 1251h6h56l-62 64v-64zM537 170l63 -61v61h-6h-57zM537 625h55h8v63zM600 170q90 0 155.5 68.5t65.5 160.5q0 90 -65.5 158t-155.5 68v-455z" />
<glyph unicode="%" horiz-adv-x="1273" d="M39 1126.5q0 114.5 83 197.5t197 83q119 0 201 -83t82 -197.5t-82 -197.5t-201 -83q-115 0 -197.5 83t-82.5 197.5zM211 1126.5q0 -47.5 30.5 -79t78 -31.5t80 31.5t32.5 79t-32.5 79t-80 31.5t-78 -31.5t-30.5 -79zM250 123l624 1249q33 76 113 41q72 -31 43 -108 l-631 -1260q-25 -45 -73 -45q-29 0 -45 14q-61 35 -31 109zM674 297q0 117 82 199t200 82q117 0 198 -82t81 -199t-81 -199t-198 -82q-119 0 -200.5 82t-81.5 199zM844 297q0 -47 32.5 -79t79.5 -32q45 0 77 32t32 79t-32 78t-77 31q-47 0 -79.5 -31t-32.5 -78z" />
<glyph unicode="&#x26;" horiz-adv-x="1126" d="M41 471q-2 117 57 234l2 4q63 111 166 176v-2l4 2q4 4 6 4q-8 8 -14 20q-74 100 -65 211q6 102 73 189q68 80 172 104h-2q29 10 76 10q63 0 143 -34q104 -51 152 -160q27 -55 27 -123q0 -43 -11 -76q-25 -104 -102 -174q-68 -55 -156 -72q53 -66 78 -102q20 -31 37 -51 q86 -117 107 -142q18 -31 43 -57l36 76l31 70q49 84 115 57q94 -37 45 -119l2 4q-8 -16 -20.5 -43.5t-18.5 -44.5q-33 -70 -37 -78l-37 -78l-2 -2q33 -45 107 -137l-2 2q23 -31 17.5 -65.5t-32.5 -55.5q-68 -47 -120 15q-2 2 -12.5 19.5t-18.5 25.5q-8 10 -12.5 16t-5.5 8 t-3 5.5t-6 8.5l-12 15q-37 -33 -68 -51q-109 -68 -231 -78q-8 -2 -31 -2q-109 0 -209 47q-119 57 -194 176q-74 119 -74 248zM213 475q0 -92 45 -162q92 -152 279 -141q125 10 204 96q-14 18 -40.5 55t-41.5 56q-53 68 -110 151v-2q-16 23 -50 65.5t-50 65.5l-68 93 q-78 -39 -131 -129v2q-37 -72 -37 -150zM352 793q2 -4 29 -41q29 12 41 16zM367 1102q-1 -45 32 -86l2 -4q39 -55 45 -64q14 4 72 4q113 0 146 115q4 29 4 39q0 88 -84 131q-39 16 -68 16q-66 0 -115 -57q-35 -35 -34 -94z" />
<glyph unicode="'" horiz-adv-x="323" d="M49 797v336q0 49 31 78.5t80 29.5q47 0 80.5 -29.5t33.5 -78.5v-336q0 -47 -34.5 -81t-79.5 -34q-47 0 -79 34t-32 81z" />
<glyph unicode="(" horiz-adv-x="509" d="M33 711q0 186 73 368q68 174 201 314q64 67 123 4q57 -51 4 -117q-231 -242 -231 -569q0 -326 229 -568v2q57 -51 -2 -120q-25 -25 -59.5 -25t-59.5 25q-137 143 -207 317q-72 184 -71 369z" />
<glyph unicode=")" horiz-adv-x="512" d="M56 87.5q-1 35.5 22 57.5v-2q231 244 231 568q0 326 -233 569q-49 63 4 117q64 66 125 -4q131 -139 203 -314h-2q74 -182 73.5 -368.5t-73.5 -368.5q-76 -184 -205 -317q-29 -25 -62 -25q-37 0 -59 25q-23 27 -24 62.5z" />
<glyph unicode="*" horiz-adv-x="655" d="M35 886.5q0 61.5 63 61.5h82l-39 39q-45 43 0 88q47 47 86 0l39 -39v54q0 63 64 63q27 0 43 -18.5t16 -44.5v-54l39 37q43 45 86 2q43 -45 0 -88l-39 -39h84q61 0 61.5 -61.5t-61.5 -61.5h-82l37 -39q43 -43 0 -86q-14 -18 -43 -18q-27 0 -41 18l-41 41v-57 q0 -25 -17.5 -43t-41.5 -18q-63 0 -64 61v53l-43 -43q-18 -12 -39 -12q-29 0 -43 18q-43 43 0 86l37 39h-80q-63 0 -63 61.5z" />
<glyph unicode="+" horiz-adv-x="755" d="M27 555q0 84 86 84h180v190q0 86 86 86q84 0 84 -86v-190h182q84 0 84 -84q0 -86 -84 -86h-182v-190q0 -84 -84 -84q-86 0 -86 84v190h-180q-86 0 -86 86z" />
<glyph unicode="," horiz-adv-x="382" d="M47 149.5q0 59.5 43 101.5t102.5 42t101.5 -42t42 -101v-166q0 -59 -42 -102.5t-101 -43.5q-78 0 -127 78q-20 51 22.5 74.5t83.5 -17.5q5 -12 21 -12q20 0 20 23v20h-20q-59 0 -102.5 43t-43.5 102.5zM170 150q0 -23 23 -23q20 0 20 23q0 20 -20 20q-23 0 -23 -20z" />
<glyph unicode="-" d="M49 555q0 84 88 84h531q84 0 84 -84q0 -86 -84 -86h-531q-88 0 -88 86z" />
<glyph unicode="." horiz-adv-x="370" d="M45 161.5q0 67.5 37 104.5t102 37q68 0 105 -37t37 -104.5t-37 -104.5t-105 -37q-66 0 -102.5 37t-36.5 104.5zM162 164q-1 -23 22 -23q20 0 21 23q0 20 -21 20q-23 0 -22 -20z" />
<glyph unicode="/" horiz-adv-x="856" d="M37 -35l625 1254q32 70 110 41l2 -3q74 -33 43 -108l-629 -1260q-27 -45 -73 -45q-29 0 -45 15q-59 37 -33 106z" />
<glyph unicode="0" horiz-adv-x="890" d="M47 397v625q0 154 119 283q123 117 280 116q164 0 281 -116.5t117 -282.5v-625q0 -156 -119 -284q-119 -113 -279 -113q-166 0 -282.5 116.5t-116.5 280.5zM219 397q0 -94 67.5 -160.5t159.5 -66.5q66 0 119 33q-221 528 -346 835v-641zM326 1217q315 -750 348 -830v635 q0 94 -66.5 161.5t-161.5 67.5q-68 0 -120 -34z" />
<glyph unicode="1" horiz-adv-x="722" d="M21 1028.5q4 36.5 36 58.5h-4q100 74 238.5 159t245.5 167q49 27 90 6q45 -27 45 -76v-1249q0 -31 -27 -62.5t-59 -31.5q-35 0 -59.5 30.5t-24.5 63.5v1080l-348 -224q-68 -51 -117 17q-20 25 -16 61.5z" />
<glyph unicode="2" horiz-adv-x="892" d="M51 1022q0 102 47 186v-2q43 82 119 142q76 55 168 67l-2 -2q31 8 68 8q59 0 127 -22q92 -35 159 -103q59 -61 92 -155q27 -96 13 -183h2q-18 -98 -76 -176q-39 -49 -107.5 -142t-101.5 -134q-78 -102 -119 -158l-75 -102q-20 -27 -26.5 -37t-29.5 -39h453q84 0 84 -86 q0 -84 -84 -84h-625q-43 0 -76 39q-23 49 7 96q10 12 52 69.5t66 88.5q78 102 119 158q39 55 117 157q33 41 101.5 134.5t107.5 142.5q47 66 47 135q0 16 -12 70h2q-39 117 -146 149l2 -2q-53 14 -73 14q-78 0 -136 -45q-94 -68 -94 -184q0 -84 -84 -84q-86 0 -86 84z" />
<glyph unicode="3" horiz-adv-x="1028" d="M37 477q0 86 84 86q88 0 88 -86q0 -96 49 -172t137 -110q55 -25 121 -25q121 0 213 92q90 90 90 211q0 63 -24 121q-35 86 -112 137t-169 51q-86 0 -86 86t86 86q98 0 137 93q12 25 13 57q0 57 -45.5 102t-104.5 45q-35 0 -59 -10h2q-92 -39 -92 -137q0 -88 -86 -88 q-84 0 -84 88q0 100 51 177t145 116h-2q70 29 127 28q125 0 223 -98q94 -100 95 -223q0 -57 -25 -125q-25 -57 -55 -88q10 -4 32 -23q115 -82 166 -209q37 -92 37 -184q0 -33 -6 -82q-25 -141 -133 -254q-109 -109 -256 -133q-33 -6 -78 -6q-98 0 -186 37h2 q-129 57 -211 166q-84 127 -84 274z" />
<glyph unicode="4" horiz-adv-x="874" d="M27 709v626q0 86 86 86t86 -86v-538h454v538q0 86 86 86q35 0 59.5 -25.5t24.5 -60.5v-1251q0 -35 -24.5 -59.5t-59.5 -24.5q-86 0 -86 84v541h-540q-86 0 -86 84z" />
<glyph unicode="5" horiz-adv-x="882" d="M47 84q0 86 86 86h311q96 0 162 66.5t66 160.5q0 92 -66.5 160t-161.5 68h-311q-86 0 -86 84v626q0 86 86 86h625q84 0 84 -86q0 -84 -84 -84h-541v-454h227q164 0 281 -117t117 -283q0 -164 -117 -280.5t-281 -116.5h-311q-86 0 -86 84z" />
<glyph unicode="6" horiz-adv-x="886" d="M47 397v625q0 166 117 282.5t280 116.5q166 0 283 -116.5t117 -282.5q0 -84 -86 -84q-84 0 -84 84q0 94 -67.5 161.5t-162 67.5t-160 -67.5t-65.5 -161.5v-297q106 72 225 72q166 0 283 -117t117 -283q0 -164 -117 -280.5t-283 -116.5q-164 0 -280.5 116.5t-116.5 280.5z M219 397q0 -94 65.5 -160.5t160 -66.5t162 66.5t67.5 160.5q0 92 -68 160t-162 68q-92 0 -158.5 -68t-66.5 -160z" />
<glyph unicode="7" horiz-adv-x="876" d="M53 1335q0 86 86 86h625q51 0 72 -39q27 -41 4 -86l-625 -1251q-25 -45 -76 -45q-35 0 -49 14q-59 35 -31 103l568 1134h-488q-86 0 -86 84z" />
<glyph unicode="8" horiz-adv-x="1030" d="M39 475q0 199 137 336q59 59 98 78q-80 90 -79 213q0 135 92 227t227 92t227.5 -92t92.5 -227q0 -123 -78 -213q39 -20 96 -78q139 -139 139 -335.5t-139 -336.5q-135 -139 -338 -139q-199 0 -338 139q-137 137 -137 336zM209 475q0 -127 89 -216t216 -89t216 89t89 216 t-89 217t-216 90t-216 -90t-89 -217zM367 1102q0 -61 44 -105.5t103 -44.5q61 0 105.5 44t44.5 106q0 59 -44.5 104t-105.5 45q-59 0 -103 -45t-44 -104z" />
<glyph unicode="9" horiz-adv-x="884" d="M43 397q0 86 84 86q86 0 86 -86q0 -94 65.5 -160.5t161.5 -66.5q92 0 160 66.5t68 160.5v297q-106 -70 -228 -69q-164 0 -280.5 116.5t-116.5 280.5q0 166 116.5 282.5t280.5 116.5q166 0 282 -116.5t116 -282.5v-625q0 -164 -116 -280.5t-282 -116.5 q-164 0 -280.5 116.5t-116.5 280.5zM213 1022q0 -94 66.5 -159.5t160.5 -65.5q92 0 160 66.5t68 158.5q0 94 -68 161.5t-160 67.5q-94 0 -160.5 -67.5t-66.5 -161.5z" />
<glyph unicode=":" horiz-adv-x="370" d="M45 141.5q0 67.5 37 104.5t102 37q68 0 105 -37t37 -104.5t-37 -104.5t-105 -37q-66 0 -102.5 37t-36.5 104.5zM45 632.5q0 67.5 37 104.5t102 37q68 0 105 -37t37 -104.5t-37 -104t-105 -36.5q-66 0 -102.5 36.5t-36.5 104zM162 143q-1 -22 22 -22q20 0 21 22 q0 20 -21 21q-23 0 -22 -21zM162 635q-1 -23 22 -23q20 0 21 23q0 20 -21 20q-23 0 -22 -20z" />
<glyph unicode=";" horiz-adv-x="385" d="M49 149.5q0 59.5 43 101.5t102.5 42t101.5 -42t42 -101v-166q0 -59 -42 -102.5t-101 -43.5q-78 0 -127 78q-20 51 22.5 74.5t83.5 -17.5q5 -12 21 -12q20 0 20 23v20h-20q-59 0 -102.5 43t-43.5 102.5zM55 632.5q0 67.5 37 104.5t103 37q68 0 104.5 -37t36.5 -104.5 t-36.5 -104t-104.5 -36.5q-66 0 -103 36.5t-37 104zM172 150q0 -23 23 -23q20 0 20 23q0 20 -20 20q-23 0 -23 -20zM172 635q0 -23 23 -23q20 0 20 23q0 20 -20 20q-23 0 -23 -20z" />
<glyph unicode="&#x3c;" horiz-adv-x="647" d="M23 711q0 51 43 73l395 232q66 49 123 -31q33 -82 -37 -115q-262 -154 -273 -159q164 -94 267 -156q41 -29 50 -56.5t-9 -66.5q-31 -41 -74 -41q-35 1 -51 15l-391 231q-43 18 -43 74z" />
<glyph unicode="=" horiz-adv-x="802" d="M49 414q0 88 88 88h531q84 0 84 -88q0 -84 -84 -84h-531q-88 0 -88 84zM49 694q0 86 88 86h531q84 0 84 -86q0 -37 -23.5 -60.5t-60.5 -23.5h-531q-37 0 -62.5 23.5t-25.5 60.5z" />
<glyph unicode="&#x3e;" horiz-adv-x="653" d="M72 436q-41 63 39 119l266 156l-275 161q-78 39 -28 115q49 82 116 31q66 -37 204 -119t204 -119q33 -35 33 -69q0 -37 -41 -72l-393 -233q-16 -14 -52 -15q-53 0 -73 45z" />
<glyph unicode="?" horiz-adv-x="786" d="M74 1186l4 -4q-72 57 -4 125q137 137 325 114q80 -12 161 -64t132 -120q63 -98 64 -211q0 -61 -23 -133v2q-61 -180 -246 -246q-45 -20 -45 -67v-142q0 -84 -86 -84t-86 84v142q0 78 43 138t117 91q102 37 141 137q12 37 13 78q0 63 -37 121h2q-55 82 -168 104 q-110 11 -186 -65q-61 -61 -121 0zM270 84v102q0 84 86 84t86 -84v-102q0 -86 -86 -86t-86 86z" />
<glyph unicode="@" horiz-adv-x="1359" d="M41 452.5q0 264.5 187.5 452t451.5 187.5t451.5 -187.5t187.5 -452t-187.5 -451.5t-451.5 -187t-451.5 187t-187.5 451.5zM215 452.5q0 -190.5 137 -327.5t327.5 -137t328 137t137.5 327.5t-137.5 328t-328 137.5t-327.5 -137.5t-137 -328zM365 410q0 -121 87 -209 t210 -88q78 0 135 32q20 -32 73 -32q86 0 86 86v315q0 123 -86 209t-208.5 86t-209.5 -86t-87 -209v-104zM535 410v104q0 53 37 89t90 36q51 0 86.5 -36t35.5 -89v-104q0 -53 -35.5 -90t-86.5 -37q-53 0 -90 36.5t-37 90.5z" />
<glyph unicode="A" horiz-adv-x="1304" d="M43 606v260q0 248 178 430q172 176 428 176q1 0 1 1q255 0 427 -177q180 -180 180 -430v-780q0 -86 -90 -86q-86 0 -86 86v94l-4 -4q-176 -176 -428 -176t-428 176q-178 180 -178 430zM219 606q0 -178 126 -304t304 -126q180 0 306 126t126 304v260q0 178 -126 305 t-306 127q-178 0 -304 -127t-126 -305v-260z" />
<glyph unicode="B" horiz-adv-x="1193" d="M51 86v1296q0 37 25.5 64t62.5 27h283q139 0 235.5 -97.5t96.5 -232.5q0 -80 -45 -158q182 -23 305 -143q145 -145 145 -348q0 -205 -145 -351q-139 -143 -348 -143h-527q-39 0 -63.5 22.5t-24.5 63.5zM227 176h439q131 0 225 93t94 225q0 127 -94 221t-225 94h-439v-633 zM227 987h195q63 0 109.5 45t46.5 111q0 61 -46.5 108t-109.5 47h-195v-311z" />
<glyph unicode="C" horiz-adv-x="1259" d="M43 608v260q0 229 141 398q123 137 338 194q59 14 137 15q127 0 248 -54q203 -94 307 -321q0 -78 -55 -101q-15 -8 -31 -8q-16 1 -32 9q-32 16 -52 47q-57 125 -166.5 189t-220.5 64q-41 0 -98 -10h4q-135 -35 -238.5 -143.5t-103.5 -278.5v-260q0 -172 103.5 -278.5 t238.5 -141.5h-2q51 -10 96 -10q115 0 222.5 61.5t164.5 192.5q24 50 71 50q20 0 44 -9l-10 2q39 -10 55 -45q9 -20 10 -40q0 -16 -6 -32q-92 -201 -299 -305q-117 -53 -252 -53q-51 0 -133 14h-2q-203 49 -336 195q-143 168 -143 399z" />
<glyph unicode="D" horiz-adv-x="1185" d="M51 86v1296q0 90 88 91h400q250 0 426 -177q178 -182 178 -430v-260q0 -250 -178 -430q-176 -176 -426 -176h-400q-88 0 -88 86zM229 176h310q178 0 304 126t126 304v260q0 178 -126 305t-304 127h-310v-1122z" />
<glyph unicode="E" horiz-adv-x="1298" d="M43 606v260q0 127 45 232q47 111 134 197.5t196 129.5h-2q111 47 235 48q123 0 234 -48h-2q111 -43 198 -131q82 -86 129 -196v2q47 -117 47 -234q0 -90 -86 -90h-952v-170q0 -133 73 -238.5t189 -156.5q86 -35 170 -35q131 0 236.5 71.5t156.5 186.5q29 68 89 68 q88 0 88 -84q0 -16 -13 -49q-49 -109 -127 -193q-176 -176 -430 -176q-131 0 -235 45q-109 45 -196 132t-132 196q-45 104 -45 233zM231 952h838q-37 147 -154 246.5t-264 99.5q-127 0 -230.5 -67.5t-158.5 -183.5q-25 -53 -31 -95z" />
<glyph unicode="F" horiz-adv-x="952" d="M49 86v973q0 172 122 293t292 121h59q170 0 291 -121t121 -293q0 -86 -88 -86q-39 0 -63.5 24.5t-24.5 61.5q0 100 -69 169.5t-167 69.5h-59q-100 0 -169 -69.5t-69 -169.5v-397h318q88 0 88 -88.5t-88 -88.5h-318v-399q0 -86 -88 -86t-88 86z" />
<glyph unicode="G" horiz-adv-x="1314" d="M45 606v260q0 248 176 430q182 176 430 177q254 0 430 -177q109 -109 140 -209q10 -34 10 -59q0 -57 -51 -74q-18 -6 -35 -6q-37 0 -68 27q-18 16 -22 39q-23 104 -149 193t-255 89q-178 0 -304 -126t-126 -304v-260q0 -178 126 -304t304 -126q150 0 269.5 98.5 t152.5 243.5h-422q-88 0 -88 88t88 88h518q90 0 91 -88q0 -252 -179 -430q-176 -176 -430 -176q-248 0 -430 176q-176 182 -176 430z" />
<glyph unicode="H" horiz-adv-x="1173" d="M51 86v1296q0 90 90 91q88 0 88 -91v-557h719v557q0 90 88 91q86 0 86 -91v-1296q0 -86 -86 -86q-88 0 -88 86v561h-719v-561q0 -86 -88 -86q-90 0 -90 86z" />
<glyph unicode="I" horiz-adv-x="972" d="M43 86q0 39 24.5 64.5t63.5 25.5h266v1122h-266q-39 0 -63.5 21.5t-24.5 62.5q0 37 25.5 64t62.5 27h711q88 0 88 -91q0 -84 -88 -84h-269v-1122h269q88 0 88 -90q0 -86 -88 -86h-711q-39 0 -63.5 22.5t-24.5 63.5z" />
<glyph unicode="J" horiz-adv-x="899" d="M27 412q0 37 24.5 63.5t61.5 26.5t62.5 -26.5t25.5 -63.5q0 -98 69.5 -167t165.5 -69q100 0 170 68.5t70 167.5v886h-240q-84 0 -84 84q0 90 84 91h326q88 -1 88 -91v-970q0 -170 -121 -291t-293 -121q-168 0 -288.5 121t-120.5 291z" />
<glyph unicode="K" horiz-adv-x="1083" d="M51 86v1296q0 37 26.5 64t61.5 27q88 0 88 -91v-557h236q98 0 166.5 69t68.5 165v323q0 90 93 91q84 0 83 -91v-323q0 -145 -104 -271q123 -55 195.5 -155.5t72.5 -220.5v-326q0 -86 -88 -86q-39 0 -63.5 22.5t-24.5 63.5v326q0 98 -68.5 166.5t-166.5 68.5h-400v-561 q0 -86 -88 -86q-37 0 -62.5 23.5t-25.5 62.5z" />
<glyph unicode="L" horiz-adv-x="888" d="M55 571v35v776q0 90 90 91q31 0 59.5 -28t28.5 -63v-776q0 -160 19.5 -249t81 -128t114 -46t179.5 -7h37h118q90 0 90 -90q0 -86 -90 -86h-118q-121 0 -175.5 2t-145.5 24.5t-153 67.5q-49 35 -77.5 83t-41 120t-14.5 122t-2 152z" />
<glyph unicode="M" horiz-adv-x="2353" d="M51 86v1296q0 90 90 91q86 0 86 -91v-88l2 2q182 176 428 177q254 0 430 -177q37 -37 91 -118q45 72 92 118q172 176 428 177q248 0 430 -177q176 -186 176 -430v-780q0 -86 -88 -86t-88 86v780q0 178 -126 305t-304 127q-180 0 -306 -127t-126 -305v-780q0 -86 -86 -86 q-37 0 -65 23.5t-28 62.5v780q0 178 -125.5 305t-304 127t-304.5 -127t-126 -305v-780q0 -86 -86 -86q-90 0 -90 86z" />
<glyph unicode="N" horiz-adv-x="1312" d="M51 86v1296q0 37 25.5 64t62.5 27q90 0 90 -91v-86q176 176 430 177q250 0 433 -177q174 -184 174 -430v-780q0 -41 -24.5 -63.5t-63.5 -22.5q-88 0 -88 86v780q0 178 -126 305t-304.5 127t-304.5 -127t-126 -305v-780q0 -86 -90 -86q-39 0 -63.5 22.5t-24.5 63.5z" />
<glyph unicode="O" horiz-adv-x="1300" d="M43 606v260q0 248 176 430q176 176 430 176t430 -176q178 -182 178 -430v-260q0 -250 -178 -430q-176 -176 -430 -176t-430 176q-176 182 -176 430zM213 616q0 -184 125 -305q133 -133 311 -133q180 0 309 133q129 123 129 305v240q1 182 -126 305h-3q-129 133 -309 133 q-178 0 -311 -133q-125 -121 -125 -305v-240z" />
<glyph unicode="P" horiz-adv-x="1087" d="M51 86v1296q0 90 88 91h420q205 0 354.5 -149.5t149.5 -352.5q0 -209 -150 -359q-154 -147 -354 -147h-330v-379q0 -86 -90 -86q-88 0 -88 86zM229 643h330q135 0 231.5 96.5t96.5 231.5q0 133 -97.5 230t-230.5 97h-330v-655z" />
<glyph unicode="Q" horiz-adv-x="1302" d="M43 606v260q0 244 176 430q182 177 432 177q254 0 430 -177q176 -182 176 -430v-260q0 -205 -129 -370q25 -37 29 -39q0 -2 12 -15q2 -2 4.5 -7t9.5 -14t21 -26q10 -29 10 -52q0 -37 -24 -60q-23 -23 -61.5 -23t-63.5 29l-61 84q-162 -113 -353 -113q-250 0 -432 176 q-176 186 -176 430zM219 606q0 -178 126 -304t306 -126q129 0 246 78q-14 16 -27.5 34.5t-29 40t-23.5 31.5q-12 21 -12 44q0 36 26 79q36 17 64 17q39 0 61 -31l62 -84q61 102 61 221v260q0 178 -125 305t-303 127q-180 0 -306 -127t-126 -305v-260z" />
<glyph unicode="R" horiz-adv-x="1148" d="M51 86v1296q0 90 88 91h459q207 0 356 -150q148 -147 148 -352q0 -211 -148 -359l-20 -20q76 -49 122 -121t46 -152v-233q0 -86 -88 -86t-88 86v233q0 59 -42 102.5t-104 43.5h-551v-379q0 -86 -90 -86q-88 0 -88 86zM229 643h369q137 0 232.5 95.5t95.5 232.5 q0 135 -96.5 231t-231.5 96h-369v-655z" />
<glyph unicode="S" horiz-adv-x="1007" d="M43 1059q0 172 119 293t291 121h100q147 0 260 -95q102 -84 145 -239q0 -82 -61 -99q-18 -6 -33 -6q-49 0 -78 60q-18 90 -82.5 147t-150.5 57h-100q-96 0 -165 -69.5t-69 -169.5q0 -96 68.5 -165t165.5 -69h100q170 0 291 -120.5t121 -292.5q0 -111 -39 -181 q-68 -111 -117 -141l4 2q-6 -4 -76 -49q-59 -33 -159 -43h-125q-135 0 -260 92q-109 96 -144 246q-1 6 -1 11q0 29 20 51q22 26 59 34q8 1 15 1q67 0 79 -68l-2 2q16 -86 82 -139.5t152 -53.5h118q70 12 131.5 67.5t79.5 123.5v2q6 25 6 43q0 98 -68.5 166.5t-166.5 68.5 h-100q-172 0 -291 120t-119 292z" />
<glyph unicode="T" horiz-adv-x="1267" d="M29 1382q0 91 88 91h1034q90 0 90 -91q0 -84 -90 -84h-451v-1212q0 -86 -86 -86q-88 0 -88 86v1212h-409q-88 0 -88 84z" />
<glyph unicode="U" horiz-adv-x="1310" d="M47 606v776q0 90 86 91q90 0 90 -91v-776q0 -178 126 -304t306 -126q178 0 304 126t126 304v776q1 91 89 91q86 0 86 -91v-1296q0 -86 -86 -86q-88 0 -89 86v92l-2 -2q-176 -176 -428 -176q-254 0 -430 176q-178 180 -178 430z" />
<glyph unicode="V" horiz-adv-x="1308" d="M53 1350l2 -2q-8 19 -8 37q0 51 68 83q20 4 37 4q20 0 34 -7q24 -13 35 -56q27 -63 47 -119q285 -719 387 -973q12 27 33 89q29 70 85 208t81 201h-2q123 301 240 602q27 57 73 57q20 0 43 -10h4q55 -23 55 -68q0 -21 -12 -46v2q-16 -39 -79 -209q-88 -225 -181 -441h2 q-39 -98 -116 -290q-37 -86 -148 -367q-33 -45 -76 -45q-72 0 -86 61l4 -10q-29 76 -96 239t-100 249h2q-10 29 -32.5 83t-35.5 80z" />
<glyph unicode="W" horiz-adv-x="2351" d="M49 606v776q0 37 25.5 64t62.5 27q90 0 90 -91v-776q0 -178 126 -304t304.5 -126t304 126t125.5 304v776q0 90 89 91q37 0 62.5 -27t25.5 -64v-776q0 -178 126 -304t306 -126q178 0 304 126t126 304v776q0 91 88 91t88 -91v-776q0 -244 -176 -430q-176 -176 -430 -176 t-430 176q-51 51 -90 117q-29 -53 -89 -117q-182 -176 -430 -176q-254 0 -430 176q-178 178 -178 430z" />
<glyph unicode="X" horiz-adv-x="1312" d="M53 125q4 4 162 201q8 10 44 56t56 71h-2q115 143 129 161q20 27 48 63t49 60q-256 319 -297 371v-2q-18 20 -47 60t-39 53q-16 20 -46 57t-44 55q-12 25 -10.5 58.5t16.5 58.5q29 17 57 17h9q32 -3 59 -21q20 -23 60 -74t60 -76q100 -131 164 -202l170 -215q14 20 33 38 q25 37 84 105q6 6 52 65.5t71 92.5q25 31 65.5 81t74.5 91t67 82q18 30 64 32h11q38 0 60 -16q23 -31 23 -64q0 -23 -11 -47l-481 -602q131 -162 158 -196q23 -29 64.5 -81t60.5 -75q37 -49 94 -121q20 -27 102 -123q14 -29 14 -55q0 -38 -30 -68q-6 -4 -22.5 -9t-22.5 -7 q-55 0 -80 33l-451 565q-12 -14 -30.5 -38.5t-30.5 -39.5q-18 -25 -55 -73t-54 -68q-80 -94 -186 -229q-2 -2 -100 -127q-27 -23 -60 -23q-39 0 -59 20q-23 25 -23 105z" />
<glyph unicode="Y" horiz-adv-x="1282" d="M41 1393q4 37 22 57q21 13 56 13h14q45 -3 64 -29q102 -125 163 -205q76 -100 168 -211q27 -35 84 -100q12 -16 35 -41q18 27 51 65q49 66 103 129h-2q113 143 145 184q70 88 156 193q20 20 56 20t67 -18q16 -27 19 -60q1 -6 1 -12q0 -27 -12 -49q-31 -39 -92.5 -116.5 t-91.5 -116.5v2l-142 -172l-92 -117q-12 -14 -27.5 -33.5t-28 -36t-26.5 -32.5v-621q0 -86 -86 -86q-90 0 -90 86v619q-27 31 -72 87t-65 82q-29 35 -87.5 108t-86.5 110q-70 90 -152 188l-39 51q-13 20 -13 48q0 7 1 14z" />
<glyph unicode="Z" horiz-adv-x="1329" d="M60 76q-1 5 -1 10q1 12 5 20q6 12 24 37l922 1155h-856q-86 0 -86 84q0 90 86 91h1040q55 0 78 -54q8 -22 8 -40q0 -32 -25 -56l5 6q-168 -209 -461 -576.5t-461 -576.5h856q31 0 58.5 -26.5t27.5 -63.5q0 -39 -26.5 -62.5t-59.5 -23.5h-1040q-49 0 -74 39q-18 19 -20 37 z" />
<glyph unicode="[" horiz-adv-x="458" d="M51 -70v1563q0 84 84 84h203q86 0 86 -84q0 -86 -86 -86h-117v-1393h117q35 0 60.5 -24.5t25.5 -59.5q0 -86 -86 -86h-203q-84 0 -84 86z" />
<glyph unicode="\" horiz-adv-x="860" d="M41 1298q-37 78 43 115q72 31 111 -39l626 -1251q29 -68 -49 -121q-2 0 -12 -1t-15 -1q-50 0 -77 45z" />
<glyph unicode="]" horiz-adv-x="458" d="M33 -70q0 35 23.5 59.5t60.5 24.5h119v1393h-119q-84 0 -84 86q0 84 84 84h205q35 0 59.5 -23.5t24.5 -60.5v-1563q0 -35 -25 -60.5t-59 -25.5h-205q-84 0 -84 86z" />
<glyph unicode="^" horiz-adv-x="745" d="M66 520q39 66 115.5 199t117.5 199q29 43 74 43q47 0 73 -43l234 -398l-4 4q49 -70 -31 -125q-82 -33 -113 37l-159 273q-25 -41 -78 -134.5t-84 -142.5q-23 -41 -74 -41q-39 0 -55 21l8 -6q-70 49 -20 118z" />
<glyph unicode="_" horiz-adv-x="1103" d="M51 86q0 84 86 84h830q86 0 86 -84q0 -86 -86 -86h-830q-86 0 -86 86z" />
<glyph unicode="`" horiz-adv-x="442" d="M59 1282q-47 66 11 119q69 45 116 -2l195 -244q45 -70 -14 -119l6 4q-25 -25 -59.5 -24.5t-59.5 24.5z" />
<glyph unicode="a" horiz-adv-x="886" d="M43 397v158q0 164 116.5 280.5t280.5 116.5t282 -116.5t118 -280.5v-471q0 -35 -28 -59.5t-60 -24.5q-37 0 -58.5 21.5t-23.5 58.5q-109 -80 -230 -80q-164 0 -280.5 116.5t-116.5 280.5zM211 397q0 -94 66.5 -161.5t163 -67.5t163 67.5t66.5 161.5v158q0 94 -66.5 160.5 t-163 66.5t-163 -66.5t-66.5 -160.5v-158z" />
<glyph unicode="b" horiz-adv-x="872" d="M49 397v940q0 84 84 84q37 0 61.5 -22.5t24.5 -61.5v-460q99 75 222 75h3q164 0 283 -116.5t119 -280.5v-158q0 -162 -119 -279.5t-282.5 -117.5t-279.5 116.5t-116 280.5zM219 397q0 -94 65.5 -161.5t159.5 -67.5q96 0 163 67.5t67 161.5v158q0 94 -66.5 160.5 t-163.5 66.5q-92 0 -158.5 -67.5t-66.5 -159.5v-158z" />
<glyph unicode="c" horiz-adv-x="864" d="M43 397v158q0 150 92 258q88 100 221 131q35 8 88 8q92 0 168 -37q129 -63 193 -196q10 -21 10 -39q0 -41 -47 -74q-19 -8 -37 -8q-45 0 -82 53q-61 131 -205 131q-37 0 -47 -4q-70 -14 -127 -74.5t-57 -148.5v-158q0 -94 54.5 -148t129.5 -75q20 -6 52 -6q141 0 196 121 q34 63 84 63q22 0 47 -12q33 -16 38 -41q2 -10 2 -18q0 -14 -5 -27v-6q-76 -156 -201 -213q-80 -35 -164 -35q-55 0 -90 8h2q-141 29 -221 127q-94 111 -94 262z" />
<glyph unicode="d" horiz-adv-x="872" d="M27 397v158q0 164 116.5 280.5t282.5 116.5q115 0 227 -80v465q0 84 86 84q84 0 84 -84v-940q0 -164 -116.5 -280.5t-280.5 -116.5q-166 0 -282.5 116.5t-116.5 280.5zM197 397q0 -94 67.5 -161.5t161.5 -67.5q92 0 159.5 67.5t67.5 161.5v158q0 92 -67.5 159.5 t-159.5 67.5q-94 0 -161.5 -67.5t-67.5 -159.5v-158z" />
<glyph unicode="e" horiz-adv-x="878" d="M43 397v158q0 123 66.5 221t177.5 144h-2q70 32 150 32h5q123 0 221.5 -67.5t143.5 -175.5q33 -66 33 -154q0 -35 -25 -61q-25 -25 -59 -25h-541v-72q0 -145 139 -211q41 -18 88 -18q92 0 162 70q29 29 49 71q10 23 16.5 30t22 15t41.5 8q84 0 84 -79q0 -20 -8 -31 q-35 -86 -86 -137q-115 -115 -281 -115q-123 0 -221 66.5t-147 175.5q-29 76 -29 155zM229 637h422q-29 68 -86 106.5t-125 38.5q-137 0 -202 -129z" />
<glyph unicode="f" horiz-adv-x="864" d="M49 84v940q0 166 118 281.5t284 115.5q164 0 279.5 -115.5t115.5 -281.5q0 -84 -84 -84q-86 0 -86 84q0 94 -66.5 160.5t-158.5 66.5q-96 0 -164 -66.5t-68 -160.5v-387h232q81 0 81 -80q0 -39 -22.5 -63.5t-58.5 -24.5h-232v-385q0 -37 -21.5 -60.5t-62.5 -23.5 q-35 0 -60.5 24.5t-25.5 59.5z" />
<glyph unicode="g" horiz-adv-x="886" d="M45 -238q0 37 23.5 61.5t60.5 24.5q84 0 84 -86q0 -92 67.5 -159.5t162 -67.5t162 67.5t67.5 159.5v312q-102 -74 -230 -74q-164 0 -280.5 116.5t-116.5 280.5v158q0 164 117 280.5t280.5 116.5t280.5 -116.5t117 -280.5v-793q0 -162 -117 -278.5t-280.5 -116.5 t-280.5 117t-117 278zM213 397q0 -94 67.5 -161.5t162 -67.5t162 67.5t67.5 161.5v158q0 92 -67.5 159.5t-162 67.5t-162 -67.5t-67.5 -159.5v-158z" />
<glyph unicode="h" horiz-adv-x="876" d="M51 84v1253q0 84 86 84q82 0 82 -84v-460q97 75 230 75h4q162 0 278.5 -116.5t116.5 -280.5v-471q0 -37 -21.5 -60.5t-62.5 -23.5t-63.5 23.5t-22.5 60.5v471q0 92 -67.5 159.5t-157.5 67.5q-98 0 -166 -67.5t-68 -159.5v-471q0 -37 -21.5 -60.5t-60.5 -23.5 q-35 0 -60.5 24.5t-25.5 59.5z" />
<glyph unicode="i" horiz-adv-x="272" d="M51 84v784q0 84 84 84t84 -84v-784q0 -35 -24.5 -59.5t-59.5 -24.5q-37 0 -60.5 24.5t-23.5 59.5zM51 1139v104q0 84 84 84t84 -84v-104q0 -84 -84 -84t-84 84z" />
<glyph unicode="j" horiz-adv-x="290" d="M-555 -236q0 51 21.5 68.5t62.5 17.5q86 0 86 -86q0 -92 66.5 -159.5t161 -67.5t162 67.5t67.5 159.5v1104q0 84 84 84q86 0 86 -84v-1104q0 -164 -118 -280.5t-282 -116.5t-280.5 117t-116.5 280zM72 1128v154q0 86 84 86q86 0 86 -86v-154q0 -86 -86 -86q-84 0 -84 86z " />
<glyph unicode="k" horiz-adv-x="765" d="M51 84v1253q0 39 24.5 61.5t61.5 22.5q84 0 84 -84v-702h117q94 0 161.5 66.5t67.5 160.5q0 84 86 84q82 0 82 -84q0 -184 -155 -313q156 -127 155 -313v-152q0 -37 -22.5 -60.5t-59.5 -23.5q-35 0 -60.5 24.5t-25.5 59.5v152q0 94 -67.5 161.5t-161.5 67.5h-117v-381 q0 -37 -21.5 -60.5t-62.5 -23.5q-35 0 -60.5 24.5t-25.5 59.5z" />
<glyph unicode="l" horiz-adv-x="274" d="M51 84v1249q0 86 86 86q37 0 60.5 -22.5t23.5 -63.5v-1249q0 -35 -24.5 -59.5t-59.5 -24.5q-37 0 -61.5 24.5t-24.5 59.5z" />
<glyph unicode="m" horiz-adv-x="1521" d="M51 84v784q0 84 84 84q78 0 84 -73q99 73 227 73h3q188 0 313 -157q136 157 311 157h2q164 0 281 -116.5t117 -280.5v-471q0 -35 -25 -59.5t-62 -24.5q-35 0 -59 24.5t-24 59.5v471q0 92 -68 159.5t-160 67.5q-96 0 -163.5 -67.5t-67.5 -159.5v-471q0 -37 -21.5 -60.5 t-62.5 -23.5q-35 0 -59.5 24.5t-24.5 59.5v471q0 92 -66.5 159.5t-160.5 67.5q-96 0 -163 -66.5t-67 -160.5v-471q0 -35 -23.5 -59.5t-60.5 -24.5t-60.5 24.5t-23.5 59.5z" />
<glyph unicode="n" horiz-adv-x="894" d="M51 84v784q0 35 24.5 59.5t59.5 24.5q80 0 84 -78q106 78 230 78q166 0 282.5 -116.5t116.5 -280.5v-471q0 -35 -24.5 -59.5t-61.5 -24.5q-35 0 -59.5 24.5t-24.5 59.5v471q0 92 -67.5 159.5t-162 67.5t-162 -67.5t-67.5 -159.5v-471q0 -35 -23.5 -59.5t-60.5 -24.5 q-35 0 -59.5 24.5t-24.5 59.5z" />
<glyph unicode="o" horiz-adv-x="876" d="M43 406v161q0 166 115.5 286t279.5 120t280 -120t116 -286v-161q0 -168 -116 -287t-280 -119t-279.5 119t-115.5 287zM209 416q0 -100 65.5 -170t164 -70t163 69.5t64.5 170.5v143q0 100 -64.5 169t-163 69t-164 -69t-65.5 -169v-143z" />
<glyph unicode="p" horiz-adv-x="872" d="M49 -553v1108q0 164 117 280.5t283 116.5q164 0 280.5 -116.5t116.5 -280.5v-158q0 -164 -118 -280.5t-279 -116.5q-129 0 -230 72v-625q0 -31 -25.5 -56.5t-60.5 -25.5t-59.5 25.5t-24.5 56.5zM219 397q0 -94 67.5 -161.5t162.5 -67.5q92 0 159.5 67.5t67.5 161.5v158 q0 92 -67.5 159.5t-159.5 67.5q-94 0 -162 -67.5t-68 -159.5v-158z" />
<glyph unicode="q" horiz-adv-x="872" d="M27 399v156q0 164 118.5 280.5t282.5 116.5t279.5 -116.5t115.5 -280.5l-4 -1110q0 -29 -22.5 -54.5t-57.5 -25.5q-39 0 -62.5 24.5t-23.5 59.5v631q-111 -80 -225 -80q-164 0 -282.5 118t-118.5 281zM197 399q0 -96 68.5 -163.5t162.5 -67.5t159.5 67.5t65.5 163.5v156 q0 92 -66.5 159.5t-158.5 67.5q-94 0 -162.5 -67.5t-68.5 -159.5v-156z" />
<glyph unicode="r" horiz-adv-x="759" d="M51 84v780q0 84 86 84q33 0 56.5 -20.5t27.5 -50.5q95 71 224 71h4q144 0 253 -92q23 -20 28 -55q1 -7 1 -14q0 -27 -16 -48l2 2q-27 -35 -64 -37h-6q-33 0 -53 21q-63 53 -145 53q-92 0 -160 -66.5t-68 -160.5v-467q0 -35 -23.5 -59.5t-60.5 -24.5q-86 0 -86 84z" />
<glyph unicode="s" horiz-adv-x="696" d="M47 676q0 115 81 195.5t198 80.5h47q98 0 180 -61q80 -88 94 -164q1 -8 1 -15q0 -49 -56 -81q-72 0 -105 41q-18 45 -49.5 77.5t-64.5 32.5h-47q-47 0 -79 -30.5t-32 -75.5q0 -49 32 -81t79 -32h47q117 0 198.5 -81t81.5 -199q0 -66 -43 -156q-12 -23 -63 -64l6 3 q-4 -4 -11 -8.5t-12 -6.5q-2 0 -6 -2q-4 -4 -8 -4v-2v2l-4 -6l4 4q-14 -14 -29 -16q-55 -25 -114 -25h-47q-104 0 -191 72q-66 66 -86 153q-1 6 -1 12q0 48 58 87q55 0 105 -41q10 -51 42 -83t73 -32h47q35 0 65.5 28.5t40.5 67.5v-2q4 16 4 19q0 45 -32.5 78.5t-77.5 33.5 h-47q-119 0 -199 81t-80 200z" />
<glyph unicode="t" horiz-adv-x="555" d="M47 397v940q0 39 25.5 61.5t62.5 22.5q82 0 82 -84v-229h232q82 0 82 -84t-82 -84h-232v-543q0 -94 66.5 -161.5t165.5 -67.5q81 0 81 -82q0 -39 -22.5 -62.5t-58.5 -23.5q-164 0 -283 118t-119 279z" />
<glyph unicode="u" horiz-adv-x="894" d="M47 397v471q0 35 24.5 59.5t61.5 24.5q84 0 84 -84v-471q0 -94 67.5 -161.5t161.5 -67.5q92 0 160 67.5t68 161.5v471q0 84 86 84q35 0 59.5 -24.5t24.5 -59.5v-784q0 -35 -24.5 -59.5t-59.5 -24.5q-82 0 -86 80q-113 -80 -228 -80q-166 0 -282.5 116.5t-116.5 280.5z " />
<glyph unicode="v" horiz-adv-x="884" d="M45 898q10 36 45 46q14 3 28 3q20 0 38 -6q32 -11 49 -44q43 -113 71 -178v2q10 -27 33 -85t35 -85q51 -131 78 -193l10 -28q2 -2 8 -15q39 104 97 238h-2q16 39 63 158.5t76 185.5q33 55 77 55q17 0 35 -8q34 -14 48 -46q7 -16 7 -30q0 -15 -7 -30q-8 -20 -46 -114.5 t-61 -145.5q-23 -57 -66 -165t-77.5 -197t-63.5 -165q-27 -51 -78 -51t-82 51l-311 787l4 -7q-12 20 -12 42q0 12 4 25z" />
<glyph unicode="w" horiz-adv-x="1519" d="M49 397v471q0 35 23.5 59.5t60.5 24.5q84 0 84 -84v-471q0 -94 67.5 -161.5t162 -67.5t162 67.5t67.5 161.5v471q0 84 84 84q37 0 60.5 -24.5t23.5 -59.5v-471q0 -94 67.5 -161.5t161.5 -67.5t160.5 67.5t66.5 161.5v471q0 84 86 84q84 0 84 -84v-471 q0 -164 -116.5 -280.5t-280.5 -116.5q-180 0 -313 160q-129 -160 -314 -160q-164 0 -280.5 116.5t-116.5 280.5z" />
<glyph unicode="x" horiz-adv-x="915" d="M59 68q-1 5 -1 11q0 34 24 58l274 338q-2 6 -14 19q-8 12 -172 211q-25 37 -35 45q-10 14 -57 71q-11 23 -11 45q0 34 27 66q27 16 54 16q30 0 61 -20q4 -8 16.5 -22.5t18.5 -20.5q18 -25 43 -56q135 -176 174 -221q16 18 53 64.5t55 68.5q20 29 33 41q70 94 109 142 q19 15 62 15h6q48 -1 61 -21l-6 12q28 -28 28 -60q0 -23 -14 -49l-279 -346q94 -123 168 -207q16 -23 54 -67l4 -4q2 -4 12 -16.5t31 -35.5q17 -27 17 -59q0 -36 -15 -55q-20 -20 -47 -25q27 4 28 6q-12 -12 -43 -12q-49 0 -71 37q-12 16 -27.5 35.5t-36 44t-33.5 39.5 q-37 49 -82 104t-65 82q-4 -6 -14.5 -18.5t-14.5 -20.5q-8 -10 -25.5 -30.5t-30.5 -37t-24 -30.5q-8 -10 -25.5 -31.5t-27.5 -34.5q-33 -49 -86 -108q-30 -31 -65 -31q-20 0 -46 12q-41 16 -45 56zM821 12q0 2 2 2z" />
<glyph unicode="y" horiz-adv-x="892" d="M47 -123q0 86 84 86q35 0 59.5 -25.5t24.5 -60.5q0 -92 66.5 -159.5t160.5 -67.5q98 0 165 66.5t67 160.5v201q-113 -78 -232 -78q-164 0 -279.5 116.5t-115.5 280.5v471q0 84 84 84q35 0 59.5 -24.5t24.5 -59.5v-471q0 -94 66.5 -161.5t160.5 -67.5q98 0 165 67.5 t67 161.5v471q0 84 82 84q33 0 60.5 -24.5t27.5 -59.5v-991q0 -162 -119 -278.5t-282.5 -116.5t-279.5 116.5t-116 278.5z" />
<glyph unicode="z" horiz-adv-x="907" d="M49 868q0 84 84 84h627q45 0 69 -39q21 -22 21 -46q0 -27 -29 -56l4 4q-203 -256 -516 -647h451q86 0 86 -84q0 -35 -24.5 -59.5t-61.5 -24.5h-627q-35 0 -74 37q-6 27 -6 48q0 38 19 56q4 10 26 33q41 49 66 82q74 96 207 258q27 33 93.5 117.5t121.5 150.5h-453 q-35 0 -59.5 26t-24.5 60z" />
<glyph unicode="{" horiz-adv-x="626" d="M22.5 711q0.5 86 83.5 86q47 0 78 31.5t31 78.5v234q0 117 83 198.5t200 81.5q84 0 84 -84q0 -86 -84 -86q-47 0 -79 -31.5t-32 -78.5v-234q0 -117 -80 -196q80 -84 80 -195v-235q0 -47 32 -79t79 -32q84 0 84 -84q0 -86 -84 -86q-119 0 -201 82t-82 199v235q0 47 -31 78 t-78 31q-84 0 -83.5 86z" />
<glyph unicode="|" horiz-adv-x="276" d="M51 86v1251q0 84 86 84t86 -84v-1251q0 -86 -86 -86t-86 86z" />
<glyph unicode="}" horiz-adv-x="628" d="M43 86q0 37 24.5 60.5t59.5 23.5q47 0 80 32t33 79v235q0 113 77 195q-78 82 -77 196v234q0 47 -33 78.5t-80 31.5q-35 0 -59.5 26t-24.5 60.5t24.5 59t59.5 24.5q119 0 201 -82t82 -198v-234q0 -47 31.5 -78.5t76.5 -31.5q88 0 88 -86t-88 -86q-45 0 -76.5 -31 t-31.5 -78v-235q0 -117 -82 -199t-201 -82q-35 0 -59.5 25.5t-24.5 60.5z" />
<glyph unicode="~" horiz-adv-x="17502" d="M37 8q0 49 24 68q-25 37 -24 88q0 68 48 116t114 48q68 0 115.5 -48.5t47.5 -115.5v-156q0 -68 -48 -116t-115 -48q-66 0 -114 48t-48 116zM193 164q0 -8 6 -8q8 0 8 8q0 6 -8 6q-6 0 -6 -6zM1602 163.5q0 67.5 48 116t113 48.5q68 0 116 -48.5t48 -116t-48 -115.5 t-116 -48q-66 0 -113.5 48t-47.5 115.5zM1757 164q0 -8 6 -8q9 0 9 8q0 6 -9 6q-6 0 -6 -6zM3164 8q0 53 25 68q-25 37 -25 88q0 68 48 116t116 48q66 0 114 -48.5t48 -115.5v-156q0 -68 -48 -116t-114 -48q-68 0 -116 48t-48 116zM3164 632.5q0 67.5 48 116t116 48.5 q66 0 114 -48.5t48 -116t-48 -115.5t-114 -48q-68 0 -116 48t-48 115.5zM3320 164q0 -8 8 -8q6 0 6 8q0 6 -6 6q-8 0 -8 -6zM3320 633q0 -8 8 -8q6 0 6 8q0 6 -6 6q-8 0 -8 -6zM4729 163.5q0 67.5 48 116t115.5 48.5t114.5 -48.5t47 -116t-47 -115.5t-114.5 -48t-115.5 48 t-48 115.5zM4729 632.5q0 67.5 48 116t115.5 48.5t114.5 -48.5t47 -116t-47 -115.5t-114.5 -48t-115.5 48t-48 115.5zM4884 164q1 -8 9 -8q6 0 6 8q0 6 -6 6q-8 0 -9 -6zM4884 633q1 -8 9 -8q6 0 6 8q0 6 -6 6q-8 0 -9 -6zM5335 86v938q0 84 86 84t86 -84v-938 q0 -86 -86 -86t-86 86zM5335 1102v155q0 86 86 86t86 -86v-155q0 -86 -86 -86t-86 86zM8157 1298q-31 80 43 115q70 33 111 -39l626 -1251q29 -68 -49 -121l-12 -2h-14q-51 0 -76 45zM14246 711q0 90 63.5 154.5t153.5 64.5t154.5 -64.5t64.5 -154.5q0 -20 13.5 -33.5 t34 -13.5t34.5 13t14 34q0 86 84 86q86 0 86 -86q0 -90 -64.5 -154.5t-154.5 -64.5t-153.5 64.5t-63.5 154.5q0 47 -49 47q-45 0 -45 -47q0 -86 -88 -86q-84 0 -84 86zM17121 1282q-49 61 8 119q74 41 117 -2l195 -244q47 -68 -13 -119l5 4q-25 -25 -60 -24.5t-59 24.5z" />
<glyph unicode="&#xa1;" horiz-adv-x="274" d="M51 -221v856q0 84 86 84q84 0 84 -84v-856q0 -86 -84 -86q-86 0 -86 86zM51 969v84q0 86 86 86q84 0 84 -86v-84q0 -84 -84 -84q-86 0 -86 84z" />
<glyph unicode="&#xa2;" horiz-adv-x="847" d="M37 399v156q0 152 96 260q92 102 217 129h-4h4v80q0 84 84 84q86 0 86 -84v-80q51 -10 82 -26q137 -66 195 -201q31 -82 -43 -111q-70 -33 -111 43q-41 90 -123 119v-584q80 31 123 121v-2q14 37 44 49.5t67 -4.5q37 -14 48 -46t-5 -66q-59 -139 -195 -199 q-49 -23 -82 -29v-78q0 -86 -86 -86q-84 0 -84 86v78q-139 39 -217 129q-96 109 -96 262zM207 399q0 -152 143 -213v580q-143 -61 -143 -211v-156zM350 111l62 61l-21 4h-4q-18 2 -37 10v-75zM350 766l37 12l-4 -2q6 2 18.5 4t18.5 2l-70 62v-78z" />
<glyph unicode="&#xa3;" horiz-adv-x="1175" d="M33 86q0 84 86 84t86 -84q0 -29 20.5 -50.5t50.5 -21.5q29 0 50.5 21.5t21.5 50.5v938q0 166 117 282.5t280.5 116.5t280.5 -116.5t117 -282.5q0 -86 -86 -86q-84 0 -84 86q0 92 -68 159.5t-160 67.5q-94 0 -160.5 -67.5t-66.5 -159.5v-227h227q86 0 86 -86t-86 -86h-227 v-256q78 37 150 37q131 0 225 -93.5t94 -226.5q0 -86 -86 -86q-84 0 -84 86q0 61 -45 105.5t-104 44.5q-63 0 -106.5 -44.5t-43.5 -105.5q0 -102 -69.5 -172t-172.5 -70q-104 0 -173.5 70t-69.5 172z" />
<glyph unicode="&#xa4;" horiz-adv-x="604" d="M84 614l33 35q-8 23 -8 62t8 63q-8 8 -17.5 18.5t-15.5 16.5q-55 63 2 121l-2 -6q59 72 123 6l33 -33q25 8 63 8q33 0 64 -8l32 33l-4 -6q61 70 125 6q57 -66 0 -123l-33 -33q10 -37 11 -63q0 -43 -11 -62l33 -33q61 -61 0 -122q-25 -25 -61 -25q-35 0 -60 25l-32 32 q-37 -10 -64 -10q-45 0 -63 10l-33 -32q-25 -25 -62 -25q-34 0 -59 25q-61 61 -2 120z" />
<glyph unicode="&#xa5;" horiz-adv-x="1275" d="M74 1280q-61 72 12 123q27 16 62.5 13t56.5 -25l399 -500h70q66 84 199 249t200 251q20 25 56 28.5t63 -16.5l-4 2q76 -51 16 -125v2q-131 -166 -311 -391h90q37 0 61.5 -25.5t24.5 -60.5q0 -37 -24.5 -60.5t-61.5 -23.5h-225q-4 -4 -8.5 -82t-6.5 -80h240 q37 0 61.5 -24.5t24.5 -59.5t-24.5 -60.5t-61.5 -25.5h-258v-303q0 -86 -86 -86q-84 0 -84 86v303h-260q-86 0 -86 86q0 84 86 84h242q-2 2 -7.5 80t-7.5 82h-227q-86 0 -86 84q0 86 86 86h90q-51 66 -154.5 196t-156.5 195v-2z" />
<glyph unicode="&#xa6;" horiz-adv-x="274" d="M51 -80v477q0 86 86 86q37 0 60.5 -22.5t23.5 -63.5v-477q0 -35 -24.5 -59.5t-59.5 -24.5q-37 0 -61.5 24.5t-24.5 59.5zM51 692v477q0 86 86 86q37 0 60.5 -22.5t23.5 -63.5v-477q0 -35 -24.5 -59.5t-59.5 -24.5q-37 0 -61.5 24.5t-24.5 59.5z" />
<glyph unicode="&#xa7;" horiz-adv-x="815" d="M41 795q0 57 18 110q31 78 86 123q-10 41 -10 74q-4 131 92 227q94 94 228 94q115 0 202 -71q90 -78 111 -189q4 -37 -15.5 -64.5t-54.5 -33.5q-37 -6 -65.5 14.5t-32.5 55.5l2 -2q-10 53 -51 85.5t-96 32.5q-61 0 -105 -45q-45 -43 -45 -104q0 -25 17 -70q27 -35 28 -35 q45 -45 105 -45q115 0 204 -71h-2q82 -66 107 -170q10 -33 10 -84q0 -57 -20 -113q-27 -66 -82 -119q10 -41 10 -76q0 -133 -94 -225q-94 -94 -226 -94q-121 0 -202 70q-90 76 -115 198q-6 78 74 90q78 6 96 -69q10 -53 51 -86t96 -33q59 0 103.5 45t44.5 104 q0 61 -44 105.5t-104 44.5q-120 0 -202 70l-4 4q-78 63 -105 166q-10 33 -10 86zM193 918q10 -6 10 -13q8 -8 16 -18t10 -13l4 -4q14 21 41 41zM211 795q0 -20 6 -41q31 -115 145 -115q131 0 220 -88q23 39 22 82q0 16 -6 35q-30 114 -143 114q-133 0 -222 88 q-23 -35 -22 -75zM541 508l92 -19q-23 33 -45 58l-2 2q-4 0 -4 2q-14 -27 -41 -43z" />
<glyph unicode="&#xa8;" horiz-adv-x="745" d="M47 1253.5q0 67.5 37 104.5t102 37q68 0 105 -37t37 -104.5t-37 -104.5t-105 -37q-66 0 -102.5 37t-36.5 104.5zM164 1255q-1 -22 22 -22q20 0 21 22q0 20 -21 21q-23 0 -22 -21zM416 1253.5q0 67.5 36.5 104.5t102.5 37q68 0 104.5 -37t36.5 -104.5t-36.5 -104.5 t-104.5 -37q-66 0 -102.5 37t-36.5 104.5zM532 1255q0 -22 23 -22q20 0 20 22q0 20 -20 21q-23 0 -23 -21z" />
<glyph unicode="&#xa9;" horiz-adv-x="1257" d="M43 586v250q0 240 170 415q176 170 416 170q244 0 413 -170q172 -173 172 -415v-250q0 -242 -172 -416q-170 -170 -413 -170q-240 0 -416 170q-170 176 -170 416zM213 586q0 -172 122 -294t294 -122t293.5 122t121.5 294v250q0 172 -121.5 293.5t-293.5 121.5 t-294 -121.5t-122 -293.5v-250zM238 633v155q0 145 98 261q88 102 219 127q45 12 88 12q86 0 162 -37q133 -59 194 -201q31 -82 -43 -110q-35 -16 -66.5 -5t-45.5 48q-63 133 -201 133q-43 0 -53 -4q-180 -49 -180 -224v-155q0 -174 180 -223h-4q20 -6 55 -7q137 0 203 136 v-2q14 35 46 48t66 -3q80 -37 43 -113q-59 -135 -194 -201q-86 -35 -164 -35q-29 0 -86 11q-141 37 -221 127q-96 109 -96 262z" />
<glyph unicode="&#xaa;" horiz-adv-x="573" d="M43 803v76q0 96 72.5 167.5t169.5 71.5q98 0 169.5 -71.5t71.5 -167.5v-228q0 -37 -26.5 -63.5t-63.5 -26.5q-35 0 -57 19q-47 -19 -94 -19q-96 0 -169 72t-73 170zM211 795q0 -33 20.5 -54.5t53 -21.5t54 21.5t21.5 54.5v94q0 31 -21.5 51.5t-54 20.5t-53 -20.5 t-20.5 -51.5v-94z" />
<glyph unicode="&#xab;" horiz-adv-x="854" d="M55 651q-33 43 0 90q41 72 119 213.5t117 214.5q27 45 76 45q29 0 47 -18q55 -43 26 -113l-213 -387q39 -57 117 -175t115 -175l-2 2q51 -72 -21 -119q-70 -47 -121 23zM379 651q-33 43 0 90q39 72 116.5 213.5t118.5 214.5q25 45 76 45q29 0 45 -18q57 -43 29 -113 l-213 -387q158 -238 229 -350v2q51 -72 -20 -119q-70 -47 -121 23z" />
<glyph unicode="&#xac;" horiz-adv-x="868" d="M23 934q0 37 23.5 61.5t59.5 24.5h625q86 0 86 -86v-191q0 -37 -24.5 -60.5t-61.5 -23.5t-60.5 24t-23.5 60v107h-541q-37 0 -60 23.5t-23 60.5z" />
<glyph unicode="&#xad;" d="M49 555q0 84 88 84h531q84 0 84 -84q0 -86 -84 -86h-531q-88 0 -88 86z" />
<glyph unicode="&#xae;" horiz-adv-x="870" d="M43 840v157q0 166 114.5 281t278.5 115q162 0 276.5 -115t114.5 -281v-157q0 -98 -49 -187.5t-135 -142.5q-104 -61 -207 -61q-164 0 -278.5 114.5t-114.5 276.5zM172 831q0 -109 79 -182.5t185 -73.5h56v230h-89v-31q0 -74 -67 -74q-74 0 -74 74v293q0 74 74 74h141 q68 0 116 -48.5t48 -117.5q0 -23 -20 -70q20 -43 20 -80v-151q57 77 57 157v181q0 102 -78.5 179t-183.5 77q-106 0 -185 -77t-79 -179v-181zM401 932h86q8 0 17.5 17.5t9.5 33.5q0 10 -9 19.5t-18 9.5h-86v-80zM492 805h22l-4 6q-18 6 -18 12v-18z" />
<glyph unicode="&#xaf;" horiz-adv-x="1705" />
<glyph unicode="&#xb0;" horiz-adv-x="587" d="M43 1038.5q0 104.5 72.5 178t179.5 73.5q102 0 176 -73.5t74 -178t-74 -177.5t-176 -73q-106 0 -179 73t-73 177.5zM229 1038.5q0 -28.5 18.5 -46t47.5 -17.5q27 0 44 17.5t17 46t-17 47t-44 18.5q-29 0 -47.5 -18.5t-18.5 -47z" />
<glyph unicode="&#xb1;" horiz-adv-x="780" d="M39 358q0 86 86 86h532q84 0 84 -86t-84 -86h-532q-86 0 -86 86zM39 678q0 84 86 84h180v149q0 86 86 86q84 0 84 -86v-149h182q84 0 84 -84q0 -86 -84 -86h-182v-150q0 -84 -84 -84q-86 0 -86 84v150h-180q-86 0 -86 86z" />
<glyph unicode="&#xb2;" horiz-adv-x="483" d="M49 1008q0 47 23 88q23 43 51 65l2 -2q45 31 86 39q53 6 96 -8q43 -12 76 -45q27 -23 45 -78q12 -45 8 -88q-10 -51 -39 -90q-49 -57 -86 -117q-20 -27 -26 -33l-41 -43h127q31 0 49 -21.5t18 -45.5q0 -68 -67 -68h-254q-31 0 -49 19l2 -5q-33 57 -7 97q2 8 13 18 q12 16 16 21q10 10 12 16t11 14q2 2 5 6.5t5 6.5l2 4q8 8 17.5 21.5t17.5 21.5q0 6 2 10t7 8t7 6q2 4 8.5 11.5t10.5 11.5t6 8l4 8q14 10 39 49v-2q37 53 45 60q12 35 6 55q-6 25 -37 39l-2 -2q-18 6 -47 -6q-27 -18 -27 -49q0 -25 -19.5 -46.5t-48 -21.5t-48 21.5 t-19.5 46.5zM98 1190l8 8l25 -33q0 -2 -4 -2t-4 -2zM252 1024l6 39q2 0 6 -2t6 -2l-6 -39z" />
<glyph unicode="&#xb3;" horiz-adv-x="528" d="M39 786q0 33 18.5 51.5t46.5 18.5q31 0 50.5 -19.5t19.5 -50.5q0 -59 57 -84q16 -6 33 -6q37 0 63.5 27t26.5 61q0 23 -8 41q-25 53 -82 54q-27 0 -48 18t-21 47t21.5 48.5t47.5 19.5q18 0 27 18q6 16 -8 31q-12 12 -35 4l2 2q-10 -10 -10 -12q-23 -47 -64 -47 q-27 0 -48.5 19t-21.5 50q0 23 9 37q63 88 151 88q70 0 113 -49q45 -45 45 -109q0 -41 -14 -67q-2 -2 -2 -4t-1 -6l-1 -4q47 -47 63 -89q27 -70 16 -124q-10 -68 -63 -121q-63 -55 -121 -64q-6 -2 -25 -2h-12q-53 0 -90 19q-72 35 -98 75q-37 63 -37 129z" />
<glyph unicode="&#xb4;" horiz-adv-x="444" d="M61 1155l197 244q47 47 117 2q57 -57 8 -119q-33 -43 -101.5 -129t-91.5 -113q-25 -25 -59.5 -24.5t-58.5 24.5l4 -4q-60 51 -15 119z" />
<glyph unicode="&#xb5;" horiz-adv-x="878" d="M51 -383v1251q0 84 86 84q37 0 60.5 -24.5t23.5 -59.5v-469q0 -94 67.5 -161.5t162 -67.5t160 67.5t65.5 161.5v469q0 84 86 84t86 -84v-782q0 -86 -86 -86q-78 0 -86 70q-103 -70 -225.5 -70t-229.5 70v-453q0 -37 -23.5 -61.5t-60.5 -24.5q-86 0 -86 86z" />
<glyph unicode="&#xb6;" horiz-adv-x="1030" d="M31 921.5q0 141.5 101 243t243 101.5h243q86 0 87 -86v-1094q0 -86 -87 -86h-14q-84 0 -84 86v492h-145q-141 0 -242.5 101t-101.5 242.5zM201 921.5q0 -71.5 51 -121.5t123 -50h145v344h-145q-72 0 -123 -50.5t-51 -122zM795 86v1090q0 51 24.5 70.5t73.5 19.5 q86 0 86 -86v-1094q0 -86 -86 -86h-14q-84 0 -84 86z" />
<glyph unicode="&#xb7;" horiz-adv-x="370" d="M45 966.5q0 67.5 37 104.5t102 37q68 0 105 -37t37 -104.5t-37 -104.5t-105 -37q-66 0 -102.5 37t-36.5 104.5zM162 969q-1 -23 22 -23q20 0 21 23q0 20 -21 20q-23 0 -22 -20z" />
<glyph unicode="&#xb8;" horiz-adv-x="442" d="M37 -186q0 61 59 61q63 0 64 -61q0 -43 37 -58q37 -16 69 13q29 29 13 67q-14 41 -58 41q-125 0 -125 123q0 25 15 61q53 73 106 48q59 -29 29 -80q-4 -12 -27 -25v-4h2q55 0 101.5 -31.5t68.5 -83.5q16 -37 17 -75q0 -72 -58 -129q-59 -51 -129 -52q-39 0 -69 13 q-53 23 -84 69.5t-31 102.5z" />
<glyph unicode="&#xb9;" horiz-adv-x="452" d="M63 1030l222 158q27 31 71.5 11.5t40.5 -62.5v-504q0 -27 -17.5 -49.5t-49.5 -22.5q-18 0 -42 24.5t-24 47.5v379l-106 -74q-45 -37 -87 5t-8 87z" />
<glyph unicode="&#xba;" horiz-adv-x="505" d="M47 745v242q0 88 59.5 147.5t145.5 59.5t146.5 -60.5t60.5 -146.5v-242q0 -86 -64 -151q-69 -55 -143 -55q-84 0 -144.5 61.5t-60.5 144.5zM217 745q0 -37 35 -36q10 0 21.5 8t11.5 26v258q0 37 -35 37q-6 0 -12.5 -3t-13.5 -11t-7 -20v-259z" />
<glyph unicode="&#xbb;" horiz-adv-x="854" d="M76 1075q-51 72 20 119q70 49 119 -23l260 -399q31 -49 2 -90q-152 -274 -237 -428q-23 -43 -74 -43q-31 0 -47 16q-55 41 -27 115l213 385q-158 238 -229 350v-2zM397 1077l2 -2q-51 72 21 119q70 49 119 -23l260 -399q31 -49 2 -90q-152 -274 -238 -428 q-27 -43 -74 -43q-31 0 -47 16q-57 43 -26 115l213 385q-37 57 -115 175t-117 175z" />
<glyph unicode="&#xbc;" horiz-adv-x="1306" d="M76 1110l4 -8q-59 59 0 115l252 188q53 49 106 6q35 -25 35 -70v-483q0 -35 -23.5 -62.5t-62.5 -27.5q-23 0 -54.5 30.5t-31.5 59.5v313q-2 -4 -8 -8t-8 -6q-14 -10 -82 -59q-23 -25 -64 -22t-63 34zM244 123l626 1251q33 70 109 41l4 -2q72 -31 43 -108l-631 -1260 q-31 -45 -73 -45q-29 0 -46 14q-61 35 -32 109zM854 383v242q0 35 22.5 61.5t61.5 26.5q27 0 56.5 -29t29.5 -59v-156h70v156q0 35 23.5 61.5t62.5 26.5t62.5 -27t23.5 -61v-484q0 -86 -86 -86t-86 86v158h-156q-84 0 -84 84z" />
<glyph unicode="&#xbd;" horiz-adv-x="1298" d="M74 1110l6 -8q-59 57 -2 115l254 188q49 49 104 6q35 -25 35 -70v-483q0 -35 -23.5 -62.5t-62.5 -27.5q-23 0 -53.5 30.5t-30.5 59.5v313q-16 -12 -18 -14q-12 -8 -41 -29.5t-41 -29.5q-23 -25 -64 -22t-63 34zM248 129l624 1253q33 70 111 41l4 -2q70 -33 43 -108 l-631 -1260q-27 -45 -73 -45q-29 0 -45 15q-63 37 -33 106zM844 457q0 53 22 96q27 51 66 74l-4 -6q37 31 88 41q43 8 100 -9h-2q47 -12 84 -49q31 -31 51 -84q10 -49 6 -92q-6 -49 -43 -96q-53 -68 -82 -113q-6 -10 -12 -17t-10 -12.5t-6 -7.5l-4 -2h73q39 0 62.5 -26.5 t23.5 -59.5q0 -86 -86 -86h-241q-37 0 -64 25q-41 66 -6 114q18 23 27 37q6 6 14 17.5t12 15.5q6 8 17.5 25.5t19.5 25.5l-4 -4q4 8 21.5 26.5t21.5 24.5v4q4 4 17 21q6 8 6 10q2 0 -11 -20q12 16 29 40.5t29 41t18 22.5q8 18 4 35q-2 14 -22 25l4 -5q-18 6 -33 -2h2 q-18 -8 -18 -30q0 -31 -24.5 -57.5t-59.5 -26.5t-60.5 26.5t-25.5 57.5zM989 367v2v-2zM989 369l4 4z" />
<glyph unicode="&#xbe;" horiz-adv-x="1316" d="M37 1012q0 33 18.5 51t46.5 18q31 0 50.5 -19.5t19.5 -49.5q0 -59 57 -84q14 -6 33 -6q37 0 63.5 26.5t26.5 61.5q0 23 -8 41q-25 53 -82 53q-27 0 -48 18.5t-21 47t21.5 48t47.5 19.5q16 0 27 18q6 16 -8 31q-12 12 -35 4l2 2q-10 -10 -10 -12q-23 -47 -64 -47 q-27 0 -48.5 19.5t-21.5 50.5q0 23 9 36q63 88 151 88q70 0 113 -49q45 -45 45 -108q0 -41 -14 -68q-2 -2 -2 -4t-2 -6l-1 -4q47 -47 64 -88q27 -70 16 -125q-10 -68 -63 -121q-63 -55 -121 -63q-6 -2 -25 -3h-12q-53 0 -90 19q-72 35 -98 76q-37 63 -37 129zM313 129 l625 1253q33 70 111 41l4 -2q70 -33 43 -108l-631 -1260q-27 -45 -74 -45q-29 0 -45 15q-63 37 -33 106zM862 328v241q0 35 22.5 61.5t61.5 26.5q27 0 56.5 -28.5t29.5 -59.5v-155h70v155q0 35 23.5 61.5t62.5 26.5t61.5 -26.5t22.5 -61.5v-483q0 -86 -84 -86q-86 0 -86 86 v158h-156q-84 0 -84 84z" />
<glyph unicode="&#xbf;" horiz-adv-x="786" d="M31 -53q0 59 22 133q61 184 244 246h-2q47 16 47 65v168q0 84 86 84t86 -84v-168q0 -78 -44 -137t-118 -90q-104 -39 -139 -139q-12 -37 -12 -76q0 -63 35 -121q61 -90 167 -104q111 -10 185 63q63 66 123 0l-6 4q70 -57 6 -123v2q-113 -119 -283 -119q-33 1 -47 3h2 q-188 23 -293 182q-59 96 -59 211zM342 827v103q0 86 86 86t86 -86v-103q0 -84 -86 -84t-86 84z" />
<glyph unicode="&#xc0;" horiz-adv-x="1290" d="M37 606v260q0 248 178 430q176 176 430 177q252 0 428 -177q178 -182 178 -430v-778q0 -88 -88 -88t-88 88v90l-2 -2q-176 -176 -428 -176q-254 0 -430 176q-178 180 -178 430zM215 606q0 -178 126 -304t304 -126t304 126t126 304v260q0 178 -126 304t-304 126t-304 -126 t-126 -304v-260zM479 1815l4 -5q-68 66 6 129q31 23 68 18t57 -30l195 -244l-4 7q70 -70 -12 -131l8 6q-23 -25 -60 -25q-44 0 -69 35z" />
<glyph unicode="&#xc1;" horiz-adv-x="1292" d="M37 606v260q0 248 178 430q176 176 430 176.5t430 -176.5q176 -182 176 -430v-778q0 -88 -88 -88q-39 0 -63.5 24.5t-24.5 63.5v88q-176 -176 -430 -176t-430 176q-178 180 -178 430zM215 606q0 -178 126 -304t304 -126t304 126t126 304v260q0 178 -126 304t-304 126 t-304 -126t-126 -304v-260zM465 1617q-4 38 14 66q31 39 100.5 125t100.5 127q47 47 121 2q59 -59 10 -122q-33 -39 -101.5 -124t-99.5 -126q-25 -25 -61 -25q-42 0 -62 25l5 -4q-23 18 -27 56z" />
<glyph unicode="&#xc2;" horiz-adv-x="1292" d="M37 606v260q0 250 180 430q172 176 428 177q248 0 430 -177q176 -182 176 -430v-778q0 -88 -88 -88t-88 88v88q-182 -176 -430 -176q-256 0 -428 176q-180 180 -180 430zM215 606q0 -178 126 -304t304 -126t304 126t126 304v260q0 178 -126 304t-304 126t-304 -126 t-126 -304v-260zM326 1675q43 76 126 214.5t117 197.5q29 45 76 45q51 0 76 -45l246 -416q33 -70 -31 -115l10 7q-20 -20 -57 -21q-49 0 -78 43q-100 176 -164 283q-27 -47 -82 -138.5t-82 -138.5q-55 -78 -125 -39l-6 4q-72 49 -22 123z" />
<glyph unicode="&#xc3;" horiz-adv-x="1298" d="M41 606v260q0 252 178 430q176 176 430 177q246 0 428 -177q178 -182 178 -430v-778q0 -88 -90 -88q-86 0 -86 88v90l-2 -2q-182 -176 -428 -176q-254 0 -430 176q-178 178 -178 430zM219 606q0 -178 126 -304t304 -126t304 126t126 304v260q0 178 -126 304t-304 126 t-304 -126t-126 -304v-260zM283 1771.5q0 90.5 67.5 158t159.5 67.5q90 0 157.5 -67.5t67.5 -157.5q0 -51 51 -52q20 0 34 14.5t14 37.5q0 86 90 86q88 0 88 -86q0 -92 -67.5 -160t-158.5 -68q-92 0 -159.5 67.5t-67.5 160.5q0 47 -49 47q-20 0 -34.5 -13.5t-14.5 -33.5 q0 -90 -88 -91q-90 0 -90 90.5z" />
<glyph unicode="&#xc4;" horiz-adv-x="1296" d="M39 606v260q0 252 178 430q176 176 430 177q248 0 430 -177q176 -182 176 -430v-778q0 -39 -24.5 -63.5t-63.5 -24.5q-88 0 -88 88v88q-182 -176 -430 -176q-254 0 -430 176q-178 178 -178 430zM217 606q0 -178 126 -304t304 -126t304 126t126 304v260q0 178 -126 304 t-304 126t-304 -126t-126 -304v-260zM410 1612v162q0 88 88 88q90 0 90 -88v-162q0 -88 -90 -88q-88 0 -88 88zM725 1612v162q0 88 88 88t88 -88v-162q0 -88 -88 -88t-88 88z" />
<glyph unicode="&#xc5;" horiz-adv-x="1292" d="M37 606v260q0 250 180 430q176 176 428 177q248 0 430 -177q176 -182 176 -430v-778q0 -88 -88 -88t-88 88v88q-182 -176 -430 -176q-252 0 -428 176q-180 180 -180 430zM215 606q0 -178 126 -304t304 -126t304 126t126 304v260q0 178 -126 304t-304 126t-304 -126 t-126 -304v-260zM485 1712q0 72 49.5 121t120.5 49q70 0 119 -49t49 -121q0 -70 -49 -119t-119 -49q-72 0 -121 49t-49 119z" />
<glyph unicode="&#xc6;" horiz-adv-x="2344" d="M47 606v260q0 252 178 430q176 176 430 177q248 0 430 -177q61 -70 89 -112q37 57 88 112q176 176 430 176.5t430 -176.5q176 -182 176 -430q0 -88 -88 -88h-948v-172q0 -178 125.5 -304t304 -126t304.5 126t126 304q0 88 88 88t88 -88q0 -248 -176 -430 q-176 -176 -430 -176t-430 176v-88q0 -88 -91 -88q-86 0 -86 88v88q-182 -176 -430 -176q-254 0 -430 176q-178 178 -178 430zM225 606q0 -178 126 -304t304.5 -126t304 126t125.5 304v260q0 178 -125.5 304t-304 126t-304.5 -126t-126 -304v-260zM1272 954h839 q-33 145 -150 243.5t-269 98.5q-154 0 -270.5 -98t-149.5 -244z" />
<glyph unicode="&#xc7;" horiz-adv-x="1247" d="M37 606v262q0 240 143 398q123 143 334 194q68 12 131 13q137 0 254 -52h-2q205 -92 297 -305q31 -72 -41 -106q-78 -31 -106 45l2 -2q-59 135 -168 197.5t-234 62.5q-45 0 -96 -10q-141 -29 -246.5 -139.5t-105.5 -295.5v-262q0 -186 105.5 -296.5t246.5 -139.5 q45 -10 84 -10h12q279 0 402 260h-2q31 74 106 45q72 -35 41 -109q-94 -215 -297 -303h2q-72 -33 -149 -45q55 -37 79 -96l-2 2q20 -41 21 -84q0 -78 -64 -141q-66 -59 -141 -60q-37 0 -80 17q-100 45 -49 127q45 74 121 16q25 0 39 12q18 23 8 47q-12 29 -39 29 q-143 0 -143 139q-205 55 -320 191q-143 162 -143 399z" />
<glyph unicode="&#xc8;" horiz-adv-x="1284" d="M39 606v260q0 127 45 232q47 111 134 197.5t196 129.5h-2q111 47 235 48q123 0 234 -48h-2q111 -43 198 -131q82 -86 129 -196v2q47 -117 47 -234q0 -90 -86 -90h-952v-170q0 -133 72.5 -238.5t189.5 -156.5q86 -35 170 -35q131 0 236.5 71.5t156.5 186.5q29 68 88 68 q88 0 89 -84q0 -16 -13 -49q-49 -109 -127 -193q-176 -176 -430 -176q-131 0 -235 45q-109 45 -196 132t-132 196q-45 104 -45 233zM227 952h838q-37 147 -154 246.5t-264 99.5q-127 0 -230.5 -67.5t-158.5 -183.5q-25 -53 -31 -95zM401 1815q-48 63 9 120l6 4q61 55 116 -4 l201 -252q18 -29 14 -66.5t-26 -55.5q-27 -20 -57 -21q-37 0 -62 25z" />
<glyph unicode="&#xc9;" horiz-adv-x="1284" d="M37 606v260q0 127 45 232q47 111 134 197.5t196 129.5h-2q111 47 235 48q123 0 234 -48h-2q111 -43 198 -131q84 -86 129 -196v2q47 -117 47 -234q0 -90 -86 -90h-952v-170q0 -133 72.5 -238.5t189.5 -156.5q86 -35 170 -35q131 0 236.5 71.5t156.5 186.5q27 68 88 68 q88 0 88 -84q0 -16 -12 -49q-49 -109 -127 -193q-176 -176 -430 -176q-131 0 -235 45q-109 45 -196 132t-132 196q-45 104 -45 233zM225 952h838q-37 147 -154 246.5t-264 99.5q-127 0 -230.5 -67.5t-158.5 -183.5q-25 -53 -31 -95zM445 1617.5q-4 36.5 16 65.5l196 244 q18 25 55.5 30t67.5 -18l-4 3q37 -27 39 -65t-22 -62q-31 -41 -95.5 -119t-97.5 -119q-27 -37 -70 -37q-29 0 -55 20.5t-30 57z" />
<glyph unicode="&#xca;" horiz-adv-x="1286" d="M37 606v260q0 127 45 232q47 111 134 197.5t196 129.5h-2q111 47 235 48q123 0 234 -48h-2q111 -43 198 -131q84 -86 129 -196v2q47 -117 47 -234q0 -90 -86 -90h-952v-170q0 -133 72.5 -238.5t189.5 -156.5q86 -35 170 -35q131 0 236.5 71.5t156.5 186.5q27 68 88 68 q88 0 88 -84q0 -16 -12 -49q-49 -109 -127 -193q-176 -176 -430 -176q-131 0 -235 45q-109 45 -196 132t-132 196q-45 104 -45 233zM225 952h838q-37 147 -154 246.5t-264 99.5q-127 0 -230.5 -67.5t-158.5 -183.5q-25 -53 -31 -95zM334 1667l244 414q26 45 77 45 q47 0 74 -45l246 -416q27 -68 -27 -113q-74 -47 -131 33l-162 277q-156 -262 -168 -283q-20 -43 -75 -43q-39 0 -60 20l10 -6q-70 45 -28 117z" />
<glyph unicode="&#xcb;" horiz-adv-x="1290" d="M39 606v260q0 127 45 232q47 111 134 197.5t196 129.5h-2q111 47 235 48q123 0 234 -48h-2q111 -43 198 -131q82 -86 129 -196v2q47 -117 47 -234q0 -90 -86 -90h-952v-170q0 -133 72.5 -238.5t189.5 -156.5q86 -35 170 -35q131 0 236.5 71.5t156.5 186.5q29 68 88 68 q88 0 89 -84q0 -16 -13 -49q-49 -109 -127 -193q-176 -176 -430 -176q-131 0 -235 45q-109 45 -196 132t-132 196q-45 104 -45 233zM227 952h838q-37 147 -154 246.5t-264 99.5q-127 0 -230.5 -67.5t-158.5 -183.5q-25 -53 -31 -95zM410 1612v162q0 88 88 88q90 0 90 -88 v-162q0 -88 -90 -88q-88 0 -88 88zM725 1612v162q0 88 88 88t88 -88v-162q0 -88 -88 -88t-88 88z" />
<glyph unicode="&#xcc;" horiz-adv-x="1269" d="M29 88q0 88 90 88h430v1120h-430q-90 0 -90 88.5t90 88.5h1036q88 0 88 -88.5t-88 -88.5h-430v-1120h430q88 0 88 -88t-88 -88h-1036q-90 0 -90 88zM471 1815q-51 63 4 118q82 57 133 -6l195 -244q20 -29 16 -65.5t-26 -54.5q-29 -23 -60 -23q-41 0 -61 25z" />
<glyph unicode="&#xcd;" horiz-adv-x="1271" d="M27 88q0 88 90 88h430v1120h-430q-90 0 -90 88.5t90 88.5h1036q90 0 90 -88.5t-90 -88.5h-430v-1120h430q90 0 90 -88t-90 -88h-1036q-90 0 -90 88zM471 1683q31 41 95.5 122t97.5 122q20 25 56 30t66 -18q74 -66 11 -129l4 5q-31 -41 -95.5 -119t-97.5 -119 q-27 -37 -71 -37q-37 0 -60 25l10 -6q-84 59 -14 131z" />
<glyph unicode="&#xce;" horiz-adv-x="1275" d="M31 88q0 88 88 88h430v1120h-430q-88 0 -88 88.5t88 88.5h1036q90 0 90 -88.5t-90 -88.5h-430v-1120h430q90 0 90 -88t-90 -88h-1036q-88 0 -88 88zM319 1677q45 78 128 218.5t114 193.5q27 45 78 45t76 -45l241 -412l-4 4q49 -74 -22 -122l10 6q-20 -20 -59 -21 q-51 0 -76 43q-39 68 -166 285q-98 -166 -166 -283q-33 -72 -117 -39l-10 9q-72 49 -22 122z" />
<glyph unicode="&#xcf;" horiz-adv-x="1280" d="M33 88q0 88 88 88h430v1120h-430q-88 0 -88 88.5t88 88.5h1036q90 0 90 -88.5t-90 -88.5h-430v-1120h430q90 0 90 -88t-90 -88h-1036q-88 0 -88 88zM410 1612v162q0 88 88 88q90 0 90 -88v-162q0 -88 -90 -88q-88 0 -88 88zM725 1612v162q0 88 88 88t88 -88v-162 q0 -88 -88 -88t-88 88z" />
<glyph unicode="&#xd0;" horiz-adv-x="1296" d="M33 717q0 88 90 88h551q86 0 86 -88q0 -90 -86 -90h-551q-90 0 -90 90zM319 86v1296q0 90 89 91h241q250 0 426 -177q178 -182 178 -430v-260q0 -250 -178 -430q-176 -176 -426 -176h-241q-88 0 -89 86zM496 176h153q178 0 304 126t126 304v260q0 178 -126 305t-304 127 h-153v-1122z" />
<glyph unicode="&#xd1;" horiz-adv-x="1308" d="M49 88v1294q0 90 90 91q86 0 86 -91v-88q180 178 430 179q254 0 430 -177q178 -178 179 -430v-778q0 -88 -88 -88q-90 0 -91 88v778q0 178 -125.5 304t-304 126t-304.5 -126t-126 -304v-778q0 -88 -86 -88q-90 0 -90 88zM49 1706q0 86 90 86h1037q88 0 88 -86 q0 -90 -88 -90h-1037q-90 0 -90 90z" />
<glyph unicode="&#xd2;" horiz-adv-x="1288" d="M37 606v260q0 252 178 430q176 176 430 177q248 -1 430 -177q176 -182 176 -430v-260q0 -248 -176 -430q-182 -176 -430 -176q-254 0 -430 176q-178 178 -178 430zM207 616q0 -182 127 -305q129 -133 311 -133q180 0 309 133q127 121 127 305v240q0 184 -125 305h-2 q-129 133 -309 133q-182 0 -311 -133q-127 -123 -127 -305v-240zM434 1877.5q2 37.5 39 64.5l-4 -3q31 23 66.5 18t56.5 -30q33 -41 98.5 -123t97.5 -121q49 -72 -14 -122q-27 -20 -55 -21q-45 0 -70 35q-33 39 -97.5 119t-94.5 121q-25 25 -23 62.5z" />
<glyph unicode="&#xd3;" horiz-adv-x="1288" d="M37 606v260q0 248 178 430q176 176 430 176t430 -176q176 -182 176 -430v-260q0 -248 -176 -430q-176 -176 -430 -176t-430 176q-178 180 -178 430zM207 616q0 -182 127 -305q133 -133 311 -133q180 0 309 133q127 121 127 305v240q0 184 -125 305h-2q-129 133 -309 133 q-178 0 -311 -133q-127 -123 -127 -305v-240zM457 1683l202 252q55 57 129 -4q51 -51 3 -116q-31 -39 -100.5 -124t-100.5 -126q-25 -25 -62 -25q-24 0 -51 16l-6 5q-63 51 -14 122z" />
<glyph unicode="&#xd4;" horiz-adv-x="1290" d="M39 606v260q0 252 178 430q176 176 430 177q248 -1 430 -177q176 -182 176 -430v-260q0 -248 -176 -430q-182 -176 -430 -176q-254 0 -430 176q-178 178 -178 430zM209 616q0 -182 127 -305q129 -133 311 -133q180 0 309 133q127 123 127 305v240q0 182 -127 305 q-129 133 -309 133q-182 0 -311 -133q-127 -123 -127 -305v-240zM305 1651l248 420q35 41 74 40.5t73 -40.5l248 -420q31 -82 -28 -115q-16 -14 -50 -14q-49 0 -75 39l-168 288q-27 -43 -83 -139t-85 -145q-53 -70 -113 -35q-82 37 -41 121z" />
<glyph unicode="&#xd5;" horiz-adv-x="1294" d="M41 606v260q0 252 178 430q176 176 430 177q248 -1 430 -177q176 -182 176 -430v-260q0 -248 -176 -430q-182 -176 -430 -176q-254 0 -430 176q-178 178 -178 430zM211 616q0 -182 127 -305q129 -133 311 -133q180 0 307 133q129 123 129 305v240q0 182 -127 305h-2 q-127 133 -307 133q-182 0 -311 -133q-127 -123 -127 -305v-240zM266 1710q0 92 67.5 158.5t160.5 66.5q94 0 159.5 -65.5t65.5 -159.5q0 -51 51 -51q20 0 33.5 14.5t13.5 36.5q0 86 90 86q88 0 88 -86q0 -92 -67.5 -159.5t-157.5 -67.5q-92 0 -159.5 67.5t-67.5 159.5 q0 47 -49.5 47t-49.5 -47q0 -90 -88 -90q-90 0 -90 90z" />
<glyph unicode="&#xd6;" horiz-adv-x="1294" d="M39 606v260q0 252 178 430q176 176 430 177q248 -1 430 -177q176 -182 176 -430v-260q0 -248 -176 -430q-182 -176 -430 -176q-254 0 -430 176q-178 178 -178 430zM209 616q0 -182 127 -305q129 -133 311 -133q180 0 309 133q127 121 127 305v240q0 184 -125 305h-2 q-129 133 -309 133q-182 0 -311 -133q-127 -123 -127 -305v-240zM410 1612v162q0 88 88 88q90 0 90 -88v-162q0 -88 -90 -88q-88 0 -88 88zM725 1612v162q0 88 88 88t88 -88v-162q0 -88 -88 -88t-88 88z" />
<glyph unicode="&#xd7;" horiz-adv-x="915" d="M59 68.5q-4 40.5 23 68.5l274 338q-2 6 -14 19q-8 12 -172 211q-25 37 -35 45q-10 14 -57 71q-29 59 16 111q57 33 115 -4q4 -8 16.5 -22.5t18.5 -20.5q18 -25 43 -56q135 -176 174 -221q16 18 53 64.5t55 68.5q20 29 33 41q70 94 109 142q20 16 68 15t61 -21l-6 12 q47 -47 14 -109l-279 -346q94 -123 168 -207q16 -23 54 -67l4 -4q2 -4 12 -16.5t31 -35.5q18 -29 17 -62.5t-15 -51.5q-20 -20 -47 -25q27 4 28 6q-12 -12 -43 -12q-49 0 -71 37q-12 16 -27.5 35.5t-36 44t-33.5 39.5q-37 49 -82 104t-65 82q-4 -6 -14.5 -18.5t-14.5 -20.5 q-8 -10 -25.5 -30.5t-30.5 -37t-24 -30.5q-8 -10 -25.5 -31.5t-27.5 -34.5q-33 -49 -86 -108q-30 -31 -65 -31q-20 0 -46 12q-41 16 -45 56.5zM821 12q0 2 2 2z" />
<glyph unicode="&#xd8;" horiz-adv-x="1337" d="M55 84.5q0 36.5 29 65.5l-4 -7q12 14 37.5 50t50.5 63q-109 158 -109 350v260q0 248 177 430q176 176 430 177q219 0 374 -127q27 35 76 96q20 25 56 30t67 -18h2q72 -61 8 -131l2 6q-14 -16 -88 -112q109 -152 109 -351v-260q0 -248 -176 -430q-176 -176 -430 -176 q-219 0 -375 127q-12 -18 -39 -49t-35 -41q-27 -37 -72 -37q-31 0 -59 25l2 -2q-33 25 -33 61.5zM88 23l4 -3zM236 606q0 -115 51 -203q100 127 317 396.5t326 406.5q-113 90 -264 90q-178 0 -304 -126t-126 -304v-260zM401 266q113 -90 265 -90q178 0 304 126t126 304v260 q0 102 -52 201q-119 -150 -348 -434.5t-295 -366.5z" />
<glyph unicode="&#xd9;" horiz-adv-x="1296" d="M41 606v778q0 88 90 89q37 0 62.5 -25t25.5 -64v-778q0 -178 126 -304t304 -126t304 126t126 304v778q0 89 88 89q39 0 63.5 -25t24.5 -64v-1296q0 -39 -24.5 -63.5t-63.5 -24.5q-37 0 -62.5 25.5t-25.5 62.5v88q-182 -176 -430 -176q-254 0 -430 176q-178 178 -178 430z M483 1815q-51 63 6 120l17 11q63 37 106 -11l203 -252q49 -72 -14 -122l6 4q-20 -25 -62 -25q-41 0 -61 25z" />
<glyph unicode="&#xda;" horiz-adv-x="1296" d="M39 606v778q0 88 90 89q88 0 88 -89v-778q0 -178 126 -304t304 -126t304 126t126 304v778q0 89 88 89t88 -89v-1296q0 -39 -24.5 -63.5t-63.5 -24.5q-37 0 -62.5 25.5t-25.5 62.5v88q-182 -176 -430 -176q-252 0 -428 176q-180 180 -180 430zM483 1686q31 41 95.5 121.5 t97.5 119.5q20 25 56 30t67 -18q74 -66 10 -129l4 5q-33 -41 -97.5 -119t-94.5 -119q-27 -37 -72 -37q-37 0 -60 25l11 -6q-80 53 -17 129v-2z" />
<glyph unicode="&#xdb;" horiz-adv-x="1298" d="M41 606v778q0 88 88 89q90 0 90 -89v-778q0 -178 126 -304t304 -126t304 126t126 304v778q0 89 86 89q90 0 90 -89v-1296q0 -37 -26.5 -62.5t-63.5 -25.5t-61.5 24.5t-24.5 63.5v88q-182 -176 -430 -176q-254 0 -430 176q-178 178 -178 430zM326 1507l247 420 q35 41 76 41q35 0 70 -33l248 -424q47 -72 -31 -120q-78 -45 -121 30q-147 250 -166 285q-25 -41 -81 -136t-87 -149q-23 -43 -78 -43q-29 0 -47 13q-68 39 -30 116z" />
<glyph unicode="&#xdc;" horiz-adv-x="1302" d="M43 606v778q0 88 88 89q90 0 90 -89v-778q0 -178 126 -304t304 -126t304 126t126 304v778q0 89 86 89q90 0 90 -89v-1296q0 -37 -26.5 -62.5t-63.5 -25.5t-61.5 24.5t-24.5 63.5v90l-2 -2q-182 -176 -428 -176q-254 0 -430 176q-178 178 -178 430zM410 1612v162 q0 88 88 88q90 0 90 -88v-162q0 -88 -90 -88q-88 0 -88 88zM725 1612v162q0 88 88 88t88 -88v-162q0 -88 -88 -88t-88 88z" />
<glyph unicode="&#xdd;" horiz-adv-x="1265" d="M31 1393q4 37 22 57q23 14 70 12t63 -28q102 -125 164 -205q16 -20 75.5 -96t92.5 -115q27 -35 84 -100q8 -8 35 -41q33 39 51 65q10 14 103 129h-3q72 88 148 184q127 160 154 193q20 20 56 20t66 -18q16 -27 19.5 -60.5t-10.5 -60.5q-31 -39 -91.5 -116.5t-93.5 -116.5 v2q-25 -29 -69.5 -86.5t-69.5 -85.5q-16 -18 -94 -117q-18 -23 -45 -56.5t-37 -45.5v-621q0 -86 -84 -86q-92 0 -92 86v619q-6 6 -135 169q-16 18 -80 97.5t-97 120.5q-27 35 -79 99t-70 89l-41 51q-16 25 -12 62zM582 1686q31 41 97 121.5t97 119.5q18 25 55 30t68 -18 q72 -66 8 -129l4 5q-33 -41 -97 -119t-95 -119q-27 -37 -70 -37q-39 0 -59 25l8 -6q-78 55 -16 129v-2z" />
<glyph unicode="&#xde;" horiz-adv-x="557" d="M51 96v1180q0 41 24.5 64.5t61.5 23.5t64.5 -24.5t27.5 -63.5v-318h19q123 0 207 -83.5t84 -208.5q0 -121 -84 -205q-82 -86 -207 -86h-19v-279q0 -39 -27.5 -63.5t-64.5 -24.5t-61.5 23.5t-24.5 64.5zM229 553h19q47 0 79.5 32.5t32.5 80t-32.5 81t-79.5 33.5h-19v-227z " />
<glyph unicode="&#xdf;" horiz-adv-x="1171" d="M51 84v1253q0 84 86 84h289q100 0 188 -61q76 -53 113 -150q18 -51 18 -110q0 -51 -8 -74v2q-10 -47 -28 -80q164 -14 286 -137q141 -141 141.5 -335.5t-141.5 -336.5q-143 -139 -336 -139q-164 0 -280.5 116.5t-116.5 282.5q0 35 24.5 59.5t61.5 24.5q35 0 60.5 -24.5 t25.5 -59.5q0 -98 65.5 -163.5t159.5 -65.5q127 0 216.5 89t89.5 216t-89.5 217t-216.5 90h-61q-86 0 -115 74q-29 78 39 131q53 47 53 115q0 33 -8 55v-4q-14 39 -51 68.5t-90 29.5h-205v-1167q0 -35 -23.5 -59.5t-60.5 -24.5q-35 0 -60.5 24.5t-25.5 59.5zM629 856 q4 0 6 2q-2 -2 -6 -2z" />
<glyph unicode="&#xe0;" horiz-adv-x="872" d="M37 399v156q0 164 116.5 280.5t282.5 116.5t283 -116.5t117 -280.5v-469q0 -86 -86 -86q-80 0 -84 72q-100 -72 -230 -72q-166 0 -282.5 116.5t-116.5 282.5zM209 399q0 -94 67.5 -161.5t159.5 -67.5q94 0 162 67.5t68 161.5v156q0 92 -68 159.5t-162 67.5 q-92 0 -159.5 -67.5t-67.5 -159.5v-156zM274 1298q-37 68 13 117q72 41 116 -2l193 -244q47 -68 -12 -118l6 4q-25 -25 -59.5 -25t-59.5 25z" />
<glyph unicode="&#xe1;" horiz-adv-x="870" d="M33 399v156q0 164 115.5 280.5t279.5 116.5q166 0 282.5 -116.5t116.5 -280.5v-469q0 -86 -86 -86q-31 0 -55 20.5t-29 51.5q-100 -72 -229 -72q-164 0 -279.5 116.5t-115.5 282.5zM203 399q0 -94 65.5 -161.5t159.5 -67.5t161.5 67.5t67.5 161.5v156q0 92 -67.5 159.5 t-161.5 67.5q-92 0 -158.5 -67.5t-66.5 -159.5v-156zM350 1163l189 236q20 23 56 28t62 -16q61 -49 13 -119l-185 -231q-26 -37 -67 -37q-23 0 -56 20q-57 55 -12 119z" />
<glyph unicode="&#xe2;" horiz-adv-x="876" d="M39 399v156q0 164 116.5 280.5t282.5 116.5q164 0 281 -116.5t117 -280.5v-469q0 -86 -84 -86q-80 0 -86 70q-102 -70 -228 -70q-166 0 -282.5 116.5t-116.5 282.5zM127 1145l235 399q20 45 76 45q39 0 72 -39l235 -401q39 -70 -36 -121q-16 -8 -37 -8q-53 0 -72 43 q-92 154 -162 274q-72 -115 -155 -266q-54 -70 -115 -43l-12 8q-55 39 -29 109zM211 399q0 -94 67.5 -161.5t159.5 -67.5t160 67.5t68 161.5v156q0 92 -68 159.5t-160 67.5t-159.5 -67.5t-67.5 -159.5v-156z" />
<glyph unicode="&#xe3;" horiz-adv-x="880" d="M43 399v156q0 164 116.5 280.5t280.5 116.5q166 0 282 -116.5t116 -280.5v-469q0 -86 -86 -86q-78 0 -84 72q-100 -72 -228 -72q-164 0 -280.5 116.5t-116.5 282.5zM90 1239q0 92 62.5 154.5t154.5 62.5t155.5 -62.5t63.5 -154.5q0 -47 47 -47q20 0 34 13.5t14 33.5 q0 86 84 86q88 0 88 -86q0 -90 -64.5 -154.5t-155.5 -64.5q-92 0 -155.5 64.5t-63.5 154.5q0 20 -13 33.5t-33.5 13.5t-34 -13t-13.5 -34q0 -86 -86 -86q-84 0 -84 86zM213 399q0 -94 66.5 -161.5t160.5 -67.5q92 0 160 67.5t68 161.5v156q0 92 -68 159.5t-160 67.5 q-94 0 -160.5 -67.5t-66.5 -159.5v-156z" />
<glyph unicode="&#xe4;" horiz-adv-x="880" d="M39 399v156q0 164 116.5 280.5t280.5 116.5q166 0 283 -116.5t117 -280.5v-469q0 -35 -24.5 -60.5t-59.5 -25.5q-82 0 -86 72q-100 -72 -230 -72q-164 0 -280.5 116.5t-116.5 282.5zM211 399q0 -94 65.5 -161.5t159.5 -67.5t162 67.5t68 161.5v156q0 92 -68 159.5 t-162 67.5q-92 0 -158.5 -67.5t-66.5 -159.5v-156zM227 1108v156q0 84 86 84t86 -84v-156q0 -86 -86 -86t-86 86zM498 1108v156q0 84 84 84q86 0 86 -84v-156q0 -86 -86 -86q-84 0 -84 86z" />
<glyph unicode="&#xe5;" horiz-adv-x="874" d="M37 399v156q0 164 116.5 280.5t282.5 116.5q164 0 281 -116.5t117 -280.5v-469q0 -86 -84 -86q-80 0 -86 70q-102 -70 -228 -70q-166 0 -282.5 116.5t-116.5 282.5zM209 399q0 -94 67.5 -161.5t159.5 -67.5t160 67.5t68 161.5v156q0 92 -68 159.5t-160 67.5t-159.5 -67.5 t-67.5 -159.5v-156zM272 1368q0 68 48.5 116t116 48t115.5 -48t48 -116q0 -66 -48 -114t-115.5 -48t-116 48.5t-48.5 113.5z" />
<glyph unicode="&#xe6;" horiz-adv-x="1529" d="M47 397v158q0 164 117 280.5t280.5 116.5t281.5 -116.5t118 -280.5v-471q0 -35 -28 -59.5t-60 -24.5q-37 0 -58.5 21.5t-23.5 58.5q-109 -80 -230 -80q-164 0 -280.5 116.5t-116.5 280.5zM215 397q0 -94 66.5 -161.5t163 -67.5t163 67.5t66.5 161.5v158q0 94 -66.5 160.5 t-163 66.5t-163 -66.5t-66.5 -160.5v-158zM690 397v158q0 123 66.5 221t177.5 144h-2q72 33 155 32q123 0 221.5 -67.5t143.5 -175.5q33 -66 33 -154q0 -35 -25 -61q-25 -25 -59 -25h-541v-72q0 -145 139 -211q41 -18 88 -18q92 0 162 70q29 29 49 71q10 23 16.5 30t22 15 t41.5 8q84 0 84 -79q0 -20 -8 -31q-35 -86 -86 -137q-115 -115 -281 -115q-123 0 -221 66.5t-147 175.5q-29 76 -29 155zM877 637h421q-29 68 -86 106.5t-125 38.5q-137 0 -202 -129z" />
<glyph unicode="&#xe7;" horiz-adv-x="847" d="M37 397v158q0 145 96 260h-2q84 96 219 127q57 10 88 10q82 0 162 -37q131 -57 193 -196q29 -74 -39 -105q-76 -27 -103 41q-63 139 -219 140q-8 0 -53 -4l4 2q-78 -18 -135.5 -78t-57.5 -160v-158q0 -98 56.5 -159.5t130.5 -75.5q27 -6 51 -6h8q152 0 215 141 q29 68 103 41q70 -33 39 -105q-57 -133 -193 -198q-39 -16 -70 -25q61 -41 86 -96q14 -43 15 -76q0 -82 -60 -137q-59 -59 -139 -59q-39 0 -76 14q-96 47 -47 125q49 72 117 16q16 -6 37 13q20 20 10 43q-12 29 -41 28q-137 0 -137 137q0 6 -2 7h2q-92 35 -162 110 q-96 115 -96 262z" />
<glyph unicode="&#xe8;" horiz-adv-x="864" d="M41 397v158q0 123 66.5 221t177.5 144h-2q72 33 155 32q123 0 221.5 -67.5t143.5 -175.5q33 -66 33 -154q0 -35 -25 -61q-25 -25 -59 -25h-541v-72q0 -145 139 -211q39 -18 88 -18q92 0 162 70q29 29 49 71q10 23 16.5 30t21.5 15t42 8q84 0 84 -79q0 -20 -8 -31 q-35 -86 -86 -137q-115 -115 -281 -115q-123 0 -221 66.5t-147 175.5q-29 76 -29 155zM174 1298q-37 68 12 117q72 41 117 -2l193 -244q47 -68 -13 -118l6 4q-24 -25 -59 -25t-59 25zM227 637h422q-29 68 -86 106.5t-125 38.5q-137 0 -202 -129z" />
<glyph unicode="&#xe9;" horiz-adv-x="866" d="M33 397v158q0 123 66.5 221t176.5 144h-2q72 33 156 32q123 0 221.5 -67.5t143.5 -175.5q33 -66 32 -154q0 -35 -24 -61q-25 -25 -60 -25h-540v-72q0 -145 139 -211q41 -18 88 -18q92 0 162 70q29 29 49 71q10 23 16.5 30t21.5 15t42 8q84 0 84 -79q0 -20 -8 -31 q-35 -86 -86 -137q-115 -115 -281 -115q-123 0 -221 66.5t-148 175.5q-29 76 -28 155zM219 637h422q-29 68 -86 106.5t-125 38.5q-137 0 -203 -129zM352 1163l189 236q20 23 56 28t62 -16q61 -49 13 -119l-185 -231q-26 -37 -67 -37q-23 0 -55 20q-57 55 -13 119z" />
<glyph unicode="&#xea;" horiz-adv-x="870" d="M39 397v158q0 123 66.5 221t177.5 144h-2q72 33 155 32q123 0 221.5 -67.5t143.5 -175.5q33 -66 33 -154q0 -35 -25 -61q-25 -25 -59 -25h-541v-72q0 -145 139 -211q41 -18 88 -18q92 0 162 70q29 29 49 71q10 23 16.5 30t21.5 15t42 8q84 0 84 -79q0 -20 -8 -31 q-35 -86 -86 -137q-115 -115 -281 -115q-123 0 -221 66.5t-147 175.5q-29 76 -29 155zM127 1145l235 399q20 45 76 45q39 0 72 -39l235 -401q39 -70 -36 -121q-16 -8 -37 -8q-53 0 -72 43q-92 154 -162 274q-72 -115 -155 -266q-54 -70 -115 -43l-12 8q-55 39 -29 109z M225 637h422q-29 68 -86 106.5t-125 38.5q-137 0 -203 -129z" />
<glyph unicode="&#xeb;" horiz-adv-x="874" d="M41 397v158q0 123 66.5 221t177.5 144h-2q72 33 155 32q123 0 221.5 -67.5t143.5 -175.5q33 -66 33 -154q0 -35 -25 -61q-25 -25 -59 -25h-541v-72q0 -145 139 -211q39 -18 88 -18q92 0 162 70q29 29 49 71q10 23 16.5 30t21.5 15t42 8q84 0 84 -79q0 -20 -8 -31 q-35 -86 -86 -137q-115 -115 -281 -115q-123 0 -221 66.5t-147 175.5q-29 76 -29 155zM227 637h422q-29 68 -86 106.5t-125 38.5q-137 0 -202 -129zM227 1108v156q0 84 86 84t86 -84v-156q0 -86 -86 -86t-86 86zM498 1108v156q0 84 84 84q86 0 86 -84v-156q0 -86 -86 -86 q-84 0 -84 86z" />
<glyph unicode="&#xec;" horiz-adv-x="444" d="M55 1298q-37 68 13 117q72 41 116 -2l193 -244q47 -68 -12 -118l6 4q-25 -25 -60 -25t-59 25zM178 86v782q0 84 86 84q35 0 59.5 -24.5t24.5 -59.5v-782q0 -35 -24.5 -60.5t-59.5 -25.5q-86 0 -86 86z" />
<glyph unicode="&#xed;" horiz-adv-x="446" d="M66 1163l188 236q20 23 56 28t63 -16q61 -49 12 -119l-184 -231q-27 -37 -68 -37q-23 0 -55 20q-57 55 -12 119zM94 86v782q0 84 86 84q84 0 84 -84v-782q0 -86 -84 -86q-86 0 -86 86z" />
<glyph unicode="&#xee;" horiz-adv-x="716" d="M45 1145l236 399q20 45 75 45q39 0 72 -39l236 -401q39 -70 -37 -121q-16 -8 -37 -8q-53 0 -72 43q-92 154 -162 274q-72 -115 -155 -266q-54 -70 -115 -43l-12 8q-55 39 -29 109zM270 86v782q0 84 86 84t86 -84v-782q0 -86 -86 -86t-86 86z" />
<glyph unicode="&#xef;" horiz-adv-x="514" d="M37 1108v156q0 84 86 84t86 -84v-156q0 -86 -86 -86t-86 86zM176 86v782q0 84 84 84q86 0 86 -84v-782q0 -86 -86 -86q-84 0 -84 86zM307 1108v156q0 84 84 84q86 0 86 -84v-156q0 -86 -86 -86q-84 0 -84 86z" />
<glyph unicode="&#xf0;" horiz-adv-x="874" d="M39 399v156q0 164 116.5 280.5t282.5 116.5t283 -116.5t117 -280.5v-156q0 -166 -117 -282.5t-283 -116.5t-282.5 116.5t-116.5 282.5zM207 406q0 -94 67.5 -163t164 -69t164 68.5t67.5 163.5v143q0 94 -66.5 161.5t-165 67.5t-165 -67.5t-66.5 -161.5v-143zM260 1167 l51 64l-51 65q-39 68 4 111q72 59 123 6l35 -45l35 45q51 53 123 -6q43 -41 4 -111l-54 -65l52 -64q49 -68 -13 -118q-31 -18 -53 -19q-37 0 -59 23l-35 43l-35 -43q-22 -23 -57 -23q-27 0 -56 19q-61 53 -14 118z" />
<glyph unicode="&#xf1;" horiz-adv-x="892" d="M49 86v782q0 84 86 84q33 0 55.5 -20.5t26.5 -50.5q100 72 229 71q164 0 281 -116.5t117 -280.5v-469q0 -86 -84 -86q-86 0 -86 86v469q0 92 -66.5 159.5t-161 67.5t-161 -67.5t-66.5 -159.5v-469q0 -35 -24.5 -60.5t-59.5 -25.5q-86 0 -86 86zM49 1114q0 84 86 84h625 q84 0 84 -84q0 -86 -84 -86h-625q-86 0 -86 86z" />
<glyph unicode="&#xf2;" horiz-adv-x="870" d="M41 399v156q0 164 116.5 280.5t282.5 116.5t283 -116.5t117 -280.5v-156q0 -166 -117 -282.5t-283 -116.5t-282.5 116.5t-116.5 282.5zM176 1298q-37 68 12 117q72 41 117 -2l193 -244q47 -68 -13 -118l7 4q-25 -25 -60 -25t-59 25zM209 406q0 -94 67.5 -163t164 -69 t164 68.5t67.5 163.5v143q0 94 -66.5 161.5t-165 67.5t-165 -67.5t-66.5 -161.5v-143z" />
<glyph unicode="&#xf3;" horiz-adv-x="868" d="M31 399v156q0 164 115.5 280.5t281.5 116.5t282.5 -116.5t116.5 -280.5v-156q0 -166 -116.5 -282.5t-282.5 -116.5t-281.5 116.5t-115.5 282.5zM197 406q0 -94 67.5 -163t163.5 -69t163.5 68.5t67.5 163.5v143q0 94 -66.5 161.5t-164.5 67.5t-164.5 -67.5t-66.5 -161.5 v-143zM369 1163l188 236q20 23 56 28t63 -16q61 -49 12 -119l-184 -231q-27 -37 -68 -37q-23 0 -55 20q-57 55 -12 119z" />
<glyph unicode="&#xf4;" horiz-adv-x="876" d="M39 399v156q0 164 116.5 280.5t282.5 116.5t283 -116.5t117 -280.5v-156q0 -166 -117 -282.5t-283 -116.5t-282.5 116.5t-116.5 282.5zM127 1145l235 399q20 45 76 45q39 0 72 -39l235 -401q39 -70 -36 -121q-16 -8 -37 -8q-53 0 -72 43q-92 154 -162 274 q-72 -115 -155 -266q-54 -70 -115 -43l-12 8q-55 39 -29 109zM207 406q0 -94 67.5 -163t164 -69t164 68.5t67.5 163.5v143q0 94 -66.5 161.5t-165 67.5t-165 -67.5t-66.5 -161.5v-143z" />
<glyph unicode="&#xf5;" horiz-adv-x="880" d="M43 399v156q0 164 116.5 280.5t282.5 116.5t282 -116.5t116 -280.5v-156q0 -166 -116 -282.5t-282 -116.5t-282.5 116.5t-116.5 282.5zM90 1239q0 92 62.5 154.5t154.5 62.5t155.5 -62.5t63.5 -154.5q0 -47 47 -47q20 0 34 13.5t14 33.5q0 86 84 86q88 0 88 -86 q0 -90 -64.5 -154.5t-155.5 -64.5q-92 0 -155.5 64.5t-63.5 154.5q0 20 -13 33.5t-33.5 13.5t-34 -13t-13.5 -34q0 -86 -86 -86q-84 0 -84 86zM209 406q0 -94 67.5 -163t165.5 -69q96 0 164 68.5t68 163.5v143q0 94 -66.5 161.5t-165 67.5t-166 -67.5t-67.5 -161.5v-143z " />
<glyph unicode="&#xf6;" horiz-adv-x="878" d="M39 399v156q0 164 116.5 280.5t282.5 116.5t283 -116.5t117 -280.5v-156q0 -166 -117 -282.5t-283 -116.5t-282.5 116.5t-116.5 282.5zM207 406q0 -94 67.5 -163t164 -69t164 68.5t67.5 163.5v143q0 94 -66.5 161.5t-165 67.5t-165 -67.5t-66.5 -161.5v-143zM223 1108 v156q0 84 86 84t86 -84v-156q0 -86 -86 -86t-86 86zM494 1108v156q0 84 84 84q86 0 86 -84v-156q0 -86 -86 -86q-84 0 -84 86z" />
<glyph unicode="&#xf7;" horiz-adv-x="751" d="M25 555q0 84 84 84h532q86 0 86 -84q0 -86 -86 -86h-532q-84 0 -84 86zM291 197v79q0 84 84 84q86 0 86 -84v-79q0 -84 -86 -84q-84 0 -84 84zM291 834v77q0 86 84 86q86 0 86 -86v-77q0 -86 -86 -86q-84 0 -84 86z" />
<glyph unicode="&#xf8;" horiz-adv-x="901" d="M47 399v156q0 164 116 280.5t281 116.5q123 0 220 -65q2 2 34 43q53 53 125 -4q45 -52 0 -113l-39 -49q59 -96 60 -209v-156q0 -166 -117 -282.5t-283 -116.5q-113 0 -219 66q-4 -4 -16 -19.5t-16 -23.5q-23 -23 -60 -23q-33 0 -59 23q-18 25 -21.5 58.5t13.5 57.5 q8 10 13 17.5t10 13.5t17 18q-59 90 -59 211zM217 399q0 -31 6 -61q152 186 336 416q-53 29 -115 28q-92 0 -159.5 -67.5t-67.5 -159.5v-156zM332 199q53 -29 112 -29q94 0 162 67.5t68 161.5v156q0 35 -8 59q-53 -68 -161 -201.5t-173 -213.5z" />
<glyph unicode="&#xf9;" horiz-adv-x="876" d="M43 399v469q0 84 84 84q88 0 88 -84v-469q0 -94 65.5 -161.5t160 -67.5t162 67.5t67.5 161.5v469q0 84 84 84q86 0 86 -84v-782q0 -86 -86 -86q-80 0 -84 72q-100 -72 -230 -72q-164 0 -280.5 116.5t-116.5 282.5zM176 1298q-37 68 12 117q72 41 117 -2l193 -244 q47 -68 -13 -118l7 4q-25 -25 -60 -25t-59 25z" />
<glyph unicode="&#xfa;" horiz-adv-x="876" d="M35 399v469q0 84 86 84q37 0 61.5 -24.5t24.5 -59.5v-469q0 -94 66.5 -161.5t160.5 -67.5t161 67.5t67 161.5v469q0 84 86 84q84 0 83 -84v-782q0 -86 -83 -86q-82 0 -86 72q-100 -72 -228 -72q-166 0 -282.5 116.5t-116.5 282.5zM371 1163l188 236q20 23 56 28t63 -16 q61 -49 12 -119l-184 -231q-27 -37 -68 -37q-23 0 -55 20q-57 55 -12 119z" />
<glyph unicode="&#xfb;" horiz-adv-x="882" d="M41 399v469q0 84 86 84q84 0 84 -84v-469q0 -94 67.5 -161.5t161.5 -67.5q92 0 160 67.5t68 161.5v469q0 84 84 84q88 0 88 -84v-782q0 -86 -88 -86q-78 0 -84 72q-96 -72 -228 -72q-166 0 -282.5 116.5t-116.5 282.5zM127 1145l235 399q20 45 76 45q39 0 72 -39 l235 -401q39 -70 -36 -121q-16 -8 -37 -8q-53 0 -72 43q-92 154 -162 274q-72 -115 -155 -266q-54 -70 -115 -43l-12 8q-55 39 -29 109z" />
<glyph unicode="&#xfc;" horiz-adv-x="884" d="M43 399v469q0 84 86 84q84 0 84 -84v-469q0 -94 67.5 -161.5t162 -67.5t160 67.5t65.5 161.5v469q0 84 86 84t86 -84v-782q0 -86 -86 -86q-80 0 -86 72q-96 -72 -226 -72q-166 0 -282.5 116.5t-116.5 282.5zM223 1108v156q0 84 86 84t86 -84v-156q0 -86 -86 -86t-86 86z M494 1108v156q0 84 84 84q86 0 86 -84v-156q0 -86 -86 -86q-84 0 -84 86z" />
<glyph unicode="&#xfd;" horiz-adv-x="876" d="M35 -74q0 86 86 86q35 0 59.5 -25.5t24.5 -60.5q0 -92 66.5 -159.5t160.5 -67.5q96 0 164 66.5t68 160.5v152q-113 -78 -232 -78q-164 0 -280.5 116.5t-116.5 280.5v471q0 84 86 84q35 0 59.5 -24.5t24.5 -59.5v-471q0 -94 66.5 -161.5t160.5 -67.5q98 0 165 67.5 t67 161.5v471q-1 84 81 84q33 0 61 -24.5t28 -59.5v-942q0 -162 -119 -278.5t-283 -116.5t-280.5 116.5t-116.5 278.5zM391 1163l189 236q20 23 56 28t62 -16q61 -49 13 -119l-185 -231q-26 -37 -67 -37q-23 0 -56 20q-57 55 -12 119z" />
<glyph unicode="&#xfe;" horiz-adv-x="872" d="M51 -150v1250q0 86 84 86q37 0 60.5 -22.5t23.5 -63.5v-221q103 73 232 73q164 0 280.5 -116.5t116.5 -280.5v-156q0 -166 -117 -282.5t-280 -116.5q-131 0 -232 74v-224q0 -35 -23.5 -59t-60.5 -24q-35 0 -59.5 24.5t-24.5 58.5zM221 399q0 -94 67.5 -161.5t162 -67.5 t160 67.5t65.5 161.5v156q0 92 -66.5 159.5t-158.5 67.5q-94 0 -162 -67.5t-68 -159.5v-156z" />
<glyph unicode="&#xff;" horiz-adv-x="886" d="M43 -74q0 86 84 86q37 0 61.5 -25.5t24.5 -60.5q0 -92 66.5 -159.5t160.5 -67.5q96 0 163 66.5t67 160.5v152q-113 -78 -230 -78q-164 0 -280.5 116.5t-116.5 280.5v471q0 84 84 84q37 0 61.5 -24.5t24.5 -59.5v-471q0 -94 66.5 -161.5t160.5 -67.5q96 0 163 67.5 t67 161.5v471q0 84 84 84q33 0 60.5 -24.5t27.5 -59.5v-942q0 -162 -119 -278.5t-283 -116.5t-280.5 116.5t-116.5 278.5zM223 1108v156q0 84 86 84t86 -84v-156q0 -86 -86 -86t-86 86zM494 1108v156q0 84 84 84q86 0 86 -84v-156q0 -86 -86 -86q-84 0 -84 86z" />
<glyph unicode="&#x152;" horiz-adv-x="2377" d="M47 606v260q0 258 180 426h-2q178 180 432 181q257 -1 435 -181h-2q180 -168 180 -426v-260q0 -258 -180 -426h2q-178 -180 -435 -180q-254 0 -432 180h2q-180 168 -180 426zM211 621q0 -186 139 -322q119 -125 307 -125q184 0 310 125q139 135 139 322v231 q0 187 -139 322q-125 125 -310 124q-188 0 -307 -124q-139 -135 -139 -322v-231zM1118 606v260q0 127 45 232q47 111 134 197.5t196 129.5h-2q111 47 235 48q123 0 234 -48h-2q111 -43 199 -131q80 -80 129 -196v2q47 -117 47 -234q0 -90 -86 -90h-953v-170 q0 -133 73 -238.5t192 -156.5q82 -35 167 -35q131 0 236.5 71.5t157.5 186.5q27 68 88 68q88 0 88 -84q0 -23 -12 -49q-47 -109 -127 -193q-177 -176 -431 -176q-131 0 -235 45q-109 45 -196 132t-132 196q-45 104 -45 233zM1307 952h837q-37 147 -154 246.5t-264 99.5 q-127 0 -230 -67.5t-159 -183.5q-25 -53 -30 -95z" />
<glyph unicode="&#x153;" horiz-adv-x="2199" d="M481 406v161q0 166 116 286t279.5 120t279.5 -120t116 -286v-161q0 -168 -116 -287t-279.5 -119t-279.5 119t-116 287zM647 416q0 -100 65.5 -170t164 -70t163 69.5t64.5 170.5v143q0 100 -64.5 169t-163 69t-164 -69t-65.5 -169v-143zM1139 397v158q0 123 66.5 221 t176.5 144h-2q72 33 156 32q123 0 221 -67.5t144 -175.5q33 -66 32 -154q0 -35 -24 -61q-25 -25 -60 -25h-540v-72q0 -145 139 -211q41 -18 88 -18q92 0 162 70q29 29 49 71q10 23 16 30t21.5 15t42.5 8q84 0 84 -79q0 -20 -8 -31q-35 -86 -86 -137q-115 -115 -281 -115 q-123 0 -221 66.5t-148 175.5q-29 76 -28 155zM1325 637h422q-29 68 -86 106.5t-125 38.5q-137 0 -203 -129z" />
<glyph unicode="&#x178;" horiz-adv-x="1271" d="M35 1393q4 37 22 57q23 14 70 12t63 -28q102 -125 164 -205q16 -20 75.5 -96t92.5 -115q27 -35 84 -100q8 -8 35 -41q33 39 51 65q10 14 103 129h-2q72 88 147 184q127 160 154 193q20 20 56 20t67 -18q16 -27 19 -60.5t-11 -60.5q-31 -39 -91.5 -116.5t-93.5 -116.5v2 q-23 -29 -68.5 -86.5t-70.5 -85.5q-16 -18 -94 -117q-18 -23 -45 -56.5t-37 -45.5v-621q0 -86 -86 -86q-90 0 -90 86v619q-4 6 -135 169q-16 18 -80 97.5t-96 120.5q-70 90 -152 188l-39 51q-16 25 -12 62zM453 1612v162q0 88 86 88q90 0 90 -88v-162q0 -88 -90 -88 q-86 0 -86 88zM766 1612v162q0 88 88 88q90 0 90 -88v-162q0 -88 -90 -88q-88 0 -88 88z" />
<glyph unicode="&#x2c6;" horiz-adv-x="745" d="M70 981q41 74 121.5 210t109.5 185q20 45 76 45q39 0 72 -39l235 -401q39 -70 -37 -121q-18 -8 -37 -8q-53 0 -71 43q-92 154 -162 274q-23 -37 -76 -129t-84 -141q-31 -72 -113 -39l-10 8q-72 47 -24 113z" />
<glyph unicode="&#x2dc;" horiz-adv-x="774" d="M35 1180q0 92 63.5 154.5t155.5 62.5t154.5 -62.5t62.5 -154.5q0 -20 14.5 -33.5t35 -13.5t33.5 13t13 34q0 86 86 86q84 0 84 -86q0 -92 -62.5 -155.5t-154.5 -63.5q-90 0 -154.5 64.5t-64.5 154.5q0 20 -13.5 33.5t-34 13.5t-33.5 -13.5t-13 -33.5q0 -86 -86 -86 t-86 86z" />
<glyph unicode="&#x2000;" horiz-adv-x="1067" />
<glyph unicode="&#x2001;" horiz-adv-x="2134" />
<glyph unicode="&#x2002;" horiz-adv-x="1067" />
<glyph unicode="&#x2003;" horiz-adv-x="2134" />
<glyph unicode="&#x2004;" horiz-adv-x="711" />
<glyph unicode="&#x2005;" horiz-adv-x="533" />
<glyph unicode="&#x2006;" horiz-adv-x="355" />
<glyph unicode="&#x2007;" horiz-adv-x="355" />
<glyph unicode="&#x2008;" horiz-adv-x="266" />
<glyph unicode="&#x2009;" horiz-adv-x="426" />
<glyph unicode="&#x200a;" horiz-adv-x="118" />
<glyph unicode="&#x2010;" d="M49 555q0 84 88 84h531q84 0 84 -84q0 -86 -84 -86h-531q-88 0 -88 86z" />
<glyph unicode="&#x2011;" d="M49 555q0 84 88 84h531q84 0 84 -84q0 -86 -84 -86h-531q-88 0 -88 86z" />
<glyph unicode="&#x2012;" d="M49 555q0 84 88 84h531q84 0 84 -84q0 -86 -84 -86h-531q-88 0 -88 86z" />
<glyph unicode="&#x2013;" d="M49 555q0 84 88 84h531q84 0 84 -84q0 -86 -84 -86h-531q-88 0 -88 86z" />
<glyph unicode="&#x2014;" horiz-adv-x="980" d="M49 555q0 84 88 84h711q84 0 84 -84q0 -86 -84 -86h-711q-88 0 -88 86z" />
<glyph unicode="&#x2018;" horiz-adv-x="382" d="M47 946v166q0 59 42 101t101.5 42t102.5 -42t43 -101t-43 -102t-103 -43h-20v-21q0 -22 20 -22q16 0 21 12q41 41 82 17.5t24 -74.5q-49 -78 -127 -78q-59 0 -101 43t-42 102zM170 1112q0 -22 20 -22q23 0 23 22q0 20 -23 21q-20 0 -20 -21zM182 1126q0 -8 6 -8q8 0 9 8 q-1 7 -9 7q-6 0 -6 -7z" />
<glyph unicode="&#x2019;" horiz-adv-x="382" d="M47 1108q0 59 43 101t102.5 42t101.5 -42t42 -101v-166q0 -59 -42 -102t-101 -43q-78 0 -127 77q-20 51 22.5 75t83.5 -17q5 -12 21 -12q20 0 20 22v21h-20q-59 0 -102.5 43t-43.5 102zM170 1108q0 -23 23 -23q20 0 20 23q0 20 -20 20q-23 0 -23 -20zM186 1122q1 6 9 6 q6 0 6 -6q0 -8 -6 -8q-8 0 -9 8z" />
<glyph unicode="&#x201a;" horiz-adv-x="382" d="M47 149.5q0 59.5 43 101.5t102.5 42t101.5 -42t42 -101v-166q0 -59 -42 -102.5t-101 -43.5q-78 0 -127 78q-20 51 22.5 74.5t83.5 -17.5q5 -12 21 -12q20 0 20 23v20h-20q-59 0 -102.5 43t-43.5 102.5zM170 150q0 -23 23 -23q20 0 20 23q0 20 -20 20q-23 0 -23 -20z M186 164q1 6 9 6q6 0 6 -6q0 -8 -6 -8q-8 0 -9 8z" />
<glyph unicode="&#x201c;" d="M49 946v166q0 59 42 101t101.5 42t102.5 -42t43 -101t-43 -102t-102 -43h-21v-21q1 -22 21 -22q16 0 20 12q41 41 82 17.5t24 -74.5q-49 -78 -126 -78q-59 0 -101.5 43t-42.5 102zM172 1112q1 -22 21 -22q23 0 22 22q0 20 -22 21q-20 0 -21 -21zM184 1126q0 -8 6 -8 q8 0 9 8q-1 7 -9 7q-6 0 -6 -7zM459 946v166q0 59 42 101t101.5 42t102.5 -42t43 -101t-43 -102t-103 -43h-20v-21q0 -22 20 -22q16 0 21 12q41 41 81.5 17.5t24.5 -74.5q-49 -78 -127 -78q-59 0 -101 43t-42 102zM582 1112q0 -22 20 -22q23 0 23 22q0 20 -23 21 q-20 0 -20 -21zM594 1126q0 -8 6 -8q8 0 8 8q0 7 -8 7q-6 0 -6 -7z" />
<glyph unicode="&#x201d;" d="M53 1112q0 59 43 101t102.5 42t101.5 -42t42 -101v-166q0 -59 -42 -102t-101 -43q-78 0 -127 78q-20 51 22.5 74.5t83.5 -17.5q5 -12 21 -12q20 0 20 22v21h-20q-59 0 -102.5 43t-43.5 102zM176 1112q0 -22 23 -22q20 0 20 22q0 20 -20 21q-23 0 -23 -21zM193 1126 q0 7 8 7q6 0 6 -7q0 -8 -6 -8q-8 0 -8 8zM463 1112q0 59 43 101t102.5 42t101.5 -42t42 -101v-166q0 -59 -42 -102t-102 -43q-78 0 -127 78q-20 51 23 74.5t84 -17.5q4 -12 20 -12q20 0 21 22v21h-21q-59 0 -102 43t-43 102zM586 1112q-1 -22 22 -22q20 0 21 22q0 20 -21 21 q-23 0 -22 -21zM602 1126q0 7 8 7q6 0 6 -7q0 -8 -6 -8q-8 0 -8 8z" />
<glyph unicode="&#x201e;" d="M53 149.5q0 59.5 43 101.5t102.5 42t101.5 -42t42 -101v-166q0 -59 -42 -102.5t-101 -43.5q-78 0 -127 78q-20 51 22.5 74.5t83.5 -17.5q5 -12 21 -12q20 0 20 23v20h-20q-59 0 -102.5 43t-43.5 102.5zM176 150q0 -23 23 -23q20 0 20 23q0 20 -20 20q-23 0 -23 -20z M463 149.5q0 59.5 43 101.5t102.5 42t101.5 -42t42 -101v-166q0 -59 -42 -102.5t-102 -43.5q-78 0 -127 78q-20 51 23 74.5t84 -17.5q4 -12 20 -12q20 0 21 23v20h-21q-59 0 -102 43t-43 102.5zM586 150q-1 -23 22 -23q20 0 21 23q0 20 -21 20q-23 0 -22 -20z" />
<glyph unicode="&#x2022;" horiz-adv-x="370" d="M45 698.5q0 67.5 37 104.5t102 37q68 0 105 -37t37 -104.5t-37 -104.5t-105 -37q-66 0 -102.5 37t-36.5 104.5zM162 700q-1 -22 22 -22q20 0 21 22q0 20 -21 21q-23 0 -22 -21z" />
<glyph unicode="&#x2026;" horiz-adv-x="1157" d="M49 161.5q0 67.5 37 104.5t102 37q68 0 105 -37t37 -104.5t-37 -104.5t-105 -37q-66 0 -102.5 37t-36.5 104.5zM166 164q-1 -23 22 -23q20 0 21 23q0 20 -21 20q-23 0 -22 -20zM438 161.5q0 67.5 37 104.5t103 37q68 0 104.5 -37t36.5 -104.5t-36.5 -104.5t-104.5 -37 q-66 0 -103 37t-37 104.5zM555 164q0 -23 23 -23q20 0 20 23q0 20 -20 20q-23 0 -23 -20zM827 161.5q0 67.5 37 104.5t103 37q68 0 104.5 -37t36.5 -104.5t-36.5 -104.5t-104.5 -37q-66 0 -103 37t-37 104.5zM944 164q0 -23 23 -23q20 0 20 23q0 20 -20 20q-23 0 -23 -20z " />
<glyph unicode="&#x202f;" horiz-adv-x="426" />
<glyph unicode="&#x2039;" horiz-adv-x="518" d="M43 651q-27 45 0 90q41 72 118 213.5t118 214.5q26 45 75 45q29 0 47 -18q55 -43 27 -113l-211 -387q72 -113 229 -350l-2 2q51 -70 -20 -119q-70 -51 -119 23z" />
<glyph unicode="&#x203a;" horiz-adv-x="518" d="M74 1077l2 -2q-51 70 18.5 119t118.5 -23l260 -399q31 -49 2 -90q-152 -274 -237 -428q-21 -43 -74 -43q-31 0 -47 16q-55 41 -27 115l213 385q-158 238 -229 350z" />
<glyph unicode="&#x205f;" horiz-adv-x="533" />
<glyph unicode="&#x20ac;" horiz-adv-x="1226" d="M33 578q0 84 86 84h133v100h-133q-86 0 -86 84q0 86 86 86h135q6 98 76 231v-2q96 178 268 238q80 25 133 24q145 0 264 -100t170 -254l-2 6q35 -74 -45 -112q-92 -31 -114 53q-39 98 -114 166.5t-159 68.5q-47 0 -78 -14q-203 -72 -229 -305h383q84 0 84 -86 q0 -84 -84 -84h-385v-100h385q84 0 84 -84q0 -86 -84 -86h-383q27 -238 229 -310q39 -12 76 -12q90 0 163 68.5t112 173.5q39 80 114 47q76 -37 45 -111l2 6q-51 -150 -169.5 -252t-264.5 -102q-57 0 -135 23q-166 61 -266 235q-70 119 -76 234h-135q-86 0 -86 86z" />
<glyph unicode="&#x2122;" horiz-adv-x="948" d="M41 868q0 63 61 64h385q41 0 54 -33q20 -33 38.5 -62.5t43 -67.5t41.5 -64q29 49 118 192q14 43 64 33q51 -8 51 -62v-293q0 -61 -61.5 -61t-61.5 61v60l-59 -90v2q-18 -33 -51 -33q-41 0 -56 31q-33 45 -59 90v-60q0 -61 -61.5 -61t-61.5 61v232h-88v-232 q0 -61 -61.5 -61t-61.5 61v232h-113q-61 0 -61 61z" />
<glyph unicode="&#x25fc;" horiz-adv-x="952" d="M0 0v952h952v-952h-952z" />
<glyph unicode="&#xfb01;" horiz-adv-x="880" d="M49 84v940q0 166 118 281.5t284 115.5q164 0 279.5 -115.5t115.5 -281.5q0 -84 -84 -84q-86 0 -86 84q0 94 -66.5 160.5t-158.5 66.5q-96 0 -164 -66.5t-68 -160.5v-72h356q41 0 62.5 -23.5t21.5 -60.5v-784q0 -35 -23.5 -59.5t-60.5 -24.5q-35 0 -59 24.5t-24 59.5v698 h-273v-698q0 -23 -85 -23t-85 23z" />
<glyph unicode="&#xfb02;" horiz-adv-x="894" d="M49 84v940q0 166 118 281.5t284 115.5q164 0 279.5 -115.5t115.5 -281.5l-2 -961q0 -27 -24.5 -45t-59.5 -18q-37 0 -61.5 18.5t-24.5 44.5q0 874 2 965v2q-4 92 -69.5 156.5t-155.5 64.5q-96 0 -164 -66.5t-68 -160.5v-387h232q82 0 81 -82q0 -37 -22.5 -61.5 t-58.5 -24.5h-232v-385q0 -37 -21.5 -60.5t-62.5 -23.5q-35 0 -60.5 24.5t-25.5 59.5z" />
</font>
</defs>
</svg>
